<svg xmlns="http://www.w3.org/2000/svg" width="134" height="132" viewBox="0 0 134 132">
  <g id="Grupo_3" data-name="Grupo 3" transform="translate(-21.665 -17.676)">
    <text id="_" data-name="+" transform="translate(92.665 104.676)" fill="#ff6b00" font-size="20" font-family="Montserrat-Bold, Montserrat" font-weight="700"><tspan x="-5.99" y="0">+</tspan></text>
    <text id="_2" data-name="+" transform="translate(32.665 120.676)" fill="#ff6b00" font-size="20" font-family="Montserrat-Bold, Montserrat" font-weight="700"><tspan x="-5.99" y="0">+</tspan></text>
    <text id="_3" data-name="+" transform="translate(112.665 36.676)" fill="#ff6b00" font-size="20" font-family="Montserrat-Bold, Montserrat" font-weight="700"><tspan x="-5.99" y="0">+</tspan></text>
    <circle id="Elipse_1" data-name="Elipse 1" cx="4" cy="4" r="4" transform="translate(22.665 39.676)" fill="#ff6b00"/>
    <circle id="Elipse_2" data-name="Elipse 2" cx="4" cy="4" r="4" transform="translate(49.665 132.676)" fill="#ff6b00"/>
    <circle id="Elipse_5" data-name="Elipse 5" cx="4" cy="4" r="4" transform="translate(125.665 128.676)" fill="#ff6b00"/>
    <circle id="Elipse_6" data-name="Elipse 6" cx="10" cy="10" r="10" transform="translate(62.665 27.676)" fill="#ff6b00" opacity="0.1"/>
    <circle id="Elipse_7" data-name="Elipse 7" cx="10" cy="10" r="10" transform="translate(125.665 93.676)" fill="#ff6b00" opacity="0.1"/>
    <circle id="Elipse_11" data-name="Elipse 11" cx="7" cy="7" r="7" transform="translate(141.665 19.676)" fill="#ff6b00" opacity="0.1"/>
    <circle id="Elipse_12" data-name="Elipse 12" cx="7" cy="7" r="7" transform="translate(21.665 135.676)" fill="#ff6b00" opacity="0.1"/>
    <circle id="Elipse_8" data-name="Elipse 8" cx="10" cy="10" r="10" transform="translate(59.665 122.676)" fill="#ff6b00" opacity="0.1"/>
    <g id="Elipse_3" data-name="Elipse 3" transform="translate(121.665 89.676)" fill="none" stroke="#ff6b00" stroke-width="2">
      <circle cx="4" cy="4" r="4" stroke="none"/>
      <circle cx="4" cy="4" r="3" fill="none"/>
    </g>
    <g id="Elipse_4" data-name="Elipse 4" transform="translate(28.665 69.676)" fill="none" stroke="#ff6b00" stroke-width="2">
      <circle cx="4" cy="4" r="4" stroke="none"/>
      <circle cx="4" cy="4" r="3" fill="none"/>
    </g>
  </g>
</svg>
