<svg xmlns="http://www.w3.org/2000/svg" width="47.788" height="64.431" viewBox="0 0 47.788 64.431">
  <g id="Grupo_4" data-name="Grupo 4" transform="translate(-53.929 -44)">
    <path id="Icon_awesome-hand-point-right" data-name="Icon awesome-hand-point-right" d="M61.431,15.822a5.259,5.259,0,0,1-5.225,5.112H44.56a5.737,5.737,0,0,1-.735,8.275,5.343,5.343,0,0,1-1.919,7.268c1.047,5.732-2.56,8.312-8.468,8.312-.32,0-1.548-.024-1.866-.023-7.228.02-8.968-3.623-14.431-4.469a2.8,2.8,0,0,1-2.364-2.765V17.526h0a5.6,5.6,0,0,1,3.32-5.114C21.467,10.9,29.226,6.692,30.64,3.393A4.971,4.971,0,0,1,35.305,0a5.6,5.6,0,0,1,5.146,7.8A15.853,15.853,0,0,1,38.8,10.71H56.206a5.344,5.344,0,0,1,5.225,5.112ZM11.2,15.862V38.256a2.8,2.8,0,0,1-2.8,2.8H2.8a2.8,2.8,0,0,1-2.8-2.8V15.862a2.8,2.8,0,0,1,2.8-2.8H8.4A2.8,2.8,0,0,1,11.2,15.862ZM7.931,35.457A2.333,2.333,0,1,0,5.6,37.79,2.333,2.333,0,0,0,7.931,35.457Z" transform="translate(55 107.36) rotate(-90)" fill="#fff"/>
    <path id="Icon_awesome-hand-point-right-2" data-name="Icon awesome-hand-point-right" d="M61.431,15.822a5.259,5.259,0,0,1-5.225,5.112H44.56a5.737,5.737,0,0,1-.735,8.275,5.343,5.343,0,0,1-1.919,7.268c1.047,5.732-2.56,8.312-8.468,8.312-.32,0-1.548-.024-1.866-.023-7.228.02-8.968-3.623-14.431-4.469a2.8,2.8,0,0,1-2.364-2.765V17.526h0a5.6,5.6,0,0,1,3.32-5.114C21.467,10.9,29.226,6.692,30.64,3.393A4.971,4.971,0,0,1,35.305,0a5.6,5.6,0,0,1,5.146,7.8A15.853,15.853,0,0,1,38.8,10.71H56.206a5.344,5.344,0,0,1,5.225,5.112ZM11.2,15.862V38.256a2.8,2.8,0,0,1-2.8,2.8H2.8a2.8,2.8,0,0,1-2.8-2.8V15.862a2.8,2.8,0,0,1,2.8-2.8H8.4A2.8,2.8,0,0,1,11.2,15.862ZM7.931,35.457A2.333,2.333,0,1,0,5.6,37.79,2.333,2.333,0,0,0,7.931,35.457Z" transform="translate(55.429 106.931) rotate(-90)" fill="none" stroke="#404040" stroke-width="3"/>
  </g>
</svg>
