<svg xmlns="http://www.w3.org/2000/svg" width="123.995" height="123.995" viewBox="0 0 123.995 123.995">
  <g id="Grupo_56016" data-name="Grupo 56016" transform="translate(-432.5 -4545.5)">
    <path id="Trazado_105604" data-name="Trazado 105604" d="M138.789,393.627a60,60,0,1,1-60-60A60,60,0,0,1,138.789,393.627Z" transform="translate(415.706 4213.872)" fill="#fff" stroke="#00cca7" stroke-width="4"/>
    <g id="Grupo_56001" data-name="Grupo 56001" transform="translate(-1998.471 4110.798)">
      <path id="Trazado_105662" data-name="Trazado 105662" d="M0,0H26.991V57.747H0Z" transform="translate(2479.476 476.011)" fill="#06ad8f"/>
      <rect id="Rectángulo_30892" data-name="Rectángulo 30892" width="40.015" height="2.373" transform="translate(2472.964 473.638)" fill="#00cca7"/>
      <rect id="Rectángulo_30893" data-name="Rectángulo 30893" width="40.015" height="1.195" transform="translate(2472.964 473.638)" fill="#66fdde" style="mix-blend-mode: screen;isolation: isolate"/>
      <rect id="Rectángulo_30894" data-name="Rectángulo 30894" width="40.015" height="2.375" transform="translate(2472.964 471.263)" fill="#00cca7"/>
      <rect id="Rectángulo_30895" data-name="Rectángulo 30895" width="40.015" height="1.188" transform="translate(2472.964 472.45)" fill="#e9e9e9" style="mix-blend-mode: multiply;isolation: isolate"/>
      <path id="Trazado_105634" data-name="Trazado 105634" d="M2508.624,461.789a16.083,16.083,0,0,0-16.083,16.084h32.168A16.084,16.084,0,0,0,2508.624,461.789Z" transform="translate(-15.652 -6.61)" fill="#06ad8f"/>
      <path id="Trazado_105635" data-name="Trazado 105635" d="M2530.558,451.2a2.888,2.888,0,0,0-2.887,2.888h5.775A2.889,2.889,0,0,0,2530.558,451.2Z" transform="translate(-37.587 0)" fill="#06ad8f"/>
      <rect id="Rectángulo_30896" data-name="Rectángulo 30896" width="7.832" height="1.617" transform="translate(2489.056 454.09)" fill="#1e866f"/>
      <path id="Trazado_105636" data-name="Trazado 105636" d="M2528.552,543.436a10.278,10.278,0,1,1-10.278-10.278A10.277,10.277,0,0,1,2528.552,543.436Z" transform="translate(-25.303 -51.172)" fill="#1e866f"/>
      <path id="Trazado_105637" data-name="Trazado 105637" d="M2532,552.081a5.078,5.078,0,1,1-5.079-5.077A5.079,5.079,0,0,1,2532,552.081Z" transform="translate(-33.946 -59.817)" fill="#06ad8f"/>
      <path id="Trazado_105638" data-name="Trazado 105638" d="M2528.776,558.778l-1.521-2.637,1.521-2.635h3.045l1.521,2.635-1.521,2.637Z" transform="translate(-37.327 -63.876)" fill="#1e866f"/>
      <path id="Trazado_105639" data-name="Trazado 105639" d="M2476.454,553.134l8.63,1.726v-17.1l-8.63,1.726Z" transform="translate(-5.608 -54.042)" fill="#1e866f"/>
      <path id="Trazado_105640" data-name="Trazado 105640" d="M2476.454,542.817V544.2l8.63-1.726v-1.383Z" transform="translate(-5.608 -56.125)" fill="#66fdde" style="mix-blend-mode: screen;isolation: isolate"/>
      <path id="Trazado_105641" data-name="Trazado 105641" d="M2579.916,539.481l-8.63-1.726v17.1l8.63-1.726Z" transform="translate(-64.82 -54.042)" fill="#1e866f"/>
      <path id="Trazado_105664" data-name="Trazado 105664" d="M0,0H1.1V7.375H0Z" transform="translate(2469.747 488.578)" fill="#06ad8f"/>
      <rect id="Rectángulo_30898" data-name="Rectángulo 30898" width="2.275" height="4.315" transform="translate(2467.472 490.108)" fill="#1e866f"/>
      <path id="Trazado_105665" data-name="Trazado 105665" d="M0,0H1.1V7.375H0Z" transform="translate(2515.097 488.578)" fill="#06ad8f"/>
      <rect id="Rectángulo_30900" data-name="Rectángulo 30900" width="2.276" height="4.315" transform="translate(2516.195 490.108)" fill="#1e866f"/>
      <path id="Trazado_105642" data-name="Trazado 105642" d="M2485.058,560.521h-8.6v6.827l8.6,1.721Z" transform="translate(-5.608 -68.257)" fill="#e9e9e9" style="mix-blend-mode: multiply;isolation: isolate"/>
      <rect id="Rectángulo_30901" data-name="Rectángulo 30901" width="26.991" height="2.668" transform="translate(2479.476 476.011)" fill="#e9e9e9" style="mix-blend-mode: multiply;isolation: isolate"/>
      <rect id="Rectángulo_30902" data-name="Rectángulo 30902" width="27.017" height="1.099" transform="translate(2479.476 519.556)" fill="#1e866f"/>
      <path id="Trazado_105643" data-name="Trazado 105643" d="M2520.756,675.127a4.159,4.159,0,0,0-4.157-4.139h-35.779a4.156,4.156,0,0,0-4.156,4.139s0,4.177,0,4.177h44.095Z" transform="translate(-5.738 -137.23)" fill="#06ad8f"/>
      <path id="Trazado_105644" data-name="Trazado 105644" d="M2504.9,642.11a1.119,1.119,0,0,0-1.118,1.118v9.8h2.237v-9.8A1.118,1.118,0,0,0,2504.9,642.11Z" transform="translate(-22.672 -119.199)" fill="#1e866f"/>
      <path id="Trazado_105645" data-name="Trazado 105645" d="M2528.04,642.11a1.118,1.118,0,0,0-1.119,1.118v9.8h2.237v-9.8A1.119,1.119,0,0,0,2528.04,642.11Z" transform="translate(-37.119 -119.199)" fill="#1e866f"/>
      <path id="Trazado_105646" data-name="Trazado 105646" d="M2516.471,642.11a1.117,1.117,0,0,0-1.117,1.118v9.8h2.235v-9.8A1.118,1.118,0,0,0,2516.471,642.11Z" transform="translate(-29.897 -119.199)" fill="#1e866f"/>
      <path id="Trazado_105647" data-name="Trazado 105647" d="M2539.608,642.11a1.117,1.117,0,0,0-1.118,1.118v9.8h2.236v-9.8A1.118,1.118,0,0,0,2539.608,642.11Z" transform="translate(-44.343 -119.199)" fill="#1e866f"/>
      <path id="Trazado_105648" data-name="Trazado 105648" d="M2562.744,642.11a1.118,1.118,0,0,0-1.119,1.118v9.8h2.237v-9.8A1.118,1.118,0,0,0,2562.744,642.11Z" transform="translate(-58.787 -119.199)" fill="#1e866f"/>
      <path id="Trazado_105649" data-name="Trazado 105649" d="M2551.176,642.11a1.118,1.118,0,0,0-1.119,1.118v9.8h2.235v-9.8A1.117,1.117,0,0,0,2551.176,642.11Z" transform="translate(-51.565 -119.199)" fill="#1e866f"/>
      <path id="Trazado_105650" data-name="Trazado 105650" d="M2571.286,569.074l8.631-1.726v-6.827h-8.631Z" transform="translate(-64.82 -68.257)" fill="#e9e9e9" style="mix-blend-mode: multiply;isolation: isolate"/>
      <path id="Trazado_105651" data-name="Trazado 105651" d="M2573.876,538.272l-2.59-.516v17.1l2.59-.518Z" transform="translate(-64.82 -54.042)" fill="#e9e9e9" style="mix-blend-mode: multiply;isolation: isolate"/>
      <path id="Trazado_105652" data-name="Trazado 105652" d="M2518.274,570.8a10.278,10.278,0,0,0,10.278-10.279H2508A10.277,10.277,0,0,0,2518.274,570.8Z" transform="translate(-25.303 -68.257)" fill="#e9e9e9" style="mix-blend-mode: multiply;isolation: isolate"/>
      <path id="Trazado_105663" data-name="Trazado 105663" d="M0,0H44.1V4.177H0Z" transform="translate(2470.923 537.897)" fill="#e9e9e9" style="mix-blend-mode: multiply;isolation: isolate"/>
      <rect id="Rectángulo_30904" data-name="Rectángulo 30904" width="1.725" height="1.255" transform="translate(2474.298 470.009)" fill="#1e866f"/>
      <path id="Trazado_105653" data-name="Trazado 105653" d="M2506.069,485.848a16.67,16.67,0,0,1,2.494-9.233,1.389,1.389,0,0,0-.292-1.835,1.312,1.312,0,0,0-1.868.493,19.209,19.209,0,0,0-2.875,10.575Z" transform="translate(-22.511 -14.585)" fill="#66fdde" style="mix-blend-mode: screen;isolation: isolate"/>
      <path id="Trazado_105654" data-name="Trazado 105654" d="M2555.906,485.848a16.65,16.65,0,0,0-2.494-9.233,1.388,1.388,0,0,1,.293-1.835,1.309,1.309,0,0,1,1.866.493,19.2,19.2,0,0,1,2.877,10.575Z" transform="translate(-53.522 -14.585)" fill="#66fdde" style="mix-blend-mode: screen;isolation: isolate"/>
      <rect id="Rectángulo_30905" data-name="Rectángulo 30905" width="1.726" height="1.255" transform="translate(2509.919 470.009)" fill="#1e866f"/>
      <rect id="Rectángulo_30906" data-name="Rectángulo 30906" width="1.726" height="1.255" transform="translate(2481.423 470.009)" fill="#1e866f"/>
      <rect id="Rectángulo_30907" data-name="Rectángulo 30907" width="1.726" height="1.255" transform="translate(2488.547 470.009)" fill="#1e866f"/>
      <rect id="Rectángulo_30908" data-name="Rectángulo 30908" width="1.726" height="1.255" transform="translate(2495.67 470.009)" fill="#1e866f"/>
      <rect id="Rectángulo_30909" data-name="Rectángulo 30909" width="1.725" height="1.255" transform="translate(2502.795 470.009)" fill="#1e866f"/>
      <path id="Trazado_105655" data-name="Trazado 105655" d="M2520.152,538.078v-1.907a9.147,9.147,0,0,0-9.148,9.146h1.909A7.24,7.24,0,0,1,2520.152,538.078Z" transform="translate(-27.181 -53.053)" fill="#66fdde" style="mix-blend-mode: screen;isolation: isolate"/>
      <path id="Trazado_105656" data-name="Trazado 105656" d="M2535.358,567.763v1.907a9.146,9.146,0,0,0,9.147-9.147H2542.6A7.24,7.24,0,0,1,2535.358,567.763Z" transform="translate(-42.387 -68.258)" fill="#1e866f" style="mix-blend-mode: multiply;isolation: isolate"/>
      <path id="Trazado_105657" data-name="Trazado 105657" d="M2482.886,674.294a2.916,2.916,0,0,0-2.915,2.917h2.915Z" transform="translate(-7.805 -139.294)" fill="#66fdde" style="mix-blend-mode: screen;isolation: isolate"/>
      <path id="Trazado_105658" data-name="Trazado 105658" d="M2531.481,452.681a2.333,2.333,0,0,0-2.332,2.333h2.332Z" transform="translate(-38.51 -0.923)" fill="#df625d" style="mix-blend-mode: screen;isolation: isolate"/>
      <path id="Trazado_105659" data-name="Trazado 105659" d="M2533.244,474.562a1.271,1.271,0,0,0-1.272,1.27s0,10.016,0,10.016h2.542V475.832A1.27,1.27,0,0,0,2533.244,474.562Z" transform="translate(-40.273 -14.586)" fill="#66fdde" style="mix-blend-mode: screen;isolation: isolate"/>
      <path id="Trazado_105660" data-name="Trazado 105660" d="M2558.583,490.108v-1.529h-1.1v-3.139l-8.631-1.726v-7.7h6.512v-4.747h-1.334v-1.255h-1.725v1.255h-.863a16.078,16.078,0,0,0-12.168-15.585V454.09h-1.029a2.889,2.889,0,0,0-2.888-2.888v90.872h22.047V537.9a4.159,4.159,0,0,0-4.157-4.139h-4.395V500.817l8.631-1.726v-3.139h1.1v-1.53h2.276v-4.315Z" transform="translate(-42.387 0)" fill="#e9e9e9" style="mix-blend-mode: multiply;isolation: isolate"/>
      <path id="Trazado_105661" data-name="Trazado 105661" d="M2579.916,573.061v-1.383l-8.63,1.726v1.383Z" transform="translate(-64.82 -75.223)" fill="#e9e9e9" style="mix-blend-mode: multiply;isolation: isolate"/>
    </g>
  </g>
</svg>
