<svg xmlns="http://www.w3.org/2000/svg" width="123.995" height="123.995" viewBox="0 0 123.995 123.995">
  <g id="Grupo_55989" data-name="Grupo 55989" transform="translate(-493 -3823.5)">
    <path id="Trazado_105578" data-name="Trazado 105578" d="M138.789,393.627a60,60,0,1,1-60-60A60,60,0,0,1,138.789,393.627Z" transform="translate(476.206 3491.872)" fill="#fff" stroke="#00cca7" stroke-width="4"/>
    <g id="Grupo_55978" data-name="Grupo 55978" transform="translate(140 -417.155)">
      <g id="Elipse_4304" data-name="Elipse 4304" transform="translate(378 4265.155)" fill="none" stroke="#f74ae2" stroke-width="8">
        <circle cx="36.5" cy="36.5" r="36.5" stroke="none"/>
        <circle cx="36.5" cy="36.5" r="32.5" fill="none"/>
      </g>
      <g id="Grupo_55941" data-name="Grupo 55941" transform="translate(396.112 4257)">
        <g id="Grupo_55939" data-name="Grupo 55939" transform="translate(0.702 0)">
          <path id="Trazado_105493" data-name="Trazado 105493" d="M73.306,95.3l.452,2.536c0,3.193-1.93,5.39-4.322,5.39H43.952c-2.392,0-4.322-2.2-4.322-5.39l.452-2.536V61.4l-.452-.74A9.513,9.513,0,0,1,43.2,53.229l5.318-4.24a2.879,2.879,0,0,0,1.068-2.659,44.584,44.584,0,0,1-.339-4.661c-.031-.9-.041-1.807-.01-2.73.051-1.952.2-3.933.441-5.893.01-.073.01-.155.021-.237.082-.606.164-1.2.267-1.8a.772.772,0,0,1,.021-.153c.236-1.469.524-2.907.862-4.3a1.007,1.007,0,0,0-.38-1.027,1.221,1.221,0,0,1-.483-1.068l.483-6.109H62.915l.483,6.109a1.221,1.221,0,0,1-.483,1.068,1.007,1.007,0,0,0-.38,1.027c.113.453.216.914.308,1.376.133.606.246,1.222.359,1.838.072.349.133.709.2,1.078v.011a.772.772,0,0,1,.021.153c.051.3.1.6.133.9s.092.6.133.893v.01a1.842,1.842,0,0,1,.021.227c.082.718.164,1.447.226,2.165.031.339.062.688.092,1.027l.062,1.14c.031.524.051,1.037.062,1.562.031.923.021,1.826-.01,2.73a44.581,44.581,0,0,1-.339,4.661,2.879,2.879,0,0,0,1.068,2.659l5.318,4.24a9.513,9.513,0,0,1,3.573,7.433l-.452.74Z" transform="translate(-39.63 -12.92)" fill="#06ad8f"/>
          <rect id="Rectángulo_30832" data-name="Rectángulo 30832" width="13.503" height="5.424" rx="0.72" transform="translate(10.312)" fill="#5b088e"/>
          <path id="Trazado_105494" data-name="Trazado 105494" d="M63.9,38.938H48.99c.051-1.952.2-3.933.441-5.893.01-.073.01-.155.021-.237.082-.606.164-1.2.267-1.8a.772.772,0,0,1,.021-.153c.236-1.469.524-2.907.862-4.3a1.007,1.007,0,0,0-.38-1.027,1.221,1.221,0,0,1-.483-1.068l.483-6.109H62.666l.483,6.109a1.221,1.221,0,0,1-.483,1.068,1.007,1.007,0,0,0-.38,1.027c.113.453.216.914.308,1.376.133.606.246,1.222.359,1.838.072.349.133.709.2,1.078v.011a.772.772,0,0,1,.021.153c.051.3.1.6.133.9s.092.6.133.893v.01a1.843,1.843,0,0,1,.021.227c.082.718.164,1.447.226,2.165.031.339.062.688.092,1.027l.062,1.14C63.867,37.9,63.887,38.414,63.9,38.938Z" transform="translate(-39.38 -12.92)" fill="#27013e"/>
          <path id="Trazado_105495" data-name="Trazado 105495" d="M56.67,62.224l-15.3-.4-.8-2.179-.049-.079A8.555,8.555,0,0,1,43.747,53.1l4.162-3.32H65.431l4.162,3.32a8.555,8.555,0,0,1,3.232,6.465l-.049.079-.8,2.179Z" transform="translate(-39.606 -12.081)" fill="#c4a424"/>
          <path id="Trazado_105496" data-name="Trazado 105496" d="M56.67,98.378a41.422,41.422,0,0,0-12.744,1.992c-1.926,0-3.384-1.886-3.414-4.4l.8-4.475L56.67,92.858l15.361-1.364.8,4.475c-.03,2.514-1.488,4.4-3.414,4.4A41.422,41.422,0,0,0,56.67,98.378Z" transform="translate(-39.606 -10.967)" fill="#c4a424"/>
          <path id="Trazado_105514" data-name="Trazado 105514" d="M0,0H33.227V33.91H0Z" transform="translate(0.45 48.478)" fill="#27013e"/>
          <g id="Grupo_55928" data-name="Grupo 55928" transform="translate(2.988 50.273)">
            <path id="Trazado_105497" data-name="Trazado 105497" d="M54.036,63.862c.029,0,.071.1.018.294a.891.891,0,0,1-.659.538,1.033,1.033,0,0,1-.667-.054,1.068,1.068,0,0,1-.544-.632,1.421,1.421,0,0,1,.761-1.7,1.951,1.951,0,0,1,2.176.449,2.227,2.227,0,0,1,.5,2.49,2.428,2.428,0,0,1-2.407,1.424,3.424,3.424,0,0,1-1.383-.384,7.607,7.607,0,0,1-1.192-.679,23.155,23.155,0,0,0-4.084-2.444,2.581,2.581,0,0,0-3.094.755,1.461,1.461,0,0,0,.335,2c.458.337.836.282.845.376.031.04-.377.286-1.061-.021a1.951,1.951,0,0,1-.894-.961,2.034,2.034,0,0,1,.121-1.772,3.359,3.359,0,0,1,4.031-1.319,19.973,19.973,0,0,1,4.387,2.493,6.885,6.885,0,0,0,1.046.6,2.448,2.448,0,0,0,1.007.307,1.418,1.418,0,0,0,1.444-.779,1.315,1.315,0,0,0-.239-1.471A1.172,1.172,0,0,0,53.243,63a.772.772,0,0,0-.485.844.52.52,0,0,0,.572.435C53.884,64.256,53.956,63.84,54.036,63.862Z" transform="translate(-42.54 -62.027)" fill="#ffd947"/>
          </g>
          <g id="Grupo_55929" data-name="Grupo 55929" transform="translate(17.867 50.273)">
            <path id="Trazado_105498" data-name="Trazado 105498" d="M58.809,63.862c-.029,0-.071.1-.018.294a.891.891,0,0,0,.659.538,1.033,1.033,0,0,0,.667-.054,1.068,1.068,0,0,0,.544-.632,1.421,1.421,0,0,0-.761-1.7,1.951,1.951,0,0,0-2.176.449,2.227,2.227,0,0,0-.5,2.49,2.428,2.428,0,0,0,2.407,1.424,3.424,3.424,0,0,0,1.383-.384,7.607,7.607,0,0,0,1.192-.679,23.155,23.155,0,0,1,4.084-2.444,2.581,2.581,0,0,1,3.094.755,1.461,1.461,0,0,1-.335,2c-.458.337-.836.282-.845.376-.031.04.377.286,1.061-.021a1.951,1.951,0,0,0,.894-.961,2.034,2.034,0,0,0-.121-1.772A3.359,3.359,0,0,0,66,62.223a19.973,19.973,0,0,0-4.387,2.493,6.885,6.885,0,0,1-1.046.6,2.448,2.448,0,0,1-1.007.307,1.418,1.418,0,0,1-1.444-.779,1.315,1.315,0,0,1,.239-1.471A1.172,1.172,0,0,1,59.6,63a.772.772,0,0,1,.485.844.52.52,0,0,1-.572.435C58.961,64.256,58.889,63.84,58.809,63.862Z" transform="translate(-57.033 -62.027)" fill="#ffd947"/>
          </g>
          <g id="Grupo_55930" data-name="Grupo 55930" transform="translate(2.233 55.434)">
            <path id="Trazado_105499" data-name="Trazado 105499" d="M56.636,90.022c-2.715-.009-5.34,1.115-8.185,1.106a6.76,6.76,0,0,1-4.012-1.149,4.469,4.469,0,0,1-1.984-3.554,8.9,8.9,0,0,1,.809-3.679,27.934,27.934,0,0,0,1.209-3.1c.693-2.029-.186-3.845-1.146-5.422-.953-1.562-1.77-3.293-1.454-4.917a2.875,2.875,0,0,1,1.153-1.89,2.313,2.313,0,0,1,.957-.357,2.028,2.028,0,0,1,.91.161,1.4,1.4,0,0,1,.869,1.227,1.305,1.305,0,0,1-.484.982c-.5.379-.869.174-.838.171-.006-.062.331.033.693-.331a1.1,1.1,0,0,0,.311-.814,1.054,1.054,0,0,0-.714-.852,1.629,1.629,0,0,0-.7-.083,1.863,1.863,0,0,0-.705.311,2.349,2.349,0,0,0-.861,1.577,4.334,4.334,0,0,0,.3,2.155,13.09,13.09,0,0,0,1.215,2.275c.243.39.484.823.733,1.248l.323.7a3.169,3.169,0,0,1,.277.745,5.613,5.613,0,0,1,.017,3.343c-.556,2.208-2,4.227-1.89,6.5a3.457,3.457,0,0,0,1.58,2.764,5.77,5.77,0,0,0,3.437.941c2.534.023,5.191-1.113,8.18-1.128,2.989.015,5.646,1.151,8.18,1.128a5.77,5.77,0,0,0,3.437-.941,3.457,3.457,0,0,0,1.58-2.764c.108-2.277-1.334-4.3-1.89-6.5a5.613,5.613,0,0,1,.017-3.343,3.169,3.169,0,0,1,.277-.745l.323-.7c.249-.425.49-.858.733-1.248a13.09,13.09,0,0,0,1.215-2.275,4.333,4.333,0,0,0,.3-2.155,2.349,2.349,0,0,0-.861-1.577,1.863,1.863,0,0,0-.705-.311,1.629,1.629,0,0,0-.7.083,1.054,1.054,0,0,0-.714.852,1.1,1.1,0,0,0,.311.814c.362.363.7.269.693.331.031,0-.337.207-.838-.171a1.305,1.305,0,0,1-.484-.982,1.4,1.4,0,0,1,.869-1.227,2.029,2.029,0,0,1,.91-.161,2.313,2.313,0,0,1,.957.357A2.875,2.875,0,0,1,71.4,69.3c.316,1.624-.5,3.355-1.454,4.917-.96,1.577-1.839,3.393-1.146,5.422a27.933,27.933,0,0,0,1.209,3.1,8.9,8.9,0,0,1,.809,3.679,4.469,4.469,0,0,1-1.984,3.554,6.76,6.76,0,0,1-4.012,1.149C61.975,91.137,59.35,90.013,56.636,90.022Z" transform="translate(-41.805 -67.053)" fill="#ffd947"/>
          </g>
          <g id="Grupo_55931" data-name="Grupo 55931" transform="translate(10.667 21.38)">
            <path id="Trazado_105500" data-name="Trazado 105500" d="M54.5,35.591c-.01.015-.049,0-.119-.045a.589.589,0,0,1-.251-.272.542.542,0,0,1-.094-.258.687.687,0,0,1-.006-.337.679.679,0,0,1,.153-.368.914.914,0,0,1,.336-.3,1.023,1.023,0,0,1,1.031.03A1.224,1.224,0,0,1,56.04,35.1a1.349,1.349,0,0,1-.654,1.106,2.006,2.006,0,0,1-1.306.243,4.183,4.183,0,0,1-2.054-1.2c-.487-.458-1.028-.744-1.386-.505a.684.684,0,0,0-.272.882c.114.238.266.319.239.366,0,.018-.205.007-.418-.258a.932.932,0,0,1,.244-1.306,1.078,1.078,0,0,1,1.005-.11,3,3,0,0,1,.908.557,4.025,4.025,0,0,0,1.809,1.045,1.537,1.537,0,0,0,.96-.162.849.849,0,0,0,.433-.681.783.783,0,0,0-.258-.68.634.634,0,0,0-.607-.052.683.683,0,0,0-.363.843C54.384,35.448,54.536,35.546,54.5,35.591Z" transform="translate(-50.02 -33.885)" fill="#ffd947"/>
          </g>
          <g id="Grupo_55932" data-name="Grupo 55932" transform="translate(17.44 21.38)">
            <path id="Trazado_105501" data-name="Trazado 105501" d="M58.159,35.591c.01.015.049,0,.119-.045a.589.589,0,0,0,.251-.272.542.542,0,0,0,.094-.258.687.687,0,0,0,.006-.337.679.679,0,0,0-.153-.368.914.914,0,0,0-.336-.3,1.023,1.023,0,0,0-1.031.03,1.224,1.224,0,0,0-.493,1.064,1.349,1.349,0,0,0,.654,1.106,2.006,2.006,0,0,0,1.306.243,4.183,4.183,0,0,0,2.054-1.2c.487-.458,1.028-.744,1.386-.505a.684.684,0,0,1,.272.882c-.114.238-.266.319-.239.366,0,.018.205.007.418-.258a.932.932,0,0,0-.244-1.306,1.078,1.078,0,0,0-1.005-.11,3,3,0,0,0-.908.557A4.025,4.025,0,0,1,58.5,35.924a1.537,1.537,0,0,1-.96-.162.849.849,0,0,1-.433-.681.783.783,0,0,1,.258-.68.634.634,0,0,1,.607-.052.683.683,0,0,1,.363.843C58.272,35.448,58.12,35.546,58.159,35.591Z" transform="translate(-56.616 -33.885)" fill="#ffd947"/>
          </g>
          <g id="Grupo_55933" data-name="Grupo 55933" transform="translate(10.051 19.35)">
            <path id="Trazado_105502" data-name="Trazado 105502" d="M63.445,32.683a.586.586,0,0,0-.164-.083.936.936,0,0,0-.637.041c-.257.082-.524.257-.893.4a1.389,1.389,0,0,1-1.3-.133c-.38-.246-.729-.565-1.047-.5-.339.011-.708.525-1.376.6a6.521,6.521,0,0,1-1.591-.308A6.52,6.52,0,0,1,54.841,33c-.667-.071-1.037-.584-1.376-.6-.318-.062-.667.257-1.047.5a1.389,1.389,0,0,1-1.3.133c-.37-.144-.637-.318-.893-.4a.936.936,0,0,0-.637-.041.586.586,0,0,0-.164.083c.01-.073.01-.155.021-.237a.541.541,0,0,1,.072-.041,1.1,1.1,0,0,1,.8-.051c.3.073.606.236.924.33a1,1,0,0,0,.945-.145c.175-.133.349-.257.534-.4a1.26,1.26,0,0,1,.811-.225c.637.112.955.574,1.366.564a8.557,8.557,0,0,0,1.54-.329,8.557,8.557,0,0,0,1.54.329c.411.01.729-.452,1.366-.564a1.26,1.26,0,0,1,.811.225c.185.144.359.267.534.4a1,1,0,0,0,.945.145c.318-.093.626-.257.924-.33a1.1,1.1,0,0,1,.8.051.54.54,0,0,1,.072.041v.01A1.841,1.841,0,0,1,63.445,32.683Z" transform="translate(-49.42 -31.908)" fill="#ffd947"/>
          </g>
          <g id="Grupo_55934" data-name="Grupo 55934" transform="translate(10.339 17.76)">
            <path id="Trazado_105503" data-name="Trazado 105503" d="M63.15,30.691a.01.01,0,0,1-.01.01,1,1,0,0,1-.154.113,4.477,4.477,0,0,1-.647.267,3.173,3.173,0,0,1-.924.1c-.719.05-1.458-.484-2.2-.309a8.292,8.292,0,0,1-1.355.318,3.3,3.3,0,0,1-.78-.082c-.216-.051-.431-.113-.657-.164-.226.051-.441.113-.657.164a3.3,3.3,0,0,1-.78.082,8.292,8.292,0,0,1-1.355-.318c-.739-.175-1.478.359-2.2.309a3.173,3.173,0,0,1-.924-.1,4.478,4.478,0,0,1-.647-.267,1.139,1.139,0,0,1-.164-.123.772.772,0,0,1,.021-.153,3.27,3.27,0,0,0,1.684.276c.154-.031.318-.051.472-.082.175-.051.339-.113.524-.164a2.463,2.463,0,0,1,1.314-.175,12.045,12.045,0,0,0,1.294.278,3.671,3.671,0,0,0,.647-.073c.246-.072.513-.144.77-.205.257.062.524.133.77.205a3.671,3.671,0,0,0,.647.073,12.045,12.045,0,0,0,1.294-.278,2.463,2.463,0,0,1,1.314.175c.185.051.349.113.524.164.154.031.318.051.472.082a3.27,3.27,0,0,0,1.684-.276A.772.772,0,0,1,63.15,30.691Z" transform="translate(-49.7 -30.359)" fill="#ffd947"/>
          </g>
          <path id="Trazado_105504" data-name="Trazado 105504" d="M56.526,74.567a40.187,40.187,0,0,0-9.388,1.111q-.605-2.526-1.213-5.05a45.411,45.411,0,0,1,21.2,0q-.607,2.526-1.213,5.05A40.187,40.187,0,0,0,56.526,74.567Z" transform="translate(-39.462 -11.558)" fill="#ffd947"/>
          <g id="Grupo_55935" data-name="Grupo 55935" transform="translate(10.593 64.965)">
            <path id="Trazado_105505" data-name="Trazado 105505" d="M62.887,77.817c-.079.333-2.967-.209-6.469-.409-3.5.2-6.39.741-6.469.409-.066-.235,2.733-1.263,6.469-1.48C60.154,76.555,62.953,77.582,62.887,77.817Z" transform="translate(-49.948 -76.337)" fill="#ffd947"/>
          </g>
          <g id="Grupo_55936" data-name="Grupo 55936" transform="translate(10.923 68.312)">
            <path id="Trazado_105506" data-name="Trazado 105506" d="M62.549,80.727c-.07.33-2.791-.005-6.14-.062-3.349.056-6.07.391-6.14.062-.061-.245,2.655-1.071,6.14-1.13C59.894,79.657,62.61,80.482,62.549,80.727Z" transform="translate(-50.269 -79.597)" fill="#ffd947"/>
          </g>
          <g id="Grupo_55937" data-name="Grupo 55937" transform="translate(9.5 70.853)">
            <path id="Trazado_105507" data-name="Trazado 105507" d="M64.008,83.98c-.054.151-.91-.02-2.257-.284a36.13,36.13,0,0,0-5.3-.554,36.131,36.131,0,0,0-5.3.554c-1.347.265-2.2.435-2.257.284-.048-.126.725-.551,2.072-1.016a19.977,19.977,0,0,1,5.49-.891,19.977,19.977,0,0,1,5.49.891C63.283,83.428,64.057,83.853,64.008,83.98Z" transform="translate(-48.883 -82.072)" fill="#ffd947"/>
          </g>
          <g id="Grupo_55938" data-name="Grupo 55938" transform="translate(9.207 73.624)">
            <path id="Trazado_105508" data-name="Trazado 105508" d="M64.31,86.811c-.049.15-.94-.005-2.349-.272a54.427,54.427,0,0,0-5.506-.7,54.428,54.428,0,0,0-5.506.7c-1.409.267-2.3.422-2.349.272-.044-.129.77-.542,2.168-1.006a25.3,25.3,0,0,1,5.687-1.034A25.3,25.3,0,0,1,62.141,85.8C63.54,86.269,64.354,86.682,64.31,86.811Z" transform="translate(-48.597 -84.771)" fill="#ffd947"/>
          </g>
        </g>
        <g id="Grupo_55940" data-name="Grupo 55940" transform="translate(0 0)" opacity="0.2">
          <path id="Trazado_105509" data-name="Trazado 105509" d="M63,17.746V13.8a.739.739,0,0,0-.739-.739H56.25v5.424h6.012A.739.739,0,0,0,63,17.746Z" transform="translate(-38.485 -13.061)" fill="#1d1d1b" opacity="0.6"/>
          <path id="Trazado_105510" data-name="Trazado 105510" d="M63.275,32.837a.85.85,0,0,0-.2-.174A.408.408,0,0,1,63.275,32.837Z" transform="translate(-63.08 -11.785)" fill="#1d1d1b" opacity="0.6"/>
          <path id="Trazado_105511" data-name="Trazado 105511" d="M72.862,95.3l.452,2.536c0,3.193-1.93,5.39-4.322,5.39H56.25V18.352h6.222l.483,6.109a1.221,1.221,0,0,1-.483,1.068,1.007,1.007,0,0,0-.38,1.027c.113.453.216.914.308,1.376.133.606.246,1.222.359,1.838.062.359.113.729.175,1.089.01,0,.01-.011.021-.011a.707.707,0,0,0,.082-.031.523.523,0,0,0-.082.042.772.772,0,0,1,.021.153.01.01,0,0,1-.01.01c.051.3.092.6.144.893s.092.6.133.893v.01a1.842,1.842,0,0,1,.021.227c.082.718.164,1.447.226,2.165.031.339.062.688.092,1.027l.062,1.14c.031.524.051,1.037.062,1.562.031.923.021,1.826-.01,2.73a44.582,44.582,0,0,1-.339,4.661,2.879,2.879,0,0,0,1.068,2.659l5.318,4.24a9.513,9.513,0,0,1,3.573,7.433l-.452.74Z" transform="translate(-38.485 -12.92)" fill="#1d1d1b" opacity="0.6"/>
        </g>
        <path id="Trazado_105512" data-name="Trazado 105512" d="M45.1,99.393c0,.082-.193.15-.61.189a2.231,2.231,0,0,1-1.645-.86c-1.108-1.338-1.046-3.743-1.124-6.066-.392-5.083-.249-12.069-.239-19.7-.028-1.9-.054-3.763-.081-5.56-.048-1.785-.162-3.553-.111-5.278a17.962,17.962,0,0,1,.731-4.945c.144-.383.264-.76.426-1.123q.3-.533.6-1.047a9.139,9.139,0,0,1,1.447-1.621c1-.909,1.932-1.529,2.718-2.132l1.058-.847.837-.765c.976-.95,1.493-1.55,1.655-1.45.122.069-.124.847-.943,2.061-.218.291-.456.625-.739.968l-.984,1.048c-.719.714-1.613,1.469-2.4,2.328a6.553,6.553,0,0,0-1.753,3.147,17.384,17.384,0,0,0-.427,4.4c.009,1.6.165,3.323.249,5.156.043,1.825.087,3.715.132,5.65-.012,7.731-.421,14.651-.468,19.635-.033,1.389-.2,2.426-.187,3.387a4.983,4.983,0,0,0,.384,2.226,2.028,2.028,0,0,0,.964.912C44.905,99.209,45.1,99.311,45.1,99.393Z" transform="translate(-38.884 -12.123)" fill="#fff" opacity="0.4"/>
        <path id="Trazado_105513" data-name="Trazado 105513" d="M52.144,24.1c.2-.086.9,1.194.795,3.384a25.672,25.672,0,0,1-.464,3.667c-.22,1.331-.371,2.781-.612,4.3-.048.768-.094,1.516-.141,2.241a19.724,19.724,0,0,0-.106,2.09c.029,1.333-.054,2.546-.006,3.561.114,2.026.063,3.324-.182,3.372s-.643-1.182-1.089-3.244a34.67,34.67,0,0,1-.388-3.672,15.664,15.664,0,0,1,0-2.184c.036-.759.073-1.543.111-2.347.246-1.587.464-3.117.779-4.46.332-1.335.644-2.486.824-3.46C52.082,25.41,51.87,24.179,52.144,24.1Z" transform="translate(-38.653 -12.766)" fill="#fff" opacity="0.3"/>
      </g>
      <line id="Línea_180" data-name="Línea 180" x2="51.175" y2="44.402" transform="translate(391.17 4276.943)" fill="none" stroke="#f74ae2" stroke-width="8"/>
    </g>
  </g>
</svg>
