<svg xmlns="http://www.w3.org/2000/svg" width="140.754" height="113.775" viewBox="0 0 140.754 113.775">
  <g id="Grupo_55123" data-name="Grupo 55123" transform="translate(-540.122 -429.588)">
    <circle id="Elipse_4264" data-name="Elipse 4264" cx="56.06" cy="56.06" r="56.06" transform="translate(555.123 429.741)" fill="#1e866f"/>
    <g id="Grupo_55123-2" data-name="Grupo 55123" transform="translate(-246.207 -777.583)">
      <path id="Trazado_104211" data-name="Trazado 104211" d="M1304.9,1405.625a20.372,20.372,0,0,1,4.419-.16.712.712,0,0,1,.448.119c.228.195.125.561,0,.835a2.309,2.309,0,0,1,1.287.063,1.289,1.289,0,0,1,.824.938,2.036,2.036,0,0,1-.18,1.012,8.141,8.141,0,0,1-1.755,3.131,4.524,4.524,0,0,1-5.09.765c-.491-.253-.933-.6-1.437-.823-.751-.337-1.6-.4-2.359-.72a1.838,1.838,0,0,1-1.267-1.887c.187-.816,1.471-1.624,2.129-2.087A7.513,7.513,0,0,1,1304.9,1405.625Z" transform="translate(-428.487 -165.45)" fill="#eacdb0"/>
      <path id="Trazado_104212" data-name="Trazado 104212" d="M855.095,1770.883l-26.956-6.213c-1.112-.256-2.385-.475-3.339.313-1.187.98-1.176,3.082-.36,4.354a7.527,7.527,0,0,0,3.472,2.515l20.191,9.261c4.062,1.863,9.277,3.449,12.839-1.182C864.908,1774.775,858.77,1771.73,855.095,1770.883Z" transform="translate(-31.324 -465.064)" fill="#e8a42a"/>
      <path id="Trazado_104213" data-name="Trazado 104213" d="M1039.854,1428.292a38.645,38.645,0,0,0,8.579.059c4.126-.35,11.608.017,14.806-2.615.4-.33-2.357-1.861-2.322-2.379a1.887,1.887,0,0,0-.728-1.383,16.144,16.144,0,0,0-6.057-3.22c-4.311-1.5-8.5-3.546-12.955-4.537a14.549,14.549,0,0,0-6.459.452,10.013,10.013,0,0,0-3.394,1.7,7.926,7.926,0,0,0-3.448,4.845C1027,1426.654,1036.159,1427.779,1039.854,1428.292Z" transform="translate(-201.533 -172.624)" fill="#e5c23b"/>
      <path id="Trazado_104214" data-name="Trazado 104214" d="M1175.064,1432.349c2.609,1,5.537.06,8.081-1.1a40.522,40.522,0,0,0,11.292-7.567c-1.105-.5-.567-2.5-1.771-2.648a3.326,3.326,0,0,0-1.441.26,50.128,50.128,0,0,1-15.123,2.573,15.88,15.88,0,0,0-3.564.279c-2.192.538-3.26,1.661-2.09,3.623C1171.57,1429.651,1172.946,1431.538,1175.064,1432.349Z" transform="translate(-320.166 -178.472)" fill="#e5c23b"/>
      <path id="Trazado_104215" data-name="Trazado 104215" d="M1200.037,1831.519a4.267,4.267,0,0,1,1.772.958c.79.841.711,2.105.585,3.225a1.114,1.114,0,0,1-.308.782,1.281,1.281,0,0,1-.781.193l-8.349.238c-1.363.039-2.929,0-3.793-.993q-.021.491-.042.981a20.464,20.464,0,0,1-4.027.058,17.217,17.217,0,0,1-.521-2.733c-.036-1.756-.042-3.621.932-5.125a5.149,5.149,0,0,1,4.386-2.237c2.109.061,2.167,1.666,3.471,2.917C1194.718,1831.082,1198.254,1830.9,1200.037,1831.519Z" transform="translate(-332.346 -517.164)" fill="#27013e"/>
      <path id="Trazado_104216" data-name="Trazado 104216" d="M791.725,1780.313a4.267,4.267,0,0,1-1.431,1.418c-1.034.512-2.221.069-3.256-.375a1.115,1.115,0,0,1-.659-.522,1.28,1.28,0,0,1,.042-.8l2.194-8.059c.358-1.315.853-2.8,2.05-3.342l-.926-.324a20.47,20.47,0,0,1,1.113-3.871,17.2,17.2,0,0,1,2.766.294c1.691.475,3.478,1.01,4.634,2.378a5.148,5.148,0,0,1,.869,4.846c-.671,2-2.222,1.591-3.8,2.476C793.687,1775.35,792.83,1778.786,791.725,1780.313Z" transform="translate(0 -465.064)" fill="#27013e"/>
      <path id="Trazado_104217" data-name="Trazado 104217" d="M958.951,1376.779a93.409,93.409,0,0,0,.053,29.8c.353,2.315,1.015,4.954,3.126,5.969,2.27,1.092,4.955-.328,6.806-2.036a32.558,32.558,0,0,0,6.9-10.055c3.268-6.812,5.478-14.252,5.426-21.807-.026-3.742-.828-7.873-3.808-10.135a8.628,8.628,0,0,0-2.668-1.837c-1.8-.51-4.081-.189-5.975-.249-3.469-.109-5.283-.375-7.311,2.777C960.023,1371.5,959.505,1374.155,958.951,1376.779Z" transform="translate(-143.083 -132.863)" fill="#ffe067"/>
      <path id="Trazado_104218" data-name="Trazado 104218" d="M1284.823,1410.711q-2.938,1.177-5.923,2.2c-.115,2.588.822,5.255,2.917,6.588a15.758,15.758,0,0,1,2.52-1.994c.689-.458,1.884-1.042,1.878-1.254,0-.18-1.192-2.344-1.348-3.154C1284.818,1412.841,1284.53,1410.829,1284.823,1410.711Z" transform="translate(-411.067 -169.864)" fill="#c5daef"/>
      <path id="Trazado_104219" data-name="Trazado 104219" d="M1021.894,1267.888a5.268,5.268,0,0,0,2.049.455,25.538,25.538,0,0,0,4.427-.24,43.614,43.614,0,0,0,6.149-1.044c1.692-.448,3.331-1.078,5.011-1.568,2.749-.8,5.617-1.234,8.26-2.338a2.091,2.091,0,0,0,.671-.459c-1.968-.49-3.98-.9-5.948-1.394a63.371,63.371,0,0,0-6.582-1.394,31.759,31.759,0,0,0-6.964-.194c-2.288.188-4.694.694-6.355,2.278a6.128,6.128,0,0,0-1.778,3.34C1020.623,1266.5,1020.668,1267.279,1021.894,1267.888Z" transform="translate(-195.625 -43.759)" fill="#c68926"/>
      <path id="Trazado_104220" data-name="Trazado 104220" d="M1011.133,1316.779c2.821,2.169,6.208,3.446,9.541,4.693a81.542,81.542,0,0,1,3.914-9.2.927.927,0,0,0,.144-.623.882.882,0,0,0-.229-.356,13.061,13.061,0,0,0-7.644-4.077c-.821-.123-1.817-.117-2.16.765-.326.839-.314,2.005-.607,2.913C1013.926,1311.409,1011.4,1316.988,1011.133,1316.779Z" transform="translate(-187.61 -83.447)" fill="#eacdb0"/>
      <path id="Trazado_104221" data-name="Trazado 104221" d="M1045.549,1236.686c-.294.017.229-4.394.494-6.3a12.8,12.8,0,0,0,.934-2.7c.9-4.122-1.149-6.829-3.975-8.494-2.646-1.949-5.907-2.752-9.226-.225-2.444,1.861-4.087,4.754-5.33,7.651-.445,1.037-2,6.339.266,9.775a10.414,10.414,0,0,0,4.534,3.188,6.342,6.342,0,0,0,1.776.046,19.731,19.731,0,0,0,2.4,1.3,3.137,3.137,0,0,0,2.326.331,3.227,3.227,0,0,0,1.369-1.131,16.7,16.7,0,0,0,1.682-2.878l.206-.418Z" transform="translate(-201.279 -8.52)" fill="#eacdb0"/>
      <path id="Trazado_104222" data-name="Trazado 104222" d="M1050.991,1318.32a18.786,18.786,0,0,0,3.706,10.312,24.418,24.418,0,0,1,1.122-2.683c.481-.982.592-1.069-.333-1.656C1053.928,1323.3,1052.08,1320.774,1050.991,1318.32Z" transform="translate(-220.874 -92.759)" fill="#c9b099"/>
      <path id="Trazado_104223" data-name="Trazado 104223" d="M1014.824,1259.278a4.167,4.167,0,0,0,1.855-.879,1.673,1.673,0,0,1-.5.837,10.783,10.783,0,0,0,5.008-2.921.89.89,0,0,0,.214-.3.951.951,0,0,0-.08-.64c-.473-1.286-.8-2.832,0-3.944a4.315,4.315,0,0,1,1.946-1.3,7.871,7.871,0,0,1,2.5-.68,3.25,3.25,0,0,1,2.413.759,2.076,2.076,0,0,1,.521,2.367,2.7,2.7,0,0,1-1.438,1.163,10.119,10.119,0,0,0,4.578-1.732l-.712.871a11.406,11.406,0,0,0,4.1-.722c1.107-.415,2.276-1.186,2.384-2.362a2.71,2.71,0,0,0-.975-2.12,7.656,7.656,0,0,0-3.049-1.6,21.075,21.075,0,0,0-10.368-.358,11.128,11.128,0,0,0-4.99,2.115,5.685,5.685,0,0,0-1.835,5.893C1016.782,1255.633,1016.779,1258.2,1014.824,1259.278Z" transform="translate(-190.69 -31.768)" fill="#60463c"/>
      <path id="Trazado_104224" data-name="Trazado 104224" d="M1060.367,1261.407a1.907,1.907,0,0,1,.106,2.044,3.058,3.058,0,0,1,1.769-.476c.421.018.836.124,1.257.122a4.918,4.918,0,0,0,2.441-.935,3.433,3.433,0,0,0,1.217-1.04,2.808,2.808,0,0,0,.325-1.467,2.647,2.647,0,0,0-.281-1.351,2.912,2.912,0,0,0-1.509-1.089,9.066,9.066,0,0,0-3.511-.752,5.146,5.146,0,0,0-3.332,1.192,1.628,1.628,0,0,0-.227,2.231C1059.049,1260.545,1059.916,1260.734,1060.367,1261.407Z" transform="translate(-226.962 -41.136)" fill="#60463c"/>
      <path id="Trazado_104225" data-name="Trazado 104225" d="M1039.012,1214.738c-1.526-1.817-2.958-3.791-4.965-5.057a14.744,14.744,0,0,0-7.945-2.506c-4.653.134-6.731,2.393-8.46,5.184a11.845,11.845,0,0,0-1.44,5.36,9.467,9.467,0,0,0,.8,5.449c.205-.511,3.821-3.027,9.88-3.527,1.374-.113,2.712-.5,4.086-.621,1.3-.11,2.614-.108,3.922-.105l9.735.019C1042.325,1218.329,1040.539,1216.555,1039.012,1214.738Z" transform="translate(-191.785)" fill="#e5c23b"/>
      <g id="Grupo_55022" data-name="Grupo 55022" transform="translate(839.441 1222.184)">
        <path id="Trazado_104226" data-name="Trazado 104226" d="M1107.693,1298.106a.606.606,0,0,0-.349.478.486.486,0,0,0,.081.291,1.135,1.135,0,0,0,.413.371,3.267,3.267,0,0,0,1.194.425,1.056,1.056,0,0,0,.545-.034.636.636,0,0,0,.328-.791,1.438,1.438,0,0,0-.561-.64A1.536,1.536,0,0,0,1107.693,1298.106Z" transform="translate(-1107.343 -1297.913)" fill="#fff"/>
        <path id="Trazado_104227" data-name="Trazado 104227" d="M1112.867,1299.863a1.708,1.708,0,0,1-.139-.648,1.3,1.3,0,0,1,.229-.759,3.045,3.045,0,0,1,1.716.376l.094.053a1.7,1.7,0,0,1-.1.908,1.319,1.319,0,0,1-.372.492A6.675,6.675,0,0,1,1112.867,1299.863Z" transform="translate(-1111.837 -1298.359)" fill="#60463c"/>
      </g>
      <path id="Trazado_104228" data-name="Trazado 104228" d="M1105.9,1335.851a2.15,2.15,0,0,1-.96-.389,4.8,4.8,0,0,1-1.1-1.358,8.834,8.834,0,0,0,.719,2.052,2.34,2.34,0,0,0,.719.845Z" transform="translate(-264.978 -105.931)" fill="#60463c"/>
      <path id="Trazado_104229" data-name="Trazado 104229" d="M1058.5,1287.962a.847.847,0,0,0-1.036.307,1.438,1.438,0,0,0,.083,1.347,3.255,3.255,0,0,1,.469,1.315,9.437,9.437,0,0,1,.53-.862C1058.927,1289.513,1059.37,1288.365,1058.5,1287.962Z" transform="translate(-226.158 -67.366)" fill="#c9b099"/>
      <path id="Trazado_104230" data-name="Trazado 104230" d="M1092.927,1219.556a6.211,6.211,0,0,1-1.135.1l6.706.013c-2.295-.605-4.081-2.38-5.608-4.2s-2.958-3.79-4.965-5.057a16.35,16.35,0,0,0-5.947-2.365c.281.106.592.188.819.282a8.378,8.378,0,0,1,3.041,1.906,3.594,3.594,0,0,1,.907,3.577,4.025,4.025,0,0,1-1.351,1.679,15.387,15.387,0,0,1-4.7,2.2l3.424-.285c3-.25,6.138-.479,8.911.694a1.025,1.025,0,0,1,.55.411C1093.8,1218.93,1093.381,1219.429,1092.927,1219.556Z" transform="translate(-245.664 -0.736)" fill="#c4a424"/>
      <path id="Trazado_104231" data-name="Trazado 104231" d="M1037.7,1212.8a5.279,5.279,0,0,0-1.38,1.524,2.427,2.427,0,0,0-.214,1.993.5.5,0,0,0,.183.26c.23.14.507-.09.661-.312a18.136,18.136,0,0,1,1.4-2.213,13.309,13.309,0,0,1,2.954-1.792c1.015-.63.15-1.382-.726-1.049A10.468,10.468,0,0,0,1037.7,1212.8Z" transform="translate(-208.344 -3.307)" fill="#fff" opacity="0.29"/>
      <path id="Trazado_104232" data-name="Trazado 104232" d="M959.693,1595.318a12.175,12.175,0,0,0,8.244-5.733c1.86-2.954,2.636-6.766,1.309-10-3.207-7.8-17.693-12.242-22.8-3.96C941.376,1583.851,950.385,1596.681,959.693,1595.318Z" transform="translate(-132.405 -303.788)" fill="#e8a42a"/>
      <path id="Trazado_104233" data-name="Trazado 104233" d="M1023.169,1592.874c4.852-.475,10.181-.722,14.112,2.347,2.169,1.693,3.674,5.073,2.115,7.407-1.351,2.022-4.086,2.073-6.415,2.1-9.042.1-17.847,2.822-26.723,4.661-3.079.638-6.531,1.1-9.123-.787-4.78-3.469-2.583-10.339,2.146-11.841C1006.915,1594.335,1015.271,1593.647,1023.169,1592.874Z" transform="translate(-173.697 -321.65)" fill="#e8a42a"/>
      <path id="Trazado_104234" data-name="Trazado 104234" d="M1197.23,1619.578q-.061,13.831-.123,27.662c-.005,1.141.062,2.431,1.041,3.188,1.218.942,3.266.469,4.327-.608a7.53,7.53,0,0,0,1.688-3.94l4.587-21.736c.922-4.372,1.321-9.809-3.981-12.263C1198.865,1609.148,1197.247,1615.806,1197.23,1619.578Z" transform="translate(-342.815 -337.216)" fill="#e8a42a"/>
      <path id="Trazado_104235" data-name="Trazado 104235" d="M958.281,1629.7c.8,4.81,1.4,10.11-1.4,14.237-1.545,2.277-4.817,4-7.25,2.6-2.108-1.214-2.34-3.939-2.52-6.261-.7-9.015-4-17.62-6.429-26.354-.841-3.029-1.527-6.443.178-9.155,3.143-5,10.144-3.266,11.958,1.353C955.741,1613.582,956.984,1621.874,958.281,1629.7Z" transform="translate(-128.082 -329.296)" fill="#e8a42a"/>
      <path id="Trazado_104236" data-name="Trazado 104236" d="M847.191,1379.135c-5.084,18.637-3.04,39.786,3.646,57.91a31.019,31.019,0,0,0-20.722-3.918,1.021,1.021,0,0,0-.564.218.985.985,0,0,0-.226.469c-1.049,3.934.559,8.234,3.33,11.217s6.555,4.828,10.4,6.179a55.356,55.356,0,0,0,11.845,2.75c2.777.329,5.76.406,8.18-1,3.011-1.743,4.4-5.336,5.079-8.749,1.227-6.21,1.05-14.222,1.05-21.716,7.505-1.293,12.5-.432,19.538-3.349a110.756,110.756,0,0,0-.932,27.082,27.829,27.829,0,0,0,9.169.28,2.08,2.08,0,0,0,1.075-.366,2.153,2.153,0,0,0,.563-.99c3.4-9.7,6.342-19.675,6.984-29.934a10.369,10.369,0,0,0-.514-4.8c-.9-2.057-4.872-7.481-15.74-7.659a152,152,0,0,0-17.189,1.012c.56-2.645,2.261-14.743,2.566-20.125s.042-11.469-4.741-14.77c1.729,2.394,2.056,5.75,2.31,8.789.21,2.517-.632,4.823-3.093,4.823-2.371,0-4.928-.839-5.839-6.972-.528-3.552-2.106-10.23-7.679-8.4C849.52,1369.152,848.386,1374.755,847.191,1379.135Z" transform="translate(-35.613 -133.229)" fill="#650a5a"/>
      <path id="Trazado_104237" data-name="Trazado 104237" d="M1041.475,1481.608a7.217,7.217,0,0,1-4.419-1.77q-.162,1.945-.325,3.889a20.866,20.866,0,0,0,.126,6.548,4.817,4.817,0,0,0,2.558,3.349,1.429,1.429,0,0,0,1.274.15,4.816,4.816,0,0,0,3.266-2.663,20.864,20.864,0,0,0,1.642-6.34q.294-1.929.587-3.858A7.216,7.216,0,0,1,1041.475,1481.608Z" transform="translate(-208.812 -227.554)" fill="#ffe067"/>
      <path id="Trazado_104238" data-name="Trazado 104238" d="M1042.276,1474.8a7.215,7.215,0,0,1-4.419-1.77q-.162,1.945-.325,3.889a20.872,20.872,0,0,0,.126,6.548,4.816,4.816,0,0,0,2.559,3.349,1.426,1.426,0,0,0,1.274.15,4.816,4.816,0,0,0,3.266-2.664,20.866,20.866,0,0,0,1.642-6.34l.587-3.858A7.215,7.215,0,0,1,1042.276,1474.8Z" transform="translate(-209.481 -221.872)" fill="#ffe991"/>
      <g id="Grupo_55023" data-name="Grupo 55023" transform="translate(793.823 1233.821)">
        <path id="Trazado_104239" data-name="Trazado 104239" d="M869.472,1813.622a11.209,11.209,0,0,1-4.247,3.122c-2.951,1.152-6.261.606-9.37-.006-8.885-1.749-18.3-4.261-24.229-11.1a14.021,14.021,0,0,0,3.21,5.624c2.771,2.983,6.555,4.828,10.4,6.179a55.322,55.322,0,0,0,11.845,2.751c2.777.329,5.76.406,8.18-1A10.18,10.18,0,0,0,869.472,1813.622Z" transform="translate(-831.626 -1733.274)" fill="#4d0544"/>
        <path id="Trazado_104240" data-name="Trazado 104240" d="M934.382,1445.492a45.8,45.8,0,0,0-3.5-6.525l4.231,3.2a36.527,36.527,0,0,1-2.418-25.134,8.375,8.375,0,0,1,2.3-4.365c1.306-1.115,3.091-1.423,4.759-1.834,3.773-.928,7.614-2.813,9.415-6.255a50.247,50.247,0,0,1-10.04.605,10.939,10.939,0,0,1-5.069-1.123c-3.187-1.835-4.057-6.181-3.269-9.773s2.826-6.766,4.221-10.17c1.879-4.583,1.072-7.554-.282-11.961a22.869,22.869,0,0,0-1.5-3.911c-.091.026-.183.054-.276.085-6.162,2.027-7.3,7.63-8.491,12.01-5.084,18.638-3.04,39.786,3.647,57.91a30.459,30.459,0,0,0-6.505-2.9A44.084,44.084,0,0,1,934.382,1445.492Z" transform="translate(-906.714 -1368.245)" fill="#4d0544"/>
      </g>
      <path id="Trazado_104241" data-name="Trazado 104241" d="M919.411,1542.971s12.539,5.524,19.463,5.848,9.052-2.3,9.052-2.3l-.365,4.22s-3.951,2.442-7.362,2.609a40.822,40.822,0,0,1-21.258-5.17Z" transform="translate(-110.67 -280.242)" fill="#27013e"/>
      <path id="Trazado_104242" data-name="Trazado 104242" d="M856.333,1380.347c-2.472-4.923-7.048-3.468-12.784-.262-2.5,1.4-9.673,5.332-14.634,12.195-3.986,5.515-3.407,7.436-2.411,9.531a14.543,14.543,0,0,0,5.354,6.151,48.734,48.734,0,0,0,13.686,5.932c-.189-1.2.616-2.5.08-3.586a3.328,3.328,0,0,0-1.009-1.061,50.153,50.153,0,0,1-9.692-10.134,10.51,10.51,0,0,0,1.645-.374,133.235,133.235,0,0,0,13.078-4.933,14.545,14.545,0,0,0,4.971-4.148,10.01,10.01,0,0,0,1.756-3.365A7.927,7.927,0,0,0,856.333,1380.347Z" transform="translate(-32.92 -141.857)" fill="#e5c23b"/>
      <path id="Trazado_104243" data-name="Trazado 104243" d="M1087.375,1671.319a2.079,2.079,0,0,0,1.074-.365,1.314,1.314,0,0,0,.287-.348c-.366-.417-.714-.848-1.04-1.3-2.986-4.145-3.729-9.469-4.011-14.57a38.6,38.6,0,0,1,.128-7.146,26.569,26.569,0,0,1,4.439-11.361,54.776,54.776,0,0,1-5.588,3.746,13.758,13.758,0,0,1,2.613-3.787,39.614,39.614,0,0,1-17.627,6.45c-3.649.4-7.71.162-10.42-2.314.2.178.168,1.518.226,1.828a15.175,15.175,0,0,0,.512,1.982,9.251,9.251,0,0,0,1.631,3.319v-.144c7.505-1.293,12.5-.432,19.538-3.349a110.762,110.762,0,0,0-.933,27.082A27.827,27.827,0,0,0,1087.375,1671.319Z" transform="translate(-226.081 -358.035)" fill="#4a0341"/>
      <path id="Trazado_104244" data-name="Trazado 104244" d="M1006.632,1357.5c1.523.612,3,1.288,4.559,1.787a11.938,11.938,0,0,0-1.112,4.512,46.7,46.7,0,0,1-5.3-3.468,26.315,26.315,0,0,0-2.681-2.085c-.914-.605-2.1-1.622-3.2-1.646.284.006,2.58-2.343,2.851-2.083A28.016,28.016,0,0,0,1006.632,1357.5Z" transform="translate(-177.403 -122.948)" fill="#c5daef"/>
      <path id="Trazado_104245" data-name="Trazado 104245" d="M1073.671,1380.938c.319-.593,1.121-1.686.84-2.8a12.859,12.859,0,0,0-1.41-2.8,7.432,7.432,0,0,1-.427,1.24c-.112.205.037.166.093.395.106.438.315.864.438,1.3A13.514,13.514,0,0,1,1073.671,1380.938Z" transform="translate(-238.934 -140.345)" fill="#c5daef"/>
      <path id="Trazado_104246" data-name="Trazado 104246" d="M882.346,1395.7c-.026-.052-.054-.1-.081-.15l-.015.021a13.854,13.854,0,0,0-.788,2.5,11.261,11.261,0,0,1-1.291,2.36,17.357,17.357,0,0,1-4.783,4.379,27.824,27.824,0,0,1-16.294,4.432l2.111,2.768a13.422,13.422,0,0,1-4.26-1.821,11.008,11.008,0,0,0,3.339,5.348,21.173,21.173,0,0,0,3.56,2.6q-1.538-1.767-2.908-3.671a10.479,10.479,0,0,0,1.645-.374,133.21,133.21,0,0,0,13.078-4.933,14.544,14.544,0,0,0,4.971-4.148,10.015,10.015,0,0,0,1.757-3.365A7.927,7.927,0,0,0,882.346,1395.7Z" transform="translate(-58.933 -157.213)" fill="#c4a424"/>
      <path id="Trazado_104247" data-name="Trazado 104247" d="M903.464,1411.028a17.6,17.6,0,0,1,.718,5.609c1.007-.3,2.042-.6,3.017-1a19.186,19.186,0,0,0,3.136-1.543c.077-.076-1.764-7.194-3.557-10.191a8.708,8.708,0,0,0-2.426-2.811,1.123,1.123,0,0,0-.484-.218,1.175,1.175,0,0,0-.536.1,9.218,9.218,0,0,0-2.743,1.59c-.365.306-.832.561-.67,1.032.149.433.741.934,1,1.331A20.551,20.551,0,0,1,903.464,1411.028Z" transform="translate(-94.768 -161.651)" fill="#c5daef"/>
      <g id="Grupo_55024" data-name="Grupo 55024" transform="translate(812.199 1263.968)">
        <path id="Trazado_104248" data-name="Trazado 104248" d="M944.461,1579.318a10.229,10.229,0,0,1,1.861-2.044,11.45,11.45,0,0,1,5.159-1.9.525.525,0,0,1,.461.055.646.646,0,0,1,.153.344,10.253,10.253,0,0,1,.36,4.06,8.727,8.727,0,0,1-.615,1.879,26.208,26.208,0,0,1-2.6,4.684.907.907,0,0,1-.352.346.759.759,0,0,1-.444,0,2.331,2.331,0,0,1-.887-.31.963.963,0,0,1-.429-.86c.057-.55.61-.836,1.006-1.184a4.915,4.915,0,0,0,.838-1.076l1.046-1.634a4.26,4.26,0,0,0,.731-4.278q-1.293.512-2.548,1.144a3.923,3.923,0,0,0-1.049.69,6.129,6.129,0,0,0-1.135,2.336,2.937,2.937,0,0,1-1.535,1.948,1.462,1.462,0,0,1-1.79-1.2C942.691,1581.446,943.977,1579.983,944.461,1579.318Z" transform="translate(-942.692 -1571.228)" fill="#e8a42a"/>
        <path id="Trazado_104249" data-name="Trazado 104249" d="M988.654,1552.91a1.078,1.078,0,0,1,.1-.287.99.99,0,0,1,.249-.256l2.38-1.911a2.032,2.032,0,0,0,.643.382l-1.865,3.389a1.487,1.487,0,0,0,.547-.5q.946-1.213,1.814-2.5l.458.518-.608,2.245a3.117,3.117,0,0,1-.355.916,3.576,3.576,0,0,1-.741.718,7.784,7.784,0,0,1-.964.78,1.423,1.423,0,0,1-1.162.219,1.293,1.293,0,0,1-.949-1.26A10.122,10.122,0,0,1,988.654,1552.91Z" transform="translate(-980.67 -1550.456)" fill="#a5b7c6"/>
      </g>
      <path id="Trazado_104250" data-name="Trazado 104250" d="M926.472,1576.278a10.885,10.885,0,0,0,3.338,3.113,4.484,4.484,0,0,0,2.058.727.813.813,0,0,0,.439-.075.344.344,0,0,0,.18-.376,2.145,2.145,0,0,0,1.3.027c.408-.171.674-.734.388-1.072a.726.726,0,0,0,.331-.735,1.632,1.632,0,0,0-.367-.764,11,11,0,0,0-2.5-2.1,6.291,6.291,0,0,1-2.228-2.346.473.473,0,0,1-.051-.369.443.443,0,0,1,.2-.193,9.563,9.563,0,0,1,2.143-.521c.211-.064.458-.274.334-.457a.337.337,0,0,0-.167-.112,5.788,5.788,0,0,0-2.743-.2,6.194,6.194,0,0,1-3.086-.266c-.928-.325-1.194-.34-2.1-.726a1.647,1.647,0,0,0-1.161-.172,1.541,1.541,0,0,0-.819,1.187,2.168,2.168,0,0,0-.029,1.142,4.827,4.827,0,0,0,2.47,2.156,2.733,2.733,0,0,1,.989.652C925.644,1575.058,926.472,1575.923,926.472,1576.278Z" transform="translate(-113.123 -302.472)" fill="#eacdb0"/>
      <path id="Trazado_104251" data-name="Trazado 104251" d="M909.938,1555.082a41.647,41.647,0,0,1-3.906-3.575.875.875,0,0,0-.335-.252.805.805,0,0,0-.573.094,5.079,5.079,0,0,0-2.718,6.155.738.738,0,0,0,.138.279.774.774,0,0,0,.36.19c2,.624,3.946.856,5.816,1.856a11.467,11.467,0,0,1-.007-2.324A5.366,5.366,0,0,1,909.938,1555.082Z" transform="translate(-96.676 -287.136)" fill="#c5daef"/>
      <g id="Grupo_55025" data-name="Grupo 55025" transform="translate(863.975 1239.639)">
        <path id="Trazado_104252" data-name="Trazado 104252" d="M1256.655,1430.336c4.644-1.609,7.947-5.572,10.026-9.889a75.489,75.489,0,0,0,3.106-8.072c.474-1.364.961-2.725,1.512-4.059a7.473,7.473,0,0,1,1.672-2.77,1.666,1.666,0,0,1,2.211-.165,5.116,5.116,0,0,1,1.485,2.584,28.7,28.7,0,0,1,1.248,8.332c.081,5.846-1.016,11.647-1.719,17.431q-1.113,9.159-1.678,18.373c-.187,3.051-.337,6.106-.425,9.162a37.571,37.571,0,0,0,.412,7.744,14.618,14.618,0,0,0,3.117,7.047,5.491,5.491,0,0,0,3.378,1.821c1.5.233,3.035.312,4.548.453l4.578.424a8.191,8.191,0,0,1,3.167.609c.672.368.87.966.382,1.525a5.964,5.964,0,0,1-2.581,1.374c-.65.243-1.69.648-1.453,1.55.185.7.991.8,1.593.856a19.508,19.508,0,0,0,3.9-.123,106.107,106.107,0,0,1,18.331-.4q2.231.145,4.454.384a.818.818,0,0,0,.813-.812.831.831,0,0,0-.812-.812,106.489,106.489,0,0,0-18.41-.37c-2.131.143-4.253.468-6.387.535a16.454,16.454,0,0,1-1.946-.034c-.222-.019.063.022-.042,0-.044-.011-.09-.015-.134-.025a.81.81,0,0,0-.15-.039c-.088,0,.176.1.058.022a.738.738,0,0,1,.158,1.036c.062-.062-.184.091-.027.025.064-.027.124-.071.187-.1.037-.018.22-.1.1-.046.095-.039.191-.075.288-.11.249-.09.5-.166.749-.26a7.9,7.9,0,0,0,1.584-.774,3.071,3.071,0,0,0,1.623-2.658c-.218-2.719-3.656-2.809-5.68-3l-4.577-.424-2.368-.219a16.525,16.525,0,0,1-1.984-.24,4.337,4.337,0,0,1-2.707-2,12.972,12.972,0,0,1-1.625-3.376,24.8,24.8,0,0,1-.943-7.531c0-2.9.159-5.8.313-8.7q.491-9.252,1.537-18.463c.34-2.994.743-5.978,1.14-8.964.382-2.862.731-5.734.836-8.621a35.442,35.442,0,0,0-.645-8.635,18.013,18.013,0,0,0-1.166-3.8,4.774,4.774,0,0,0-2.179-2.432,3.237,3.237,0,0,0-3.288.361,6.828,6.828,0,0,0-2.052,2.765c-1.174,2.631-2.034,5.386-3,8.1-1.642,4.61-3.806,9.438-7.973,12.311a12.45,12.45,0,0,1-2.988,1.533.832.832,0,0,0-.567,1,.82.82,0,0,0,1,.567Z" transform="translate(-1255.627 -1403.413)" fill="#ffd947"/>
      </g>
      <path id="Trazado_104253" data-name="Trazado 104253" d="M1334.438,1401.272a2.061,2.061,0,0,1,.6-.176.622.622,0,0,1,.557.22c.207.291.012.694-.213.971a6.129,6.129,0,0,1-3.461,1.991,3.1,3.1,0,0,1-1.048.088,1.378,1.378,0,0,1-.917-.472c-.633-.8.135-1.784.993-1.885A13.413,13.413,0,0,0,1334.438,1401.272Z" transform="translate(-453.488 -161.838)" fill="#eacdb0"/>
    </g>
  </g>
</svg>
