<svg xmlns="http://www.w3.org/2000/svg" width="112.119" height="112.272" viewBox="0 0 112.119 112.272">
  <g id="Grupo_55127" data-name="Grupo 55127" transform="translate(-648.94 -1467.588)">
    <path id="Trazado_105704" data-name="Trazado 105704" d="M56.06,0A56.06,56.06,0,1,1,0,56.06,56.06,56.06,0,0,1,56.06,0Z" transform="translate(648.94 1467.741)" fill="#1e866f" opacity="0.997"/>
    <g id="Grupo_55121" data-name="Grupo 55121" transform="translate(413.302 1223.274)">
      <path id="Trazado_104204" data-name="Trazado 104204" d="M310.749,254.264l15.368,88.342-46.339,8.064-5.97-34.318L254.064,302.46a5.707,5.707,0,0,1-1.382-7.958,5.229,5.229,0,0,1,3.449-2.2,7.148,7.148,0,0,1,4.5.818l10.143,5.8-6.712-38.558a5.083,5.083,0,0,1,10.015-1.743l4.143,23.824,2.1-.366-5.245-30.142a5.083,5.083,0,0,1,10.015-1.741l5.242,30.14,2.1-.362-4.795-27.561a5.082,5.082,0,1,1,10.014-1.743l4.795,27.563,2.1-.366-3.8-21.853a5.082,5.082,0,0,1,10.014-1.746Z" transform="translate(0 1.09)" fill="#c4a424"/>
      <g id="Grupo_55019" data-name="Grupo 55019" transform="translate(258.347 244.313)">
        <path id="Trazado_104205" data-name="Trazado 104205" d="M329.737,263.279l-14.678,93.307-48.948-7.7,5.7-36.244-14.967-20.558a6.009,6.009,0,0,1,1.321-8.4,5.516,5.516,0,0,1,4.193-1.026A7.559,7.559,0,0,1,266.57,285l8.142,9.227L281.12,253.5a5.352,5.352,0,0,1,10.575,1.665l-3.959,25.161,2.215.348,5.005-31.833a5.356,5.356,0,0,1,10.581,1.665l-5.01,31.833,2.211.348,4.58-29.107a5.352,5.352,0,1,1,10.575,1.663l-4.578,29.109,2.215.346,3.63-23.079a5.354,5.354,0,1,1,10.578,1.662Z" transform="translate(-255.692 -244.313)" fill="#ffd947"/>
        <path id="Trazado_104206" data-name="Trazado 104206" d="M325.612,255.773l-14.678,93.305-48.946-7.7,42.891-6.806Z" transform="translate(-251.567 -236.806)" fill="#8f6966" opacity="0.29" style="mix-blend-mode: multiply;isolation: isolate"/>
        <g id="Grupo_55018" data-name="Grupo 55018" transform="translate(37.158 86.232)">
          <path id="Trazado_104207" data-name="Trazado 104207" d="M288.149,298.406l-5.9,7.487,3.813.6-2.7,6.54,6.567-7.757-4.059-.635Z" transform="translate(-275.453 -295.107)" fill="#1e866f"/>
          <path id="Trazado_104208" data-name="Trazado 104208" d="M290.4,296.544a10.612,10.612,0,1,0,8.833,12.132A10.609,10.609,0,0,0,290.4,296.544Zm-3.044,19.349a8.973,8.973,0,1,1,10.259-7.47A8.978,8.978,0,0,1,287.359,315.892Z" transform="translate(-278.142 -296.413)" fill="#1e866f"/>
        </g>
        <path id="Trazado_104209" data-name="Trazado 104209" d="M269.061,280.387l2.822-12.664,35.485,5.583-32.62-1.222Z" transform="translate(-246.933 -228.977)" fill="#fff" opacity="0.6"/>
      </g>
    </g>
  </g>
</svg>
