<svg xmlns="http://www.w3.org/2000/svg" xmlns:xlink="http://www.w3.org/1999/xlink" width="527.326" height="298.845" viewBox="0 0 527.326 298.845">
  <defs>
    <clipPath id="clip-path">
      <rect id="Rectángulo_30963" data-name="Rectángulo 30963" width="451.07" height="257.954" fill="none"/>
    </clipPath>
  </defs>
  <g id="Grupo_83479" data-name="Grupo 83479" transform="translate(-283.754 -1945.745)">
    <g id="Grupo_56040" data-name="Grupo 56040" transform="translate(323.43 1965.174)">
      <g id="Grupo_56039" data-name="Grupo 56039" clip-path="url(#clip-path)">
        <path id="Trazado_105700" data-name="Trazado 105700" d="M0,0H241.075V273.994H0Z" transform="translate(217.261 -5.736)" fill="#861cc7" stroke="#3c0061" stroke-width="2" opacity="0.999"/>
        <path id="Trazado_105696" data-name="Trazado 105696" d="M694.429,480.435H519.486V206.442H575.4s-41.34,66.772,55.459,113.7C717.355,359.8,694.429,480.435,694.429,480.435Z" transform="translate(-302.225 -212.177)" fill="#b3009d" stroke="#3c0061" stroke-miterlimit="10" stroke-width="4"/>
        <path id="Trazado_105697" data-name="Trazado 105697" d="M668.616,480.452H503.1V206.459h57.946S526.4,281.378,608.905,321.626C695.4,361.281,668.616,480.452,668.616,480.452Z" transform="translate(-307.495 -212.172)" fill="#f74ae2" stroke="#3c0061" stroke-miterlimit="10" stroke-width="4"/>
        <path id="Trazado_105698" data-name="Trazado 105698" d="M657.823,480.452H477.085V206.459h74.006s-24.106,81.323,46.52,119.42C679.171,365.534,657.823,480.452,657.823,480.452Z" transform="translate(-315.864 -212.172)" fill="#00cca7" stroke="#3c0061" stroke-miterlimit="10" stroke-width="4"/>
        <path id="Trazado_105701" data-name="Trazado 105701" d="M0,0H72.314V273.994H0Z" transform="translate(-7.825 -5.713)" fill="#ffd947" stroke="#3c0061" stroke-width="4"/>
        <path id="Trazado_105699" data-name="Trazado 105699" d="M645.728,480.453H403.9V206.459h98.712v66.382Z" transform="translate(-339.407 -212.172)" fill="#ffe991" stroke="#3c0061" stroke-miterlimit="10" stroke-width="4"/>
        <line id="Línea_220" data-name="Línea 220" x2="129" y2="257" transform="translate(233.07 0.5)" fill="none" stroke="#fff" stroke-linecap="round" stroke-width="3"/>
      </g>
    </g>
    <path id="Trazado_140674" data-name="Trazado 140674" d="M0,0V257.954" transform="translate(713 1965.174)" fill="none" stroke="#fff" stroke-width="1" stroke-dasharray="6"/>
    <path id="Trazado_140675" data-name="Trazado 140675" d="M0,0V257.954" transform="translate(743 1965.174)" fill="none" stroke="#fff" stroke-width="1" stroke-dasharray="6"/>
    <path id="Trazado_140676" data-name="Trazado 140676" d="M0,0V257.954" transform="translate(683 1965.174)" fill="none" stroke="#fff" stroke-width="1" stroke-dasharray="6"/>
    <path id="Trazado_140677" data-name="Trazado 140677" d="M0,0V257.954" transform="translate(653 1965.174)" fill="none" stroke="#fff" stroke-width="1" stroke-dasharray="6"/>
    <path id="Trazado_140678" data-name="Trazado 140678" d="M0,0V257.954" transform="translate(623 1965.174)" fill="none" stroke="#fff" stroke-width="1" stroke-dasharray="6"/>
    <path id="Trazado_140679" data-name="Trazado 140679" d="M0,0V257.954" transform="translate(593 1965.174)" fill="none" stroke="#fff" stroke-width="1" stroke-dasharray="6"/>
    <path id="Trazado_140680" data-name="Trazado 140680" d="M0,0V257.954" transform="translate(563 1965.174)" fill="none" stroke="#fff" stroke-width="1" stroke-dasharray="6"/>
    <path id="Trazado_140681" data-name="Trazado 140681" d="M0,0V257.954" transform="translate(533 1965.174)" fill="none" stroke="#fff" stroke-width="1" stroke-dasharray="6"/>
    <path id="Trazado_140682" data-name="Trazado 140682" d="M0,0V257.954" transform="translate(503 1965.174)" fill="none" stroke="#fff" stroke-width="1" stroke-dasharray="6"/>
    <path id="Trazado_140683" data-name="Trazado 140683" d="M0,0V257.954" transform="translate(473 1965.174)" fill="none" stroke="#fff" stroke-width="1" stroke-dasharray="6"/>
    <path id="Trazado_140684" data-name="Trazado 140684" d="M0,0V257.954" transform="translate(443 1965.174)" fill="none" stroke="#fff" stroke-width="1" stroke-dasharray="6"/>
    <path id="Trazado_140685" data-name="Trazado 140685" d="M0,0V257.954" transform="translate(413 1965.174)" fill="none" stroke="#fff" stroke-width="1" stroke-dasharray="6"/>
    <path id="Trazado_140686" data-name="Trazado 140686" d="M0,0V257.954" transform="translate(383 1965.174)" fill="none" stroke="#fff" stroke-width="1" stroke-dasharray="6"/>
    <path id="Trazado_140687" data-name="Trazado 140687" d="M0,0V257.954" transform="translate(353 1965.174)" fill="none" stroke="#fff" stroke-width="1" stroke-dasharray="6"/>
    <path id="Trazado_140688" data-name="Trazado 140688" d="M0,0H451.07" transform="translate(323.43 2021.918)" fill="none" stroke="#fff" stroke-width="1" stroke-dasharray="6"/>
    <path id="Trazado_140689" data-name="Trazado 140689" d="M0,0H451.07" transform="translate(323.43 1993.674)" fill="none" stroke="#fff" stroke-width="1" stroke-dasharray="6"/>
    <path id="Trazado_140690" data-name="Trazado 140690" d="M0,0H451.07" transform="translate(323.43 2051.663)" fill="none" stroke="#fff" stroke-width="1" stroke-dasharray="6"/>
    <path id="Trazado_140691" data-name="Trazado 140691" d="M0,0H451.07" transform="translate(323.43 2079.907)" fill="none" stroke="#fff" stroke-width="1" stroke-dasharray="6"/>
    <path id="Trazado_140692" data-name="Trazado 140692" d="M0,0H451.07" transform="translate(323.43 2108.151)" fill="none" stroke="#fff" stroke-width="1" stroke-dasharray="6"/>
    <path id="Trazado_140693" data-name="Trazado 140693" d="M0,0H451.07" transform="translate(323.43 2136.896)" fill="none" stroke="#fff" stroke-width="1" stroke-dasharray="6"/>
    <path id="Trazado_140694" data-name="Trazado 140694" d="M0,0H451.07" transform="translate(323.43 2165.64)" fill="none" stroke="#fff" stroke-width="1" stroke-dasharray="6"/>
    <path id="Trazado_140695" data-name="Trazado 140695" d="M0,0H451.07" transform="translate(323.43 2194.384)" fill="none" stroke="#fff" stroke-width="1" stroke-dasharray="6"/>
    <path id="Trazado_140696" data-name="Trazado 140696" d="M0,0H451.07V257.954H0Z" transform="translate(323.43 1965.174)" fill="none" stroke="#000" stroke-width="2"/>
    <path id="Trazado_140697" data-name="Trazado 140697" d="M-7.671,0h-.908V-6.021l-1.821.669v-.82l2.588-.972h.142Zm7.1-3.032A4.131,4.131,0,0,1-1.108-.674,1.928,1.928,0,0,1-2.8.1,1.942,1.942,0,0,1-4.487-.657,3.921,3.921,0,0,1-5.054-2.91V-4.116a4.039,4.039,0,0,1,.542-2.329,1.942,1.942,0,0,1,1.7-.762,1.96,1.96,0,0,1,1.689.735A3.9,3.9,0,0,1-.566-4.2Zm-.9-1.235A3.31,3.31,0,0,0-1.792-5.94a1.109,1.109,0,0,0-1.021-.525,1.1,1.1,0,0,0-1.011.522A3.232,3.232,0,0,0-4.15-4.336v1.445a3.363,3.363,0,0,0,.334,1.7A1.107,1.107,0,0,0-2.8-.64a1.092,1.092,0,0,0,.994-.518A3.241,3.241,0,0,0-1.47-2.788Z" transform="translate(311 2226.174)" fill="#12263f"/>
    <path id="Trazado_140698" data-name="Trazado 140698" d="M-8.145-3.032A4.131,4.131,0,0,1-8.687-.674,1.928,1.928,0,0,1-10.381.1a1.942,1.942,0,0,1-1.685-.754,3.921,3.921,0,0,1-.566-2.253V-4.116a4.039,4.039,0,0,1,.542-2.329,1.942,1.942,0,0,1,1.7-.762A1.96,1.96,0,0,1-8.7-6.472,3.9,3.9,0,0,1-8.145-4.2Zm-.9-1.235A3.31,3.31,0,0,0-9.37-5.94a1.109,1.109,0,0,0-1.021-.525,1.1,1.1,0,0,0-1.011.522,3.232,3.232,0,0,0-.327,1.606v1.445a3.363,3.363,0,0,0,.334,1.7,1.107,1.107,0,0,0,1.013.549,1.092,1.092,0,0,0,.994-.518,3.241,3.241,0,0,0,.339-1.631Zm2.124,5.684-.513-.352A2.356,2.356,0,0,0-6.958-.254v-.815h.884v.708a2.224,2.224,0,0,1-.242.986A2.309,2.309,0,0,1-6.924,1.416ZM-2.056,0h-.908V-6.021l-1.821.669v-.82L-2.2-7.144h.142Z" transform="translate(332 2243.174)" fill="#12263f"/>
    <path id="Trazado_140699" data-name="Trazado 140699" d="M-8.145-3.032A4.131,4.131,0,0,1-8.687-.674,1.928,1.928,0,0,1-10.381.1a1.942,1.942,0,0,1-1.685-.754,3.921,3.921,0,0,1-.566-2.253V-4.116a4.039,4.039,0,0,1,.542-2.329,1.942,1.942,0,0,1,1.7-.762A1.96,1.96,0,0,1-8.7-6.472,3.9,3.9,0,0,1-8.145-4.2Zm-.9-1.235A3.31,3.31,0,0,0-9.37-5.94a1.109,1.109,0,0,0-1.021-.525,1.1,1.1,0,0,0-1.011.522,3.232,3.232,0,0,0-.327,1.606v1.445a3.363,3.363,0,0,0,.334,1.7,1.107,1.107,0,0,0,1.013.549,1.092,1.092,0,0,0,.994-.518,3.241,3.241,0,0,0,.339-1.631Zm2.124,5.684-.513-.352A2.356,2.356,0,0,0-6.958-.254v-.815h.884v.708a2.224,2.224,0,0,1-.242.986A2.309,2.309,0,0,1-6.924,1.416ZM-.366,0H-5.024V-.649l2.461-2.734a5.847,5.847,0,0,0,.754-1.008A1.683,1.683,0,0,0-1.6-5.2a1.276,1.276,0,0,0-.337-.913,1.178,1.178,0,0,0-.9-.356,1.4,1.4,0,0,0-1.047.383,1.464,1.464,0,0,0-.374,1.067h-.9A2.1,2.1,0,0,1-4.529-6.6a2.344,2.344,0,0,1,1.692-.605,2.252,2.252,0,0,1,1.567.52A1.774,1.774,0,0,1-.693-5.3,4.067,4.067,0,0,1-2.031-2.8l-1.9,2.065H-.366Z" transform="translate(362 2243.174)" fill="#12263f"/>
    <path id="Trazado_140700" data-name="Trazado 140700" d="M-8.145-3.032A4.131,4.131,0,0,1-8.687-.674,1.928,1.928,0,0,1-10.381.1a1.942,1.942,0,0,1-1.685-.754,3.921,3.921,0,0,1-.566-2.253V-4.116a4.039,4.039,0,0,1,.542-2.329,1.942,1.942,0,0,1,1.7-.762A1.96,1.96,0,0,1-8.7-6.472,3.9,3.9,0,0,1-8.145-4.2Zm-.9-1.235A3.31,3.31,0,0,0-9.37-5.94a1.109,1.109,0,0,0-1.021-.525,1.1,1.1,0,0,0-1.011.522,3.232,3.232,0,0,0-.327,1.606v1.445a3.363,3.363,0,0,0,.334,1.7,1.107,1.107,0,0,0,1.013.549,1.092,1.092,0,0,0,.994-.518,3.241,3.241,0,0,0,.339-1.631Zm2.124,5.684-.513-.352A2.356,2.356,0,0,0-6.958-.254v-.815h.884v.708a2.224,2.224,0,0,1-.242.986A2.309,2.309,0,0,1-6.924,1.416Zm3.213-5.41h.679a1.492,1.492,0,0,0,1.006-.337,1.126,1.126,0,0,0,.366-.884,1.1,1.1,0,0,0-1.245-1.25,1.3,1.3,0,0,0-.935.334,1.171,1.171,0,0,0-.349.886h-.9a1.814,1.814,0,0,1,.618-1.4,2.25,2.25,0,0,1,1.57-.559,2.224,2.224,0,0,1,1.577.532A1.923,1.923,0,0,1-.757-5.2a1.561,1.561,0,0,1-.3.9,1.813,1.813,0,0,1-.818.649,1.747,1.747,0,0,1,.906.615,1.709,1.709,0,0,1,.32,1.05A1.939,1.939,0,0,1-1.274-.464,2.34,2.34,0,0,1-2.9.1,2.4,2.4,0,0,1-4.529-.444a1.8,1.8,0,0,1-.627-1.431h.908a1.162,1.162,0,0,0,.366.9A1.393,1.393,0,0,0-2.9-.64a1.367,1.367,0,0,0,1-.342,1.317,1.317,0,0,0,.347-.981,1.2,1.2,0,0,0-.381-.952,1.659,1.659,0,0,0-1.1-.342h-.679Z" transform="translate(392 2243.174)" fill="#12263f"/>
    <path id="Trazado_140701" data-name="Trazado 140701" d="M-2.056,0h-.908V-6.021l-1.821.669v-.82L-2.2-7.144h.142Z" transform="translate(417 2243.174)" fill="#12263f"/>
    <path id="Trazado_140702" data-name="Trazado 140702" d="M-.366,0H-5.024V-.649l2.461-2.734a5.847,5.847,0,0,0,.754-1.008A1.683,1.683,0,0,0-1.6-5.2a1.276,1.276,0,0,0-.337-.913,1.178,1.178,0,0,0-.9-.356,1.4,1.4,0,0,0-1.047.383,1.464,1.464,0,0,0-.374,1.067h-.9A2.1,2.1,0,0,1-4.529-6.6a2.344,2.344,0,0,1,1.692-.605,2.252,2.252,0,0,1,1.567.52A1.774,1.774,0,0,1-.693-5.3,4.067,4.067,0,0,1-2.031-2.8l-1.9,2.065H-.366Z" transform="translate(447 2243.174)" fill="#12263f"/>
    <path id="Trazado_140703" data-name="Trazado 140703" d="M-4.609-3.564l.361-3.545H-.605v.835H-3.481L-3.7-4.336A2.294,2.294,0,0,1-2.51-4.644,1.961,1.961,0,0,1-.967-4,2.516,2.516,0,0,1-.4-2.266,2.429,2.429,0,0,1-.989-.535,2.162,2.162,0,0,1-2.646.1,2.247,2.247,0,0,1-4.185-.425,2.085,2.085,0,0,1-4.863-1.87h.854a1.435,1.435,0,0,0,.435.92,1.351,1.351,0,0,0,.928.31,1.219,1.219,0,0,0,.989-.43A1.8,1.8,0,0,0-1.3-2.256,1.649,1.649,0,0,0-1.687-3.4,1.32,1.32,0,0,0-2.72-3.833a1.489,1.489,0,0,0-.928.259l-.239.2Z" transform="translate(477 2243.174)" fill="#12263f"/>
    <path id="Trazado_140704" data-name="Trazado 140704" d="M-7.671,0h-.908V-6.021l-1.821.669v-.82l2.588-.972h.142Zm7.1-3.032A4.131,4.131,0,0,1-1.108-.674,1.928,1.928,0,0,1-2.8.1,1.942,1.942,0,0,1-4.487-.657,3.921,3.921,0,0,1-5.054-2.91V-4.116a4.039,4.039,0,0,1,.542-2.329,1.942,1.942,0,0,1,1.7-.762,1.96,1.96,0,0,1,1.689.735A3.9,3.9,0,0,1-.566-4.2Zm-.9-1.235A3.31,3.31,0,0,0-1.792-5.94a1.109,1.109,0,0,0-1.021-.525,1.1,1.1,0,0,0-1.011.522A3.232,3.232,0,0,0-4.15-4.336v1.445a3.363,3.363,0,0,0,.334,1.7A1.107,1.107,0,0,0-2.8-.64a1.092,1.092,0,0,0,.994-.518A3.241,3.241,0,0,0-1.47-2.788Z" transform="translate(507 2243.174)" fill="#12263f"/>
    <path id="Trazado_140705" data-name="Trazado 140705" d="M-5.981,0H-10.64V-.649l2.461-2.734a5.847,5.847,0,0,0,.754-1.008,1.683,1.683,0,0,0,.208-.8,1.276,1.276,0,0,0-.337-.913,1.178,1.178,0,0,0-.9-.356A1.4,1.4,0,0,0-9.5-6.082a1.464,1.464,0,0,0-.374,1.067h-.9A2.1,2.1,0,0,1-10.144-6.6a2.344,2.344,0,0,1,1.692-.605,2.252,2.252,0,0,1,1.567.52A1.774,1.774,0,0,1-6.309-5.3,4.067,4.067,0,0,1-7.646-2.8l-1.9,2.065h3.569ZM-.566-3.032A4.131,4.131,0,0,1-1.108-.674,1.928,1.928,0,0,1-2.8.1,1.942,1.942,0,0,1-4.487-.657,3.921,3.921,0,0,1-5.054-2.91V-4.116a4.039,4.039,0,0,1,.542-2.329,1.942,1.942,0,0,1,1.7-.762,1.96,1.96,0,0,1,1.689.735A3.9,3.9,0,0,1-.566-4.2Zm-.9-1.235A3.31,3.31,0,0,0-1.792-5.94a1.109,1.109,0,0,0-1.021-.525,1.1,1.1,0,0,0-1.011.522A3.232,3.232,0,0,0-4.15-4.336v1.445a3.363,3.363,0,0,0,.334,1.7A1.107,1.107,0,0,0-2.8-.64a1.092,1.092,0,0,0,.994-.518A3.241,3.241,0,0,0-1.47-2.788Z" transform="translate(540 2243.174)" fill="#12263f"/>
    <path id="Trazado_140706" data-name="Trazado 140706" d="M-10.225-3.564l.361-3.545h3.643v.835H-9.1l-.215,1.938a2.294,2.294,0,0,1,1.187-.308A1.961,1.961,0,0,1-6.582-4a2.516,2.516,0,0,1,.571,1.736A2.429,2.429,0,0,1-6.6-.535,2.162,2.162,0,0,1-8.262.1,2.247,2.247,0,0,1-9.8-.425a2.085,2.085,0,0,1-.679-1.445h.854a1.435,1.435,0,0,0,.435.92,1.351,1.351,0,0,0,.928.31,1.219,1.219,0,0,0,.989-.43,1.8,1.8,0,0,0,.359-1.187A1.649,1.649,0,0,0-7.3-3.4a1.32,1.32,0,0,0-1.033-.432,1.489,1.489,0,0,0-.928.259l-.239.2Zm9.658.532A4.131,4.131,0,0,1-1.108-.674,1.928,1.928,0,0,1-2.8.1,1.942,1.942,0,0,1-4.487-.657,3.921,3.921,0,0,1-5.054-2.91V-4.116a4.039,4.039,0,0,1,.542-2.329,1.942,1.942,0,0,1,1.7-.762,1.96,1.96,0,0,1,1.689.735A3.9,3.9,0,0,1-.566-4.2Zm-.9-1.235A3.31,3.31,0,0,0-1.792-5.94a1.109,1.109,0,0,0-1.021-.525,1.1,1.1,0,0,0-1.011.522A3.232,3.232,0,0,0-4.15-4.336v1.445a3.363,3.363,0,0,0,.334,1.7A1.107,1.107,0,0,0-2.8-.64a1.092,1.092,0,0,0,.994-.518A3.241,3.241,0,0,0-1.47-2.788Z" transform="translate(570 2243.174)" fill="#12263f"/>
    <path id="Trazado_140707" data-name="Trazado 140707" d="M-13.286,0h-.908V-6.021l-1.821.669v-.82l2.588-.972h.142Zm7.1-3.032A4.131,4.131,0,0,1-6.724-.674,1.928,1.928,0,0,1-8.418.1,1.942,1.942,0,0,1-10.1-.657a3.921,3.921,0,0,1-.566-2.253V-4.116a4.039,4.039,0,0,1,.542-2.329,1.942,1.942,0,0,1,1.7-.762,1.96,1.96,0,0,1,1.689.735A3.9,3.9,0,0,1-6.182-4.2Zm-.9-1.235A3.31,3.31,0,0,0-7.407-5.94a1.109,1.109,0,0,0-1.021-.525,1.1,1.1,0,0,0-1.011.522,3.232,3.232,0,0,0-.327,1.606v1.445a3.363,3.363,0,0,0,.334,1.7A1.107,1.107,0,0,0-8.418-.64a1.092,1.092,0,0,0,.994-.518,3.241,3.241,0,0,0,.339-1.631ZM-.566-3.032A4.131,4.131,0,0,1-1.108-.674,1.928,1.928,0,0,1-2.8.1,1.942,1.942,0,0,1-4.487-.657,3.921,3.921,0,0,1-5.054-2.91V-4.116a4.039,4.039,0,0,1,.542-2.329,1.942,1.942,0,0,1,1.7-.762,1.96,1.96,0,0,1,1.689.735A3.9,3.9,0,0,1-.566-4.2Zm-.9-1.235A3.31,3.31,0,0,0-1.792-5.94a1.109,1.109,0,0,0-1.021-.525,1.1,1.1,0,0,0-1.011.522A3.232,3.232,0,0,0-4.15-4.336v1.445a3.363,3.363,0,0,0,.334,1.7A1.107,1.107,0,0,0-2.8-.64a1.092,1.092,0,0,0,.994-.518A3.241,3.241,0,0,0-1.47-2.788Z" transform="translate(600 2243.174)" fill="#12263f"/>
    <path id="Trazado_140708" data-name="Trazado 140708" d="M-11.6,0h-4.658V-.649l2.461-2.734a5.847,5.847,0,0,0,.754-1.008,1.683,1.683,0,0,0,.208-.8,1.276,1.276,0,0,0-.337-.913,1.178,1.178,0,0,0-.9-.356,1.4,1.4,0,0,0-1.047.383,1.464,1.464,0,0,0-.374,1.067h-.9A2.1,2.1,0,0,1-15.759-6.6a2.344,2.344,0,0,1,1.692-.605,2.252,2.252,0,0,1,1.567.52A1.774,1.774,0,0,1-11.924-5.3a4.067,4.067,0,0,1-1.338,2.5l-1.9,2.065H-11.6Zm5.415-3.032A4.131,4.131,0,0,1-6.724-.674,1.928,1.928,0,0,1-8.418.1,1.942,1.942,0,0,1-10.1-.657a3.921,3.921,0,0,1-.566-2.253V-4.116a4.039,4.039,0,0,1,.542-2.329,1.942,1.942,0,0,1,1.7-.762,1.96,1.96,0,0,1,1.689.735A3.9,3.9,0,0,1-6.182-4.2Zm-.9-1.235A3.31,3.31,0,0,0-7.407-5.94a1.109,1.109,0,0,0-1.021-.525,1.1,1.1,0,0,0-1.011.522,3.232,3.232,0,0,0-.327,1.606v1.445a3.363,3.363,0,0,0,.334,1.7A1.107,1.107,0,0,0-8.418-.64a1.092,1.092,0,0,0,.994-.518,3.241,3.241,0,0,0,.339-1.631ZM-.566-3.032A4.131,4.131,0,0,1-1.108-.674,1.928,1.928,0,0,1-2.8.1,1.942,1.942,0,0,1-4.487-.657,3.921,3.921,0,0,1-5.054-2.91V-4.116a4.039,4.039,0,0,1,.542-2.329,1.942,1.942,0,0,1,1.7-.762,1.96,1.96,0,0,1,1.689.735A3.9,3.9,0,0,1-.566-4.2Zm-.9-1.235A3.31,3.31,0,0,0-1.792-5.94a1.109,1.109,0,0,0-1.021-.525,1.1,1.1,0,0,0-1.011.522A3.232,3.232,0,0,0-4.15-4.336v1.445a3.363,3.363,0,0,0,.334,1.7A1.107,1.107,0,0,0-2.8-.64a1.092,1.092,0,0,0,.994-.518A3.241,3.241,0,0,0-1.47-2.788Z" transform="translate(633 2243.174)" fill="#12263f"/>
    <path id="Trazado_140709" data-name="Trazado 140709" d="M-15.84-3.564l.361-3.545h3.643v.835h-2.876l-.215,1.938a2.294,2.294,0,0,1,1.187-.308A1.961,1.961,0,0,1-12.2-4a2.516,2.516,0,0,1,.571,1.736,2.429,2.429,0,0,1-.593,1.731A2.162,2.162,0,0,1-13.877.1a2.247,2.247,0,0,1-1.538-.522,2.085,2.085,0,0,1-.679-1.445h.854a1.435,1.435,0,0,0,.435.92,1.351,1.351,0,0,0,.928.31,1.219,1.219,0,0,0,.989-.43,1.8,1.8,0,0,0,.359-1.187A1.649,1.649,0,0,0-12.917-3.4a1.32,1.32,0,0,0-1.033-.432,1.489,1.489,0,0,0-.928.259l-.239.2Zm9.658.532A4.131,4.131,0,0,1-6.724-.674,1.928,1.928,0,0,1-8.418.1,1.942,1.942,0,0,1-10.1-.657a3.921,3.921,0,0,1-.566-2.253V-4.116a4.039,4.039,0,0,1,.542-2.329,1.942,1.942,0,0,1,1.7-.762,1.96,1.96,0,0,1,1.689.735A3.9,3.9,0,0,1-6.182-4.2Zm-.9-1.235A3.31,3.31,0,0,0-7.407-5.94a1.109,1.109,0,0,0-1.021-.525,1.1,1.1,0,0,0-1.011.522,3.232,3.232,0,0,0-.327,1.606v1.445a3.363,3.363,0,0,0,.334,1.7A1.107,1.107,0,0,0-8.418-.64a1.092,1.092,0,0,0,.994-.518,3.241,3.241,0,0,0,.339-1.631ZM-.566-3.032A4.131,4.131,0,0,1-1.108-.674,1.928,1.928,0,0,1-2.8.1,1.942,1.942,0,0,1-4.487-.657,3.921,3.921,0,0,1-5.054-2.91V-4.116a4.039,4.039,0,0,1,.542-2.329,1.942,1.942,0,0,1,1.7-.762,1.96,1.96,0,0,1,1.689.735A3.9,3.9,0,0,1-.566-4.2Zm-.9-1.235A3.31,3.31,0,0,0-1.792-5.94a1.109,1.109,0,0,0-1.021-.525,1.1,1.1,0,0,0-1.011.522A3.232,3.232,0,0,0-4.15-4.336v1.445a3.363,3.363,0,0,0,.334,1.7A1.107,1.107,0,0,0-2.8-.64a1.092,1.092,0,0,0,.994-.518A3.241,3.241,0,0,0-1.47-2.788Z" transform="translate(663 2243.174)" fill="#12263f"/>
    <path id="Trazado_140710" data-name="Trazado 140710" d="M-18.9,0h-.908V-6.021l-1.821.669v-.82l2.588-.972h.142Zm7.1-3.032a4.131,4.131,0,0,1-.542,2.358A1.928,1.928,0,0,1-14.033.1a1.942,1.942,0,0,1-1.685-.754,3.921,3.921,0,0,1-.566-2.253V-4.116a4.039,4.039,0,0,1,.542-2.329,1.942,1.942,0,0,1,1.7-.762,1.96,1.96,0,0,1,1.689.735A3.9,3.9,0,0,1-11.8-4.2Zm-.9-1.235a3.31,3.31,0,0,0-.322-1.672,1.109,1.109,0,0,0-1.021-.525,1.1,1.1,0,0,0-1.011.522,3.232,3.232,0,0,0-.327,1.606v1.445a3.363,3.363,0,0,0,.334,1.7,1.107,1.107,0,0,0,1.013.549,1.092,1.092,0,0,0,.994-.518A3.241,3.241,0,0,0-12.7-2.788Zm6.519,1.235A4.131,4.131,0,0,1-6.724-.674,1.928,1.928,0,0,1-8.418.1,1.942,1.942,0,0,1-10.1-.657a3.921,3.921,0,0,1-.566-2.253V-4.116a4.039,4.039,0,0,1,.542-2.329,1.942,1.942,0,0,1,1.7-.762,1.96,1.96,0,0,1,1.689.735A3.9,3.9,0,0,1-6.182-4.2Zm-.9-1.235A3.31,3.31,0,0,0-7.407-5.94a1.109,1.109,0,0,0-1.021-.525,1.1,1.1,0,0,0-1.011.522,3.232,3.232,0,0,0-.327,1.606v1.445a3.363,3.363,0,0,0,.334,1.7A1.107,1.107,0,0,0-8.418-.64a1.092,1.092,0,0,0,.994-.518,3.241,3.241,0,0,0,.339-1.631ZM-.566-3.032A4.131,4.131,0,0,1-1.108-.674,1.928,1.928,0,0,1-2.8.1,1.942,1.942,0,0,1-4.487-.657,3.921,3.921,0,0,1-5.054-2.91V-4.116a4.039,4.039,0,0,1,.542-2.329,1.942,1.942,0,0,1,1.7-.762,1.96,1.96,0,0,1,1.689.735A3.9,3.9,0,0,1-.566-4.2Zm-.9-1.235A3.31,3.31,0,0,0-1.792-5.94a1.109,1.109,0,0,0-1.021-.525,1.1,1.1,0,0,0-1.011.522A3.232,3.232,0,0,0-4.15-4.336v1.445a3.363,3.363,0,0,0,.334,1.7A1.107,1.107,0,0,0-2.8-.64a1.092,1.092,0,0,0,.994-.518A3.241,3.241,0,0,0-1.47-2.788Z" transform="translate(694 2243.174)" fill="#12263f"/>
    <path id="Trazado_140711" data-name="Trazado 140711" d="M-17.212,0H-21.87V-.649l2.461-2.734a5.846,5.846,0,0,0,.754-1.008,1.683,1.683,0,0,0,.208-.8,1.276,1.276,0,0,0-.337-.913,1.178,1.178,0,0,0-.9-.356,1.4,1.4,0,0,0-1.047.383A1.464,1.464,0,0,0-21.1-5.015h-.9A2.1,2.1,0,0,1-21.375-6.6a2.344,2.344,0,0,1,1.692-.605,2.252,2.252,0,0,1,1.567.52A1.774,1.774,0,0,1-17.539-5.3a4.067,4.067,0,0,1-1.338,2.5l-1.9,2.065h3.569ZM-11.8-3.032a4.131,4.131,0,0,1-.542,2.358A1.928,1.928,0,0,1-14.033.1a1.942,1.942,0,0,1-1.685-.754,3.921,3.921,0,0,1-.566-2.253V-4.116a4.039,4.039,0,0,1,.542-2.329,1.942,1.942,0,0,1,1.7-.762,1.96,1.96,0,0,1,1.689.735A3.9,3.9,0,0,1-11.8-4.2Zm-.9-1.235a3.31,3.31,0,0,0-.322-1.672,1.109,1.109,0,0,0-1.021-.525,1.1,1.1,0,0,0-1.011.522,3.232,3.232,0,0,0-.327,1.606v1.445a3.363,3.363,0,0,0,.334,1.7,1.107,1.107,0,0,0,1.013.549,1.092,1.092,0,0,0,.994-.518A3.241,3.241,0,0,0-12.7-2.788Zm6.519,1.235A4.131,4.131,0,0,1-6.724-.674,1.928,1.928,0,0,1-8.418.1,1.942,1.942,0,0,1-10.1-.657a3.921,3.921,0,0,1-.566-2.253V-4.116a4.039,4.039,0,0,1,.542-2.329,1.942,1.942,0,0,1,1.7-.762,1.96,1.96,0,0,1,1.689.735A3.9,3.9,0,0,1-6.182-4.2Zm-.9-1.235A3.31,3.31,0,0,0-7.407-5.94a1.109,1.109,0,0,0-1.021-.525,1.1,1.1,0,0,0-1.011.522,3.232,3.232,0,0,0-.327,1.606v1.445a3.363,3.363,0,0,0,.334,1.7A1.107,1.107,0,0,0-8.418-.64a1.092,1.092,0,0,0,.994-.518,3.241,3.241,0,0,0,.339-1.631ZM-.566-3.032A4.131,4.131,0,0,1-1.108-.674,1.928,1.928,0,0,1-2.8.1,1.942,1.942,0,0,1-4.487-.657,3.921,3.921,0,0,1-5.054-2.91V-4.116a4.039,4.039,0,0,1,.542-2.329,1.942,1.942,0,0,1,1.7-.762,1.96,1.96,0,0,1,1.689.735A3.9,3.9,0,0,1-.566-4.2Zm-.9-1.235A3.31,3.31,0,0,0-1.792-5.94a1.109,1.109,0,0,0-1.021-.525,1.1,1.1,0,0,0-1.011.522A3.232,3.232,0,0,0-4.15-4.336v1.445a3.363,3.363,0,0,0,.334,1.7A1.107,1.107,0,0,0-2.8-.64a1.092,1.092,0,0,0,.994-.518A3.241,3.241,0,0,0-1.47-2.788Z" transform="translate(724 2243.174)" fill="#12263f"/>
    <path id="Trazado_140712" data-name="Trazado 140712" d="M-21.455-3.564l.361-3.545h3.643v.835h-2.876l-.215,1.938a2.294,2.294,0,0,1,1.187-.308A1.961,1.961,0,0,1-17.812-4a2.516,2.516,0,0,1,.571,1.736,2.429,2.429,0,0,1-.593,1.731A2.162,2.162,0,0,1-19.492.1,2.247,2.247,0,0,1-21.03-.425a2.085,2.085,0,0,1-.679-1.445h.854a1.435,1.435,0,0,0,.435.92,1.351,1.351,0,0,0,.928.31,1.219,1.219,0,0,0,.989-.43,1.8,1.8,0,0,0,.359-1.187A1.649,1.649,0,0,0-18.533-3.4a1.32,1.32,0,0,0-1.033-.432,1.489,1.489,0,0,0-.928.259l-.239.2Zm9.658.532a4.131,4.131,0,0,1-.542,2.358A1.928,1.928,0,0,1-14.033.1a1.942,1.942,0,0,1-1.685-.754,3.921,3.921,0,0,1-.566-2.253V-4.116a4.039,4.039,0,0,1,.542-2.329,1.942,1.942,0,0,1,1.7-.762,1.96,1.96,0,0,1,1.689.735A3.9,3.9,0,0,1-11.8-4.2Zm-.9-1.235a3.31,3.31,0,0,0-.322-1.672,1.109,1.109,0,0,0-1.021-.525,1.1,1.1,0,0,0-1.011.522,3.232,3.232,0,0,0-.327,1.606v1.445a3.363,3.363,0,0,0,.334,1.7,1.107,1.107,0,0,0,1.013.549,1.092,1.092,0,0,0,.994-.518A3.241,3.241,0,0,0-12.7-2.788Zm6.519,1.235A4.131,4.131,0,0,1-6.724-.674,1.928,1.928,0,0,1-8.418.1,1.942,1.942,0,0,1-10.1-.657a3.921,3.921,0,0,1-.566-2.253V-4.116a4.039,4.039,0,0,1,.542-2.329,1.942,1.942,0,0,1,1.7-.762,1.96,1.96,0,0,1,1.689.735A3.9,3.9,0,0,1-6.182-4.2Zm-.9-1.235A3.31,3.31,0,0,0-7.407-5.94a1.109,1.109,0,0,0-1.021-.525,1.1,1.1,0,0,0-1.011.522,3.232,3.232,0,0,0-.327,1.606v1.445a3.363,3.363,0,0,0,.334,1.7A1.107,1.107,0,0,0-8.418-.64a1.092,1.092,0,0,0,.994-.518,3.241,3.241,0,0,0,.339-1.631ZM-.566-3.032A4.131,4.131,0,0,1-1.108-.674,1.928,1.928,0,0,1-2.8.1,1.942,1.942,0,0,1-4.487-.657,3.921,3.921,0,0,1-5.054-2.91V-4.116a4.039,4.039,0,0,1,.542-2.329,1.942,1.942,0,0,1,1.7-.762,1.96,1.96,0,0,1,1.689.735A3.9,3.9,0,0,1-.566-4.2Zm-.9-1.235A3.31,3.31,0,0,0-1.792-5.94a1.109,1.109,0,0,0-1.021-.525,1.1,1.1,0,0,0-1.011.522A3.232,3.232,0,0,0-4.15-4.336v1.445a3.363,3.363,0,0,0,.334,1.7A1.107,1.107,0,0,0-2.8-.64a1.092,1.092,0,0,0,.994-.518A3.241,3.241,0,0,0-1.47-2.788Z" transform="translate(754 2243.174)" fill="#12263f"/>
    <path id="Trazado_140713" data-name="Trazado 140713" d="M-24.517,0h-.908V-6.021l-1.821.669v-.82l2.588-.972h.142Zm7.1-3.032a4.131,4.131,0,0,1-.542,2.358A1.928,1.928,0,0,1-19.648.1a1.942,1.942,0,0,1-1.685-.754A3.921,3.921,0,0,1-21.9-2.91V-4.116a4.039,4.039,0,0,1,.542-2.329,1.942,1.942,0,0,1,1.7-.762,1.96,1.96,0,0,1,1.689.735A3.9,3.9,0,0,1-17.412-4.2Zm-.9-1.235a3.31,3.31,0,0,0-.322-1.672,1.109,1.109,0,0,0-1.021-.525,1.1,1.1,0,0,0-1.011.522A3.232,3.232,0,0,0-21-4.336v1.445a3.363,3.363,0,0,0,.334,1.7,1.107,1.107,0,0,0,1.013.549,1.092,1.092,0,0,0,.994-.518,3.241,3.241,0,0,0,.339-1.631ZM-11.8-3.032a4.131,4.131,0,0,1-.542,2.358A1.928,1.928,0,0,1-14.033.1a1.942,1.942,0,0,1-1.685-.754,3.921,3.921,0,0,1-.566-2.253V-4.116a4.039,4.039,0,0,1,.542-2.329,1.942,1.942,0,0,1,1.7-.762,1.96,1.96,0,0,1,1.689.735A3.9,3.9,0,0,1-11.8-4.2Zm-.9-1.235a3.31,3.31,0,0,0-.322-1.672,1.109,1.109,0,0,0-1.021-.525,1.1,1.1,0,0,0-1.011.522,3.232,3.232,0,0,0-.327,1.606v1.445a3.363,3.363,0,0,0,.334,1.7,1.107,1.107,0,0,0,1.013.549,1.092,1.092,0,0,0,.994-.518A3.241,3.241,0,0,0-12.7-2.788Zm6.519,1.235A4.131,4.131,0,0,1-6.724-.674,1.928,1.928,0,0,1-8.418.1,1.942,1.942,0,0,1-10.1-.657a3.921,3.921,0,0,1-.566-2.253V-4.116a4.039,4.039,0,0,1,.542-2.329,1.942,1.942,0,0,1,1.7-.762,1.96,1.96,0,0,1,1.689.735A3.9,3.9,0,0,1-6.182-4.2Zm-.9-1.235A3.31,3.31,0,0,0-7.407-5.94a1.109,1.109,0,0,0-1.021-.525,1.1,1.1,0,0,0-1.011.522,3.232,3.232,0,0,0-.327,1.606v1.445a3.363,3.363,0,0,0,.334,1.7A1.107,1.107,0,0,0-8.418-.64a1.092,1.092,0,0,0,.994-.518,3.241,3.241,0,0,0,.339-1.631ZM-.566-3.032A4.131,4.131,0,0,1-1.108-.674,1.928,1.928,0,0,1-2.8.1,1.942,1.942,0,0,1-4.487-.657,3.921,3.921,0,0,1-5.054-2.91V-4.116a4.039,4.039,0,0,1,.542-2.329,1.942,1.942,0,0,1,1.7-.762,1.96,1.96,0,0,1,1.689.735A3.9,3.9,0,0,1-.566-4.2Zm-.9-1.235A3.31,3.31,0,0,0-1.792-5.94a1.109,1.109,0,0,0-1.021-.525,1.1,1.1,0,0,0-1.011.522A3.232,3.232,0,0,0-4.15-4.336v1.445a3.363,3.363,0,0,0,.334,1.7A1.107,1.107,0,0,0-2.8-.64a1.092,1.092,0,0,0,.994-.518A3.241,3.241,0,0,0-1.47-2.788Z" transform="translate(789 2243.174)" fill="#12263f"/>
    <path id="Trazado_140714" data-name="Trazado 140714" d="M-5.981,0H-10.64V-.649l2.461-2.734a5.847,5.847,0,0,0,.754-1.008,1.683,1.683,0,0,0,.208-.8,1.276,1.276,0,0,0-.337-.913,1.178,1.178,0,0,0-.9-.356A1.4,1.4,0,0,0-9.5-6.082a1.464,1.464,0,0,0-.374,1.067h-.9A2.1,2.1,0,0,1-10.144-6.6a2.344,2.344,0,0,1,1.692-.605,2.252,2.252,0,0,1,1.567.52A1.774,1.774,0,0,1-6.309-5.3,4.067,4.067,0,0,1-7.646-2.8l-1.9,2.065h3.569ZM-.566-3.032A4.131,4.131,0,0,1-1.108-.674,1.928,1.928,0,0,1-2.8.1,1.942,1.942,0,0,1-4.487-.657,3.921,3.921,0,0,1-5.054-2.91V-4.116a4.039,4.039,0,0,1,.542-2.329,1.942,1.942,0,0,1,1.7-.762,1.96,1.96,0,0,1,1.689.735A3.9,3.9,0,0,1-.566-4.2Zm-.9-1.235A3.31,3.31,0,0,0-1.792-5.94a1.109,1.109,0,0,0-1.021-.525,1.1,1.1,0,0,0-1.011.522A3.232,3.232,0,0,0-4.15-4.336v1.445a3.363,3.363,0,0,0,.334,1.7A1.107,1.107,0,0,0-2.8-.64a1.092,1.092,0,0,0,.994-.518A3.241,3.241,0,0,0-1.47-2.788Z" transform="translate(311 2198.674)" fill="#12263f"/>
    <path id="Trazado_140715" data-name="Trazado 140715" d="M-10.225-3.564l.361-3.545h3.643v.835H-9.1l-.215,1.938a2.294,2.294,0,0,1,1.187-.308A1.961,1.961,0,0,1-6.582-4a2.516,2.516,0,0,1,.571,1.736A2.429,2.429,0,0,1-6.6-.535,2.162,2.162,0,0,1-8.262.1,2.247,2.247,0,0,1-9.8-.425a2.085,2.085,0,0,1-.679-1.445h.854a1.435,1.435,0,0,0,.435.92,1.351,1.351,0,0,0,.928.31,1.219,1.219,0,0,0,.989-.43,1.8,1.8,0,0,0,.359-1.187A1.649,1.649,0,0,0-7.3-3.4a1.32,1.32,0,0,0-1.033-.432,1.489,1.489,0,0,0-.928.259l-.239.2Zm9.658.532A4.131,4.131,0,0,1-1.108-.674,1.928,1.928,0,0,1-2.8.1,1.942,1.942,0,0,1-4.487-.657,3.921,3.921,0,0,1-5.054-2.91V-4.116a4.039,4.039,0,0,1,.542-2.329,1.942,1.942,0,0,1,1.7-.762,1.96,1.96,0,0,1,1.689.735A3.9,3.9,0,0,1-.566-4.2Zm-.9-1.235A3.31,3.31,0,0,0-1.792-5.94a1.109,1.109,0,0,0-1.021-.525,1.1,1.1,0,0,0-1.011.522A3.232,3.232,0,0,0-4.15-4.336v1.445a3.363,3.363,0,0,0,.334,1.7A1.107,1.107,0,0,0-2.8-.64a1.092,1.092,0,0,0,.994-.518A3.241,3.241,0,0,0-1.47-2.788Z" transform="translate(311 2172.174)" fill="#12263f"/>
    <path id="Trazado_140716" data-name="Trazado 140716" d="M-13.286,0h-.908V-6.021l-1.821.669v-.82l2.588-.972h.142Zm7.1-3.032A4.131,4.131,0,0,1-6.724-.674,1.928,1.928,0,0,1-8.418.1,1.942,1.942,0,0,1-10.1-.657a3.921,3.921,0,0,1-.566-2.253V-4.116a4.039,4.039,0,0,1,.542-2.329,1.942,1.942,0,0,1,1.7-.762,1.96,1.96,0,0,1,1.689.735A3.9,3.9,0,0,1-6.182-4.2Zm-.9-1.235A3.31,3.31,0,0,0-7.407-5.94a1.109,1.109,0,0,0-1.021-.525,1.1,1.1,0,0,0-1.011.522,3.232,3.232,0,0,0-.327,1.606v1.445a3.363,3.363,0,0,0,.334,1.7A1.107,1.107,0,0,0-8.418-.64a1.092,1.092,0,0,0,.994-.518,3.241,3.241,0,0,0,.339-1.631ZM-.566-3.032A4.131,4.131,0,0,1-1.108-.674,1.928,1.928,0,0,1-2.8.1,1.942,1.942,0,0,1-4.487-.657,3.921,3.921,0,0,1-5.054-2.91V-4.116a4.039,4.039,0,0,1,.542-2.329,1.942,1.942,0,0,1,1.7-.762,1.96,1.96,0,0,1,1.689.735A3.9,3.9,0,0,1-.566-4.2Zm-.9-1.235A3.31,3.31,0,0,0-1.792-5.94a1.109,1.109,0,0,0-1.021-.525,1.1,1.1,0,0,0-1.011.522A3.232,3.232,0,0,0-4.15-4.336v1.445a3.363,3.363,0,0,0,.334,1.7A1.107,1.107,0,0,0-2.8-.64a1.092,1.092,0,0,0,.994-.518A3.241,3.241,0,0,0-1.47-2.788Z" transform="translate(311 2142.674)" fill="#12263f"/>
    <path id="Trazado_140717" data-name="Trazado 140717" d="M-11.6,0h-4.658V-.649l2.461-2.734a5.847,5.847,0,0,0,.754-1.008,1.683,1.683,0,0,0,.208-.8,1.276,1.276,0,0,0-.337-.913,1.178,1.178,0,0,0-.9-.356,1.4,1.4,0,0,0-1.047.383,1.464,1.464,0,0,0-.374,1.067h-.9A2.1,2.1,0,0,1-15.759-6.6a2.344,2.344,0,0,1,1.692-.605,2.252,2.252,0,0,1,1.567.52A1.774,1.774,0,0,1-11.924-5.3a4.067,4.067,0,0,1-1.338,2.5l-1.9,2.065H-11.6Zm5.415-3.032A4.131,4.131,0,0,1-6.724-.674,1.928,1.928,0,0,1-8.418.1,1.942,1.942,0,0,1-10.1-.657a3.921,3.921,0,0,1-.566-2.253V-4.116a4.039,4.039,0,0,1,.542-2.329,1.942,1.942,0,0,1,1.7-.762,1.96,1.96,0,0,1,1.689.735A3.9,3.9,0,0,1-6.182-4.2Zm-.9-1.235A3.31,3.31,0,0,0-7.407-5.94a1.109,1.109,0,0,0-1.021-.525,1.1,1.1,0,0,0-1.011.522,3.232,3.232,0,0,0-.327,1.606v1.445a3.363,3.363,0,0,0,.334,1.7A1.107,1.107,0,0,0-8.418-.64a1.092,1.092,0,0,0,.994-.518,3.241,3.241,0,0,0,.339-1.631ZM-.566-3.032A4.131,4.131,0,0,1-1.108-.674,1.928,1.928,0,0,1-2.8.1,1.942,1.942,0,0,1-4.487-.657,3.921,3.921,0,0,1-5.054-2.91V-4.116a4.039,4.039,0,0,1,.542-2.329,1.942,1.942,0,0,1,1.7-.762,1.96,1.96,0,0,1,1.689.735A3.9,3.9,0,0,1-.566-4.2Zm-.9-1.235A3.31,3.31,0,0,0-1.792-5.94a1.109,1.109,0,0,0-1.021-.525,1.1,1.1,0,0,0-1.011.522A3.232,3.232,0,0,0-4.15-4.336v1.445a3.363,3.363,0,0,0,.334,1.7A1.107,1.107,0,0,0-2.8-.64a1.092,1.092,0,0,0,.994-.518A3.241,3.241,0,0,0-1.47-2.788Z" transform="translate(311 2113.174)" fill="#12263f"/>
    <path id="Trazado_140718" data-name="Trazado 140718" d="M-15.84-3.564l.361-3.545h3.643v.835h-2.876l-.215,1.938a2.294,2.294,0,0,1,1.187-.308A1.961,1.961,0,0,1-12.2-4a2.516,2.516,0,0,1,.571,1.736,2.429,2.429,0,0,1-.593,1.731A2.162,2.162,0,0,1-13.877.1a2.247,2.247,0,0,1-1.538-.522,2.085,2.085,0,0,1-.679-1.445h.854a1.435,1.435,0,0,0,.435.92,1.351,1.351,0,0,0,.928.31,1.219,1.219,0,0,0,.989-.43,1.8,1.8,0,0,0,.359-1.187A1.649,1.649,0,0,0-12.917-3.4a1.32,1.32,0,0,0-1.033-.432,1.489,1.489,0,0,0-.928.259l-.239.2Zm9.658.532A4.131,4.131,0,0,1-6.724-.674,1.928,1.928,0,0,1-8.418.1,1.942,1.942,0,0,1-10.1-.657a3.921,3.921,0,0,1-.566-2.253V-4.116a4.039,4.039,0,0,1,.542-2.329,1.942,1.942,0,0,1,1.7-.762,1.96,1.96,0,0,1,1.689.735A3.9,3.9,0,0,1-6.182-4.2Zm-.9-1.235A3.31,3.31,0,0,0-7.407-5.94a1.109,1.109,0,0,0-1.021-.525,1.1,1.1,0,0,0-1.011.522,3.232,3.232,0,0,0-.327,1.606v1.445a3.363,3.363,0,0,0,.334,1.7A1.107,1.107,0,0,0-8.418-.64a1.092,1.092,0,0,0,.994-.518,3.241,3.241,0,0,0,.339-1.631ZM-.566-3.032A4.131,4.131,0,0,1-1.108-.674,1.928,1.928,0,0,1-2.8.1,1.942,1.942,0,0,1-4.487-.657,3.921,3.921,0,0,1-5.054-2.91V-4.116a4.039,4.039,0,0,1,.542-2.329,1.942,1.942,0,0,1,1.7-.762,1.96,1.96,0,0,1,1.689.735A3.9,3.9,0,0,1-.566-4.2Zm-.9-1.235A3.31,3.31,0,0,0-1.792-5.94a1.109,1.109,0,0,0-1.021-.525,1.1,1.1,0,0,0-1.011.522A3.232,3.232,0,0,0-4.15-4.336v1.445a3.363,3.363,0,0,0,.334,1.7A1.107,1.107,0,0,0-2.8-.64a1.092,1.092,0,0,0,.994-.518A3.241,3.241,0,0,0-1.47-2.788Z" transform="translate(311 2084.174)" fill="#12263f"/>
    <path id="Trazado_140719" data-name="Trazado 140719" d="M-18.9,0h-.908V-6.021l-1.821.669v-.82l2.588-.972h.142Zm7.1-3.032a4.131,4.131,0,0,1-.542,2.358A1.928,1.928,0,0,1-14.033.1a1.942,1.942,0,0,1-1.685-.754,3.921,3.921,0,0,1-.566-2.253V-4.116a4.039,4.039,0,0,1,.542-2.329,1.942,1.942,0,0,1,1.7-.762,1.96,1.96,0,0,1,1.689.735A3.9,3.9,0,0,1-11.8-4.2Zm-.9-1.235a3.31,3.31,0,0,0-.322-1.672,1.109,1.109,0,0,0-1.021-.525,1.1,1.1,0,0,0-1.011.522,3.232,3.232,0,0,0-.327,1.606v1.445a3.363,3.363,0,0,0,.334,1.7,1.107,1.107,0,0,0,1.013.549,1.092,1.092,0,0,0,.994-.518A3.241,3.241,0,0,0-12.7-2.788Zm6.519,1.235A4.131,4.131,0,0,1-6.724-.674,1.928,1.928,0,0,1-8.418.1,1.942,1.942,0,0,1-10.1-.657a3.921,3.921,0,0,1-.566-2.253V-4.116a4.039,4.039,0,0,1,.542-2.329,1.942,1.942,0,0,1,1.7-.762,1.96,1.96,0,0,1,1.689.735A3.9,3.9,0,0,1-6.182-4.2Zm-.9-1.235A3.31,3.31,0,0,0-7.407-5.94a1.109,1.109,0,0,0-1.021-.525,1.1,1.1,0,0,0-1.011.522,3.232,3.232,0,0,0-.327,1.606v1.445a3.363,3.363,0,0,0,.334,1.7A1.107,1.107,0,0,0-8.418-.64a1.092,1.092,0,0,0,.994-.518,3.241,3.241,0,0,0,.339-1.631ZM-.566-3.032A4.131,4.131,0,0,1-1.108-.674,1.928,1.928,0,0,1-2.8.1,1.942,1.942,0,0,1-4.487-.657,3.921,3.921,0,0,1-5.054-2.91V-4.116a4.039,4.039,0,0,1,.542-2.329,1.942,1.942,0,0,1,1.7-.762,1.96,1.96,0,0,1,1.689.735A3.9,3.9,0,0,1-.566-4.2Zm-.9-1.235A3.31,3.31,0,0,0-1.792-5.94a1.109,1.109,0,0,0-1.021-.525,1.1,1.1,0,0,0-1.011.522A3.232,3.232,0,0,0-4.15-4.336v1.445a3.363,3.363,0,0,0,.334,1.7A1.107,1.107,0,0,0-2.8-.64a1.092,1.092,0,0,0,.994-.518A3.241,3.241,0,0,0-1.47-2.788Z" transform="translate(311 2057.174)" fill="#12263f"/>
    <path id="Trazado_140720" data-name="Trazado 140720" d="M-17.212,0H-21.87V-.649l2.461-2.734a5.846,5.846,0,0,0,.754-1.008,1.683,1.683,0,0,0,.208-.8,1.276,1.276,0,0,0-.337-.913,1.178,1.178,0,0,0-.9-.356,1.4,1.4,0,0,0-1.047.383A1.464,1.464,0,0,0-21.1-5.015h-.9A2.1,2.1,0,0,1-21.375-6.6a2.344,2.344,0,0,1,1.692-.605,2.252,2.252,0,0,1,1.567.52A1.774,1.774,0,0,1-17.539-5.3a4.067,4.067,0,0,1-1.338,2.5l-1.9,2.065h3.569ZM-11.8-3.032a4.131,4.131,0,0,1-.542,2.358A1.928,1.928,0,0,1-14.033.1a1.942,1.942,0,0,1-1.685-.754,3.921,3.921,0,0,1-.566-2.253V-4.116a4.039,4.039,0,0,1,.542-2.329,1.942,1.942,0,0,1,1.7-.762,1.96,1.96,0,0,1,1.689.735A3.9,3.9,0,0,1-11.8-4.2Zm-.9-1.235a3.31,3.31,0,0,0-.322-1.672,1.109,1.109,0,0,0-1.021-.525,1.1,1.1,0,0,0-1.011.522,3.232,3.232,0,0,0-.327,1.606v1.445a3.363,3.363,0,0,0,.334,1.7,1.107,1.107,0,0,0,1.013.549,1.092,1.092,0,0,0,.994-.518A3.241,3.241,0,0,0-12.7-2.788Zm6.519,1.235A4.131,4.131,0,0,1-6.724-.674,1.928,1.928,0,0,1-8.418.1,1.942,1.942,0,0,1-10.1-.657a3.921,3.921,0,0,1-.566-2.253V-4.116a4.039,4.039,0,0,1,.542-2.329,1.942,1.942,0,0,1,1.7-.762,1.96,1.96,0,0,1,1.689.735A3.9,3.9,0,0,1-6.182-4.2Zm-.9-1.235A3.31,3.31,0,0,0-7.407-5.94a1.109,1.109,0,0,0-1.021-.525,1.1,1.1,0,0,0-1.011.522,3.232,3.232,0,0,0-.327,1.606v1.445a3.363,3.363,0,0,0,.334,1.7A1.107,1.107,0,0,0-8.418-.64a1.092,1.092,0,0,0,.994-.518,3.241,3.241,0,0,0,.339-1.631ZM-.566-3.032A4.131,4.131,0,0,1-1.108-.674,1.928,1.928,0,0,1-2.8.1,1.942,1.942,0,0,1-4.487-.657,3.921,3.921,0,0,1-5.054-2.91V-4.116a4.039,4.039,0,0,1,.542-2.329,1.942,1.942,0,0,1,1.7-.762,1.96,1.96,0,0,1,1.689.735A3.9,3.9,0,0,1-.566-4.2Zm-.9-1.235A3.31,3.31,0,0,0-1.792-5.94a1.109,1.109,0,0,0-1.021-.525,1.1,1.1,0,0,0-1.011.522A3.232,3.232,0,0,0-4.15-4.336v1.445a3.363,3.363,0,0,0,.334,1.7A1.107,1.107,0,0,0-2.8-.64a1.092,1.092,0,0,0,.994-.518A3.241,3.241,0,0,0-1.47-2.788Z" transform="translate(311 2027.674)" fill="#12263f"/>
    <path id="Trazado_140721" data-name="Trazado 140721" d="M-21.455-3.564l.361-3.545h3.643v.835h-2.876l-.215,1.938a2.294,2.294,0,0,1,1.187-.308A1.961,1.961,0,0,1-17.812-4a2.516,2.516,0,0,1,.571,1.736,2.429,2.429,0,0,1-.593,1.731A2.162,2.162,0,0,1-19.492.1,2.247,2.247,0,0,1-21.03-.425a2.085,2.085,0,0,1-.679-1.445h.854a1.435,1.435,0,0,0,.435.92,1.351,1.351,0,0,0,.928.31,1.219,1.219,0,0,0,.989-.43,1.8,1.8,0,0,0,.359-1.187A1.649,1.649,0,0,0-18.533-3.4a1.32,1.32,0,0,0-1.033-.432,1.489,1.489,0,0,0-.928.259l-.239.2Zm9.658.532a4.131,4.131,0,0,1-.542,2.358A1.928,1.928,0,0,1-14.033.1a1.942,1.942,0,0,1-1.685-.754,3.921,3.921,0,0,1-.566-2.253V-4.116a4.039,4.039,0,0,1,.542-2.329,1.942,1.942,0,0,1,1.7-.762,1.96,1.96,0,0,1,1.689.735A3.9,3.9,0,0,1-11.8-4.2Zm-.9-1.235a3.31,3.31,0,0,0-.322-1.672,1.109,1.109,0,0,0-1.021-.525,1.1,1.1,0,0,0-1.011.522,3.232,3.232,0,0,0-.327,1.606v1.445a3.363,3.363,0,0,0,.334,1.7,1.107,1.107,0,0,0,1.013.549,1.092,1.092,0,0,0,.994-.518A3.241,3.241,0,0,0-12.7-2.788Zm6.519,1.235A4.131,4.131,0,0,1-6.724-.674,1.928,1.928,0,0,1-8.418.1,1.942,1.942,0,0,1-10.1-.657a3.921,3.921,0,0,1-.566-2.253V-4.116a4.039,4.039,0,0,1,.542-2.329,1.942,1.942,0,0,1,1.7-.762,1.96,1.96,0,0,1,1.689.735A3.9,3.9,0,0,1-6.182-4.2Zm-.9-1.235A3.31,3.31,0,0,0-7.407-5.94a1.109,1.109,0,0,0-1.021-.525,1.1,1.1,0,0,0-1.011.522,3.232,3.232,0,0,0-.327,1.606v1.445a3.363,3.363,0,0,0,.334,1.7A1.107,1.107,0,0,0-8.418-.64a1.092,1.092,0,0,0,.994-.518,3.241,3.241,0,0,0,.339-1.631ZM-.566-3.032A4.131,4.131,0,0,1-1.108-.674,1.928,1.928,0,0,1-2.8.1,1.942,1.942,0,0,1-4.487-.657,3.921,3.921,0,0,1-5.054-2.91V-4.116a4.039,4.039,0,0,1,.542-2.329,1.942,1.942,0,0,1,1.7-.762,1.96,1.96,0,0,1,1.689.735A3.9,3.9,0,0,1-.566-4.2Zm-.9-1.235A3.31,3.31,0,0,0-1.792-5.94a1.109,1.109,0,0,0-1.021-.525,1.1,1.1,0,0,0-1.011.522A3.232,3.232,0,0,0-4.15-4.336v1.445a3.363,3.363,0,0,0,.334,1.7A1.107,1.107,0,0,0-2.8-.64a1.092,1.092,0,0,0,.994-.518A3.241,3.241,0,0,0-1.47-2.788Z" transform="translate(311 1999.174)" fill="#12263f"/>
    <path id="Trazado_140722" data-name="Trazado 140722" d="M-24.517,0h-.908V-6.021l-1.821.669v-.82l2.588-.972h.142Zm7.1-3.032a4.131,4.131,0,0,1-.542,2.358A1.928,1.928,0,0,1-19.648.1a1.942,1.942,0,0,1-1.685-.754A3.921,3.921,0,0,1-21.9-2.91V-4.116a4.039,4.039,0,0,1,.542-2.329,1.942,1.942,0,0,1,1.7-.762,1.96,1.96,0,0,1,1.689.735A3.9,3.9,0,0,1-17.412-4.2Zm-.9-1.235a3.31,3.31,0,0,0-.322-1.672,1.109,1.109,0,0,0-1.021-.525,1.1,1.1,0,0,0-1.011.522A3.232,3.232,0,0,0-21-4.336v1.445a3.363,3.363,0,0,0,.334,1.7,1.107,1.107,0,0,0,1.013.549,1.092,1.092,0,0,0,.994-.518,3.241,3.241,0,0,0,.339-1.631ZM-11.8-3.032a4.131,4.131,0,0,1-.542,2.358A1.928,1.928,0,0,1-14.033.1a1.942,1.942,0,0,1-1.685-.754,3.921,3.921,0,0,1-.566-2.253V-4.116a4.039,4.039,0,0,1,.542-2.329,1.942,1.942,0,0,1,1.7-.762,1.96,1.96,0,0,1,1.689.735A3.9,3.9,0,0,1-11.8-4.2Zm-.9-1.235a3.31,3.31,0,0,0-.322-1.672,1.109,1.109,0,0,0-1.021-.525,1.1,1.1,0,0,0-1.011.522,3.232,3.232,0,0,0-.327,1.606v1.445a3.363,3.363,0,0,0,.334,1.7,1.107,1.107,0,0,0,1.013.549,1.092,1.092,0,0,0,.994-.518A3.241,3.241,0,0,0-12.7-2.788Zm6.519,1.235A4.131,4.131,0,0,1-6.724-.674,1.928,1.928,0,0,1-8.418.1,1.942,1.942,0,0,1-10.1-.657a3.921,3.921,0,0,1-.566-2.253V-4.116a4.039,4.039,0,0,1,.542-2.329,1.942,1.942,0,0,1,1.7-.762,1.96,1.96,0,0,1,1.689.735A3.9,3.9,0,0,1-6.182-4.2Zm-.9-1.235A3.31,3.31,0,0,0-7.407-5.94a1.109,1.109,0,0,0-1.021-.525,1.1,1.1,0,0,0-1.011.522,3.232,3.232,0,0,0-.327,1.606v1.445a3.363,3.363,0,0,0,.334,1.7A1.107,1.107,0,0,0-8.418-.64a1.092,1.092,0,0,0,.994-.518,3.241,3.241,0,0,0,.339-1.631ZM-.566-3.032A4.131,4.131,0,0,1-1.108-.674,1.928,1.928,0,0,1-2.8.1,1.942,1.942,0,0,1-4.487-.657,3.921,3.921,0,0,1-5.054-2.91V-4.116a4.039,4.039,0,0,1,.542-2.329,1.942,1.942,0,0,1,1.7-.762,1.96,1.96,0,0,1,1.689.735A3.9,3.9,0,0,1-.566-4.2Zm-.9-1.235A3.31,3.31,0,0,0-1.792-5.94a1.109,1.109,0,0,0-1.021-.525,1.1,1.1,0,0,0-1.011.522A3.232,3.232,0,0,0-4.15-4.336v1.445a3.363,3.363,0,0,0,.334,1.7A1.107,1.107,0,0,0-2.8-.64a1.092,1.092,0,0,0,.994-.518A3.241,3.241,0,0,0-1.47-2.788Z" transform="translate(311 1971.174)" fill="#12263f"/>
    <path id="Trazado_140723" data-name="Trazado 140723" d="M-28.552-8.557v1.688h1.174v1.346h-1.174v3.428a.818.818,0,0,0,.146.546.733.733,0,0,0,.559.165,2.925,2.925,0,0,0,.54-.044v1.39a3.777,3.777,0,0,1-1.111.165,1.752,1.752,0,0,1-1.968-1.949v-3.7h-1V-6.868h1V-8.557Zm2.336,4.805a9.814,9.814,0,0,1,.384-2.755,8,8,0,0,1,1.146-2.4,4.874,4.874,0,0,1,1.581-1.523l.241.774a5.056,5.056,0,0,0-1.52,2.171,9.411,9.411,0,0,0-.651,3.269l-.006.54a9.46,9.46,0,0,0,.9,4.253,5.079,5.079,0,0,0,1.282,1.688l-.241.717a5.031,5.031,0,0,1-1.612-1.574A8.823,8.823,0,0,1-26.216-3.751Zm5.592-3.117.032.762A2.536,2.536,0,0,1-18.554-7a1.964,1.964,0,0,1,1.961,1.1,2.6,2.6,0,0,1,.892-.8A2.634,2.634,0,0,1-14.4-7q2.26,0,2.3,2.393V0h-1.174V-4.532a1.577,1.577,0,0,0-.336-1.1A1.482,1.482,0,0,0-14.746-6a1.557,1.557,0,0,0-1.085.39,1.584,1.584,0,0,0-.5,1.051V0h-1.181V-4.5A1.31,1.31,0,0,0-18.979-6a1.571,1.571,0,0,0-1.581.984V0h-1.174V-6.868ZM-6.335-1.822a.865.865,0,0,0-.359-.74,3.452,3.452,0,0,0-1.25-.454A5.912,5.912,0,0,1-9.36-3.472a2.014,2.014,0,0,1-.774-.635,1.518,1.518,0,0,1-.251-.876,1.782,1.782,0,0,1,.714-1.428A2.789,2.789,0,0,1-7.846-7a2.87,2.87,0,0,1,1.895.6A1.915,1.915,0,0,1-5.224-4.85H-6.4a1.06,1.06,0,0,0-.409-.832A1.534,1.534,0,0,0-7.846-6.03a1.605,1.605,0,0,0-1,.279.879.879,0,0,0-.362.73.712.712,0,0,0,.336.641,4.139,4.139,0,0,0,1.216.413,6.334,6.334,0,0,1,1.425.47,2.079,2.079,0,0,1,.809.657,1.615,1.615,0,0,1,.263.936A1.758,1.758,0,0,1-5.9-.428,3.089,3.089,0,0,1-7.808.127a3.459,3.459,0,0,1-1.46-.292,2.375,2.375,0,0,1-.993-.816,1.966,1.966,0,0,1-.359-1.133h1.174a1.216,1.216,0,0,0,.473.936,1.835,1.835,0,0,0,1.165.346,1.894,1.894,0,0,0,1.07-.27A.829.829,0,0,0-6.335-1.822ZM-.92-3.688A9.819,9.819,0,0,1-1.292-.974a8.024,8.024,0,0,1-1.136,2.4,4.978,4.978,0,0,1-1.6,1.562l-.248-.717A5.1,5.1,0,0,0-2.707-.06a10.065,10.065,0,0,0,.606-3.5v-.2A10.45,10.45,0,0,0-2.38-6.243,8.366,8.366,0,0,0-3.158-8.3a4.743,4.743,0,0,0-1.12-1.416l.248-.717a4.959,4.959,0,0,1,1.6,1.549A8.041,8.041,0,0,1-1.3-6.487,10.045,10.045,0,0,1-.92-3.688Z" transform="translate(356 1956.174)" fill="#12263f"/>
    <path id="Trazado_140724" data-name="Trazado 140724" d="M-2.285,0a2.037,2.037,0,0,1-.184-.616A2.22,2.22,0,0,1-4.2.127,2.439,2.439,0,0,1-5.875-.457,1.878,1.878,0,0,1-6.538-1.93a1.941,1.941,0,0,1,.809-1.676A3.994,3.994,0,0,1-3.39-4.2h.844v-.394a1.132,1.132,0,0,0-.244-.762.961.961,0,0,0-.771-.286,1.093,1.093,0,0,0-.727.222.755.755,0,0,0-.263.609H-6.386a1.843,1.843,0,0,1,.368-1.1,2.434,2.434,0,0,1,1.041-.8A3.794,3.794,0,0,1-3.466-7a3,3,0,0,1,2.015.638A2.232,2.232,0,0,1-.7-4.564v2.977A3.284,3.284,0,0,0-.432-.108V0ZM-3.8-1.276a1.58,1.58,0,0,0,.749-.181,1.188,1.188,0,0,0,.508-.486V-3.123h-.686q-1.377,0-1.466.952l-.006.108a.734.734,0,0,0,.241.565A.937.937,0,0,0-3.8-1.276Z" transform="translate(392 1956.174)" fill="#12263f"/>
    <path id="Trazado_140725" data-name="Trazado 140725" d="M-.425-3.371A4.159,4.159,0,0,1-1.13-.8,2.334,2.334,0,0,1-3.1.127,2.144,2.144,0,0,1-4.881-.73L-4.964,0h-1.65V-9.75H-4.78v3.5A2.089,2.089,0,0,1-3.11-7a2.353,2.353,0,0,1,1.971.924,4.165,4.165,0,0,1,.714,2.6ZM-2.26-3.51a2.747,2.747,0,0,0-.33-1.525,1.115,1.115,0,0,0-.984-.481A1.21,1.21,0,0,0-4.78-4.8v2.719a1.226,1.226,0,0,0,1.219.726,1.133,1.133,0,0,0,1.168-.879A4.546,4.546,0,0,0-2.26-3.51Z" transform="translate(490 1956.174)" fill="#12263f"/>
    <path id="Trazado_140726" data-name="Trazado 140726" d="M-7.808-1.352a1.2,1.2,0,0,0,.825-.279.979.979,0,0,0,.33-.743h1.72a2.353,2.353,0,0,1-.381,1.279,2.513,2.513,0,0,1-1.025.9A3.208,3.208,0,0,1-7.776.127,2.982,2.982,0,0,1-10.1-.809,3.705,3.705,0,0,1-10.95-3.4v-.121a3.663,3.663,0,0,1,.844-2.533A2.947,2.947,0,0,1-7.789-7a2.889,2.889,0,0,1,2.066.733,2.6,2.6,0,0,1,.79,1.952h-1.72a1.261,1.261,0,0,0-.33-.871,1.1,1.1,0,0,0-.838-.335,1.1,1.1,0,0,0-.968.467,2.708,2.708,0,0,0-.327,1.516v.191a2.742,2.742,0,0,0,.324,1.526A1.119,1.119,0,0,0-7.808-1.352ZM-1.461,0H-2.59V-4.358l-1.348.416v-.91L-1.582-5.7h.121Z" transform="translate(561 1956.174)" fill="#12263f"/>
    <path id="Trazado_140727" data-name="Trazado 140727" d="M-7.808-1.352a1.2,1.2,0,0,0,.825-.279.979.979,0,0,0,.33-.743h1.72a2.353,2.353,0,0,1-.381,1.279,2.513,2.513,0,0,1-1.025.9A3.208,3.208,0,0,1-7.776.127,2.982,2.982,0,0,1-10.1-.809,3.705,3.705,0,0,1-10.95-3.4v-.121a3.663,3.663,0,0,1,.844-2.533A2.947,2.947,0,0,1-7.789-7a2.889,2.889,0,0,1,2.066.733,2.6,2.6,0,0,1,.79,1.952h-1.72a1.261,1.261,0,0,0-.33-.871,1.1,1.1,0,0,0-.838-.335,1.1,1.1,0,0,0-.968.467,2.708,2.708,0,0,0-.327,1.516v.191a2.742,2.742,0,0,0,.324,1.526A1.119,1.119,0,0,0-7.808-1.352ZM-.3,0H-4.2V-.773l1.84-1.961A4.539,4.539,0,0,0-1.8-3.457a1.161,1.161,0,0,0,.182-.586.869.869,0,0,0-.191-.6.691.691,0,0,0-.547-.217.745.745,0,0,0-.6.264,1.044,1.044,0,0,0-.221.693H-4.316a1.865,1.865,0,0,1,.248-.949,1.748,1.748,0,0,1,.7-.674A2.131,2.131,0,0,1-2.34-5.766a2.018,2.018,0,0,1,1.365.422A1.493,1.493,0,0,1-.488-4.152a1.912,1.912,0,0,1-.219.859,4.776,4.776,0,0,1-.75,1.02L-2.75-.91H-.3Z" transform="translate(574 1956.174)" fill="#12263f"/>
    <path id="Trazado_140728" data-name="Trazado 140728" d="M-7.808-1.352a1.2,1.2,0,0,0,.825-.279.979.979,0,0,0,.33-.743h1.72a2.353,2.353,0,0,1-.381,1.279,2.513,2.513,0,0,1-1.025.9A3.208,3.208,0,0,1-7.776.127,2.982,2.982,0,0,1-10.1-.809,3.705,3.705,0,0,1-10.95-3.4v-.121a3.663,3.663,0,0,1,.844-2.533A2.947,2.947,0,0,1-7.789-7a2.889,2.889,0,0,1,2.066.733,2.6,2.6,0,0,1,.79,1.952h-1.72a1.261,1.261,0,0,0-.33-.871,1.1,1.1,0,0,0-.838-.335,1.1,1.1,0,0,0-.968.467,2.708,2.708,0,0,0-.327,1.516v.191a2.742,2.742,0,0,0,.324,1.526A1.119,1.119,0,0,0-7.808-1.352Zm4.753-1.992h.6a.848.848,0,0,0,.637-.215.787.787,0,0,0,.207-.57.7.7,0,0,0-.205-.535.8.8,0,0,0-.564-.191.833.833,0,0,0-.543.178.568.568,0,0,0-.219.463H-4.27a1.388,1.388,0,0,1,.24-.8,1.6,1.6,0,0,1,.672-.553,2.242,2.242,0,0,1,.951-.2,2.127,2.127,0,0,1,1.414.432A1.473,1.473,0,0,1-.48-4.145a1.2,1.2,0,0,1-.238.719,1.548,1.548,0,0,1-.625.5,1.413,1.413,0,0,1,.717.516,1.4,1.4,0,0,1,.236.813A1.5,1.5,0,0,1-.943-.379,2.222,2.222,0,0,1-2.406.078,2.107,2.107,0,0,1-3.8-.371,1.467,1.467,0,0,1-4.34-1.559h1.129a.654.654,0,0,0,.24.523.885.885,0,0,0,.592.2.889.889,0,0,0,.631-.213.735.735,0,0,0,.229-.564q0-.852-.937-.852h-.6Z" transform="translate(587 1956.174)" fill="#12263f"/>
    <g id="Trazado_140729" data-name="Trazado 140729" transform="translate(355 1994.174)" fill="#3c0061">
      <path d="M 14 26.5 C 10.66112995147705 26.5 7.52209997177124 25.19976997375488 5.161159992218018 22.83884048461914 C 2.800230026245117 20.4778995513916 1.5 17.33886909484863 1.5 14 C 1.5 10.66112995147705 2.800230026245117 7.52209997177124 5.161159992218018 5.161159992218018 C 7.52209997177124 2.800230026245117 10.66112995147705 1.5 14 1.5 C 17.33886909484863 1.5 20.4778995513916 2.800230026245117 22.83884048461914 5.161159992218018 C 25.19976997375488 7.52209997177124 26.5 10.66112995147705 26.5 14 C 26.5 17.33886909484863 25.19976997375488 20.4778995513916 22.83884048461914 22.83884048461914 C 20.4778995513916 25.19976997375488 17.33886909484863 26.5 14 26.5 Z" stroke="none"/>
      <path d="M 14 3 C 11.06179046630859 3 8.299449920654297 4.144199371337891 6.221820831298828 6.221820831298828 C 4.144199371337891 8.299449920654297 3 11.06179046630859 3 14 C 3 16.93819999694824 4.144199371337891 19.7005500793457 6.221820831298828 21.77816963195801 C 8.299449920654297 23.85580062866211 11.06179046630859 25 14 25 C 16.93819999694824 25 19.70053863525391 23.85580062866211 21.77816963195801 21.77816963195801 C 23.85580062866211 19.70053863525391 25 16.93819999694824 25 14 C 25 11.06179046630859 23.85580062866211 8.299449920654297 21.77816963195801 6.221820831298828 C 19.7005500793457 4.144199371337891 16.93819999694824 3 14 3 M 14 0 C 21.73197937011719 0 28 6.268009185791016 28 14 C 28 21.73197937011719 21.73197937011719 28 14 28 C 6.268009185791016 28 0 21.73197937011719 0 14 C 0 6.268009185791016 6.268009185791016 0 14 0 Z" stroke="none" fill="#fff"/>
    </g>
    <g id="Trazado_140730" data-name="Trazado 140730" transform="translate(427 1994.174)" fill="#3c0061">
      <path d="M 14 26.5 C 10.66112995147705 26.5 7.52209997177124 25.19976997375488 5.161159992218018 22.83884048461914 C 2.800230026245117 20.4778995513916 1.5 17.33886909484863 1.5 14 C 1.5 10.66112995147705 2.800230026245117 7.52209997177124 5.161159992218018 5.161159992218018 C 7.52209997177124 2.800230026245117 10.66112995147705 1.5 14 1.5 C 17.33886909484863 1.5 20.4778995513916 2.800230026245117 22.83884048461914 5.161159992218018 C 25.19976997375488 7.52209997177124 26.5 10.66112995147705 26.5 14 C 26.5 17.33886909484863 25.19976997375488 20.4778995513916 22.83884048461914 22.83884048461914 C 20.4778995513916 25.19976997375488 17.33886909484863 26.5 14 26.5 Z" stroke="none"/>
      <path d="M 14 3 C 11.06179046630859 3 8.299449920654297 4.144199371337891 6.221820831298828 6.221820831298828 C 4.144199371337891 8.299449920654297 3 11.06179046630859 3 14 C 3 16.93819999694824 4.144199371337891 19.7005500793457 6.221820831298828 21.77816963195801 C 8.299449920654297 23.85580062866211 11.06179046630859 25 14 25 C 16.93819999694824 25 19.70053863525391 23.85580062866211 21.77816963195801 21.77816963195801 C 23.85580062866211 19.70053863525391 25 16.93819999694824 25 14 C 25 11.06179046630859 23.85580062866211 8.299449920654297 21.77816963195801 6.221820831298828 C 19.7005500793457 4.144199371337891 16.93819999694824 3 14 3 M 14 0 C 21.73197937011719 0 28 6.268009185791016 28 14 C 28 21.73197937011719 21.73197937011719 28 14 28 C 6.268009185791016 28 0 21.73197937011719 0 14 C 0 6.268009185791016 6.268009185791016 0 14 0 Z" stroke="none" fill="#fff"/>
    </g>
    <g id="Trazado_140731" data-name="Trazado 140731" transform="translate(549 2066.174)" fill="#3c0061">
      <path d="M 14 26.5 C 10.66112995147705 26.5 7.52209997177124 25.19976997375488 5.161159992218018 22.83884048461914 C 2.800230026245117 20.4778995513916 1.5 17.33886909484863 1.5 14 C 1.5 10.66112995147705 2.800230026245117 7.52209997177124 5.161159992218018 5.161159992218018 C 7.52209997177124 2.800230026245117 10.66112995147705 1.5 14 1.5 C 17.33886909484863 1.5 20.4778995513916 2.800230026245117 22.83884048461914 5.161159992218018 C 25.19976997375488 7.52209997177124 26.5 10.66112995147705 26.5 14 C 26.5 17.33886909484863 25.19976997375488 20.4778995513916 22.83884048461914 22.83884048461914 C 20.4778995513916 25.19976997375488 17.33886909484863 26.5 14 26.5 Z" stroke="none"/>
      <path d="M 14 3 C 11.06179046630859 3 8.299449920654297 4.144199371337891 6.221820831298828 6.221820831298828 C 4.144199371337891 8.299449920654297 3 11.06179046630859 3 14 C 3 16.93819999694824 4.144199371337891 19.7005500793457 6.221820831298828 21.77816963195801 C 8.299449920654297 23.85580062866211 11.06179046630859 25 14 25 C 16.93819999694824 25 19.70053863525391 23.85580062866211 21.77816963195801 21.77816963195801 C 23.85580062866211 19.70053863525391 25 16.93819999694824 25 14 C 25 11.06179046630859 23.85580062866211 8.299449920654297 21.77816963195801 6.221820831298828 C 19.7005500793457 4.144199371337891 16.93819999694824 3 14 3 M 14 0 C 21.73197937011719 0 28 6.268009185791016 28 14 C 28 21.73197937011719 21.73197937011719 28 14 28 C 6.268009185791016 28 0 21.73197937011719 0 14 C 0 6.268009185791016 6.268009185791016 0 14 0 Z" stroke="none" fill="#fff"/>
    </g>
    <g id="Trazado_140732" data-name="Trazado 140732" transform="translate(710 2066.174)" fill="#3c0061">
      <path d="M 14 26.5 C 10.66112995147705 26.5 7.52209997177124 25.19976997375488 5.161159992218018 22.83884048461914 C 2.800230026245117 20.4778995513916 1.5 17.33886909484863 1.5 14 C 1.5 10.66112995147705 2.800230026245117 7.52209997177124 5.161159992218018 5.161159992218018 C 7.52209997177124 2.800230026245117 10.66112995147705 1.5 14 1.5 C 17.33886909484863 1.5 20.4778995513916 2.800230026245117 22.83884048461914 5.161159992218018 C 25.19976997375488 7.52209997177124 26.5 10.66112995147705 26.5 14 C 26.5 17.33886909484863 25.19976997375488 20.4778995513916 22.83884048461914 22.83884048461914 C 20.4778995513916 25.19976997375488 17.33886909484863 26.5 14 26.5 Z" stroke="none"/>
      <path d="M 14 3 C 11.06179046630859 3 8.299449920654297 4.144199371337891 6.221820831298828 6.221820831298828 C 4.144199371337891 8.299449920654297 3 11.06179046630859 3 14 C 3 16.93819999694824 4.144199371337891 19.7005500793457 6.221820831298828 21.77816963195801 C 8.299449920654297 23.85580062866211 11.06179046630859 25 14 25 C 16.93819999694824 25 19.70053863525391 23.85580062866211 21.77816963195801 21.77816963195801 C 23.85580062866211 19.70053863525391 25 16.93819999694824 25 14 C 25 11.06179046630859 23.85580062866211 8.299449920654297 21.77816963195801 6.221820831298828 C 19.7005500793457 4.144199371337891 16.93819999694824 3 14 3 M 14 0 C 21.73197937011719 0 28 6.268009185791016 28 14 C 28 21.73197937011719 21.73197937011719 28 14 28 C 6.268009185791016 28 0 21.73197937011719 0 14 C 0 6.268009185791016 6.268009185791016 0 14 0 Z" stroke="none" fill="#fff"/>
    </g>
    <g id="Trazado_140733" data-name="Trazado 140733" transform="translate(513 1994.174)" fill="#3c0061">
      <path d="M 14 26.5 C 10.66112995147705 26.5 7.52209997177124 25.19976997375488 5.161159992218018 22.83884048461914 C 2.800230026245117 20.4778995513916 1.5 17.33886909484863 1.5 14 C 1.5 10.66112995147705 2.800230026245117 7.52209997177124 5.161159992218018 5.161159992218018 C 7.52209997177124 2.800230026245117 10.66112995147705 1.5 14 1.5 C 17.33886909484863 1.5 20.4778995513916 2.800230026245117 22.83884048461914 5.161159992218018 C 25.19976997375488 7.52209997177124 26.5 10.66112995147705 26.5 14 C 26.5 17.33886909484863 25.19976997375488 20.4778995513916 22.83884048461914 22.83884048461914 C 20.4778995513916 25.19976997375488 17.33886909484863 26.5 14 26.5 Z" stroke="none"/>
      <path d="M 14 3 C 11.06179046630859 3 8.299449920654297 4.144199371337891 6.221820831298828 6.221820831298828 C 4.144199371337891 8.299449920654297 3 11.06179046630859 3 14 C 3 16.93819999694824 4.144199371337891 19.7005500793457 6.221820831298828 21.77816963195801 C 8.299449920654297 23.85580062866211 11.06179046630859 25 14 25 C 16.93819999694824 25 19.70053863525391 23.85580062866211 21.77816963195801 21.77816963195801 C 23.85580062866211 19.70053863525391 25 16.93819999694824 25 14 C 25 11.06179046630859 23.85580062866211 8.299449920654297 21.77816963195801 6.221820831298828 C 19.7005500793457 4.144199371337891 16.93819999694824 3 14 3 M 14 0 C 21.73197937011719 0 28 6.268009185791016 28 14 C 28 21.73197937011719 21.73197937011719 28 14 28 C 6.268009185791016 28 0 21.73197937011719 0 14 C 0 6.268009185791016 6.268009185791016 0 14 0 Z" stroke="none" fill="#ffd947"/>
    </g>
    <g id="Trazado_140734" data-name="Trazado 140734" transform="translate(607 1994.174)" fill="#3c0061">
      <path d="M 14 26.5 C 10.66112995147705 26.5 7.52209997177124 25.19976997375488 5.161159992218018 22.83884048461914 C 2.800230026245117 20.4778995513916 1.5 17.33886909484863 1.5 14 C 1.5 10.66112995147705 2.800230026245117 7.52209997177124 5.161159992218018 5.161159992218018 C 7.52209997177124 2.800230026245117 10.66112995147705 1.5 14 1.5 C 17.33886909484863 1.5 20.4778995513916 2.800230026245117 22.83884048461914 5.161159992218018 C 25.19976997375488 7.52209997177124 26.5 10.66112995147705 26.5 14 C 26.5 17.33886909484863 25.19976997375488 20.4778995513916 22.83884048461914 22.83884048461914 C 20.4778995513916 25.19976997375488 17.33886909484863 26.5 14 26.5 Z" stroke="none"/>
      <path d="M 14 3 C 11.06179046630859 3 8.299449920654297 4.144199371337891 6.221820831298828 6.221820831298828 C 4.144199371337891 8.299449920654297 3 11.06179046630859 3 14 C 3 16.93819999694824 4.144199371337891 19.7005500793457 6.221820831298828 21.77816963195801 C 8.299449920654297 23.85580062866211 11.06179046630859 25 14 25 C 16.93819999694824 25 19.70053863525391 23.85580062866211 21.77816963195801 21.77816963195801 C 23.85580062866211 19.70053863525391 25 16.93819999694824 25 14 C 25 11.06179046630859 23.85580062866211 8.299449920654297 21.77816963195801 6.221820831298828 C 19.7005500793457 4.144199371337891 16.93819999694824 3 14 3 M 14 0 C 21.73197937011719 0 28 6.268009185791016 28 14 C 28 21.73197937011719 21.73197937011719 28 14 28 C 6.268009185791016 28 0 21.73197937011719 0 14 C 0 6.268009185791016 6.268009185791016 0 14 0 Z" stroke="none" fill="#ffd947"/>
    </g>
    <path id="Trazado_140735" data-name="Trazado 140735" d="M-2.374,0H-4.208V-7.081L-6.4-6.4V-7.884l3.828-1.371h.2Z" transform="translate(373 2012.174)" fill="#fff"/>
    <path id="Trazado_140736" data-name="Trazado 140736" d="M-.5,0H-6.83V-1.257l2.99-3.187a7.376,7.376,0,0,0,.911-1.174,1.887,1.887,0,0,0,.3-.952,1.412,1.412,0,0,0-.311-.968,1.123,1.123,0,0,0-.889-.352,1.211,1.211,0,0,0-.981.428,1.7,1.7,0,0,0-.359,1.127H-7.014a3.03,3.03,0,0,1,.4-1.542A2.841,2.841,0,0,1-5.472-8.972a3.463,3.463,0,0,1,1.669-.4,3.279,3.279,0,0,1,2.219.686,2.425,2.425,0,0,1,.79,1.936,3.108,3.108,0,0,1-.355,1.4A7.76,7.76,0,0,1-2.368-3.694l-2.1,2.215H-.5Z" transform="translate(445 2012.174)" fill="#fff"/>
    <path id="Trazado_140737" data-name="Trazado 140737" d="M-1.4-3.479H-.355V-2H-1.4V0H-3.237V-2h-3.79l-.083-1.155,3.853-6.087H-1.4Zm-3.878,0h2.044V-6.741l-.121.209Z" transform="translate(530 2012.174)" fill="#fff"/>
    <path id="Trazado_140738" data-name="Trazado 140738" d="M-6.557-4.545l.533-4.7h5.18v1.53H-4.52l-.229,1.987a2.908,2.908,0,0,1,1.39-.349,2.664,2.664,0,0,1,2.069.819A3.271,3.271,0,0,1-.54-2.964a3.351,3.351,0,0,1-.378,1.6A2.666,2.666,0,0,1-2-.263a3.379,3.379,0,0,1-1.663.39,3.588,3.588,0,0,1-1.555-.34,2.758,2.758,0,0,1-1.133-.955,2.6,2.6,0,0,1-.441-1.4h1.815a1.356,1.356,0,0,0,.4.9,1.278,1.278,0,0,0,.9.321A1.128,1.128,0,0,0-2.71-1.8a2.073,2.073,0,0,0,.336-1.266,1.714,1.714,0,0,0-.387-1.206,1.421,1.421,0,0,0-1.1-.419,1.588,1.588,0,0,0-1.06.343l-.178.165Z" transform="translate(625 2012.174)" fill="#fff"/>
    <path id="Trazado_140739" data-name="Trazado 140739" d="M-1.854-9.337v1.511h-.178a3.117,3.117,0,0,0-2,.647,2.631,2.631,0,0,0-.911,1.746,2.5,2.5,0,0,1,1.86-.749,2.354,2.354,0,0,1,1.917.863A3.461,3.461,0,0,1-.457-3.047a3.4,3.4,0,0,1-.39,1.631,2.8,2.8,0,0,1-1.1,1.136A3.209,3.209,0,0,1-3.567.127,3,3,0,0,1-5.926-.889a3.942,3.942,0,0,1-.9-2.71v-.66a5.933,5.933,0,0,1,.568-2.656A4.166,4.166,0,0,1-4.624-8.7a4.78,4.78,0,0,1,2.466-.638ZM-3.644-4.7a1.466,1.466,0,0,0-.806.231,1.393,1.393,0,0,0-.533.611V-3.3a2.47,2.47,0,0,0,.362,1.435,1.169,1.169,0,0,0,1.016.516,1.156,1.156,0,0,0,.955-.466,1.9,1.9,0,0,0,.365-1.207,1.9,1.9,0,0,0-.368-1.216A1.2,1.2,0,0,0-3.644-4.7Z" transform="translate(728 2085.174)" fill="#fff"/>
    <path id="Trazado_140740" data-name="Trazado 140740" d="M-4.964-5.434h.978a1.377,1.377,0,0,0,1.035-.349,1.279,1.279,0,0,0,.336-.927,1.131,1.131,0,0,0-.333-.87,1.292,1.292,0,0,0-.917-.311,1.354,1.354,0,0,0-.882.289.923.923,0,0,0-.355.752H-6.938a2.256,2.256,0,0,1,.39-1.3,2.6,2.6,0,0,1,1.092-.9A3.644,3.644,0,0,1-3.91-9.369a3.456,3.456,0,0,1,2.3.7A2.393,2.393,0,0,1-.781-6.735a1.945,1.945,0,0,1-.387,1.168,2.516,2.516,0,0,1-1.016.819,2.3,2.3,0,0,1,1.165.838A2.273,2.273,0,0,1-.635-2.59a2.433,2.433,0,0,1-.9,1.974A3.611,3.611,0,0,1-3.91.127,3.424,3.424,0,0,1-6.173-.6a2.384,2.384,0,0,1-.879-1.93h1.834a1.063,1.063,0,0,0,.39.851,1.439,1.439,0,0,0,.962.33A1.445,1.445,0,0,0-2.841-1.7a1.194,1.194,0,0,0,.371-.917Q-2.469-4-3.993-4h-.971Z" transform="translate(567 2084.174)" fill="#fff"/>
    <path id="Trazado_140741" data-name="Trazado 140741" d="M-29.777,0h-1.9V-9.242h1.9Zm1.784-3.751a9.814,9.814,0,0,1,.384-2.755,8,8,0,0,1,1.146-2.4,4.874,4.874,0,0,1,1.581-1.523l.241.774a5.056,5.056,0,0,0-1.52,2.171,9.411,9.411,0,0,0-.651,3.269l-.006.54a9.46,9.46,0,0,0,.9,4.253,5.079,5.079,0,0,0,1.282,1.688l-.241.717A5.031,5.031,0,0,1-26.5,1.409,8.823,8.823,0,0,1-27.993-3.751ZM-22.4-6.868l.032.762A2.536,2.536,0,0,1-20.332-7a1.964,1.964,0,0,1,1.961,1.1,2.6,2.6,0,0,1,.892-.8,2.634,2.634,0,0,1,1.3-.3q2.26,0,2.3,2.393V0h-1.174V-4.532a1.577,1.577,0,0,0-.336-1.1A1.482,1.482,0,0,0-16.523-6a1.557,1.557,0,0,0-1.085.39,1.584,1.584,0,0,0-.5,1.051V0h-1.181V-4.5A1.31,1.31,0,0,0-20.757-6a1.571,1.571,0,0,0-1.581.984V0h-1.174V-6.868Zm15.577,4.45H-10.7L-11.565,0h-1.257l3.529-9.242h1.066L-4.691,0h-1.25Zm-3.5-1h3.142L-8.76-7.738ZM-.92-3.688A9.819,9.819,0,0,1-1.292-.974a8.024,8.024,0,0,1-1.136,2.4,4.978,4.978,0,0,1-1.6,1.562l-.248-.717A5.1,5.1,0,0,0-2.707-.06a10.065,10.065,0,0,0,.606-3.5v-.2A10.45,10.45,0,0,0-2.38-6.243,8.366,8.366,0,0,0-3.158-8.3a4.743,4.743,0,0,0-1.12-1.416l.248-.717a4.959,4.959,0,0,1,1.6,1.549A8.041,8.041,0,0,1-1.3-6.487,10.045,10.045,0,0,1-.92-3.688Z" transform="translate(812 2222.174)" fill="#12263f"/>
    <path id="Trazado_140742" data-name="Trazado 140742" d="M0,0H20" transform="translate(539.5 2008.674)" fill="none" stroke="#ffd947" stroke-linecap="round" stroke-width="3"/>
    <path id="Trazado_140743" data-name="Trazado 140743" d="M0,0H20" transform="translate(587.5 2008.674)" fill="none" stroke="#ffd947" stroke-linecap="round" stroke-width="3"/>
    <path id="Trazado_105706" data-name="Trazado 105706" d="M0,0H42.412" transform="translate(602 2038.174)" fill="none" stroke="#fff" stroke-linecap="round" stroke-width="3"/>
    <path id="Trazado_105707" data-name="Trazado 105707" d="M0,0H58.814" transform="translate(395.588 2150.64)" fill="none" stroke="#b3009d" stroke-linecap="round" stroke-width="3"/>
    <path id="Trazado_105708" data-name="Trazado 105708" d="M0,0H62.208" transform="translate(559.956 2150.64) rotate(180)" fill="none" stroke="#b3009d" stroke-linecap="round" stroke-width="3"/>
    <path id="Trazado_140744" data-name="Trazado 140744" d="M0,0,8,7" transform="translate(551.5 2001.674)" fill="none" stroke="#ffd947" stroke-linecap="round" stroke-width="3"/>
    <path id="Trazado_140745" data-name="Trazado 140745" d="M8,0,0,7" transform="translate(586 2001.674)" fill="none" stroke="#ffd947" stroke-linecap="round" stroke-width="3"/>
    <path id="Trazado_140746" data-name="Trazado 140746" d="M8,0,0,7" transform="translate(600.5 2031.174)" fill="none" stroke="#fff" stroke-linecap="round" stroke-width="3"/>
    <path id="Trazado_140747" data-name="Trazado 140747" d="M8,0,0,7" transform="translate(394.088 2143.64)" fill="none" stroke="#b3009d" stroke-linecap="round" stroke-width="3"/>
    <path id="Trazado_140748" data-name="Trazado 140748" d="M8,0,0,7" transform="translate(561.456 2157.64) rotate(180)" fill="none" stroke="#b3009d" stroke-linecap="round" stroke-width="3"/>
    <path id="Trazado_140749" data-name="Trazado 140749" d="M0,7,8,0" transform="translate(551.5 2008.674)" fill="none" stroke="#ffd947" stroke-linecap="round" stroke-width="3"/>
    <path id="Trazado_140750" data-name="Trazado 140750" d="M8,7,0,0" transform="translate(586 2008.674)" fill="none" stroke="#ffd947" stroke-linecap="round" stroke-width="3"/>
    <path id="Trazado_140751" data-name="Trazado 140751" d="M8,7,0,0" transform="translate(600.5 2038.174)" fill="none" stroke="#fff" stroke-linecap="round" stroke-width="3"/>
    <path id="Trazado_140752" data-name="Trazado 140752" d="M8,7,0,0" transform="translate(394.088 2150.64)" fill="none" stroke="#b3009d" stroke-linecap="round" stroke-width="3"/>
    <path id="Trazado_140753" data-name="Trazado 140753" d="M8,7,0,0" transform="translate(561.456 2150.64) rotate(180)" fill="none" stroke="#b3009d" stroke-linecap="round" stroke-width="3"/>
    <path id="Trazado_140754" data-name="Trazado 140754" d="M0,0H74V16H0Z" transform="translate(647 2030.174)" fill="#27013e"/>
    <path id="Trazado_140755" data-name="Trazado 140755" d="M0,0H32V16H0Z" transform="translate(461 2143.174)" fill="#27013e"/>
    <path id="Trazado_140756" data-name="Trazado 140756" d="M0,0H55V16H0Z" transform="translate(647 2048.174)" fill="#27013e"/>
    <path id="Trazado_140757" data-name="Trazado 140757" d="M-66.445,0V-7.109h2.007A3.231,3.231,0,0,1-62.8-6.7a2.774,2.774,0,0,1,1.1,1.167A3.8,3.8,0,0,1-61.3-3.794v.454a3.812,3.812,0,0,1-.388,1.763A2.731,2.731,0,0,1-62.8-.415,3.436,3.436,0,0,1-64.478,0Zm.938-6.343V-.767h.986a2.146,2.146,0,0,0,1.687-.674,2.786,2.786,0,0,0,.6-1.921v-.415A2.831,2.831,0,0,0-62.8-5.661a2.024,2.024,0,0,0-1.614-.682Zm9.443,4.482h-2.979L-59.712,0h-.967l2.715-7.109h.82L-54.424,0h-.962Zm-2.7-.767h2.417l-1.211-3.325Zm6.235,1.86h3.369V0h-4.312V-7.109h.942Zm5.142,0h4.067V0h-5.176V-.7l3.9-5.64h-3.833v-.767h4.956v.684ZM-41.094,0h-.937V-7.109h.938Zm5.732-3.286h-3.081v2.52h3.579V0H-39.38V-7.109h4.468v.767h-3.53v2.29h3.081Zm2.607,2.52h3.369V0H-33.7V-7.109h.942Zm6.738-2.119A7.549,7.549,0,0,1-25.72-5a6.156,6.156,0,0,1,.881-1.846,3.749,3.749,0,0,1,1.216-1.172l.186.6a3.889,3.889,0,0,0-1.169,1.67,7.239,7.239,0,0,0-.5,2.515l0,.415A7.277,7.277,0,0,0-24.424.444a3.907,3.907,0,0,0,.986,1.3l-.186.552a3.87,3.87,0,0,1-1.24-1.211A6.787,6.787,0,0,1-26.016-2.886ZM-21.416,0h-.937V-7.109h.938Zm5.732-3.286h-3.081v2.52h3.579V0H-19.7V-7.109h4.468v.767h-3.53v2.29h3.081Zm5.684,0h-3.081v2.52H-9.5V0h-4.517V-7.109h4.468v.767h-3.53v2.29H-10Zm5.684,0H-7.4v2.52h3.579V0H-8.335V-7.109h4.468v.767H-7.4v2.29h3.081Zm3.608.449A7.553,7.553,0,0,1-.994-.75a6.172,6.172,0,0,1-.874,1.843A3.829,3.829,0,0,1-3.1,2.295l-.19-.552A3.925,3.925,0,0,0-2.083-.046a7.742,7.742,0,0,0,.466-2.693V-2.9A8.038,8.038,0,0,0-1.831-4.8a6.435,6.435,0,0,0-.6-1.58,3.648,3.648,0,0,0-.862-1.089l.19-.552A3.814,3.814,0,0,1-1.873-6.831,6.186,6.186,0,0,1-1-4.99,7.727,7.727,0,0,1-.708-2.837Z" transform="translate(717 2042.174)" fill="#fff"/>
    <path id="Trazado_140758" data-name="Trazado 140758" d="M-13.081,0h-.937V-7.109h.938Zm5.732-3.286H-10.43v2.52h3.579V0h-4.517V-7.109H-6.9v.767h-3.53v2.29h3.081Zm6.895,1.03A2.616,2.616,0,0,1-1.287-.515,2.728,2.728,0,0,1-3.149.1a2.505,2.505,0,0,1-2.019-.9,3.634,3.634,0,0,1-.759-2.417v-.684a4.051,4.051,0,0,1,.354-1.743,2.644,2.644,0,0,1,1-1.155,2.794,2.794,0,0,1,1.5-.4,2.569,2.569,0,0,1,1.816.632,2.647,2.647,0,0,1,.8,1.75H-1.4a2.043,2.043,0,0,0-.53-1.234,1.6,1.6,0,0,0-1.14-.382,1.677,1.677,0,0,0-1.409.665,3.051,3.051,0,0,0-.51,1.891V-3.2A3.136,3.136,0,0,0-4.5-1.353a1.562,1.562,0,0,0,1.353.684,1.8,1.8,0,0,0,1.2-.354A1.964,1.964,0,0,0-1.4-2.256Z" transform="translate(485 2155.174)" fill="#fff"/>
    <path id="Trazado_140759" data-name="Trazado 140759" d="M-41.294-2.583A3.163,3.163,0,0,1-41.846-.64,1.768,1.768,0,0,1-43.34.1a1.938,1.938,0,0,1-1.514-.61V2.031h-.9V-5.283h.825l.044.586a1.861,1.861,0,0,1,1.533-.684,1.8,1.8,0,0,1,1.506.718,3.2,3.2,0,0,1,.554,2Zm-.9-.1A2.334,2.334,0,0,0-42.578-4.1a1.227,1.227,0,0,0-1.045-.518,1.328,1.328,0,0,0-1.23.728v2.524a1.33,1.33,0,0,0,1.24.723,1.221,1.221,0,0,0,1.033-.515A2.548,2.548,0,0,0-42.2-2.686ZM-36.885,0a1.9,1.9,0,0,1-.127-.557,2.015,2.015,0,0,1-1.5.654A1.865,1.865,0,0,1-39.8-.344a1.43,1.43,0,0,1-.5-1.121,1.494,1.494,0,0,1,.627-1.282A2.958,2.958,0,0,1-37.905-3.2h.879v-.415a1.015,1.015,0,0,0-.283-.754,1.138,1.138,0,0,0-.835-.281,1.317,1.317,0,0,0-.811.244.719.719,0,0,0-.327.591h-.908a1.247,1.247,0,0,1,.281-.764,1.916,1.916,0,0,1,.762-.583,2.563,2.563,0,0,1,1.057-.215,2.089,2.089,0,0,1,1.431.457,1.647,1.647,0,0,1,.537,1.257v2.432a2.973,2.973,0,0,0,.186,1.157V0Zm-1.5-.688a1.588,1.588,0,0,0,.806-.22,1.329,1.329,0,0,0,.552-.571V-2.563h-.708q-1.66,0-1.66.972a.822.822,0,0,0,.283.664A1.089,1.089,0,0,0-38.384-.688Zm6.23-3.784a2.707,2.707,0,0,0-.444-.034A1.19,1.19,0,0,0-33.8-3.75V0h-.9V-5.283h.879l.015.61a1.407,1.407,0,0,1,1.26-.708.923.923,0,0,1,.4.068ZM-28.257,0a1.9,1.9,0,0,1-.127-.557,2.015,2.015,0,0,1-1.5.654,1.865,1.865,0,0,1-1.282-.442,1.43,1.43,0,0,1-.5-1.121,1.494,1.494,0,0,1,.627-1.282A2.958,2.958,0,0,1-29.277-3.2h.879v-.415a1.015,1.015,0,0,0-.283-.754,1.138,1.138,0,0,0-.835-.281,1.317,1.317,0,0,0-.811.244.719.719,0,0,0-.327.591h-.908a1.247,1.247,0,0,1,.281-.764,1.916,1.916,0,0,1,.762-.583,2.563,2.563,0,0,1,1.057-.215,2.089,2.089,0,0,1,1.431.457A1.647,1.647,0,0,1-27.5-3.667v2.432A2.973,2.973,0,0,0-27.31-.078V0Zm-1.5-.688a1.588,1.588,0,0,0,.806-.22,1.329,1.329,0,0,0,.552-.571V-2.563h-.708q-1.66,0-1.66.972a.822.822,0,0,0,.283.664A1.089,1.089,0,0,0-29.756-.688Zm6.475-2.876.361-3.545h3.643v.835h-2.876l-.215,1.938a2.294,2.294,0,0,1,1.187-.308A1.961,1.961,0,0,1-19.639-4a2.516,2.516,0,0,1,.571,1.736,2.429,2.429,0,0,1-.593,1.731A2.162,2.162,0,0,1-21.318.1a2.247,2.247,0,0,1-1.538-.522,2.085,2.085,0,0,1-.679-1.445h.854a1.435,1.435,0,0,0,.435.92,1.351,1.351,0,0,0,.928.31,1.219,1.219,0,0,0,.989-.43,1.8,1.8,0,0,0,.359-1.187A1.649,1.649,0,0,0-20.359-3.4a1.32,1.32,0,0,0-1.033-.432,1.489,1.489,0,0,0-.928.259l-.239.2Zm9.658.532a4.131,4.131,0,0,1-.542,2.358A1.928,1.928,0,0,1-15.859.1a1.942,1.942,0,0,1-1.685-.754A3.921,3.921,0,0,1-18.11-2.91V-4.116a4.039,4.039,0,0,1,.542-2.329,1.942,1.942,0,0,1,1.7-.762,1.96,1.96,0,0,1,1.689.735A3.9,3.9,0,0,1-13.623-4.2Zm-.9-1.235a3.31,3.31,0,0,0-.322-1.672,1.109,1.109,0,0,0-1.021-.525,1.1,1.1,0,0,0-1.011.522,3.232,3.232,0,0,0-.327,1.606v1.445a3.363,3.363,0,0,0,.334,1.7,1.107,1.107,0,0,0,1.013.549,1.092,1.092,0,0,0,.994-.518,3.241,3.241,0,0,0,.339-1.631Zm6.1,1.821-.566.591V0h-.9V-7.5h.9v4.536l.483-.581L-6.86-5.283h1.1L-7.817-3.076-5.522,0h-1.06Zm3.281-.239A3.105,3.105,0,0,1-4.57-4.651a1.827,1.827,0,0,1,1.514-.73A1.817,1.817,0,0,1-1.548-4.7l.044-.586h.825V-.127a2.149,2.149,0,0,1-.608,1.616A2.243,2.243,0,0,1-2.92,2.08a2.717,2.717,0,0,1-1.118-.244,1.925,1.925,0,0,1-.835-.669L-4.4.625a1.766,1.766,0,0,0,1.421.718A1.384,1.384,0,0,0-1.956.972,1.418,1.418,0,0,0-1.587-.073V-.527A1.857,1.857,0,0,1-3.066.1a1.8,1.8,0,0,1-1.5-.747A3.265,3.265,0,0,1-5.142-2.686Zm.908.1a2.369,2.369,0,0,0,.366,1.4,1.19,1.19,0,0,0,1.025.51,1.323,1.323,0,0,0,1.255-.776V-3.857a1.339,1.339,0,0,0-1.245-.757,1.2,1.2,0,0,0-1.03.513A2.58,2.58,0,0,0-4.233-2.583Z" transform="translate(697 2060.174)" fill="#fff"/>
  </g>
</svg>
