<svg xmlns="http://www.w3.org/2000/svg" width="123.995" height="123.995" viewBox="0 0 123.995 123.995">
  <g id="Grupo_55987" data-name="Grupo 55987" transform="translate(-493.5 -4214.5)">
    <path id="Trazado_105601" data-name="Trazado 105601" d="M138.789,393.627a60,60,0,1,1-60-60A60,60,0,0,1,138.789,393.627Z" transform="translate(476.706 3882.872)" fill="#fff" stroke="#00cca7" stroke-width="4"/>
    <g id="Grupo_55981" data-name="Grupo 55981" transform="translate(-101 -324)">
      <g id="Grupo_55954" data-name="Grupo 55954" transform="translate(619 4555)">
        <g id="Elipse_4310" data-name="Elipse 4310" transform="translate(0 9.155)" fill="none" stroke="#f74ae2" stroke-width="8">
          <circle cx="36.5" cy="36.5" r="36.5" stroke="none"/>
          <circle cx="36.5" cy="36.5" r="32.5" fill="none"/>
        </g>
        <g id="Grupo_55953" data-name="Grupo 55953" transform="translate(12.041)">
          <rect id="Rectángulo_30834" data-name="Rectángulo 30834" width="3.266" height="3.162" transform="translate(0 43.573)" fill="#878787"/>
          <rect id="Rectángulo_30835" data-name="Rectángulo 30835" width="25.133" height="8.592" transform="translate(12.017 18.821)" fill="#c4a424"/>
          <rect id="Rectángulo_30836" data-name="Rectángulo 30836" width="25.133" height="8.592" transform="translate(12.017 62.896)" fill="#c4a424"/>
          <circle id="Elipse_4306" data-name="Elipse 4306" cx="22.119" cy="22.119" r="22.119" transform="translate(2.54 22.955)" fill="#ffd947"/>
          <circle id="Elipse_4307" data-name="Elipse 4307" cx="18.072" cy="18.072" r="18.072" transform="translate(6.588 27.002)" fill="#fff"/>
          <g id="Grupo_55949" data-name="Grupo 55949" transform="translate(6.997 27.413)">
            <rect id="Rectángulo_30837" data-name="Rectángulo 30837" width="0.785" height="2.403" transform="translate(17.191)" fill="#5c5c5c"/>
            <rect id="Rectángulo_30838" data-name="Rectángulo 30838" width="2.533" height="0.289" transform="translate(28.158 6.844) rotate(-45)" fill="#5c5c5c"/>
            <rect id="Rectángulo_30839" data-name="Rectángulo 30839" width="0.289" height="2.389" transform="translate(28.276 28.497) rotate(-45)" fill="#5c5c5c"/>
            <rect id="Rectángulo_30840" data-name="Rectángulo 30840" width="2.385" height="0.289" transform="translate(5.036 29.999) rotate(-45)" fill="#5c5c5c"/>
            <rect id="Rectángulo_30841" data-name="Rectángulo 30841" width="0.289" height="2.389" transform="translate(5.02 5.273) rotate(-45)" fill="#5c5c5c"/>
            <rect id="Rectángulo_30842" data-name="Rectángulo 30842" width="0.289" height="2.389" transform="translate(10.827 1.35) rotate(-22.083)" fill="#5c5c5c"/>
            <rect id="Rectángulo_30843" data-name="Rectángulo 30843" width="0.289" height="2.447" transform="translate(1.17 11.226) rotate(-68.211)" fill="#5c5c5c"/>
            <rect id="Rectángulo_30844" data-name="Rectángulo 30844" width="2.324" height="0.289" transform="translate(1.488 24.792) rotate(-24.396)" fill="#5c5c5c"/>
            <rect id="Rectángulo_30845" data-name="Rectángulo 30845" width="2.366" height="0.289" transform="translate(10.42 33.73) rotate(-66.43)" fill="#5c5c5c"/>
            <rect id="Rectángulo_30846" data-name="Rectángulo 30846" width="0.289" height="2.325" transform="matrix(0.915, -0.404, 0.404, 0.915, 23.654, 31.68)" fill="#5c5c5c"/>
            <rect id="Rectángulo_30847" data-name="Rectángulo 30847" width="0.289" height="2.329" transform="translate(31.65 23.672) rotate(-67.21)" fill="#5c5c5c"/>
            <rect id="Rectángulo_30848" data-name="Rectángulo 30848" width="2.451" height="0.289" transform="translate(31.467 11.471) rotate(-23.341)" fill="#5c5c5c"/>
            <rect id="Rectángulo_30849" data-name="Rectángulo 30849" width="2.401" height="0.289" transform="translate(23.697 3.677) rotate(-65.788)" fill="#5c5c5c"/>
            <rect id="Rectángulo_30850" data-name="Rectángulo 30850" width="2.543" height="0.831" transform="translate(32.779 17.168)" fill="#5c5c5c"/>
            <rect id="Rectángulo_30851" data-name="Rectángulo 30851" width="0.856" height="2.618" transform="translate(17.31 32.703)" fill="#5c5c5c"/>
            <rect id="Rectángulo_30852" data-name="Rectángulo 30852" width="2.389" height="0.781" transform="translate(0 17.348)" fill="#5c5c5c"/>
          </g>
          <rect id="Rectángulo_30853" data-name="Rectángulo 30853" width="5.512" height="3.609" rx="0.774" transform="translate(32.047 43.191)" fill="#5c5c5c"/>
          <rect id="Rectángulo_30854" data-name="Rectángulo 30854" width="4.904" height="3.094" rx="0.663" transform="translate(32.351 43.449)" fill="#d9d9d9"/>
          <rect id="Rectángulo_30855" data-name="Rectángulo 30855" width="23.256" height="18.821" transform="translate(12.964 0)" fill="#00cca7"/>
          <rect id="Rectángulo_30856" data-name="Rectángulo 30856" width="23.256" height="18.821" transform="translate(12.964 71.488)" fill="#00cca7"/>
          <circle id="Elipse_4308" data-name="Elipse 4308" cx="1.031" cy="1.031" r="1.031" transform="translate(23.561 77.303)" fill="#45352f"/>
          <circle id="Elipse_4309" data-name="Elipse 4309" cx="1.031" cy="1.031" r="1.031" transform="translate(23.561 85.94)" fill="#45352f"/>
          <rect id="Rectángulo_30857" data-name="Rectángulo 30857" width="0.258" height="17.467" transform="translate(24.608 45.119)"/>
          <g id="Grupo_55950" data-name="Grupo 55950" transform="translate(17.553 38.157)">
            <path id="Trazado_105532" data-name="Trazado 105532" d="M171.949,64.308l-6.762-5.933,6.122,6.57a1.14,1.14,0,1,0,.64-.637Z" transform="translate(-165.187 -58.375)" fill="#404040"/>
            <path id="Trazado_105533" data-name="Trazado 105533" d="M172.575,64.775a.57.57,0,1,1-.805,0A.57.57,0,0,1,172.575,64.775Z" transform="translate(-164.986 -58.18)" fill="#636363"/>
          </g>
          <g id="Grupo_55951" data-name="Grupo 55951" transform="translate(23.601 36.16)">
            <path id="Trazado_105534" data-name="Trazado 105534" d="M173.317,65.238l12.781-8.8-13.268,8.04a1.139,1.139,0,1,0,.488.76Z" transform="translate(-171.052 -56.438)" fill="#2e2e2e"/>
            <path id="Trazado_105535" data-name="Trazado 105535" d="M172.478,65.65a.57.57,0,1,1,.173-.787A.571.571,0,0,1,172.478,65.65Z" transform="translate(-171.035 -56.183)" fill="#636363"/>
          </g>
          <g id="Grupo_55952" data-name="Grupo 55952" transform="translate(34.209 43.931)">
            <path id="Trazado_105536" data-name="Trazado 105536" d="M182.61,63.973v.18l-.878,1.835h-.282l.874-1.782V64.2h-.986v-.227Z" transform="translate(-181.338 -63.973)"/>
          </g>
        </g>
        <line id="Línea_181" data-name="Línea 181" x2="51.175" y2="44.402" transform="translate(13.17 20.696)" fill="none" stroke="#f74ae2" stroke-width="8"/>
      </g>
    </g>
  </g>
</svg>
