<svg xmlns="http://www.w3.org/2000/svg" width="119.386" height="112.119" viewBox="0 0 119.386 112.119">
  <g id="Grupo_55113" data-name="Grupo 55113" transform="translate(8817.264 9738)">
    <path id="Trazado_105702" data-name="Trazado 105702" d="M56.06,0A56.06,56.06,0,1,1,0,56.06,56.06,56.06,0,0,1,56.06,0Z" transform="translate(-8814.733 -9738)" fill="#1e866f"/>
    <g id="Grupo_55117" data-name="Grupo 55117" transform="translate(-8817.264 -9734.313)">
      <g id="Grupo_55102" data-name="Grupo 55102" transform="translate(0)">
        <g id="Grupo_55101" data-name="Grupo 55101">
          <path id="Trazado_104486" data-name="Trazado 104486" d="M688.776,921.225c13.108-28.578,31.96-59.084,52.611-83.8a8.772,8.772,0,0,1,13.617,0c20.651,24.711,39.5,55.217,52.61,83.8,1.545,3.53-3.717,9.222-8.939,10.3a281.522,281.522,0,0,1-100.959,0C692.492,930.447,687.231,924.755,688.776,921.225Z" transform="translate(-688.502 -834.189)" fill="#fbc400"/>
          <path id="Trazado_104487" data-name="Trazado 104487" d="M803.437,924.76c-12.816-27.21-31.245-54.4-49.559-78.95a4.162,4.162,0,0,0-6.636,0c-18.314,24.551-36.743,51.739-49.559,78.95-.833,1.833,1.6,4.667,4.26,5.112a339.511,339.511,0,0,0,97.233,0C801.838,929.427,804.271,926.594,803.437,924.76Zm-2.9,2.234a1.157,1.157,0,0,1-.713.42,371.212,371.212,0,0,1-98.528,0,1.161,1.161,0,0,1-.714-.42.629.629,0,0,1-.164-.642c12.764-27.477,31.759-53.941,49.473-79.1a.745.745,0,0,1,.668-.34.761.761,0,0,1,.668.34c17.715,25.16,36.709,51.624,49.473,79.1A.627.627,0,0,1,800.537,926.994Z" transform="translate(-690.867 -836.805)" fill="#3c0061"/>
          <path id="Trazado_104488" data-name="Trazado 104488" d="M764.786,865.822c-6.867,12.7-14.082,25.244-20.936,37.945,6.15.071,9.224.092,15.374.105-4.379,9.573-8.554,19.324-12.113,29.161,7.359-11.494,15.44-22.616,23.63-33.66-6.035.016-9.054.017-15.089,0,6-9.016,8.59-13.345,15.1-22.619C768.4,872.353,767.168,870.17,764.786,865.822Z" transform="translate(-703.024 -842.488)" fill="#3c0061"/>
          <path id="Trazado_104489" data-name="Trazado 104489" d="M748,952.135c4.48-2.879,6.816-4.385,11.6-7.454-4.859-2.379-7.339-3.6-12.355-6.055C747.489,944.03,747.639,946.732,748,952.135Z" transform="translate(-703.916 -861.59)" fill="#3c0061"/>
        </g>
      </g>
      <path id="Trazado_104490" data-name="Trazado 104490" d="M760.2,837.434l.222-.243a7.544,7.544,0,0,1,.669-.687,8.7,8.7,0,0,1,3.108-1.851,9.014,9.014,0,0,1,5.566-.016,8.867,8.867,0,0,1,3,1.725,26.138,26.138,0,0,1,2.548,2.894c1.721,2.068,3.532,4.351,5.433,6.78,1.883,2.44,3.872,5.014,5.848,7.735,2,2.7,4,5.544,6.035,8.433,2,2.913,4.016,5.877,5.971,8.886s3.9,6.023,5.736,9.04c1.866,3,3.625,6,5.334,8.893,1.674,2.917,3.292,5.737,4.764,8.446,1.509,2.689,2.835,5.285,4.106,7.657,1.215,2.4,2.366,4.582,3.32,6.549s1.816,3.667,2.476,5.091l2.095,4.466-2.372-4.334c-.733-1.388-1.683-3.043-2.738-4.955l-3.634-6.373c-1.36-2.318-2.783-4.853-4.39-7.476-1.57-2.644-3.295-5.39-5.07-8.232s-3.6-5.785-5.526-8.724c-1.9-2.957-3.906-5.912-5.925-8.854l-6.1-8.722-6.029-8.354-5.677-7.778-5.167-6.931-1.189-1.579c-.205-.282-.368-.467-.524-.656a3.542,3.542,0,0,0-.5-.543,7.844,7.844,0,0,0-2.318-1.552,8.838,8.838,0,0,0-4.741-.564,9.551,9.551,0,0,0-3.2,1.125Z" transform="translate(-707.313 -834.193)" fill="#fff" opacity="0.3"/>
      <path id="Trazado_104491" data-name="Trazado 104491" d="M762.614,837.429a8.772,8.772,0,0,0-13.617,0,370.765,370.765,0,0,0-31.489,44.278c26.535,6.033,72.1,23.547,95.02,46.373h0c2.255-2.156,3.572-4.854,2.7-6.856C802.117,892.647,783.265,862.141,762.614,837.429Z" transform="translate(-696.112 -834.189)" fill="#fff" opacity="0.2"/>
      <path id="Trazado_104492" data-name="Trazado 104492" d="M799.191,960.907a281.542,281.542,0,0,1-100.959,0c-4.893-1.006-9.818-6.064-9.153-9.6-.1.215-.2.433-.3.648-1.545,3.529,3.717,9.222,8.94,10.3a281.523,281.523,0,0,0,100.959,0c4.086-.84,8.181-4.506,9.036-7.752A13.408,13.408,0,0,1,799.191,960.907Z" transform="translate(-688.502 -864.917)" opacity="0.1"/>
    </g>
  </g>
</svg>
