<svg xmlns="http://www.w3.org/2000/svg" width="123.995" height="123.995" viewBox="0 0 123.995 123.995">
  <g id="Grupo_55975" data-name="Grupo 55975" transform="translate(-388.5 -3431.5)">
    <path id="Trazado_105578" data-name="Trazado 105578" d="M138.789,393.627a60,60,0,1,1-60-60A60,60,0,0,1,138.789,393.627Z" transform="translate(371.706 3099.872)" fill="#fff" stroke="#00cca7" stroke-width="4"/>
    <g id="Grupo_55924" data-name="Grupo 55924" transform="translate(-353 -84)">
      <g id="Grupo_55923" data-name="Grupo 55923" transform="translate(769 3534)">
        <path id="Trazado_105467" data-name="Trazado 105467" d="M0,0H42.878V64.67H0Z" transform="translate(0 0)" fill="#ffd947"/>
        <rect id="Rectángulo_30826" data-name="Rectángulo 30826" width="30.259" height="19.366" transform="translate(6.051 6.656)" fill="#edf3f2"/>
        <path id="Trazado_105449" data-name="Trazado 105449" d="M13.238,82.4a13.142,13.142,0,1,1,0-18.585A13.143,13.143,0,0,1,13.238,82.4Z" transform="translate(17.235 -28.498)" fill="#b3009d"/>
        <path id="Trazado_105450" data-name="Trazado 105450" d="M24.641,75.223V92.165H4.419L-6.349,81.4A13.139,13.139,0,1,0,12.232,62.816Z" transform="translate(18.238 -27.496)" fill="#d1a577" opacity="0.65" style="mix-blend-mode: multiply;isolation: isolate"/>
        <path id="Trazado_105451" data-name="Trazado 105451" d="M.425,79.126a3.546,3.546,0,0,1-5.012,0h0a3.541,3.541,0,0,1,0-5.012l9.537-9.537a3.545,3.545,0,0,1,5.014,0h0a3.548,3.548,0,0,1,0,5.012Z" transform="translate(18.493 -27.241)" fill="#f74ae2"/>
        <path id="Trazado_105452" data-name="Trazado 105452" d="M11.707,80.872A13.116,13.116,0,0,1,.921,84.637l-5.778-5.784a3.542,3.542,0,0,0,5.011,0l9.534-9.534a3.545,3.545,0,0,0,0-5.011l5.783,5.779A13.116,13.116,0,0,1,11.707,80.872Z" transform="translate(18.764 -26.97)" fill="#d1a577" opacity="0.65" style="mix-blend-mode: multiply;isolation: isolate"/>
        <path id="Trazado_105453" data-name="Trazado 105453" d="M10.765,45.105,9.11,50.447a34.585,34.585,0,0,0-3.574-.891l.929-5.519A38.482,38.482,0,0,1,10.765,45.105Z" transform="translate(22.423 -34.108)" fill="#b3009d"/>
        <path id="Trazado_105454" data-name="Trazado 105454" d="M11.223,44.219l-.929,5.519a33.738,33.738,0,0,0-6.52-.627A34.121,34.121,0,0,0-6.32,50.63l-1.656-5.342a39.557,39.557,0,0,1,11.75-1.769A39.518,39.518,0,0,1,11.223,44.219Z" transform="translate(17.665 -34.291)" fill="#00cca7"/>
        <path id="Trazado_105455" data-name="Trazado 105455" d="M-.567,55.745l.641,2.392,2.129-1.2L5.909,44.482Z" transform="translate(20.274 -33.952)" fill="#604d5d"/>
        <path id="Trazado_105456" data-name="Trazado 105456" d="M1.464,96.65H-4.371A1.73,1.73,0,0,0-6.1,98.381a1.727,1.727,0,0,0,.507,1.228,1.734,1.734,0,0,0,1.222.506H1.464Z" transform="translate(18.326 -15.582)" fill="#f6f6f6"/>
        <path id="Trazado_105457" data-name="Trazado 105457" d="M1.464,89.744H-4.371A1.731,1.731,0,0,0-6.1,91.476,1.721,1.721,0,0,0-5.593,92.7a1.734,1.734,0,0,0,1.222.506H1.464Z" transform="translate(18.326 -18.013)" fill="#f6f6f6"/>
        <g id="Grupo_55921" data-name="Grupo 55921" transform="translate(33.188 35.871)">
          <path id="Trazado_105458" data-name="Trazado 105458" d="M19.125,63.223h-.031v2.593h.031a21.527,21.527,0,1,1,0,43.053H9.4v2.593h9.722a24.12,24.12,0,0,0,0-48.24Z" transform="translate(-9.403 -63.223)" fill="#b3009d"/>
        </g>
        <g id="Grupo_55922" data-name="Grupo 55922" transform="translate(33.188 45.207)">
          <path id="Trazado_105459" data-name="Trazado 105459" d="M19.125,70.128h-.031v2.593h.031a12.189,12.189,0,0,1,0,24.379H9.4V99.7h9.722a14.784,14.784,0,1,0,0-29.567Z" transform="translate(-9.403 -70.128)" fill="#3c0061"/>
        </g>
        <path id="Trazado_105460" data-name="Trazado 105460" d="M24.2,64.452l-.6,2.53a21.444,21.444,0,0,0-7-1.166h-.03V63.223h.03A23.987,23.987,0,0,1,24.2,64.452Z" transform="translate(26.309 -27.352)" fill="#9b0389" style="mix-blend-mode: multiply;isolation: isolate"/>
        <path id="Trazado_105461" data-name="Trazado 105461" d="M22.026,71.16l-.611,2.557a12.053,12.053,0,0,0-4.815-1h-.03V70.128h.03A14.658,14.658,0,0,1,22.026,71.16Z" transform="translate(26.309 -24.921)" fill="#d68d60" style="mix-blend-mode: multiply;isolation: isolate"/>
        <path id="Trazado_105462" data-name="Trazado 105462" d="M-.506,95.581h10.7a3.178,3.178,0,1,1,0,6.355H-.506Z" transform="translate(20.296 -15.958)" fill="#d81cc1"/>
        <path id="Trazado_105463" data-name="Trazado 105463" d="M-.506,88.675h10.7a3.178,3.178,0,1,1,0,6.355H-.506Z" transform="translate(20.296 -18.39)" fill="#3c0061"/>
        <path id="Trazado_105464" data-name="Trazado 105464" d="M19.593,41.616V43.65H-6.56V60.985h-4.108V41.616Z" transform="translate(16.717 -34.961)" fill="#97abbd" opacity="0.65" style="mix-blend-mode: multiply;isolation: isolate"/>
        <path id="Trazado_105465" data-name="Trazado 105465" d="M-5.2,60.368a2.766,2.766,0,0,1-2.766,2.766,2.766,2.766,0,0,1-2.766-2.766A2.767,2.767,0,0,1-7.965,57.6,2.767,2.767,0,0,1-5.2,60.368Z" transform="translate(16.695 -29.332)" fill="#edf3f2"/>
        <path id="Trazado_105466" data-name="Trazado 105466" d="M13.153,60.368A2.766,2.766,0,1,1,10.388,57.6,2.765,2.765,0,0,1,13.153,60.368Z" transform="translate(23.157 -29.332)" fill="#4b3c48"/>
      </g>
    </g>
  </g>
</svg>
