<svg xmlns="http://www.w3.org/2000/svg" xmlns:xlink="http://www.w3.org/1999/xlink" width="812.05" height="938.041" viewBox="0 0 812.05 938.041">
  <defs>
    <clipPath id="clip-path">
      <rect id="Rectángulo_33916" data-name="Rectángulo 33916" width="812.05" height="938.041" fill="none"/>
    </clipPath>
  </defs>
  <g id="Grupo_86437" data-name="Grupo 86437" transform="translate(-393.759 -458.17)">
    <g id="Grupo_86435" data-name="Grupo 86435" transform="translate(393.759 458.17)">
      <g id="Grupo_86416" data-name="Grupo 86416">
        <g id="Grupo_86415" data-name="Grupo 86415" clip-path="url(#clip-path)">
          <path id="Trazado_148386" data-name="Trazado 148386" d="M421.257,412.282H314.608a12,12,0,0,1-12-12V366.39a12,12,0,0,1,12-12H421.257a12,12,0,0,1,12,12v33.892a12,12,0,0,1-12,12" fill="#00cca7"/>
          <rect id="Rectángulo_33913" data-name="Rectángulo 33913" width="130.649" height="57.892" rx="12" transform="translate(302.608 354.39)" fill="none" stroke="#12263f" stroke-miterlimit="10" stroke-width="1"/>
          <path id="Trazado_148387" data-name="Trazado 148387" d="M119.149,419.605H12.5a12,12,0,0,1-12-12V373.713a12,12,0,0,1,12-12H119.149a12,12,0,0,1,12,12v33.892a12,12,0,0,1-12,12" fill="#00cca7"/>
          <rect id="Rectángulo_33914" data-name="Rectángulo 33914" width="130.649" height="57.892" rx="12" transform="translate(0.5 361.713)" fill="none" stroke="#12263f" stroke-miterlimit="10" stroke-width="1"/>
          <path id="Trazado_148388" data-name="Trazado 148388" d="M556.979,60.5h-376a12,12,0,0,1-12-12v-36a12,12,0,0,1,12-12h376a12,12,0,0,1,12,12v36a12,12,0,0,1-12,12" fill="#00cca7"/>
          <rect id="Rectángulo_33915" data-name="Rectángulo 33915" width="400" height="60" rx="12" transform="translate(168.979 0.5)" fill="none" stroke="#12263f" stroke-miterlimit="10" stroke-width="1"/>
        </g>
      </g>
      <text id="Diagnóstigo_de_circuitos_electrónicos_" data-name="Diagnóstigo de  circuitos  electrónicos                                " transform="translate(240.014 36.863)" fill="#12263f" font-size="16" font-family="Roboto-Bold, Roboto" font-weight="700"><tspan x="0" y="0" letter-spacing="-0.024em">D</tspan><tspan y="0" letter-spacing="-0.025em">ia</tspan><tspan y="0" letter-spacing="-0.024em">g</tspan><tspan y="0" letter-spacing="-0.025em">nós</tspan><tspan y="0" letter-spacing="-0.024em">t</tspan><tspan y="0" letter-spacing="-0.025em">i</tspan><tspan y="0" letter-spacing="-0.024em">g</tspan><tspan y="0" letter-spacing="-0.025em">o d</tspan><tspan y="0" letter-spacing="-0.024em">e</tspan><tspan y="0" xml:space="preserve" letter-spacing="-0.025em">  ci</tspan><tspan y="0" letter-spacing="-0.034em">r</tspan><tspan y="0" letter-spacing="-0.025em">c</tspan><tspan y="0" letter-spacing="-0.024em">u</tspan><tspan y="0" letter-spacing="-0.025em">i</tspan><tspan y="0" letter-spacing="-0.039em">t</tspan><tspan y="0" xml:space="preserve" letter-spacing="-0.025em">os  elec</tspan><tspan y="0" letter-spacing="-0.024em">t</tspan><tspan y="0" letter-spacing="-0.042em">r</tspan><tspan y="0" xml:space="preserve" letter-spacing="-0.025em">ónicos                               </tspan><tspan y="0"> </tspan></text>
      <g id="Grupo_86418" data-name="Grupo 86418">
        <g id="Grupo_86417" data-name="Grupo 86417" clip-path="url(#clip-path)">
          <path id="Trazado_148389" data-name="Trazado 148389" d="M469.588,224.368H270.21a12,12,0,0,1-12-12V134.663a12,12,0,0,1,12-12H469.588a12,12,0,0,1,12,12v77.705a12,12,0,0,1-12,12" fill="#75ffe6"/>
          <rect id="Rectángulo_33917" data-name="Rectángulo 33917" width="223.378" height="101.705" rx="12" transform="translate(258.21 122.663)" fill="none" stroke="#12263f" stroke-miterlimit="10" stroke-width="1"/>
        </g>
      </g>
      <text id="Identificar_el_estado_de_un_" data-name="Identificar el estado de un " transform="translate(283.161 150.056)" fill="#12263f" font-size="16" font-family="Roboto-Regular, Roboto"><tspan x="0" y="0" letter-spacing="-0.024em">Identi</tspan><tspan y="0" letter-spacing="-0.025em">fic</tspan><tspan y="0" letter-spacing="-0.024em">a</tspan><tspan y="0" letter-spacing="-0.025em">r </tspan><tspan y="0" letter-spacing="-0.024em">el estad</tspan><tspan y="0" letter-spacing="-0.025em">o</tspan><tspan y="0" xml:space="preserve" letter-spacing="-0.024em"> de</tspan><tspan y="0" xml:space="preserve" letter-spacing="-0.025em"> u</tspan><tspan y="0" letter-spacing="-0.024em">n</tspan><tspan y="0"> </tspan></text>
      <text id="producto_electrónico_con_el_" data-name="producto electrónico con el " transform="translate(278.409 169.256)" fill="#12263f" font-size="16" font-family="Roboto-Regular, Roboto"><tspan x="0" y="0" letter-spacing="-0.025em">p</tspan><tspan y="0" letter-spacing="-0.034em">r</tspan><tspan y="0" letter-spacing="-0.025em">o</tspan><tspan y="0" letter-spacing="-0.024em">d</tspan><tspan y="0" letter-spacing="-0.025em">uc</tspan><tspan y="0" letter-spacing="-0.034em">t</tspan><tspan y="0" letter-spacing="-0.025em">o </tspan><tspan y="0" letter-spacing="-0.024em">ele</tspan><tspan y="0" letter-spacing="-0.025em">c</tspan><tspan y="0" letter-spacing="-0.024em">t</tspan><tspan y="0" letter-spacing="-0.034em">r</tspan><tspan y="0" letter-spacing="-0.025em">ó</tspan><tspan y="0" letter-spacing="-0.024em">ni</tspan><tspan y="0" letter-spacing="-0.025em">co co</tspan><tspan y="0" letter-spacing="-0.024em">n</tspan><tspan y="0" letter-spacing="-0.025em"> </tspan><tspan y="0" letter-spacing="-0.024em">el</tspan><tspan y="0"> </tspan></text>
      <text id="uso_de_herramientas_según_" data-name="uso de herramientas según " transform="translate(278.281 188.456)" fill="#12263f" font-size="16" font-family="Roboto-Regular, Roboto"><tspan x="0" y="0" letter-spacing="-0.025em">u</tspan><tspan y="0" letter-spacing="-0.024em">s</tspan><tspan y="0" letter-spacing="-0.025em">o </tspan><tspan y="0" letter-spacing="-0.024em">de</tspan><tspan y="0" letter-spacing="-0.025em"> </tspan><tspan y="0" letter-spacing="-0.024em">he</tspan><tspan y="0" letter-spacing="-0.025em">r</tspan><tspan y="0" letter-spacing="-0.044em">r</tspan><tspan y="0" letter-spacing="-0.024em">a</tspan><tspan y="0" letter-spacing="-0.025em">m</tspan><tspan y="0" letter-spacing="-0.024em">ientas se</tspan><tspan y="0" letter-spacing="-0.025em">gú</tspan><tspan y="0" letter-spacing="-0.024em">n</tspan><tspan y="0"> </tspan></text>
      <text id="normativa" transform="translate(335.721 207.656)" fill="#12263f" font-size="16" font-family="Roboto-Regular, Roboto"><tspan x="0" y="0" letter-spacing="-0.024em">n</tspan><tspan y="0" letter-spacing="-0.025em">orm</tspan><tspan y="0" letter-spacing="-0.024em">ati</tspan><tspan y="0" letter-spacing="-0.032em">v</tspan><tspan y="0">a</tspan></text>
      <g id="Grupo_86420" data-name="Grupo 86420">
        <g id="Grupo_86419" data-name="Grupo 86419" clip-path="url(#clip-path)">
          <line id="Línea_334" data-name="Línea 334" y2="63.432" transform="translate(65.824 285.766)" fill="none" stroke="#000" stroke-miterlimit="10" stroke-width="1"/>
          <path id="Trazado_148390" data-name="Trazado 148390" d="M55.852,343.859l9.972,17.27,9.972-17.27Z"/>
          <line id="Línea_335" data-name="Línea 335" y2="47.811" transform="translate(369.899 61.985)" fill="none" stroke="#000" stroke-miterlimit="10" stroke-width="1"/>
          <path id="Trazado_148391" data-name="Trazado 148391" d="M359.927,105.677l9.972,17.27,9.972-17.27Z"/>
          <line id="Línea_336" data-name="Línea 336" y2="55.157" transform="translate(636.751 285.766)" fill="none" stroke="#000" stroke-miterlimit="10" stroke-width="1"/>
          <path id="Trazado_148392" data-name="Trazado 148392" d="M626.779,338l9.972,17.27L646.722,338Z"/>
          <path id="Trazado_148393" data-name="Trazado 148393" d="M68.649,285.766H639.287" fill="none" stroke="#000" stroke-miterlimit="10" stroke-width="1"/>
          <line id="Línea_337" data-name="Línea 337" y2="59.462" transform="translate(367.933 224.368)" fill="none" stroke="#000" stroke-miterlimit="10" stroke-width="1"/>
        </g>
      </g>
      <text id="mediante" transform="translate(499.195 270.337)" font-size="18" font-family="Roboto-Regular, Roboto"><tspan x="0" y="0" letter-spacing="-0.025em">m</tspan><tspan y="0" letter-spacing="-0.024em">ediant</tspan><tspan y="0">e</tspan></text>
      <g id="Grupo_86422" data-name="Grupo 86422">
        <g id="Grupo_86421" data-name="Grupo 86421" clip-path="url(#clip-path)">
          <path id="Trazado_148394" data-name="Trazado 148394" d="M367.925,338.948V278.809" fill="none" stroke="#000" stroke-miterlimit="10" stroke-width="1"/>
          <line id="Línea_338" data-name="Línea 338" y1="18.376" transform="translate(367.925 323.193)" fill="none" stroke="#000" stroke-miterlimit="10" stroke-width="1"/>
          <path id="Trazado_148395" data-name="Trazado 148395" d="M357.952,337.12l9.972,17.27,9.972-17.27Z"/>
        </g>
      </g>
      <text id="Herramientas_" data-name="Herramientas " transform="translate(321.877 378.519)" fill="#12263f" font-size="16" font-family="Roboto-Regular, Roboto"><tspan x="0" y="0" letter-spacing="-0.024em">He</tspan><tspan y="0" letter-spacing="-0.025em">r</tspan><tspan y="0" letter-spacing="-0.044em">r</tspan><tspan y="0" letter-spacing="-0.024em">a</tspan><tspan y="0" letter-spacing="-0.025em">m</tspan><tspan y="0" letter-spacing="-0.024em">ientas</tspan><tspan y="0"> </tspan></text>
      <text id="y_equipos" data-name="y equipos" transform="translate(335.445 397.719)" fill="#12263f" font-size="16" font-family="Roboto-Regular, Roboto"><tspan x="0" y="0" letter-spacing="-0.025em">y</tspan><tspan y="0" xml:space="preserve" letter-spacing="-0.024em"> e</tspan><tspan y="0" letter-spacing="-0.025em">qu</tspan><tspan y="0" letter-spacing="-0.024em">i</tspan><tspan y="0" letter-spacing="-0.025em">po</tspan><tspan y="0">s</tspan></text>
      <text id="Entorno_de" data-name="Entorno de" transform="translate(29.157 385.75)" fill="#12263f" font-size="16" font-family="Roboto-Regular, Roboto"><tspan x="0" y="0" letter-spacing="-0.025em">E</tspan><tspan y="0" letter-spacing="-0.024em">n</tspan><tspan y="0" letter-spacing="-0.034em">t</tspan><tspan y="0" letter-spacing="-0.025em">or</tspan><tspan y="0" letter-spacing="-0.024em">n</tspan><tspan y="0" letter-spacing="-0.025em">o </tspan><tspan y="0" letter-spacing="-0.024em">d</tspan><tspan y="0">e</tspan></text>
      <text id="trabajo" transform="translate(42.197 404.951)" fill="#12263f" font-size="16" font-family="Roboto-Regular, Roboto"><tspan x="0" y="0" letter-spacing="-0.024em">t</tspan><tspan y="0" letter-spacing="-0.044em">r</tspan><tspan y="0" letter-spacing="-0.024em">a</tspan><tspan y="0" letter-spacing="-0.025em">b</tspan><tspan y="0" letter-spacing="-0.024em">aj</tspan><tspan y="0">o</tspan></text>
      <g id="Grupo_86424" data-name="Grupo 86424">
        <g id="Grupo_86423" data-name="Grupo 86423" clip-path="url(#clip-path)">
          <path id="Trazado_148396" data-name="Trazado 148396" d="M229.829,826.257H110.291a12,12,0,0,1-12-12V743.569a12,12,0,0,1,12-12H229.829a12,12,0,0,1,12,12v70.688a12,12,0,0,1-12,12" fill="#75ffe6"/>
          <rect id="Rectángulo_33921" data-name="Rectángulo 33921" width="143.538" height="94.688" rx="12" transform="translate(98.291 731.568)" fill="none" stroke="#12263f" stroke-miterlimit="10" stroke-width="1"/>
          <path id="Trazado_148397" data-name="Trazado 148397" d="M229.829,715.269H110.291a12,12,0,0,1-12-12V632.581a12,12,0,0,1,12-12H229.829a12,12,0,0,1,12,12v70.688a12,12,0,0,1-12,12" fill="#75ffe6"/>
          <rect id="Rectángulo_33922" data-name="Rectángulo 33922" width="143.538" height="94.688" rx="12" transform="translate(98.291 620.581)" fill="none" stroke="#12263f" stroke-miterlimit="10" stroke-width="1"/>
          <path id="Trazado_148398" data-name="Trazado 148398" d="M229.829,604.281H110.291a12,12,0,0,1-12-12V521.593a12,12,0,0,1,12-12H229.829a12,12,0,0,1,12,12v70.688a12,12,0,0,1-12,12" fill="#75ffe6"/>
          <rect id="Rectángulo_33923" data-name="Rectángulo 33923" width="143.538" height="94.688" rx="12" transform="translate(98.291 509.593)" fill="none" stroke="#12263f" stroke-miterlimit="10" stroke-width="1"/>
          <line id="Línea_339" data-name="Línea 339" x2="18.074" transform="translate(65.866 667.924)" fill="none" stroke="#000" stroke-miterlimit="10" stroke-width="1"/>
          <path id="Trazado_148399" data-name="Trazado 148399" d="M81.022,677.9l17.27-9.972-17.27-9.972Z"/>
          <line id="Línea_340" data-name="Línea 340" x2="18.074" transform="translate(65.866 556.936)" fill="none" stroke="#000" stroke-miterlimit="10" stroke-width="1"/>
          <path id="Trazado_148400" data-name="Trazado 148400" d="M81.022,566.909l17.27-9.972-17.27-9.972Z"/>
          <line id="Línea_341" data-name="Línea 341" x2="18.074" transform="translate(65.866 778.912)" fill="none" stroke="#000" stroke-miterlimit="10" stroke-width="1"/>
          <path id="Trazado_148401" data-name="Trazado 148401" d="M81.022,788.885l17.27-9.972-17.27-9.972Z"/>
          <line id="Línea_342" data-name="Línea 342" x2="18.074" transform="translate(65.866 885.154)" fill="none" stroke="#000" stroke-miterlimit="10" stroke-width="1"/>
          <path id="Trazado_148402" data-name="Trazado 148402" d="M81.022,895.127l17.27-9.972-17.27-9.972Z"/>
        </g>
      </g>
      <text id="Procedimientos_" data-name="Procedimientos " transform="translate(116.445 532.8)" fill="#12263f" font-size="16" font-family="Roboto-Regular, Roboto"><tspan x="0" y="0" letter-spacing="-0.024em">P</tspan><tspan y="0" letter-spacing="-0.034em">r</tspan><tspan y="0" letter-spacing="-0.025em">oc</tspan><tspan y="0" letter-spacing="-0.024em">edi</tspan><tspan y="0" letter-spacing="-0.025em">m</tspan><tspan y="0" letter-spacing="-0.024em">ien</tspan><tspan y="0" letter-spacing="-0.034em">t</tspan><tspan y="0" letter-spacing="-0.025em">o</tspan><tspan y="0" letter-spacing="-0.024em">s</tspan><tspan y="0"> </tspan></text>
      <text id="de_alistamiento_" data-name="de alistamiento " transform="translate(117.837 552)" fill="#12263f" font-size="16" font-family="Roboto-Regular, Roboto"><tspan x="0" y="0" letter-spacing="-0.024em">de alista</tspan><tspan y="0" letter-spacing="-0.025em">m</tspan><tspan y="0" letter-spacing="-0.024em">ien</tspan><tspan y="0" letter-spacing="-0.034em">t</tspan><tspan y="0" letter-spacing="-0.025em">o</tspan><tspan y="0"> </tspan></text>
      <text id="del_área_de_" data-name="del área de " transform="translate(132.813 571.2)" fill="#12263f" font-size="16" font-family="Roboto-Regular, Roboto"><tspan x="0" y="0" letter-spacing="-0.024em">del á</tspan><tspan y="0" letter-spacing="-0.034em">r</tspan><tspan y="0" letter-spacing="-0.024em">ea de</tspan><tspan y="0"> </tspan></text>
      <text id="trabajo-2" data-name="trabajo" transform="translate(146.157 590.399)" fill="#12263f" font-size="16" font-family="Roboto-Regular, Roboto"><tspan x="0" y="0" letter-spacing="-0.024em">t</tspan><tspan y="0" letter-spacing="-0.044em">r</tspan><tspan y="0" letter-spacing="-0.024em">a</tspan><tspan y="0" letter-spacing="-0.025em">b</tspan><tspan y="0" letter-spacing="-0.024em">aj</tspan><tspan y="0">o</tspan></text>
      <text id="Normas_de_" data-name="Normas de " transform="translate(132.461 643.52)" fill="#12263f" font-size="16" font-family="Roboto-Regular, Roboto"><tspan x="0" y="0" letter-spacing="-0.024em">N</tspan><tspan y="0" letter-spacing="-0.025em">orm</tspan><tspan y="0" letter-spacing="-0.024em">as</tspan><tspan y="0" letter-spacing="-0.025em"> </tspan><tspan y="0" letter-spacing="-0.024em">de</tspan><tspan y="0"> </tspan></text>
      <text id="seguridad_y_" data-name="seguridad y " transform="translate(131.005 662.72)" fill="#12263f" font-size="16" font-family="Roboto-Regular, Roboto"><tspan x="0" y="0" letter-spacing="-0.024em">se</tspan><tspan y="0" letter-spacing="-0.025em">gur</tspan><tspan y="0" letter-spacing="-0.024em">idad</tspan><tspan y="0" xml:space="preserve" letter-spacing="-0.025em"> y</tspan><tspan y="0"> </tspan></text>
      <text id="salud_en_el_" data-name="salud en el " transform="translate(133.917 681.92)" fill="#12263f" font-size="16" font-family="Roboto-Regular, Roboto"><tspan x="0" y="0" letter-spacing="-0.024em">sal</tspan><tspan y="0" letter-spacing="-0.025em">u</tspan><tspan y="0" letter-spacing="-0.024em">d en el</tspan><tspan y="0"> </tspan></text>
      <text id="trabajo-3" data-name="trabajo" transform="translate(146.429 701.12)" fill="#12263f" font-size="16" font-family="Roboto-Regular, Roboto"><tspan x="0" y="0" letter-spacing="-0.024em">t</tspan><tspan y="0" letter-spacing="-0.044em">r</tspan><tspan y="0" letter-spacing="-0.024em">a</tspan><tspan y="0" letter-spacing="-0.025em">b</tspan><tspan y="0" letter-spacing="-0.024em">aj</tspan><tspan y="0">o</tspan></text>
      <text id="_Condiciones_" data-name=" Condiciones " transform="translate(126.173 755.775)" fill="#12263f" font-size="16" font-family="Roboto-Regular, Roboto"><tspan x="0" y="0" xml:space="preserve" letter-spacing="-0.024em"> C</tspan><tspan y="0" letter-spacing="-0.025em">o</tspan><tspan y="0" letter-spacing="-0.024em">ndi</tspan><tspan y="0" letter-spacing="-0.025em">c</tspan><tspan y="0" letter-spacing="-0.024em">i</tspan><tspan y="0" letter-spacing="-0.025em">o</tspan><tspan y="0" letter-spacing="-0.024em">nes</tspan><tspan y="0"> </tspan></text>
      <text id="que_pueden_" data-name="que pueden " transform="translate(130.381 774.976)" fill="#12263f" font-size="16" font-family="Roboto-Regular, Roboto"><tspan x="0" y="0" letter-spacing="-0.025em">qu</tspan><tspan y="0" letter-spacing="-0.024em">e</tspan><tspan y="0" xml:space="preserve" letter-spacing="-0.025em"> pu</tspan><tspan y="0" letter-spacing="-0.024em">eden</tspan><tspan y="0"> </tspan></text>
      <text id="influir_según_el_" data-name="influir según el " transform="translate(121.101 794.176)" fill="#12263f" font-size="16" font-family="Roboto-Regular, Roboto"><tspan x="0" y="0" letter-spacing="-0.024em">in</tspan><tspan y="0" letter-spacing="-0.025em">flu</tspan><tspan y="0" letter-spacing="-0.024em">i</tspan><tspan y="0" letter-spacing="-0.025em">r </tspan><tspan y="0" letter-spacing="-0.024em">se</tspan><tspan y="0" letter-spacing="-0.025em">gú</tspan><tspan y="0" letter-spacing="-0.024em">n el</tspan><tspan y="0"> </tspan></text>
      <text id="tipo_de_equipo" data-name="tipo de equipo" transform="translate(122.141 813.376)" fill="#12263f" font-size="16" font-family="Roboto-Regular, Roboto"><tspan x="0" y="0" letter-spacing="-0.024em">ti</tspan><tspan y="0" letter-spacing="-0.025em">po </tspan><tspan y="0" letter-spacing="-0.024em">de</tspan><tspan y="0" letter-spacing="-0.025em"> </tspan><tspan y="0" letter-spacing="-0.024em">e</tspan><tspan y="0" letter-spacing="-0.025em">qu</tspan><tspan y="0" letter-spacing="-0.024em">i</tspan><tspan y="0" letter-spacing="-0.025em">p</tspan><tspan y="0">o</tspan></text>
      <g id="Grupo_86426" data-name="Grupo 86426">
        <g id="Grupo_86425" data-name="Grupo 86425" clip-path="url(#clip-path)">
          <path id="Trazado_148403" data-name="Trazado 148403" d="M229.829,937.541H110.291a12,12,0,0,1-12-12V854.853a12,12,0,0,1,12-12H229.829a12,12,0,0,1,12,12v70.688a12,12,0,0,1-12,12" fill="#75ffe6"/>
          <rect id="Rectángulo_33925" data-name="Rectángulo 33925" width="143.538" height="94.688" rx="12" transform="translate(98.291 842.853)" fill="none" stroke="#12263f" stroke-miterlimit="10" stroke-width="1"/>
        </g>
      </g>
      <text id="Aprovisionamiento_" data-name="Aprovisionamiento " transform="translate(106.35 885.272)" fill="#12263f" font-size="16" font-family="Roboto-Regular, Roboto"><tspan x="0" y="0" letter-spacing="-0.025em">Ap</tspan><tspan y="0" letter-spacing="-0.034em">r</tspan><tspan y="0" letter-spacing="-0.032em">o</tspan><tspan y="0" letter-spacing="-0.025em">v</tspan><tspan y="0" letter-spacing="-0.024em">isi</tspan><tspan y="0" letter-spacing="-0.025em">o</tspan><tspan y="0" letter-spacing="-0.024em">na</tspan><tspan y="0" letter-spacing="-0.025em">m</tspan><tspan y="0" letter-spacing="-0.024em">ien</tspan><tspan y="0" letter-spacing="-0.034em">t</tspan><tspan y="0" letter-spacing="-0.025em">o</tspan><tspan y="0"> </tspan></text>
      <text id="y_solicitud" data-name="y solicitud" transform="translate(135.902 904.473)" fill="#12263f" font-size="16" font-family="Roboto-Regular, Roboto"><tspan x="0" y="0" letter-spacing="-0.025em">y</tspan><tspan y="0" xml:space="preserve" letter-spacing="-0.024em"> s</tspan><tspan y="0" letter-spacing="-0.025em">o</tspan><tspan y="0" letter-spacing="-0.024em">li</tspan><tspan y="0" letter-spacing="-0.025em">c</tspan><tspan y="0" letter-spacing="-0.024em">it</tspan><tspan y="0" letter-spacing="-0.025em">u</tspan><tspan y="0">d</tspan></text>
      <g id="Grupo_86428" data-name="Grupo 86428">
        <g id="Grupo_86427" data-name="Grupo 86427" clip-path="url(#clip-path)">
          <line id="Línea_343" data-name="Línea 343" y2="465.25" transform="translate(65.866 419.904)" fill="none" stroke="#000" stroke-miterlimit="10" stroke-width="1"/>
          <path id="Trazado_148404" data-name="Trazado 148404" d="M799.55,826.257H680.012a12,12,0,0,1-12-12V743.569a12,12,0,0,1,12-12H799.55a12,12,0,0,1,12,12v70.688a12,12,0,0,1-12,12" fill="#75ffe6"/>
          <rect id="Rectángulo_33927" data-name="Rectángulo 33927" width="143.538" height="94.688" rx="12" transform="translate(668.012 731.568)" fill="none" stroke="#12263f" stroke-miterlimit="10" stroke-width="1"/>
          <path id="Trazado_148405" data-name="Trazado 148405" d="M799.55,715.269H680.012a12,12,0,0,1-12-12V632.581a12,12,0,0,1,12-12H799.55a12,12,0,0,1,12,12v70.688a12,12,0,0,1-12,12" fill="#75ffe6"/>
          <rect id="Rectángulo_33928" data-name="Rectángulo 33928" width="143.538" height="94.688" rx="12" transform="translate(668.012 620.581)" fill="none" stroke="#12263f" stroke-miterlimit="10" stroke-width="1"/>
          <path id="Trazado_148406" data-name="Trazado 148406" d="M799.55,604.281H680.012a12,12,0,0,1-12-12V521.593a12,12,0,0,1,12-12H799.55a12,12,0,0,1,12,12v70.688a12,12,0,0,1-12,12" fill="#75ffe6"/>
          <rect id="Rectángulo_33929" data-name="Rectángulo 33929" width="143.538" height="94.688" rx="12" transform="translate(668.012 509.593)" fill="none" stroke="#12263f" stroke-miterlimit="10" stroke-width="1"/>
          <line id="Línea_344" data-name="Línea 344" x2="18.074" transform="translate(635.586 667.924)" fill="none" stroke="#000" stroke-miterlimit="10" stroke-width="1"/>
          <path id="Trazado_148407" data-name="Trazado 148407" d="M650.742,677.9l17.27-9.972-17.27-9.972Z"/>
          <line id="Línea_345" data-name="Línea 345" x2="18.074" transform="translate(635.586 556.936)" fill="none" stroke="#000" stroke-miterlimit="10" stroke-width="1"/>
          <path id="Trazado_148408" data-name="Trazado 148408" d="M650.742,566.909l17.27-9.972-17.27-9.972Z"/>
          <line id="Línea_346" data-name="Línea 346" x2="18.074" transform="translate(635.586 778.912)" fill="none" stroke="#000" stroke-miterlimit="10" stroke-width="1"/>
          <path id="Trazado_148409" data-name="Trazado 148409" d="M650.742,788.885l17.27-9.972-17.27-9.972Z"/>
          <line id="Línea_347" data-name="Línea 347" x2="18.074" transform="translate(635.586 885.154)" fill="none" stroke="#000" stroke-miterlimit="10" stroke-width="1"/>
          <path id="Trazado_148410" data-name="Trazado 148410" d="M650.742,895.127l17.27-9.972-17.27-9.972Z"/>
        </g>
      </g>
      <text id="Elementos_de_" data-name="Elementos de " transform="translate(693.367 552.012)" fill="#12263f" font-size="16" font-family="Roboto-Regular, Roboto"><tspan x="0" y="0" letter-spacing="-0.025em">E</tspan><tspan y="0" letter-spacing="-0.024em">le</tspan><tspan y="0" letter-spacing="-0.025em">m</tspan><tspan y="0" letter-spacing="-0.024em">en</tspan><tspan y="0" letter-spacing="-0.034em">t</tspan><tspan y="0" letter-spacing="-0.025em">o</tspan><tspan y="0" letter-spacing="-0.024em">s de</tspan><tspan y="0"> </tspan></text>
      <text id="consumo" transform="translate(707.432 571.212)" fill="#12263f" font-size="16" font-family="Roboto-Regular, Roboto"><tspan x="0" y="0" letter-spacing="-0.025em">co</tspan><tspan y="0" letter-spacing="-0.024em">ns</tspan><tspan y="0" letter-spacing="-0.025em">um</tspan><tspan y="0">o</tspan></text>
      <text id="Elementos_" data-name="Elementos " transform="translate(703.768 653.403)" fill="#12263f" font-size="16" font-family="Roboto-Regular, Roboto"><tspan x="0" y="0" letter-spacing="-0.025em">E</tspan><tspan y="0" letter-spacing="-0.024em">le</tspan><tspan y="0" letter-spacing="-0.025em">m</tspan><tspan y="0" letter-spacing="-0.024em">en</tspan><tspan y="0" letter-spacing="-0.034em">t</tspan><tspan y="0" letter-spacing="-0.025em">o</tspan><tspan y="0" letter-spacing="-0.024em">s</tspan><tspan y="0"> </tspan></text>
      <text id="electrónicos_" data-name="electrónicos " transform="translate(698.344 672.604)" fill="#12263f" font-size="16" font-family="Roboto-Regular, Roboto"><tspan x="0" y="0" letter-spacing="-0.024em">ele</tspan><tspan y="0" letter-spacing="-0.025em">c</tspan><tspan y="0" letter-spacing="-0.024em">t</tspan><tspan y="0" letter-spacing="-0.034em">r</tspan><tspan y="0" letter-spacing="-0.025em">ó</tspan><tspan y="0" letter-spacing="-0.024em">ni</tspan><tspan y="0" letter-spacing="-0.025em">co</tspan><tspan y="0" letter-spacing="-0.024em">s</tspan><tspan y="0"> </tspan></text>
      <text id="activos_y_pasivos" data-name="activos y pasivos" transform="translate(682.231 691.804)" fill="#12263f" font-size="16" font-family="Roboto-Regular, Roboto"><tspan x="0" y="0" letter-spacing="-0.024em">a</tspan><tspan y="0" letter-spacing="-0.025em">c</tspan><tspan y="0" letter-spacing="-0.024em">ti</tspan><tspan y="0" letter-spacing="-0.032em">v</tspan><tspan y="0" letter-spacing="-0.025em">o</tspan><tspan y="0" letter-spacing="-0.024em">s</tspan><tspan y="0" xml:space="preserve" letter-spacing="-0.025em"> y</tspan><tspan y="0" letter-spacing="-0.024em"> </tspan><tspan y="0" letter-spacing="-0.025em">p</tspan><tspan y="0" letter-spacing="-0.024em">asi</tspan><tspan y="0" letter-spacing="-0.032em">v</tspan><tspan y="0" letter-spacing="-0.025em">o</tspan><tspan y="0">s</tspan></text>
      <text id="_Elementos_de_" data-name=" Elementos de " transform="translate(691.863 773.996)" fill="#12263f" font-size="16" font-family="Roboto-Regular, Roboto"><tspan x="0" y="0" xml:space="preserve" letter-spacing="-0.025em"> E</tspan><tspan y="0" letter-spacing="-0.024em">le</tspan><tspan y="0" letter-spacing="-0.025em">m</tspan><tspan y="0" letter-spacing="-0.024em">en</tspan><tspan y="0" letter-spacing="-0.034em">t</tspan><tspan y="0" letter-spacing="-0.025em">o</tspan><tspan y="0" letter-spacing="-0.024em">s</tspan><tspan y="0" letter-spacing="-0.025em"> </tspan><tspan y="0" letter-spacing="-0.024em">de</tspan><tspan y="0"> </tspan></text>
      <text id="protección" transform="translate(703.768 793.195)" fill="#12263f" font-size="16" font-family="Roboto-Regular, Roboto"><tspan x="0" y="0" letter-spacing="-0.025em">p</tspan><tspan y="0" letter-spacing="-0.034em">r</tspan><tspan y="0" letter-spacing="-0.025em">o</tspan><tspan y="0" letter-spacing="-0.024em">te</tspan><tspan y="0" letter-spacing="-0.025em">cc</tspan><tspan y="0" letter-spacing="-0.024em">i</tspan><tspan y="0" letter-spacing="-0.025em">ó</tspan><tspan y="0">n</tspan></text>
      <g id="Grupo_86430" data-name="Grupo 86430">
        <g id="Grupo_86429" data-name="Grupo 86429" clip-path="url(#clip-path)">
          <path id="Trazado_148411" data-name="Trazado 148411" d="M799.55,937.541H680.012a12,12,0,0,1-12-12V854.853a12,12,0,0,1,12-12H799.55a12,12,0,0,1,12,12v70.688a12,12,0,0,1-12,12" fill="#75ffe6"/>
          <rect id="Rectángulo_33931" data-name="Rectángulo 33931" width="143.538" height="94.688" rx="12" transform="translate(668.012 842.853)" fill="none" stroke="#12263f" stroke-miterlimit="10" stroke-width="1"/>
        </g>
      </g>
      <text id="Herramientas_de_" data-name="Herramientas de " transform="translate(683.447 885.256)" fill="#12263f" font-size="16" font-family="Roboto-Regular, Roboto"><tspan x="0" y="0" letter-spacing="-0.024em">He</tspan><tspan y="0" letter-spacing="-0.025em">r</tspan><tspan y="0" letter-spacing="-0.044em">r</tspan><tspan y="0" letter-spacing="-0.024em">a</tspan><tspan y="0" letter-spacing="-0.025em">m</tspan><tspan y="0" letter-spacing="-0.024em">ientas</tspan><tspan y="0" letter-spacing="-0.025em"> </tspan><tspan y="0" letter-spacing="-0.024em">de</tspan><tspan y="0"> </tspan></text>
      <text id="corte" transform="translate(721.927 904.456)" fill="#12263f" font-size="16" font-family="Roboto-Regular, Roboto"><tspan x="0" y="0" letter-spacing="-0.025em">co</tspan><tspan y="0">r</tspan><tspan y="0" letter-spacing="-0.024em">t</tspan><tspan y="0">e</tspan></text>
      <g id="Grupo_86432" data-name="Grupo 86432">
        <g id="Grupo_86431" data-name="Grupo 86431" clip-path="url(#clip-path)">
          <line id="Línea_348" data-name="Línea 348" y2="465.25" transform="translate(635.586 419.904)" fill="none" stroke="#000" stroke-miterlimit="10" stroke-width="1"/>
          <path id="Trazado_148412" data-name="Trazado 148412" d="M531.9,826.257H412.358a12,12,0,0,1-12-12V743.569a12,12,0,0,1,12-12H531.9a12,12,0,0,1,12,12v70.688a12,12,0,0,1-12,12" fill="#75ffe6"/>
          <rect id="Rectángulo_33933" data-name="Rectángulo 33933" width="143.538" height="94.688" rx="12" transform="translate(400.358 731.568)" fill="none" stroke="#12263f" stroke-miterlimit="10" stroke-width="1"/>
          <path id="Trazado_148413" data-name="Trazado 148413" d="M531.9,715.269H412.358a12,12,0,0,1-12-12V632.581a12,12,0,0,1,12-12H531.9a12,12,0,0,1,12,12v70.688a12,12,0,0,1-12,12" fill="#75ffe6"/>
          <rect id="Rectángulo_33934" data-name="Rectángulo 33934" width="143.538" height="94.688" rx="12" transform="translate(400.358 620.581)" fill="none" stroke="#12263f" stroke-miterlimit="10" stroke-width="1"/>
          <path id="Trazado_148414" data-name="Trazado 148414" d="M531.9,604.281H412.358a12,12,0,0,1-12-12V521.593a12,12,0,0,1,12-12H531.9a12,12,0,0,1,12,12v70.688a12,12,0,0,1-12,12" fill="#75ffe6"/>
          <rect id="Rectángulo_33935" data-name="Rectángulo 33935" width="143.538" height="94.688" rx="12" transform="translate(400.358 509.593)" fill="none" stroke="#12263f" stroke-miterlimit="10" stroke-width="1"/>
          <line id="Línea_349" data-name="Línea 349" x2="18.074" transform="translate(367.933 667.924)" fill="none" stroke="#000" stroke-miterlimit="10" stroke-width="1"/>
          <path id="Trazado_148415" data-name="Trazado 148415" d="M383.089,677.9l17.27-9.972-17.27-9.972Z"/>
          <line id="Línea_350" data-name="Línea 350" x2="18.074" transform="translate(367.933 556.936)" fill="none" stroke="#000" stroke-miterlimit="10" stroke-width="1"/>
          <path id="Trazado_148416" data-name="Trazado 148416" d="M383.089,566.909l17.27-9.972-17.27-9.972Z"/>
          <line id="Línea_351" data-name="Línea 351" x2="18.074" transform="translate(367.933 778.912)" fill="none" stroke="#000" stroke-miterlimit="10" stroke-width="1"/>
          <path id="Trazado_148417" data-name="Trazado 148417" d="M383.089,788.885l17.27-9.972-17.27-9.972Z"/>
        </g>
      </g>
      <text id="Tpos_de_" data-name="Tpos de " transform="translate(445.073 552.012)" fill="#12263f" font-size="16" font-family="Roboto-Regular, Roboto"><tspan x="0" y="0" letter-spacing="-0.078em">T</tspan><tspan y="0" letter-spacing="-0.025em">po</tspan><tspan y="0" letter-spacing="-0.024em">s de</tspan><tspan y="0"> </tspan></text>
      <text id="herramientas" transform="translate(427.377 571.212)" fill="#12263f" font-size="16" font-family="Roboto-Regular, Roboto"><tspan x="0" y="0" letter-spacing="-0.024em">he</tspan><tspan y="0" letter-spacing="-0.025em">r</tspan><tspan y="0" letter-spacing="-0.044em">r</tspan><tspan y="0" letter-spacing="-0.024em">a</tspan><tspan y="0" letter-spacing="-0.025em">m</tspan><tspan y="0" letter-spacing="-0.024em">ienta</tspan><tspan y="0">s</tspan></text>
      <text id="Herramientas_2" data-name="Herramientas " transform="translate(426.081 663.004)" fill="#12263f" font-size="16" font-family="Roboto-Regular, Roboto"><tspan x="0" y="0" letter-spacing="-0.024em">He</tspan><tspan y="0" letter-spacing="-0.025em">r</tspan><tspan y="0" letter-spacing="-0.044em">r</tspan><tspan y="0" letter-spacing="-0.024em">a</tspan><tspan y="0" letter-spacing="-0.025em">m</tspan><tspan y="0" letter-spacing="-0.024em">ientas</tspan><tspan y="0"> </tspan></text>
      <text id="de_diagnóstico" data-name="de diagnóstico" transform="translate(422.305 682.204)" fill="#12263f" font-size="16" font-family="Roboto-Regular, Roboto"><tspan x="0" y="0" letter-spacing="-0.024em">de dia</tspan><tspan y="0" letter-spacing="-0.025em">g</tspan><tspan y="0" letter-spacing="-0.024em">n</tspan><tspan y="0" letter-spacing="-0.025em">ó</tspan><tspan y="0" letter-spacing="-0.024em">sti</tspan><tspan y="0" letter-spacing="-0.025em">c</tspan><tspan y="0">o</tspan></text>
      <text id="_Características_" data-name=" Características " transform="translate(419.633 773.996)" fill="#12263f" font-size="16" font-family="Roboto-Regular, Roboto"><tspan x="0" y="0" letter-spacing="-0.025em"> </tspan><tspan y="0" letter-spacing="-0.024em">Ca</tspan><tspan y="0" letter-spacing="-0.044em">r</tspan><tspan y="0" letter-spacing="-0.024em">a</tspan><tspan y="0" letter-spacing="-0.025em">c</tspan><tspan y="0" letter-spacing="-0.024em">te</tspan><tspan y="0" letter-spacing="-0.025em">rí</tspan><tspan y="0" letter-spacing="-0.024em">sti</tspan><tspan y="0" letter-spacing="-0.025em">c</tspan><tspan y="0" letter-spacing="-0.024em">as</tspan><tspan y="0"> </tspan></text>
      <text id="generales" transform="translate(439.152 793.195)" fill="#12263f" font-size="16" font-family="Roboto-Regular, Roboto"><tspan x="0" y="0" letter-spacing="-0.025em">g</tspan><tspan y="0" letter-spacing="-0.024em">ene</tspan><tspan y="0" letter-spacing="-0.044em">r</tspan><tspan y="0" letter-spacing="-0.024em">ale</tspan><tspan y="0">s</tspan></text>
      <g id="Grupo_86434" data-name="Grupo 86434">
        <g id="Grupo_86433" data-name="Grupo 86433" clip-path="url(#clip-path)">
          <line id="Línea_352" data-name="Línea 352" y2="359.008" transform="translate(367.933 419.904)" fill="none" stroke="#000" stroke-miterlimit="10" stroke-width="1"/>
          <path id="Trazado_148418" data-name="Trazado 148418" d="M688.911,414.864H582.262a12,12,0,0,1-12-12V368.972a12,12,0,0,1,12-12H688.911a12,12,0,0,1,12,12v33.892a12,12,0,0,1-12,12" fill="#00cca7"/>
          <rect id="Rectángulo_33937" data-name="Rectángulo 33937" width="130.649" height="57.892" rx="12" transform="translate(570.262 356.972)" fill="none" stroke="#12263f" stroke-miterlimit="10" stroke-width="1"/>
        </g>
      </g>
      <text id="Insumos_para_" data-name="Insumos para " transform="translate(589.239 381.013)" fill="#12263f" font-size="16" font-family="Roboto-Regular, Roboto"><tspan x="0" y="0" letter-spacing="-0.024em">Ins</tspan><tspan y="0" letter-spacing="-0.025em">umo</tspan><tspan y="0" letter-spacing="-0.024em">s</tspan><tspan y="0" xml:space="preserve" letter-spacing="-0.025em"> p</tspan><tspan y="0" letter-spacing="-0.024em">a</tspan><tspan y="0" letter-spacing="-0.044em">r</tspan><tspan y="0" letter-spacing="-0.024em">a</tspan><tspan y="0"> </tspan></text>
      <text id="diagnóstico" transform="translate(595.879 400.213)" fill="#12263f" font-size="16" font-family="Roboto-Regular, Roboto"><tspan x="0" y="0" letter-spacing="-0.024em">dia</tspan><tspan y="0" letter-spacing="-0.025em">g</tspan><tspan y="0" letter-spacing="-0.024em">n</tspan><tspan y="0" letter-spacing="-0.025em">ó</tspan><tspan y="0" letter-spacing="-0.024em">sti</tspan><tspan y="0" letter-spacing="-0.025em">c</tspan><tspan y="0">o</tspan></text>
    </g>
  </g>
</svg>
