<svg xmlns="http://www.w3.org/2000/svg" width="123.995" height="123.995" viewBox="0 0 123.995 123.995">
  <g id="Grupo_55986" data-name="Grupo 55986" transform="translate(-493.5 -4606.5)">
    <path id="Trazado_105604" data-name="Trazado 105604" d="M138.789,393.627a60,60,0,1,1-60-60A60,60,0,0,1,138.789,393.627Z" transform="translate(476.706 4274.872)" fill="#fff" stroke="#00cca7" stroke-width="4"/>
    <g id="Grupo_55982" data-name="Grupo 55982" transform="translate(2.995 0.998)">
      <g id="Grupo_55973" data-name="Grupo 55973" transform="translate(487.211 4287.375)">
        <path id="Trazado_105578" data-name="Trazado 105578" d="M112.789,380.627a47,47,0,1,1-47-47A47,47,0,0,1,112.789,380.627Z" transform="translate(0)" fill="#66fdde"/>
        <g id="Grupo_55972" data-name="Grupo 55972" transform="translate(41.206 350.457)">
          <g id="Grupo_55959" data-name="Grupo 55959" transform="translate(7.945 13.244)">
            <path id="Trazado_105579" data-name="Trazado 105579" d="M89.863,365.383v14.755H88.686V365.383a.589.589,0,0,1,1.177,0Z" transform="translate(-51.603 -364.794)" fill="#3c0061"/>
            <path id="Trazado_105580" data-name="Trazado 105580" d="M60.73,381.277a3.352,3.352,0,0,1,0,5.3,3,3,0,0,1,1.3,2.65,3.038,3.038,0,0,1-2.648,3.18v2.117a.589.589,0,0,1-.59.589H51.432v12.655a.589.589,0,0,1-1.177,0V394.52a.592.592,0,0,1,.59-.59H58.2v-2.06a.591.591,0,0,1,.589-.588,2.06,2.06,0,0,0,0-4.12.589.589,0,0,1,0-1.177,2.061,2.061,0,0,0,0-4.121.588.588,0,1,1,0-1.176,2.061,2.061,0,0,0,0-4.121.59.59,0,0,1-.589-.589v-2.06H50.845a.59.59,0,0,1-.59-.589v-7.947a.591.591,0,0,1,.59-.589h7.43v1.178H51.432v6.768H58.79a.59.59,0,0,1,.59.59v2.116a3.04,3.04,0,0,1,2.648,3.181A3,3,0,0,1,60.73,381.277Z" transform="translate(-50.255 -364.794)" fill="#3c0061"/>
            <path id="Trazado_105581" data-name="Trazado 105581" d="M63.152,365.972l1.176-.59-1.176-.589h9.335a.589.589,0,0,1,.589.589v17.07H71.9V365.972Z" transform="translate(-50.707 -364.794)" fill="#3c0061"/>
            <path id="Trazado_105582" data-name="Trazado 105582" d="M89.285,387.6v15.563a.589.589,0,0,1-.588.589H72.8a.591.591,0,0,1-.589-.589V384.621h1.177v17.952H88.108V387.6Z" transform="translate(-51.025 -365.49)" fill="#3c0061"/>
          </g>
          <g id="Grupo_55960" data-name="Grupo 55960" transform="translate(7.948 50.328)">
            <path id="Trazado_105583" data-name="Trazado 105583" d="M72.036,404.4H50.846a.589.589,0,0,1,0-1.177H72.036a.589.589,0,0,1,0,1.177Z" transform="translate(-50.258 -403.226)" fill="#3c0061"/>
          </g>
          <g id="Grupo_55961" data-name="Grupo 55961" transform="translate(29.137 13.244)">
            <path id="Trazado_105584" data-name="Trazado 105584" d="M88.7,365.972H72.807a.589.589,0,1,1,0-1.178H88.7a.589.589,0,1,1,0,1.178Z" transform="translate(-72.217 -364.794)" fill="#3c0061"/>
          </g>
          <g id="Grupo_55962" data-name="Grupo 55962" transform="translate(0 21.19)">
            <path id="Trazado_105585" data-name="Trazado 105585" d="M50.557,395.4H42.61a.588.588,0,0,1-.589-.589V373.619a.589.589,0,0,1,.589-.59h7.947a.589.589,0,0,1,0,1.178H43.2V394.22h7.358a.589.589,0,0,1,0,1.178Z" transform="translate(-42.021 -373.029)" fill="#3c0061"/>
          </g>
          <g id="Grupo_55963" data-name="Grupo 55963" transform="translate(2.649 0)">
            <path id="Trazado_105586" data-name="Trazado 105586" d="M50.653,360.193a.59.59,0,0,1-.49-.262l-5.3-7.946a.589.589,0,0,1,.98-.653l4.808,7.212,4.807-7.212a.589.589,0,0,1,.98.653l-5.3,7.946A.586.586,0,0,1,50.653,360.193Z" transform="translate(-44.766 -351.069)" fill="#3c0061"/>
          </g>
          <g id="Grupo_55964" data-name="Grupo 55964" transform="translate(7.948 7.947)">
            <path id="Trazado_105587" data-name="Trazado 105587" d="M50.846,373.726a.588.588,0,0,1-.588-.589V359.894a.588.588,0,1,1,1.175,0v13.244A.588.588,0,0,1,50.846,373.726Z" transform="translate(-50.258 -359.305)" fill="#3c0061"/>
          </g>
          <g id="Grupo_55965" data-name="Grupo 55965" transform="translate(7.948)">
            <path id="Trazado_105588" data-name="Trazado 105588" d="M50.846,360.193a.588.588,0,0,1-.588-.589v-7.946a.588.588,0,1,1,1.175,0V359.6A.589.589,0,0,1,50.846,360.193Z" transform="translate(-50.258 -351.069)" fill="#3c0061"/>
          </g>
          <g id="Grupo_55966" data-name="Grupo 55966" transform="translate(2.649 55.625)">
            <path id="Trazado_105589" data-name="Trazado 105589" d="M55.949,409.893H45.355a.589.589,0,0,1,0-1.177H55.949a.589.589,0,1,1,0,1.177Z" transform="translate(-44.766 -408.716)" fill="#3c0061"/>
          </g>
          <g id="Grupo_55967" data-name="Grupo 55967" transform="translate(5.297 58.274)">
            <path id="Trazado_105590" data-name="Trazado 105590" d="M53.4,412.639H48.1a.589.589,0,0,1,0-1.178h5.3a.589.589,0,0,1,0,1.178Z" transform="translate(-47.511 -411.461)" fill="#3c0061"/>
          </g>
          <g id="Grupo_55968" data-name="Grupo 55968" transform="translate(14.788 9.491)">
            <path id="Trazado_105591" data-name="Trazado 105591" d="M65.44,360.906a.591.591,0,0,0-.589.59v2.8L58.2,360.968a.589.589,0,0,0-.853.528V369a.59.59,0,0,0,.853.527l6.651-3.324V369a.589.589,0,0,0,1.178,0v-7.5A.589.589,0,0,0,65.44,360.906Zm-1.315,4.34-1.176.59-4.425,2.21v-5.6l4.425,2.21Z" transform="translate(-57.347 -360.905)" fill="#3c0061"/>
          </g>
          <g id="Grupo_55969" data-name="Grupo 55969" transform="translate(42.38 24.76)">
            <path id="Trazado_105592" data-name="Trazado 105592" d="M97.437,376.814a.6.6,0,0,0-.574-.022l-5.174,2.587H86.53a.588.588,0,0,0-.588.589v7.943a.588.588,0,0,0,.588.59h5.159l5.174,2.586a.6.6,0,0,0,.262.062.615.615,0,0,0,.312-.085.591.591,0,0,0,.276-.5V377.319A.591.591,0,0,0,97.437,376.814Zm-6.2,10.508h-4.12v-6.766h4.12Zm5.3,2.286-4.119-2.06V380.33l4.119-2.061Z" transform="translate(-85.942 -376.729)" fill="#3c0061"/>
          </g>
          <g id="Grupo_55970" data-name="Grupo 55970" transform="translate(23.838 29.726)">
            <path id="Trazado_105593" data-name="Trazado 105593" d="M78.5,382.464a.588.588,0,0,1-.589.589H67.315a.588.588,0,1,1,0-1.176H77.909A.587.587,0,0,1,78.5,382.464Z" transform="translate(-66.726 -381.876)" fill="#3c0061"/>
          </g>
          <g id="Grupo_55971" data-name="Grupo 55971" transform="translate(23.838 32.375)">
            <path id="Trazado_105594" data-name="Trazado 105594" d="M78.5,385.209a.588.588,0,0,1-.589.589H67.315a.588.588,0,1,1,0-1.176H77.909A.588.588,0,0,1,78.5,385.209Z" transform="translate(-66.726 -384.621)" fill="#3c0061"/>
          </g>
          <path id="Trazado_105595" data-name="Trazado 105595" d="M74.1,365.356a1.325,1.325,0,1,1-1.324-1.324A1.325,1.325,0,0,1,74.1,365.356Z" transform="translate(-43.053 -351.524)" fill="#3c0061"/>
          <path id="Trazado_105596" data-name="Trazado 105596" d="M52.144,365.356a1.325,1.325,0,1,1-1.325-1.324A1.325,1.325,0,0,1,52.144,365.356Z" transform="translate(-42.283 -351.524)" fill="#3c0061"/>
          <path id="Trazado_105597" data-name="Trazado 105597" d="M52.144,373.592a1.325,1.325,0,1,1-1.325-1.324A1.325,1.325,0,0,1,52.144,373.592Z" transform="translate(-42.283 -351.813)" fill="#3c0061"/>
          <path id="Trazado_105598" data-name="Trazado 105598" d="M52.144,395.655a1.325,1.325,0,1,1-1.325-1.325A1.324,1.324,0,0,1,52.144,395.655Z" transform="translate(-42.283 -352.586)" fill="#3c0061"/>
          <path id="Trazado_105599" data-name="Trazado 105599" d="M52.144,403.789a1.325,1.325,0,1,1-1.325-1.326A1.324,1.324,0,0,1,52.144,403.789Z" transform="translate(-42.283 -352.872)" fill="#3c0061"/>
          <path id="Trazado_105600" data-name="Trazado 105600" d="M74.1,403.789a1.325,1.325,0,1,1-1.324-1.326A1.324,1.324,0,0,1,74.1,403.789Z" transform="translate(-43.053 -352.872)" fill="#3c0061"/>
        </g>
      </g>
    </g>
  </g>
</svg>
