<svg xmlns="http://www.w3.org/2000/svg" width="123.995" height="123.995" viewBox="0 0 123.995 123.995">
  <g id="Grupo_55994" data-name="Grupo 55994" transform="translate(-493.5 -4998.5)">
    <path id="Trazado_105604" data-name="Trazado 105604" d="M138.789,393.627a60,60,0,1,1-60-60A60,60,0,0,1,138.789,393.627Z" transform="translate(476.706 4666.872)" fill="#fff" stroke="#00cca7" stroke-width="4"/>
    <circle id="Elipse_4313" data-name="Elipse 4313" cx="44.726" cy="44.726" r="44.726" transform="translate(509 5104.439) rotate(-89)" fill="#ffd947"/>
    <g id="Grupo_55992" data-name="Grupo 55992" transform="translate(548.397 5026.742)">
      <g id="Grupo_55991" data-name="Grupo 55991" transform="translate(0 0)">
        <circle id="Elipse_4314" data-name="Elipse 4314" cx="4.997" cy="4.997" r="4.997" transform="translate(1.733 57.522)" fill="#3c0061"/>
        <path id="Trazado_105621" data-name="Trazado 105621" d="M909.478,133.8h0a3.718,3.718,0,0,1-3.681-3.484l-3.028-43.249c-.29-4.138,2.392-7.716,5.879-7.716h1.66c3.487,0,6.168,3.578,5.879,7.716l-3.028,43.249A3.718,3.718,0,0,1,909.478,133.8Z" transform="translate(-902.748 -79.351)" fill="#3c0061"/>
      </g>
    </g>
  </g>
</svg>
