<svg xmlns="http://www.w3.org/2000/svg" width="123.995" height="123.995" viewBox="0 0 123.995 123.995">
  <g id="Grupo_56014" data-name="Grupo 56014" transform="translate(-283.5 -5586.5)">
    <path id="Trazado_105666" data-name="Trazado 105666" d="M138.789,393.627a60,60,0,1,1-60-60A60,60,0,0,1,138.789,393.627Z" transform="translate(266.706 5254.872)" fill="#fff" stroke="#00cca7" stroke-width="4"/>
    <g id="Grupo_56013" data-name="Grupo 56013" transform="translate(238.16 5530.228)">
      <rect id="Rectángulo_30911" data-name="Rectángulo 30911" width="35.481" height="57.662" transform="translate(109.041 89.925)" fill="#1e866f"/>
      <path id="Trazado_105667" data-name="Trazado 105667" d="M289.335,388.7h35.481l-5.138,9.179H284.2Z" transform="translate(-180.294 -241.114)" fill="#00cca7" opacity="0.251"/>
      <g id="Grupo_56012" data-name="Grupo 56012" transform="translate(65.357 88.778)">
        <g id="Grupo_56003" data-name="Grupo 56003" transform="translate(0 30.71)">
          <path id="Trazado_105669" data-name="Trazado 105669" d="M166.067,273.155l-10.134,26.773-18.246-6.616,1.178-2.3,14.394,4.582,2.891-23.771Z" transform="translate(-134.364 -271.818)" fill="#27013e"/>
          <path id="Trazado_105670" data-name="Trazado 105670" d="M208.933,282.791s3.644,2.974,6.438,3.082l4.8-12.859-9.9-1.2Z" transform="translate(-188.481 -271.818)" fill="#27013e" opacity="0.1"/>
          <path id="Trazado_105671" data-name="Trazado 105671" d="M128.46,347.713l-2.442-1.328-.372.728.494.263s-1.4.628-2.269,3.6a.229.229,0,0,0,.38.215c.925-.987,1.641-2.822,3.6-1.83Z" transform="translate(-123.862 -328.459)" fill="#27013e"/>
        </g>
        <g id="Grupo_56004" data-name="Grupo 56004" transform="translate(29.283)">
          <path id="Trazado_105672" data-name="Trazado 105672" d="M255.824,148.439a4.419,4.419,0,0,1-2.456,1.35,12.012,12.012,0,0,1-2.65-.428c-.719-.066-.9.017-1.227.7a17.392,17.392,0,0,0-.727,1.766c-.244.7-.813,1.481-1.4,1.336-2.7.018-1.688-7.948-.365-8.839.452-.3,1.691.107,2.055.512a7.63,7.63,0,0,1,4.184-.689C255.988,144.623,256.707,147.431,255.824,148.439Z" transform="translate(-245.668 -144.078)" fill="#27013e"/>
          <path id="Trazado_105673" data-name="Trazado 105673" d="M258.609,162.2l-.056,2.056.627,2-1.2.087-.243,2.279-2.825-.38-.133,2.007-3.86-.956,1.836-7.07A6.652,6.652,0,0,0,258.609,162.2Z" transform="translate(-249.659 -157.844)" fill="#fab08b"/>
          <path id="Trazado_105674" data-name="Trazado 105674" d="M252.083,166.977l-.423,1.709s-1.757-.869-1.265-1.739S252.083,166.977,252.083,166.977Z" transform="translate(-249.193 -161.161)" fill="#fab08b"/>
        </g>
        <g id="Grupo_56005" data-name="Grupo 56005" transform="translate(17.514 30.63)">
          <path id="Trazado_105675" data-name="Trazado 105675" d="M199.136,271.486l21.716,8.142,9.8,22.753-2.206,1.159-9.369-19.448s-14.788-3.277-19.323-4.152C193.292,278.693,199.136,271.486,199.136,271.486Z" transform="translate(-196.713 -271.486)" fill="#31024e"/>
          <path id="Trazado_105676" data-name="Trazado 105676" d="M328.717,401.551l1.108,2.431.748-.33-.218-.515s1.48.393,4.034-1.365a.229.229,0,0,0-.159-.407c-1.34.183-3.053,1.155-3.944-.848Z" transform="translate(-296.982 -369.497)" fill="#31024e"/>
        </g>
        <g id="Grupo_56008" data-name="Grupo 56008" transform="translate(33.773 12.734)">
          <g id="Grupo_56007" data-name="Grupo 56007" transform="translate(16.404 1.207)">
            <path id="Trazado_105677" data-name="Trazado 105677" d="M335.61,203.59a4.548,4.548,0,0,1-2.381,2.227l-.646-.643,1.055-2.611A3.606,3.606,0,0,1,335.61,203.59Z" transform="translate(-332.583 -202.445)" fill="#d99878"/>
            <g id="Grupo_56006" data-name="Grupo 56006" transform="translate(0.699)">
              <path id="Trazado_105678" data-name="Trazado 105678" d="M335.669,202.287l-.173.839a.133.133,0,0,0,.087.153l.236.083a.133.133,0,0,0,.17-.082l.281-.8a.133.133,0,0,0-.082-.17l-.343-.12A.133.133,0,0,0,335.669,202.287Z" transform="translate(-335.493 -202.153)" fill="#eba582"/>
              <path id="Trazado_105679" data-name="Trazado 105679" d="M337.681,202.156l-.429,1.225a.133.133,0,0,0,.081.17l.3.107a.133.133,0,0,0,.168-.076l.482-1.207a.133.133,0,0,0-.08-.175l-.356-.125A.133.133,0,0,0,337.681,202.156Z" transform="translate(-336.823 -202.067)" fill="#eba582"/>
              <path id="Trazado_105680" data-name="Trazado 105680" d="M340.22,203.642l-.349.876a.133.133,0,0,0,.08.175l.175.061a.133.133,0,0,0,.163-.065l.414-.813a.133.133,0,0,0-.057-.179l-.239-.124A.133.133,0,0,0,340.22,203.642Z" transform="translate(-338.811 -203.2)" fill="#eba582"/>
              <path id="Trazado_105681" data-name="Trazado 105681" d="M342.114,205.6l.242.128a.133.133,0,0,1,.042.2l-.333.416a.217.217,0,0,1-.24.069l-.09-.032a.133.133,0,0,1-.075-.186l.274-.539A.133.133,0,0,1,342.114,205.6Z" transform="translate(-340.166 -204.739)" fill="#eba582"/>
            </g>
            <path id="Trazado_105682" data-name="Trazado 105682" d="M332.583,206.75l.268-1.841a.317.317,0,0,1,.376-.265l1.39.28-.017.118a.414.414,0,0,1-.409.354h-.526s.4,1.542-.624,1.969Z" transform="translate(-332.583 -204.02)" fill="#fab08b"/>
          </g>
          <path id="Trazado_105683" data-name="Trazado 105683" d="M264.347,202.973l11.068,8.781,6.567-10.163-1.351-1.334-5.932,8.033-8.837-11.243Z" transform="translate(-264.347 -197.048)" fill="#ffd947"/>
          <path id="Trazado_105684" data-name="Trazado 105684" d="M265.863,197.048l2.646,3.367a35.128,35.128,0,0,1-.608,5.378l-3.555-2.82Z" transform="translate(-264.347 -197.048)" opacity="0.1"/>
        </g>
        <g id="Grupo_56009" data-name="Grupo 56009" transform="translate(12.634 11.419)">
          <path id="Trazado_105685" data-name="Trazado 105685" d="M183.051,253.368l.16,1.187a.534.534,0,0,0,.245.381l.3.191-.442.883-.363-.287a.616.616,0,0,0-.748-.012h0l.872.817a.526.526,0,0,0,.685.029l.9-.708a.612.612,0,0,0,.2-.667l-.558-1.751Z" transform="translate(-180.812 -238.513)" fill="#fab08b"/>
          <path id="Trazado_105686" data-name="Trazado 105686" d="M192.066,191.576l-15.651,2.271,1.842,12.9H180.3l-.934-10.631,9.91.49Z" transform="translate(-176.416 -191.576)" fill="#ffd947"/>
        </g>
        <g id="Grupo_56010" data-name="Grupo 56010" transform="translate(19.936 11.356)">
          <path id="Trazado_105687" data-name="Trazado 105687" d="M221.753,199.767a52.361,52.361,0,0,0-2.305,5.532,22.477,22.477,0,0,0-.908,6.565c-1.494,1.529-4.929,3.934-11.751-1.275.356-1.087.687-2.084,1-3.013a72.8,72.8,0,0,1,7.349-16.2,15.523,15.523,0,0,1,7,1.316A12.1,12.1,0,0,1,221.753,199.767Z" transform="translate(-206.789 -191.315)" fill="#ffd947"/>
          <path id="Trazado_105688" data-name="Trazado 105688" d="M219.448,249.483a22.477,22.477,0,0,0-.908,6.565c-1.494,1.529-4.929,3.934-11.751-1.275.356-1.087.687-2.084,1-3.013A15.483,15.483,0,0,0,219.448,249.483Z" transform="translate(-206.789 -235.499)" opacity="0.1"/>
          <path id="Trazado_105689" data-name="Trazado 105689" d="M249.38,194.012l-.573,1.253s-.187,9.754-2.212,14.334l-2.228,2.193-.557-3s4.507-10.789,4.209-13.7l-.439-1.612A17.737,17.737,0,0,1,249.38,194.012Z" transform="translate(-234.91 -192.963)" fill="#3c0061"/>
        </g>
        <g id="Grupo_56011" data-name="Grupo 56011" transform="translate(29.295 10.027)">
          <path id="Trazado_105691" data-name="Trazado 105691" d="M246.525,185.786l3.353,1.163-1.471,1.194-2.688-1.121Z" transform="translate(-245.718 -185.786)" fill="#e5c23b"/>
          <path id="Trazado_105692" data-name="Trazado 105692" d="M260.341,190.623l.03.92-.878-.233Z" transform="translate(-256.182 -189.46)" fill="#e5c23b"/>
          <path id="Trazado_105693" data-name="Trazado 105693" d="M263.493,191.058l-.349.816.922.3Z" transform="translate(-258.955 -189.791)" fill="#e5c23b"/>
          <path id="Trazado_105694" data-name="Trazado 105694" d="M265.535,190.688l-.94.089.856,1.659.954-.334Z" transform="translate(-260.057 -189.509)" fill="#e5c23b"/>
        </g>
      </g>
      <path id="Trazado_105695" data-name="Trazado 105695" d="M139.615,72.193v2.628H128.485V86.138h11.131v2.628l9.637-8.287Z" transform="translate(-46.007 -0.988)" fill="#b3009d"/>
    </g>
  </g>
</svg>
