<svg xmlns="http://www.w3.org/2000/svg" width="123.995" height="123.995" viewBox="0 0 123.995 123.995">
  <g id="Grupo_56015" data-name="Grupo 56015" transform="translate(-283.5 -4927.5)">
    <path id="Trazado_105605" data-name="Trazado 105605" d="M138.789,393.627a60,60,0,1,1-60-60A60,60,0,0,1,138.789,393.627Z" transform="translate(266.706 4595.872)" fill="#fff" stroke="#00cca7" stroke-width="4"/>
    <g id="Grupo_55984" data-name="Grupo 55984" transform="translate(421.902 4866.086)">
      <path id="Trazado_105606" data-name="Trazado 105606" d="M-72.428,126.871v-.123H-87.673v.123l-3.065-4.771,3.065-.934v-8.178h15.245v8.178l3.072.934Z" transform="translate(3.642 6.31)" fill="#d6b095"/>
      <path id="Trazado_105607" data-name="Trazado 105607" d="M-40.874,152.721h-71.062s1.67-18.923,1.908-20.592c.22-1.528.612-4.933,3.731-6.281a4.977,4.977,0,0,1,.582-.219c.116-.038.239-.076.362-.1l18.245-5.421v.115c0,2.93,4.792,5.306,10.7,5.306s10.7-2.376,10.7-5.306V120.1l18.256,5.421c.124.028.246.067.361.1a4.906,4.906,0,0,1,.592.219c3.111,1.348,3.5,4.753,3.722,6.281C-42.544,133.8-40.874,152.721-40.874,152.721Z" transform="translate(0 7.533)" fill="#ffd947"/>
      <path id="Trazado_105620" data-name="Trazado 105620" d="M0,0H43.287V19.729H0Z" transform="translate(-98.052 140.525)" fill="#b3009d"/>
      <path id="Trazado_105608" data-name="Trazado 105608" d="M-92.875,139.226h-6.348V121.5l6.348-1.97Z" transform="translate(2.184 7.434)" fill="#b3009d"/>
      <path id="Trazado_105609" data-name="Trazado 105609" d="M-69.273,139.226h6.349V121.5l-6.349-1.97Z" transform="translate(7.33 7.434)" fill="#b3009d"/>
      <path id="Trazado_105610" data-name="Trazado 105610" d="M-94.145,134.013a2.065,2.065,0,0,1-2.067,2.066,2.067,2.067,0,0,1-2.068-2.066,2.068,2.068,0,0,1,2.068-2.067A2.066,2.066,0,0,1-94.145,134.013Z" transform="translate(2.346 9.568)" fill="#eaf1f2"/>
      <path id="Trazado_105611" data-name="Trazado 105611" d="M-64.193,134.013a2.065,2.065,0,0,1-2.068,2.066,2.066,2.066,0,0,1-2.067-2.066,2.067,2.067,0,0,1,2.067-2.067A2.066,2.066,0,0,1-64.193,134.013Z" transform="translate(7.492 9.568)" fill="#eaf1f2"/>
      <path id="Trazado_105612" data-name="Trazado 105612" d="M-99.819,150.08V135.473l-1.837,14.607Z" transform="translate(1.766 10.174)" fill="#c6b0b1" opacity="0.9"/>
      <path id="Trazado_105613" data-name="Trazado 105613" d="M-63.148,150.08V135.473l1.838,14.607Z" transform="translate(8.382 10.174)" fill="#c6b0b1" opacity="0.9"/>
      <path id="Trazado_105614" data-name="Trazado 105614" d="M-70.555,134.022l-3.949,7.031h3.264l-1.393,5.821,4.467-7.345-3.475,0Z" transform="translate(6.431 9.924)" fill="#fff"/>
      <path id="Trazado_105615" data-name="Trazado 105615" d="M-77.182,81.022c1.179,4.684-2.2,6.781-6.726,7.92s-8.5.9-9.678-3.786c-1.161-4.617,2.075-7.271,6.6-8.412S-78.381,76.251-77.182,81.022Z" transform="translate(3.112)" fill="#27013e"/>
      <path id="Trazado_105616" data-name="Trazado 105616" d="M-64.9,106.224s2.108-9-.346-14.009c-2.642-5.4-6.607-8.479-13.877-8.479S-90.355,86.819-93,92.215c-2.454,5.007-.346,14.009-.346,14.009-3.3-.663-2.682,2.954-1.65,4.586A9.966,9.966,0,0,1-93.6,113.8a1.416,1.416,0,0,0,2.45.662c.989,2.754,1.7,3.4,5.641,7.048,3.443,3.176,4.654,3.137,6.391,3.137s2.921.039,6.384-3.137c3.968-3.629,4.658-4.295,5.647-7.048a1.416,1.416,0,0,0,2.45-.662,9.966,9.966,0,0,1,1.391-2.992C-62.215,109.178-61.594,105.561-64.9,106.224Z" transform="translate(2.769 1.285)" fill="#f4c297"/>
      <path id="Trazado_105617" data-name="Trazado 105617" d="M-69.559,84.012a15.677,15.677,0,0,0-14.9,0c-16.776,1.853-10.91,23.007-10.91,23.007h.011a1.932,1.932,0,0,1,2.1-.519c-.229-1.539,1.664-3.421,4.642-5.621a13.174,13.174,0,0,0,4.153-5.4,15.55,15.55,0,0,0,10.422,7.1c7.45,1.488,9.021,2.538,9.229,3.915a1.933,1.933,0,0,1,2.1.519h.007S-58.187,89.955-69.559,84.012Z" transform="translate(2.676 1.009)" fill="#31024e"/>
      <path id="Trazado_105618" data-name="Trazado 105618" d="M-69.47,109.825a.521.521,0,0,1-.521.523.521.521,0,0,1-.521-.523.523.523,0,0,1,.521-.521A.523.523,0,0,1-69.47,109.825Z" transform="translate(7.117 5.678)" fill="#eb4b31"/>
      <path id="Trazado_105619" data-name="Trazado 105619" d="M-92.44,109.825a.521.521,0,0,1-.521.523.521.521,0,0,1-.521-.523.523.523,0,0,1,.521-.521A.523.523,0,0,1-92.44,109.825Z" transform="translate(3.17 5.678)" fill="#eb4b31"/>
    </g>
  </g>
</svg>
