<svg xmlns="http://www.w3.org/2000/svg" width="123.995" height="123.995" viewBox="0 0 123.995 123.995">
  <g id="Grupo_56017" data-name="Grupo 56017" transform="translate(-283.25 -4314.5)">
    <path id="Trazado_105622" data-name="Trazado 105622" d="M138.789,393.627a60,60,0,1,1-60-60A60,60,0,0,1,138.789,393.627Z" transform="translate(266.456 3982.872)" fill="#fff" stroke="#00cca7" stroke-width="4"/>
    <g id="Grupo_55999" data-name="Grupo 55999" transform="translate(280.681 4312.585)">
      <g id="Grupo_55995" data-name="Grupo 55995" transform="translate(27.751 38.011)">
        <rect id="Rectángulo_30886" data-name="Rectángulo 30886" width="72.636" height="4.549" rx="1" fill="#95a5a6"/>
        <rect id="Rectángulo_30887" data-name="Rectángulo 30887" width="70.798" height="1.4" rx="0.548" transform="translate(0.919 0.501)" fill="#bdc3c7"/>
      </g>
      <g id="Grupo_55997" data-name="Grupo 55997" transform="translate(34.208 34.196)">
        <path id="Trazado_105623" data-name="Trazado 105623" d="M92.408,31.572H32.979l3.668,72.784H88.739Z" transform="translate(-32.979 -31.572)" fill="#ced4d9"/>
        <g id="Grupo_55996" data-name="Grupo 55996" transform="translate(6.921 9.39)">
          <path id="Trazado_105624" data-name="Trazado 105624" d="M43.257,96.319h0a2.515,2.515,0,0,1-2.614-2.249L38.584,41.917a2.647,2.647,0,0,1,2.693-2.742h0a2.878,2.878,0,0,1,2.883,2.742L45.714,94.07A2.311,2.311,0,0,1,43.257,96.319Z" transform="translate(-38.582 -39.175)" fill="#1e866f"/>
          <path id="Trazado_105625" data-name="Trazado 105625" d="M50.412,96.319h0a2.462,2.462,0,0,1-2.575-2.249L46.682,41.917a2.7,2.7,0,0,1,2.74-2.742h0a2.816,2.816,0,0,1,2.835,2.742l.652,52.153A2.361,2.361,0,0,1,50.412,96.319Z" transform="translate(-36.678 -39.175)" fill="#1e866f"/>
          <path id="Trazado_105626" data-name="Trazado 105626" d="M57.567,96.319h0a2.411,2.411,0,0,1-2.536-2.249l-.252-52.153a2.759,2.759,0,0,1,2.788-2.742h0a2.758,2.758,0,0,1,2.788,2.742L60.1,94.07A2.411,2.411,0,0,1,57.567,96.319Z" transform="translate(-34.774 -39.175)" fill="#1e866f"/>
          <path id="Trazado_105627" data-name="Trazado 105627" d="M64.846,96.319h0a2.361,2.361,0,0,1-2.5-2.249L63,41.917a2.817,2.817,0,0,1,2.835-2.742h0a2.7,2.7,0,0,1,2.741,2.742L67.42,94.07A2.461,2.461,0,0,1,64.846,96.319Z" transform="translate(-32.994 -39.175)" fill="#1e866f"/>
          <path id="Trazado_105628" data-name="Trazado 105628" d="M72.174,96.319h0a2.312,2.312,0,0,1-2.458-2.249l1.555-52.153a2.876,2.876,0,0,1,2.882-2.742h0a2.646,2.646,0,0,1,2.693,2.742L74.788,94.07A2.515,2.515,0,0,1,72.174,96.319Z" transform="translate(-31.262 -39.175)" fill="#1e866f"/>
        </g>
        <path id="Trazado_105629" data-name="Trazado 105629" d="M86.751,31.572H57.036v72.784H83.083Z" transform="translate(-27.322 -31.572)" fill="#ced4d9" opacity="0.51" style="mix-blend-mode: multiply;isolation: isolate"/>
      </g>
      <g id="Grupo_55998" data-name="Grupo 55998" transform="translate(32.889 20.415)">
        <path id="Trazado_105630" data-name="Trazado 105630" d="M63.519,20.415H54.208a4.94,4.94,0,0,0-4.941,4.941v3.687H68.46V25.356A4.941,4.941,0,0,0,63.519,20.415Zm2.47,6.157H51.737V25.356a2.473,2.473,0,0,1,2.47-2.47h9.312a2.473,2.473,0,0,1,2.47,2.47Z" transform="translate(-27.83 -20.415)" fill="#95a5a6"/>
        <rect id="Rectángulo_30888" data-name="Rectángulo 30888" width="62.066" height="2.096" transform="translate(0 11.684)" fill="#dee4eb"/>
        <path id="Rectángulo_30889" data-name="Rectángulo 30889" d="M4,0H54.891a4,4,0,0,1,4,4V6.114a0,0,0,0,1,0,0H0a0,0,0,0,1,0,0V4A4,4,0,0,1,4,0Z" transform="translate(1.587 5.57)" fill="#ced4d9"/>
        <path id="Trazado_105631" data-name="Trazado 105631" d="M80.918,29.29H37.208a1.8,1.8,0,0,1-1.8-1.8h0a1.8,1.8,0,0,1,1.8-1.8h43.71a1.8,1.8,0,0,1,1.8,1.8h0A1.8,1.8,0,0,1,80.918,29.29Z" transform="translate(-31.089 -19.174)" fill="#dee4eb"/>
        <path id="Trazado_105632" data-name="Trazado 105632" d="M60.9,21.91H53.042a.6.6,0,0,1-.6-.6h0a.6.6,0,0,1,.6-.6H60.9a.6.6,0,0,1,.6.6h0A.6.6,0,0,1,60.9,21.91Z" transform="translate(-27.083 -20.346)" fill="#dee4eb"/>
        <path id="Trazado_105633" data-name="Trazado 105633" d="M86.482,32.1V30.926a4.941,4.941,0,0,0-4.941-4.941H66.633v-.63a4.941,4.941,0,0,0-4.941-4.941H57.036v2.47h4.656a2.473,2.473,0,0,1,2.47,2.47v.63H57.036V32.1h1.313V34.2h29.72V32.1Z" transform="translate(-26.003 -20.415)" fill="#ced4d9" style="mix-blend-mode: multiply;isolation: isolate"/>
      </g>
    </g>
  </g>
</svg>
