<svg xmlns="http://www.w3.org/2000/svg" xmlns:xlink="http://www.w3.org/1999/xlink" width="1030" height="311.954" viewBox="0 0 1030 311.954">
  <defs>
    <clipPath id="clip-path">
      <rect id="Rectángulo_7559" data-name="Rectángulo 7559" width="234.031" height="208.675" fill="none"/>
    </clipPath>
    <clipPath id="clip-path-2">
      <path id="Trazado_104341" data-name="Trazado 104341" d="M705.79,99.971a9.543,9.543,0,0,0-.611,4.655,12.779,12.779,0,0,0,4.938.506c.316-3.842.279-4.186.279-4.186a3.758,3.758,0,0,0-2.43-1.105A8.39,8.39,0,0,0,705.79,99.971Z" transform="translate(-705.1 -99.83)" fill="#fff" opacity="0.5"/>
    </clipPath>
    <clipPath id="clip-path-3">
      <path id="Trazado_104348" data-name="Trazado 104348" d="M737.4,98.015a9.535,9.535,0,0,1-.157,4.692,19.814,19.814,0,0,1-6.152-.405c.316-3.842,1.3-4.539,1.3-4.539a7.773,7.773,0,0,1,3.136-.593C737,97.291,737.4,98.015,737.4,98.015Z" transform="translate(-731.088 -97.156)" fill="#fff" opacity="0.5"/>
    </clipPath>
  </defs>
  <g id="Grupo_83480" data-name="Grupo 83480" transform="translate(-327.008 -1900.4)">
    <path id="Trazado_105708" data-name="Trazado 105708" d="M0,0H909V300H0Z" transform="translate(448.008 1912.354)" fill="#00cca7" opacity="0.153"/>
    <g id="Grupo_55126" data-name="Grupo 55126" transform="translate(348.531 1900.4)">
      <g id="Grupo_55080" data-name="Grupo 55080" transform="translate(0 0)" clip-path="url(#clip-path)">
        <g id="Grupo_55079" data-name="Grupo 55079" transform="translate(3.138 11.939)">
          <g id="Grupo_55027" data-name="Grupo 55027" transform="translate(100.657 408.83)">
            <path id="Trazado_104254" data-name="Trazado 104254" d="M627.479,658.46c0,1.473,15.393,2.668,34.382,2.668s34.382-1.195,34.382-2.668-15.393-2.668-34.382-2.668S627.479,656.986,627.479,658.46Z" transform="translate(-627.479 -655.792)" fill="#1c1f23" opacity="0.1"/>
            <path id="Trazado_104255" data-name="Trazado 104255" d="M633.448,659.074c0,.806,9.8,1.459,21.879,1.459s21.879-.653,21.879-1.459-9.8-1.459-21.879-1.459S633.448,658.269,633.448,659.074Z" transform="translate(-612.399 -656.406)" fill="#1c1f23" opacity="0.1"/>
          </g>
          <g id="Grupo_55028" data-name="Grupo 55028" transform="translate(25.994 408.83)">
            <path id="Trazado_104256" data-name="Trazado 104256" d="M732.982,658.46c0,1.473,16.447,2.668,36.737,2.668s36.737-1.195,36.737-2.668-16.448-2.668-36.737-2.668S732.982,656.986,732.982,658.46Z" transform="translate(-732.982 -655.792)" fill="#1c1f23" opacity="0.1"/>
            <path id="Trazado_104257" data-name="Trazado 104257" d="M746.054,659.074c0,.806,9.8,1.459,21.879,1.459s21.879-.653,21.879-1.459-9.8-1.459-21.879-1.459S746.054,658.269,746.054,659.074Z" transform="translate(-725.005 -656.406)" fill="#1c1f23" opacity="0.1"/>
          </g>
          <g id="Grupo_55030" data-name="Grupo 55030" transform="translate(106.355 204.227)">
            <path id="Trazado_104258" data-name="Trazado 104258" d="M682.854,356.915c-.579-6.1,1.8-9.924,6.779-9.693s13.736,4.255,13.736,4.255v.006c1.9.736,2.426,3.037,2.947,7.415.576,4.858,2.858,7.12,2.858,7.12l-1.04,1.621s-8.561-2.571-15.481-4.918C687.219,360.877,683.109,359.6,682.854,356.915Z" transform="translate(-682.769 -347.212)" fill="#594a42"/>
            <path id="Trazado_104259" data-name="Trazado 104259" d="M691.6,356.92l.06-.085a2.819,2.819,0,0,0,.16-.247,7.491,7.491,0,0,0,.45-.921c.081-.185.168-.385.249-.6.054-.211.158-.438.229-.68.139-.485.252-1.02.453-1.56a5.9,5.9,0,0,1,.344-.8c.072-.128.123-.271.2-.4l.225-.376a5.613,5.613,0,0,1,1.091-1.27,4.756,4.756,0,0,1,1.5-.818,6.818,6.818,0,0,1,2.018-.278l.659.018.562.049c.361.019.794.1,1.2.137.818.107,1.634.257,2.425.416s1.566.314,2.3.481l2.072.475c.64.161,1.242.277,1.766.406l1.363.332,1.2.278s-1.6-.741-4.071-1.69c-.618-.237-1.29-.483-2.005-.736s-1.475-.5-2.266-.739-1.616-.461-2.464-.65a17.981,17.981,0,0,0-2.6-.41,7.557,7.557,0,0,0-2.61.2,5.663,5.663,0,0,0-2.242,1.16,6.187,6.187,0,0,0-1.416,1.9,7.054,7.054,0,0,0-.406,1.024,7.581,7.581,0,0,0-.264,1,11.517,11.517,0,0,0-.227,1.788c-.05.536-.014,1.005-.022,1.39C691.57,356.48,691.6,356.92,691.6,356.92Z" transform="translate(-691.519 -347.217)" fill="#fff" opacity="0.2"/>
            <path id="Trazado_104260" data-name="Trazado 104260" d="M699.819,370.595c-3.281-4.124-3.488-14.327-6.451-14.567s-6.548.084-8.394,6.519c0,0,.028,3.054-.635,3.128C691.257,368.02,699.819,370.595,699.819,370.595Z" transform="translate(-674.455 -350.164)" fill="#1c1f23" opacity="0.15"/>
            <path id="Trazado_104261" data-name="Trazado 104261" d="M695.192,401.644s5.235-.564,7.519-3.264c-1.332-11.991-5.969-32.693-6.861-35.1-3.337,2.206-12.8,1.7-12.8,1.7Z" transform="translate(-676.492 -352.627)" fill="#594a42"/>
            <path id="Trazado_104262" data-name="Trazado 104262" d="M684.905,361.594c1.848-6.432,5.424-6.762,8.393-6.519s3.172,10.444,6.455,14.566l1.04-1.621s-2.282-2.262-2.858-7.12-1.154-7.165-3.618-7.607-7.79.021-9.367,3.168c-1.14,2.276-2.24,3.4-2.179,5.044.483.922,1.1,2.363,1.5,3.219C684.933,364.641,684.905,361.594,684.905,361.594Z" transform="translate(-674.387 -349.213)" fill="#1c1f23" opacity="0.3"/>
            <g id="Grupo_55029" data-name="Grupo 55029" transform="translate(10.503 10.655)" opacity="0.2">
              <path id="Trazado_104263" data-name="Trazado 104263" d="M683.067,365.008l0-.007c.31-.009.621-.015.932-.03.543-.028,1.086-.06,1.628-.11s1.082-.107,1.621-.18c.271-.029.537-.086.806-.127s.536-.09.8-.154.534-.107.794-.189l.781-.235.562-.223.2-.078.715-.392h0c.094.282.176.567.257.852,0,0,.265.961.351,1.3.186.721.362,1.446.534,2.171.347,1.451.675,2.905,1,4.361q.963,4.369,1.825,8.759t1.613,8.8l.361,2.207.339,2.211c.217,1.475.408,2.954.581,4.435l-.876-4.393-.936-4.372c-.307-1.457-.642-2.909-.971-4.362-.347-1.449-.666-2.9-.993-4.354q-.987-4.354-2.068-8.684c-.346-1.445-.69-2.892-1.054-4.328l-.518-2.154c-.066-.273-.137-.549-.21-.821l-.341.125-.861.234c-.288.08-.569.119-.854.177s-.569.093-.851.125-.565.077-.845.094c-.562.05-1.121.089-1.679.108s-1.113.038-1.667.021c-.33,0-.66-.021-.99-.046C683.07,365.322,683.067,365.008,683.067,365.008Z" transform="translate(-683.052 -363.282)" fill="#fff" opacity="0.3"/>
            </g>
          </g>
          <g id="Grupo_55034" data-name="Grupo 55034" transform="translate(54.184 209.62)">
            <g id="Grupo_55031" data-name="Grupo 55031">
              <path id="Trazado_104264" data-name="Trazado 104264" d="M671.191,506.821h14.617c.995,28.025,7.388,70.668,11.491,99.981h-4.423c-4.326-30.9-20.593-57.944-22.343-70.441S671.191,506.821,671.191,506.821Z" transform="translate(-610.186 -406.385)" fill="#4a3c40"/>
              <path id="Trazado_104265" data-name="Trazado 104265" d="M687.227,381.249v-25.9h26.3s16.6,22.874,17.378,100.436H716.286S707.708,381.249,687.227,381.249Z" transform="translate(-655.281 -355.345)" fill="#4a3c40"/>
              <path id="Trazado_104266" data-name="Trazado 104266" d="M759.754,455.781c-11.64-77.561-4.475-100.436-4.475-100.436h29.764v25.9c-11.57,0-10.095,74.532-10.095,74.532Z" transform="translate(-753.098 -355.345)" fill="#4a3c40"/>
              <path id="Trazado_104267" data-name="Trazado 104267" d="M780.336,576.134c.118,10.96.279,21.47.279,30.668h-5.057c0-30.9-10.465-57.944-10.465-70.441s2.036-29.539,2.036-29.539h15.194c-.253,2.122-.475,4.336-.674,6.613-.234,3.462,2.816,14.542,2.816,21.538C784.464,542.05,780.24,564.869,780.336,576.134Z" transform="translate(-760.472 -406.385)" fill="#4a3c40"/>
            </g>
            <path id="Trazado_104268" data-name="Trazado 104268" d="M712.763,513.791c2.585,3.377,6.477,10.354,7.231,8.35,1.745,12.981,3.561,25.551,5.068,36.32H720.64c-4.326-30.9-20.594-57.944-22.343-70.441s.657-29.539.657-29.539-7.994-69.44-26.971-74.26c-.143-.037-.288-.068-.433-.1-.2-.04-.406-.079-.612-.1-.079-.01-.158-.016-.238-.024-.267-.026-.534-.046-.8-.046,5.228-2.017,5.842-1.583,6.347-5.195s.614-13.375.614-13.375a2.933,2.933,0,0,1,1.011-2.022c-.385,3.708-.289,16.324-.915,18.2a3.767,3.767,0,0,1-2.1,1.652,30.448,30.448,0,0,1,11.731,2.3s-2.219-.145-3.086,1.156,5.915,3.612,8.23,7.223-2.8,1.444-1.976,4.189,12.092,24.885,12.092,60.4c0,3.3,4.19,6.337,4.19,6.337a6.65,6.65,0,0,1-4.84-1.95c-1.878-2.095-1.106,14.59-.283,22.969S709.307,509.276,712.763,513.791Z" transform="translate(-637.95 -358.044)" opacity="0.15"/>
            <g id="Grupo_55032" data-name="Grupo 55032" transform="translate(75.434 181.766)">
              <path id="Trazado_104269" data-name="Trazado 104269" d="M669.735,629.482c-5.152,0-7.452,2.273-7.452,2.273l2.024,3.181-.368,10.568h14.535l-2.3-11.817,1.564-2.614S676.3,629.482,669.735,629.482Z" transform="translate(-661.749 -629.482)" fill="#aa3d4b"/>
              <path id="Trazado_104270" data-name="Trazado 104270" d="M638.141,649.575s1.564-8.011,12.788-8.011c4.784,0,12.972,3.352,12.972,3.352l3.312-.8,2.116,1.449,1.012,4.005Z" transform="translate(-637.607 -633.553)" fill="#aa3d4b"/>
              <path id="Trazado_104271" data-name="Trazado 104271" d="M637.565,653.646l-.534,4.091H670.5l-.736-4.091Z" transform="translate(-637.031 -637.624)" fill="#783d4b"/>
              <path id="Trazado_104272" data-name="Trazado 104272" d="M667.144,641.564a22.424,22.424,0,0,1,5.081.766h0c-2.74-.048-6.644,1.942-8.239,7.244h-4.232A9.528,9.528,0,0,1,667.144,641.564Z" transform="translate(-653.823 -633.553)" opacity="0.15"/>
              <path id="Trazado_104273" data-name="Trazado 104273" d="M659.091,643.048c1.087.292,2.145.617,3.1.932a7.619,7.619,0,0,0-2.9,6.1h-5.474S655.1,644.224,659.091,643.048Z" transform="translate(-639.849 -634.053)" opacity="0.15"/>
              <path id="Trazado_104274" data-name="Trazado 104274" d="M678.849,631.073l-1.564,2.614c-8.049-2.9-11.867,1.25-11.867,1.25l-2.024-3.181s2.3-2.273,7.452-2.273C677.409,629.482,678.849,631.073,678.849,631.073Z" transform="translate(-662.859 -629.482)" opacity="0.15"/>
              <path id="Trazado_104275" data-name="Trazado 104275" d="M662.385,646.317l-7.12,1.477a2.835,2.835,0,0,1,1.818-2.045c-8.6-2.878-13.255-3.674-18.942-1.6a14.681,14.681,0,0,1,9.041-2.584c4.784,0,12.972,3.352,12.972,3.352l3.312-.8,2.116,1.449,1.012,4.005h-2.352l-.53-2.537Z" transform="translate(-633.86 -633.553)" fill="#fff" opacity="0.2"/>
            </g>
            <path id="Trazado_104276" data-name="Trazado 104276" d="M767.689,355.345h9.987c-8.054,43.187-5.242,90.511,9,107.658.071,3.222,1.854,10.507,2.551,16.685A69.853,69.853,0,0,0,787,471.556c-1.721-4.446-4.539-6.068-6.177-3.66s-2.793-.77-4.43.77c-2.986,6.742-2.986,14.639-.674,28.122s8.379,34.19,9.844,23.026h0c-.129,1.931-.2,3.718-.188,5.279.118,10.959.279,21.47.279,30.668h-5.057c0-30.9-10.466-57.944-10.466-70.441s2.036-29.539,2.036-29.539C760.525,378.219,767.689,355.345,767.689,355.345Z" transform="translate(-765.508 -355.345)" opacity="0.15"/>
            <g id="Grupo_55033" data-name="Grupo 55033" transform="translate(5.68 181.766)">
              <path id="Trazado_104277" data-name="Trazado 104277" d="M771.9,629.482c5.152,0,7.451,2.273,7.451,2.273l-2.024,3.181L777.7,645.5H763.161l2.3-11.817-1.563-2.614S765.337,629.482,771.9,629.482Z" transform="translate(-759.759 -629.482)" fill="#aa3d4b"/>
              <path id="Trazado_104278" data-name="Trazado 104278" d="M781.326,649.575s-1.018-8.011-8.329-8.011c-3.115,0-10.6,2.557-10.6,2.557l-1.378,1.449-.659,4.005Z" transform="translate(-759.873 -633.553)" fill="#aa3d4b"/>
              <path id="Trazado_104279" data-name="Trazado 104279" d="M772.393,644.424c-3.591,0-11.479,1.146-11.479,1.146l1.378-1.449s7.49-2.557,10.6-2.557c5.245,0,7.244,4.114,7.958,6.444C779.64,646.351,777.2,644.424,772.393,644.424Z" transform="translate(-759.772 -633.553)" fill="#fff" opacity="0.2"/>
              <path id="Trazado_104280" data-name="Trazado 104280" d="M781.208,653.646l.35,4.091H759.613l.483-4.091Z" transform="translate(-759.613 -637.624)" fill="#783d4b"/>
              <path id="Trazado_104281" data-name="Trazado 104281" d="M763.161,631.073l1.563,2.614c8.05-2.9,11.868,1.25,11.868,1.25l2.024-3.181s-2.3-2.273-7.451-2.273C764.6,629.482,763.161,631.073,763.161,631.073Z" transform="translate(-759.023 -629.482)" opacity="0.15"/>
            </g>
          </g>
          <g id="Grupo_55035" data-name="Grupo 55035" transform="translate(38.033 81.396)">
            <path id="Trazado_104282" data-name="Trazado 104282" d="M796,264.993a1.156,1.156,0,0,0,.092-2.307c-1.41-.115-5.774-3.415-2.707-41.043a359.033,359.033,0,0,1,5.207-39.594c3.015-14.986,5.267-16.533,5.485-16.65a1.142,1.142,0,0,0,1.194-1.061,1.155,1.155,0,0,0-1.058-1.245c-1.187-.1-3.986-.326-7.675,17.459a354.017,354.017,0,0,0-5.457,40.9c-3.1,37.985.95,43.219,4.823,43.534C795.941,264.991,795.973,264.993,796,264.993Z" transform="translate(-781.644 -162.335)" fill="#535363"/>
            <path id="Trazado_104283" data-name="Trazado 104283" d="M801.784,265.474a1.156,1.156,0,0,0,0-2.311c-1.415,0-6.034-2.934-6.034-40.686a359.02,359.02,0,0,1,1.971-39.888c1.788-15.182,3.907-16.906,4.114-17.04a1.156,1.156,0,0,0-.052-2.31c-1.2,0-4,0-6.231,18.026a353.849,353.849,0,0,0-2.114,41.212C793.439,260.587,797.9,265.474,801.784,265.474Z" transform="translate(-781.591 -162.39)" fill="#60606f"/>
            <path id="Trazado_104284" data-name="Trazado 104284" d="M800.642,264.7a1.156,1.156,0,0,0,.092-2.307c-.7-.058-2.429-.977-3.29-8.26-.821-6.943-.625-17.973.583-32.783a359.043,359.043,0,0,1,5.207-39.6c3.015-14.985,5.267-16.533,5.485-16.649a1.14,1.14,0,0,0,1.194-1.061,1.155,1.155,0,0,0-1.058-1.246c-1.187-.1-3.986-.326-7.675,17.459a353.871,353.871,0,0,0-5.457,40.9c-1.22,14.963-1.414,26.147-.576,33.242.5,4.271,1.614,9.984,5.4,10.292C800.579,264.7,800.61,264.7,800.642,264.7Z" transform="translate(-789.363 -162.237)" fill="#535363"/>
            <path id="Trazado_104285" data-name="Trazado 104285" d="M803.943,264.167a1.156,1.156,0,0,0,.093-2.307c-1.411-.115-5.775-3.415-2.707-41.043a359.033,359.033,0,0,1,5.207-39.6c3.015-14.985,5.267-16.532,5.485-16.649a1.142,1.142,0,0,0,1.194-1.061,1.156,1.156,0,0,0-1.058-1.246c-1.188-.1-3.986-.326-7.675,17.459a353.872,353.872,0,0,0-5.457,40.9c-3.1,37.984.95,43.217,4.823,43.534C803.88,264.166,803.911,264.167,803.943,264.167Z" transform="translate(-794.845 -162.057)" fill="#60606f"/>
            <path id="Trazado_104286" data-name="Trazado 104286" d="M809.722,264.65a1.156,1.156,0,0,0,0-2.311c-1.415,0-6.034-2.934-6.034-40.686a359.239,359.239,0,0,1,1.971-39.888c1.788-15.18,3.906-16.906,4.115-17.04a1.156,1.156,0,0,0-.052-2.311c-1.2,0-4,0-6.231,18.026a353.988,353.988,0,0,0-2.114,41.212C801.377,259.762,805.837,264.65,809.722,264.65Z" transform="translate(-794.792 -162.112)" fill="#60606f"/>
            <path id="Trazado_104287" data-name="Trazado 104287" d="M808.591,263.877a1.156,1.156,0,0,0,.092-2.307c-1.41-.115-5.774-3.415-2.706-41.043a358.867,358.867,0,0,1,5.207-39.6c3.015-14.986,5.267-16.533,5.485-16.65a1.155,1.155,0,0,0,.136-2.306c-1.191-.1-3.988-.32-7.675,17.459a353.985,353.985,0,0,0-5.457,40.9c-3.1,37.985.95,43.219,4.823,43.534C808.527,263.876,808.559,263.877,808.591,263.877Z" transform="translate(-802.575 -161.959)" fill="#535363"/>
          </g>
          <g id="Grupo_55041" data-name="Grupo 55041" transform="translate(110.084 91)">
            <g id="Grupo_55040" data-name="Grupo 55040" transform="translate(0 0.951)">
              <path id="Trazado_104288" data-name="Trazado 104288" d="M660.827,239.228c-5.512-11.257-16.276-18.588-21.476-24.655s-5.684-36.694,10.738-36.694,26.552,31.932,32.851,39.177,9.478,20.92,3.94,28.817S667.664,253.192,660.827,239.228Z" transform="translate(-636.133 -177.879)" fill="#e5c23b"/>
              <path id="Trazado_104289" data-name="Trazado 104289" d="M646.378,177.879l.6.036a9.662,9.662,0,0,1,1.672.191,7.647,7.647,0,0,1,1.172.264l.654.2a4.326,4.326,0,0,1,.69.247,16.568,16.568,0,0,1,3.017,1.55l.8.519.787.6c.547.391,1.052.869,1.594,1.332.527.48,1.047,1,1.572,1.532.5.554,1.042,1.1,1.532,1.7,1.025,1.172,1.98,2.469,2.94,3.791.932,1.342,1.857,2.722,2.72,4.14,3.491,5.654,6.4,11.638,8.747,16.027,1.168,2.2,2.2,4,3,5.213.408.6.731,1.073.983,1.37l.373.465a4.224,4.224,0,0,1-.689-.215,7.735,7.735,0,0,1-1.7-.934,11.326,11.326,0,0,1-2.067-1.92c-.687-.806-1.325-1.792-2.044-2.835s-1.481-2.18-2.229-3.4-1.5-2.515-2.254-3.859l-1.1-2.064-1.085-2.128c-.758-1.41-1.489-2.862-2.256-4.282s-1.593-2.8-2.384-4.169c-.821-1.341-1.642-2.661-2.528-3.852-.415-.625-.868-1.188-1.3-1.765-.446-.553-.89-1.093-1.341-1.6-.469-.479-.888-1-1.356-1.426l-.674-.655-.689-.576a17.345,17.345,0,0,0-2.646-1.849,13.8,13.8,0,0,0-2.3-1.042,10.293,10.293,0,0,0-1.622-.469Z" transform="translate(-632.422 -177.879)" fill="#fff" opacity="0.15"/>
              <path id="Trazado_104290" data-name="Trazado 104290" d="M636.981,233.729c-10.219,0-17.915,17.817-19.744,24.318s.963,9.486,3.757,12.616,11.448,12.547,22.289,7.044,16.186-16.049,15.753-21.539S650.734,233.729,636.981,233.729Z" transform="translate(-592.543 -196.698)" fill="#ffd947"/>
              <path id="Trazado_104291" data-name="Trazado 104291" d="M634.868,235.926c-8.179,3.188-13.242,19.454-13.84,26.1s2.05,6.453,3.759,9.053,8.885,10.4,15.634,7.127,14.731-11.943,14.584-19.454S649.445,230.244,634.868,235.926Z" transform="translate(-591.335 -197.114)" fill="#1c1f23" opacity="0.2"/>
              <g id="Grupo_55039" data-name="Grupo 55039" transform="translate(34.021 0.754)">
                <g id="Grupo_55036" data-name="Grupo 55036" transform="translate(0 17.178)">
                  <path id="Trazado_104292" data-name="Trazado 104292" d="M649.872,208.184c-3.189,8.142,3.305,32.212-1.573,41.6s-12.406,16.18-14.875,16.469-2.876,1.445-6.941-1.878-7.995-10.112-6.369-21.669,9.621-16.614,9.621-16.614,4.878-15.169,5.556-18.274S651.851,203.131,649.872,208.184Z" transform="translate(-619.738 -204.925)" fill="#fcbd92"/>
                  <path id="Trazado_104293" data-name="Trazado 104293" d="M626.7,264.376c4.065,3.323,4.471,2.167,6.941,1.878,1.158-.136,3.429-1.7,6.018-4.3-7.1,3.447-10.483,1.192-8.516.924,2.118-.289,4.719-1.156,6.068-3.082-2.312,1.637-9.636,4.009-11.851-10.245a30.011,30.011,0,0,1,6.795-23.8s.337,2.5,4.527,2.937,11.412-2.456,12.532-10.978h0c-.139-3.94.011-7.324.876-9.532,1.979-5.052-13.9-3.47-14.581-.364s-5.556,18.274-5.556,18.274-8,5.056-9.621,16.614S622.636,261.054,626.7,264.376Z" transform="translate(-619.957 -204.925)" opacity="0.05"/>
                </g>
                <path id="Trazado_104294" data-name="Trazado 104294" d="M636.191,209.84l-.231.688a15.5,15.5,0,0,0-.429,2,30.346,30.346,0,0,0-.245,3.174c-.031,1.229-.016,2.617.044,4.129.124,3.025.418,6.545.7,10.318a116.442,116.442,0,0,1,.44,11.843,32.709,32.709,0,0,1-.667,5.977,14.774,14.774,0,0,1-.886,2.81l-.3.661-.346.635c-.233.42-.452.844-.692,1.252-.949,1.638-1.961,3.163-2.972,4.572-1.034,1.392-2.052,2.679-3.061,3.808a40.513,40.513,0,0,1-2.883,2.955,23.856,23.856,0,0,1-2.457,2.022,10.389,10.389,0,0,1-.992.635,5.424,5.424,0,0,1-.779.387,4.642,4.642,0,0,1-.694.206l.158-.155a3.693,3.693,0,0,0,.387-.424c.154-.206.333-.412.534-.71.1-.15.2-.282.319-.442l.351-.513c.507-.7,1.089-1.558,1.813-2.48s1.577-1.926,2.425-3.092,1.7-2.482,2.6-3.858c.861-1.39,1.781-2.9,2.6-4.377a16.121,16.121,0,0,0,2-4.532,25.315,25.315,0,0,0,.5-2.616c.073-.454.123-.922.188-1.385l.135-1.421c.16-1.912.18-3.873.224-5.823s.023-3.891,0-5.777c0-1.9.006-3.734.009-5.475s.078-3.412.151-4.948.232-2.953.391-4.2a27.1,27.1,0,0,1,.631-3.206,13.862,13.862,0,0,1,.713-1.981Z" transform="translate(-606.058 -189.403)" fill="#fff" opacity="0.15"/>
                <g id="Grupo_55038" data-name="Grupo 55038" transform="translate(14.735)">
                  <path id="Trazado_104295" data-name="Trazado 104295" d="M613.024,195.228c1.177-2.573,4.98-4,6.022-4.805s1.933-3.439,1.933-3.439a9.4,9.4,0,0,1,.881-5c1.217-2.193,2.871-3.21,3.68-2.92s3.38,1.213,3.432,2.413-1.719,3.892-1.578,5.446-1.457,3.763-1.6,5.65.435,6.87-5.451,8.3S611.53,198.491,613.024,195.228Z" transform="translate(-608.55 -179.017)" fill="#fcbd92"/>
                  <path id="Trazado_104296" data-name="Trazado 104296" d="M625.8,193.083c.141-1.886,1.738-4.1,1.6-5.65s1.631-4.245,1.578-5.446c-.024-.559-.6-1.056-1.281-1.459.816,1.626-.886,4.859-2.807,6.111-1.723,1.124-3.39.77-3.924-.757a9.838,9.838,0,0,0,.02,1.611,10.4,10.4,0,0,1-1.814,3.334,3.845,3.845,0,0,1,1.835.5c2.551,1.4,1.87,5.946-1.04,6.349-2.617.362-4.221-3.253-4.491-4.584a7.036,7.036,0,0,0-2.444,2.65c-1.494,3.263,1.435,7.077,7.321,5.646S625.655,194.968,625.8,193.083Z" transform="translate(-608.55 -179.526)" opacity="0.05"/>
                  <path id="Trazado_104297" data-name="Trazado 104297" d="M597.416,202.206c.073-4-.847-4.3-2.482-5.146a6.573,6.573,0,0,0-6.478.787,14.142,14.142,0,0,1-4.843,2.906c-2.664,1.029-3.814,1.816-6.478,2.058s-3.875,5.086-2.906,5.751,2.966.424,5.388-.544,4.541-.606,7.023-2.24,3.632-1.574,4.117-2.179,2.542-.363,4.177-.544S597.407,202.691,597.416,202.206Z" transform="translate(-551.312 -184.92)" fill="#fcbd92"/>
                  <path id="Trazado_104298" data-name="Trazado 104298" d="M597.416,204.01c.009-.448,0-.844-.014-1.206-1.024,1.6-6.243.674-6.927,1.28-.767.678-.646.814-3.148,1.521s-3.39-1.877-2.128-3.716h0c-.42.2-.926.414-1.585.668-2.664,1.029-3.815,1.816-6.478,2.058s-3.875,5.086-2.906,5.751,2.966.424,5.388-.544,4.541-.606,7.023-2.24,3.632-1.574,4.117-2.179,2.542-.363,4.177-.544S597.408,204.495,597.416,204.01Z" transform="translate(-551.312 -186.724)" opacity="0.05"/>
                  <path id="Trazado_104299" data-name="Trazado 104299" d="M608.931,189.649a3.836,3.836,0,0,1,2.663,2.361c.121.605-2,3.33-1.876,4.238a4.911,4.911,0,0,1-.787,2.785c-.545,1.15-2,1.392-4.238,4.541s-2.845,4-4.661,4.238-7.386-.944-8.718-1.259-.787-4.129,1.634-5.34a8.944,8.944,0,0,1,5.428-.464,37.077,37.077,0,0,1,3.31-3.39c.484-3.027.3-3.612,2.058-5.489S606.772,189,608.931,189.649Z" transform="translate(-576.569 -182.533)" fill="#fcbd92"/>
                  <path id="Trazado_104300" data-name="Trazado 104300" d="M614.393,213.154a3.456,3.456,0,0,0,2.046-.916c-2.107.371-4.024-.739-3.862-3.443a12.91,12.91,0,0,1,.859-3.488c-.415.458-.7.783-.7.783a8.945,8.945,0,0,0-5.428.464c-2.421,1.211-2.966,5.025-1.634,5.34S612.577,213.4,614.393,213.154Z" transform="translate(-590.93 -187.875)" opacity="0.05"/>
                  <path id="Trazado_104301" data-name="Trazado 104301" d="M594.843,197.392c-1.18.545-3.39-.393-3.39-.393l1.695-4.42a9.306,9.306,0,0,0,4.074.757C596.114,195.091,594.843,197.392,594.843,197.392Z" transform="translate(-562.754 -183.587)" fill="#fff" opacity="0.2"/>
                  <path id="Trazado_104302" data-name="Trazado 104302" d="M631.341,193.776c-.545-2.594.363-5.216-.573-5.761a9.648,9.648,0,0,0-2.919-1c-.968,0-2.862.847-3.753,3.39a8.73,8.73,0,0,0-.143,6.113c.077.228,0,.125-.019.149a9.98,9.98,0,0,1-5.3,3.4c-.015-.012-.03-.021-.045-.034-2.119-1.755-5.873-2.724-8.112-1.029s-2,6.115-.605,6.115,2.482.787,4.541,2.664,4.661,1.089,7.2-.3a43.732,43.732,0,0,1,5.993-2.421c1.272-.545.707-2.506,2.039-4.444s2.188-2.776,2.119-3.814S631.946,194.432,631.341,193.776Z" transform="translate(-608.805 -181.71)" fill="#fcbd92"/>
                  <path id="Trazado_104303" data-name="Trazado 104303" d="M614.02,194.528a7.28,7.28,0,0,1-3.394.2l-.31-5.323a19.656,19.656,0,0,1,3.556,0C614.044,191.339,614.02,194.528,614.02,194.528Z" transform="translate(-592.059 -182.488)" fill="#fff" opacity="0.2"/>
                  <path id="Trazado_104304" data-name="Trazado 104304" d="M636.8,205.67a1.887,1.887,0,0,1-.552.1,3.892,3.892,0,0,1-.479-.023c-.153-.027-.308-.091-.5-.139s-.386-.1-.589-.158-.419-.117-.632-.2c-.218-.063-.432-.165-.658-.241l-.686-.237c-.232-.068-.47-.133-.7-.185a5.092,5.092,0,0,0-.7-.129,5.706,5.706,0,0,0-.668-.067,5.352,5.352,0,0,0-.613.006c-.095.01-.19.013-.282.015s-.173.025-.254.036a2.348,2.348,0,0,0-.42.088c-.233.063-.381.1-.381.1l.314-.206a2.456,2.456,0,0,1,.378-.2,2.978,2.978,0,0,1,.518-.208,4.637,4.637,0,0,1,.639-.167,6.077,6.077,0,0,1,.732-.084,5.933,5.933,0,0,1,.789.008,7.483,7.483,0,0,1,.808.1,8.914,8.914,0,0,1,2.807,1.025,7.242,7.242,0,0,1,.83.539Z" transform="translate(-627.018 -187.355)" fill="#fff" opacity="0.2"/>
                  <g id="Grupo_55037" data-name="Grupo 55037" transform="translate(5.604 5.3)">
                    <path id="Trazado_104305" data-name="Trazado 104305" d="M628.157,187.01a3.309,3.309,0,0,0-1.3.568,4.328,4.328,0,0,0-.977.975,6.423,6.423,0,0,0-.372.569,5.951,5.951,0,0,0-.3.605,6.275,6.275,0,0,0-.221.64c-.065.208-.117.442-.174.68a12.52,12.52,0,0,0-.214,1.353,7.678,7.678,0,0,0-.042,1.332,7.2,7.2,0,0,0,.2,1.3c.05.213.113.424.182.634s.152.431.227.612l.178.425-.276.4c-.147.216-.289.441-.447.649s-.336.4-.519.577-.367.36-.565.515-.389.324-.6.459-.415.278-.631.393-.428.244-.648.345-.435.219-.664.3-.451.17-.679.244a12.488,12.488,0,0,1-1.376.379c-.464.094-.928.175-1.393.239-.231.036-.469.04-.7.06s-.473-.005-.71-.021a5.848,5.848,0,0,1-.711-.118,3.8,3.8,0,0,1-.707-.25,19.31,19.31,0,0,0,2.669-.4c.439-.1.874-.212,1.307-.337s.857-.276,1.277-.439a12.168,12.168,0,0,0,2.395-1.236c.192-.119.362-.268.544-.4s.338-.3.509-.444.308-.327.464-.49.271-.359.407-.538h0a8.662,8.662,0,0,1-.511-2.86,9.618,9.618,0,0,1,.473-2.87,8.472,8.472,0,0,1,.539-1.354,6.322,6.322,0,0,1,.38-.623,4.962,4.962,0,0,1,.458-.568,4.632,4.632,0,0,1,1.141-.9A3.126,3.126,0,0,1,628.157,187.01Z" transform="translate(-614.718 -187.01)" fill="#fff" opacity="0.15"/>
                  </g>
                </g>
              </g>
              <path id="Trazado_104306" data-name="Trazado 104306" d="M668.716,229.226c-7.438-.6-11.4,5.908-12.424,9.81,0,0,.607-8.671,5.447-11.381S668.716,229.226,668.716,229.226Z" transform="translate(-628.484 -194.348)" fill="#1c1f23" opacity="0.2"/>
              <path id="Trazado_104307" data-name="Trazado 104307" d="M669.695,233.729l-.365.122a7.506,7.506,0,0,0-1,.385,10.88,10.88,0,0,0-1.383.735,12.689,12.689,0,0,0-1.586,1.188,15.992,15.992,0,0,0-1.632,1.633,19.923,19.923,0,0,0-1.593,2.03c-.539.709-1.039,1.505-1.533,2.311-.471.831-.992,1.637-1.437,2.506s-.886,1.733-1.317,2.592l-.642,1.276-.649,1.238c-.443.806-.888,1.58-1.337,2.307s-.9,1.409-1.31,2.046-.736,1.242-1.129,1.743a6.771,6.771,0,0,1-1.237,1.237,8.475,8.475,0,0,1-1.107.729c-.141.082-.273.141-.359.18l-.131.062a44.7,44.7,0,0,1,1.711-4.866,58.5,58.5,0,0,1,5.232-10.054c.564-.865,1.18-1.694,1.8-2.5a29.373,29.373,0,0,1,1.959-2.248,20.761,20.761,0,0,1,2.058-1.88c.353-.268.69-.539,1.044-.761l.513-.339.515-.292a11.472,11.472,0,0,1,1.925-.863,9.158,9.158,0,0,1,1.578-.389,6.692,6.692,0,0,1,1.042-.105Z" transform="translate(-625.257 -196.698)" fill="#fff" opacity="0.15"/>
            </g>
            <path id="Trazado_104308" data-name="Trazado 104308" d="M570.952,202.978c-.351,3.852,8.712,10.5,18.242,6.55a20.79,20.79,0,0,1,0-5.682s4.81,2.118,7.892,1.252,3.275-2.2,8.379-2.928c4.623-1.792,6.357-2.965,8.668-3.582s6.357-.341,6.742-2.213-.15-8.631-6.549-8.631c-2.311,0-5.971,2.022-5.971,2.022s1.445-2.124,1.156-3.352-2.239-2.89-5.851-3.034-6.238,3.539-6.514,5.562c-.493-1.734.374-4.415-.348-5.2a6.369,6.369,0,0,0-1.934-1.3,3.765,3.765,0,0,0,.525-2.709c-.4-1.264-4.442-3.25-5.851-3.287s-3.888,1.806-4.852,3.973a10.011,10.011,0,0,0-1,4.875,3.563,3.563,0,0,1-2.456,3.576c-1.733.65-4.731,2.492-5.092,3.973-1.986-.036-4.927,3.214-4.287,6.465A9.6,9.6,0,0,1,570.952,202.978Z" transform="translate(-524.146 -176.444)" fill="#f15a29" opacity="0.5" style="mix-blend-mode: hard-light;isolation: isolate"/>
          </g>
          <g id="Grupo_55044" data-name="Grupo 55044" transform="translate(56.031 200.561)">
            <g id="Grupo_55042" data-name="Grupo 55042" transform="translate(0)">
              <path id="Trazado_104309" data-name="Trazado 104309" d="M708.5,351.621c.375-4.712,13.813-5.645,30.22-4.23s28.966,4.629,29.194,9.351l.237-5.088c.375-4.712-12.85-7.943-29.333-9.363s-29.982-.493-30.357,4.219Z" transform="translate(-708.457 -341.682)" fill="#58402c"/>
            </g>
            <g id="Grupo_55043" data-name="Grupo 55043" transform="translate(0)" opacity="0.3">
              <path id="Trazado_104310" data-name="Trazado 104310" d="M709.747,346.353c.31-3.889,13.214-4.5,29-3.144s28.466,4.18,28.156,8.07l1.249.375c.375-4.712-12.85-7.943-29.333-9.363s-29.982-.493-30.357,4.219Z" transform="translate(-708.457 -341.682)" fill="#fff"/>
            </g>
          </g>
          <path id="Trazado_104311" data-name="Trazado 104311" d="M763.779,398.89c-.044-.222-3.541-15.981-10.338-22.286-6.853-6.356-21.186-3.866-34.33-6.611-10.148-2.119-20.869-5.144-25.47-9.769a35.616,35.616,0,0,1,.951-4.879H750.28s.623.7,1.594,2.032C754.306,361.834,759.857,374.118,763.779,398.89Z" transform="translate(-638.226 -145.725)" opacity="0.15"/>
          <g id="Grupo_55045" data-name="Grupo 55045" transform="translate(35.663 84.132)">
            <path id="Trazado_104312" data-name="Trazado 104312" d="M690.648,166.086c28.745,0,68.958,3.316,77.581,6.917,13.1,5.472,11.952,37.753,4.125,48.613-8.96,14.09-14.419,32.687-17.679,69.958,1.057,3.02,2.117,5.765-5.873,7.931s-26.31,1.845-36.786-1.426-12.25-4.71-11.7-6.506c10.8-34.772-7.832-58.179-14.326-72.269C672.151,199.418,677.172,166.086,690.648,166.086Z" transform="translate(-677.762 -166.086)" fill="#e5c23b"/>
            <path id="Trazado_104313" data-name="Trazado 104313" d="M701.615,226.722l-.146.243c-.1.16-.243.4-.4.711-.349.621-.789,1.513-1.337,2.638l-.851,1.842-.458,1.031c-.172.351-.331.719-.491,1.093a36.717,36.717,0,0,1-2.4,4.761c-.251.4-.519.782-.8,1.154l-.216.271-.108.136-.026.034-.014.017c.108-.164-.162.242-.14.209l-.06.087-.49.7c-.668.943-1.3,1.923-1.976,3.063l-1.014,1.689-.948,1.733c-.656,1.166-1.18,2.41-1.758,3.657l-.43.943q-.2.478-.393.96c-.259.645-.536,1.288-.784,1.945-.487,1.315-.908,2.661-1.37,4.007-.412,1.355-.819,2.72-1.209,4.094q-.505,2.068-1.012,4.147-.438,2.077-.876,4.148c-.265,1.378-.506,2.752-.733,4.116s-.4,2.715-.6,4.05-.361,2.652-.512,3.947c-.292,2.593-.485,5.095-.675,7.465s-.3,4.606-.442,6.668c-.075,1.031-.085,2.02-.109,2.959s-.044,1.829-.064,2.666c-.051,1.674-.043,3.13-.06,4.329s.015,2.14.016,2.782.01.984.01.984.129-1.368.355-3.763c.119-1.2.233-2.652.425-4.319s.392-3.548.618-5.6c.267-2.051.513-4.275.852-6.622s.683-4.826,1.126-7.382c.206-1.28.422-2.58.682-3.893s.479-2.646.771-3.981.582-2.682.875-4.034q.5-2.02.993-4.05.561-2.017,1.12-4.028.632-1.992,1.256-3.965c.471-1.3.9-2.6,1.4-3.861q.377-.946.751-1.878l.371-.93.406-.909c.54-1.207,1.056-2.4,1.646-3.534q.428-.856.845-1.694l.9-1.621c.57-1.076,1.2-2.084,1.8-3.066.294-.493.589-.974.912-1.428q.451-.7.83-1.4a30.65,30.65,0,0,0,2.185-5.321c.513-1.626.857-3.067,1.109-4.254s.412-2.126.516-2.766Z" transform="translate(-601.822 -186.518)" fill="#fff" opacity="0.15"/>
            <path id="Trazado_104314" data-name="Trazado 104314" d="M700.369,291.6c8.521-27.435-1.279-47.794-8.984-62.085,9.389,8.041,26.379-8.667,27.566-25.8,0,0-5.478-35.352-21.37-37.546h0c2.517.041,5.091.1,7.7.186h0s17.022,2.356,21.894,37.831c13.971.766,26.236.763,33.969.8,3.06-17.727-5.188-32.622-11.756-35.519,2.307.274,4.478.559,6.483.853.113.038,19.936,4.614,11.034,53.361-1.962,10.74,1.336,5.389,1.336,5.389v.009c-6.536,13.326-10.789,31.418-13.51,62.514,1.057,3.02,2.117,5.765-5.873,7.931s-26.31,1.845-36.786-1.426S699.816,293.4,700.369,291.6Z" transform="translate(-677.812 -166.116)" fill="#b3009d"/>
            <path id="Trazado_104315" data-name="Trazado 104315" d="M712.122,206.625l15-2.863a22.783,22.783,0,0,1-.5,15.247c-2.335,5.615,5.088,19.86,11.374,27.272s8.176,23.789,7.117,35.9.656,18.926,12.74,22.812,29.992,2.086,30.885-.722c.08-.132.165-.256.251-.377-.011.127-.023.249-.034.377,1.057,3.019,2.117,5.765-5.873,7.931s-26.31,1.845-36.786-1.426-12.25-4.71-11.7-6.506C745.4,269.5,726.767,246.09,720.273,232,715.122,224.6,712.586,215.338,712.122,206.625Z" transform="translate(-712.042 -178.781)" opacity="0.1"/>
            <path id="Trazado_104316" data-name="Trazado 104316" d="M769,340.5c-.032-3.232,1.983-8.288,8.228-15.174s7.21-10.209,7.347-12.327-6.827-5.635-11.587.337-8.984,24.724-8.518,26.182S769,340.5,769,340.5Z" transform="translate(-741.632 -214.586)" opacity="0.1"/>
            <path id="Trazado_104317" data-name="Trazado 104317" d="M765.69,170.43c2.912,1.218-1.2,8.5-14.147,8.826-8.346.211-31.694-4.094-42.166-13.01C729.084,166.671,751.658,168.333,765.69,170.43Z" transform="translate(-687.124 -166.14)" opacity="0.15"/>
            <path id="Trazado_104318" data-name="Trazado 104318" d="M721.517,170.4c-.382,2.336,10.909,6.85,20.058,7.547s12.7-2.683,13.077-5.02-8.944-3.13-18.094-3.827S721.9,168.068,721.517,170.4Z" transform="translate(-683.252 -166.929)" fill="#fcbd92"/>
            <path id="Trazado_104319" data-name="Trazado 104319" d="M764.755,229.5c.334.276.641.582,1,.833a8.037,8.037,0,0,0,1.128.69l.6.293.642.212a8.521,8.521,0,0,0,1.331.308,10.259,10.259,0,0,0,2.8-.012l.706-.1.7-.166a13.485,13.485,0,0,0,1.381-.417c.459-.153.9-.362,1.347-.543.436-.21.871-.43,1.3-.663.414-.253.841-.491,1.246-.76s.812-.539,1.2-.834c.782-.581,1.534-1.2,2.256-1.856s1.407-1.347,2.073-2.057l.969-1.092.921-1.132c.592-.77,1.17-1.553,1.706-2.363a28.3,28.3,0,0,0,1.51-2.487c.477-.844.9-1.716,1.306-2.592l.58-1.329.524-1.349c.318-.909.632-1.822.879-2.752.139-.462.251-.928.354-1.4s.223-.936.3-1.409c.186-.944.3-1.894.4-2.846l.015-.133-.029-.211c-.14-1-.3-1.95-.466-2.915s-.353-1.916-.545-2.869c-.4-1.9-.863-3.785-1.367-5.656-.259-.934-.519-1.867-.8-2.793s-.605-1.838-.926-2.751-.662-1.818-1.019-2.718-.736-1.79-1.156-2.662c-.4-.879-.846-1.742-1.292-2.6-.222-.43-.469-.849-.7-1.274s-.48-.843-.746-1.249c-.5-.829-1.074-1.621-1.633-2.415-.6-.774-1.189-1.547-1.853-2.27-.312-.375-.664-.721-1.014-1.068a11.67,11.67,0,0,0-1.1-.99,14.322,14.322,0,0,0-2.461-1.681c-.458-.216-.9-.446-1.373-.625s-.964-.318-1.451-.444c-.5-.1-1.013-.156-1.509-.215-.515-.012-1.023-.011-1.524.023l1.413.291c.454.144.9.308,1.353.46.435.185.853.407,1.28.609.418.219.8.493,1.2.737a17.168,17.168,0,0,1,2.18,1.77,11.948,11.948,0,0,1,.986,1c.32.342.641.684.925,1.056.606.715,1.146,1.483,1.688,2.247.508.79,1.026,1.573,1.483,2.4.483.806.9,1.652,1.336,2.488.414.847.821,1.7,1.2,2.567a84.21,84.21,0,0,1,3.787,10.734q.781,2.751,1.417,5.55c.423,1.866.811,3.744,1.123,5.641h0c-.084.9-.167,1.8-.326,2.7-.059.451-.159.9-.252,1.345s-.186.9-.31,1.338c-.215.891-.5,1.77-.783,2.646l-.475,1.3-.53,1.286c-.375.85-.761,1.7-1.2,2.518-.212.415-.432.827-.672,1.229s-.459.814-.718,1.205c-.49.8-1.024,1.569-1.571,2.333l-.853,1.121-.9,1.085c-.621.707-1.262,1.4-1.938,2.053s-1.384,1.277-2.122,1.863c-.364.3-.754.561-1.13.843s-.786.514-1.178.772c-.4.235-.814.462-1.225.685-.424.192-.838.414-1.272.58a13.136,13.136,0,0,1-1.31.461l-.665.192-.675.131a10,10,0,0,1-2.7.139,8.424,8.424,0,0,1-1.309-.235l-.638-.175-.606-.251a7.951,7.951,0,0,1-1.153-.606C765.433,230.042,765.105,229.756,764.755,229.5Z" transform="translate(-751.182 -166.101)" opacity="0.15"/>
            <path id="Trazado_104320" data-name="Trazado 104320" d="M711.817,206.675a9.226,9.226,0,0,0,.976-1.7,9.672,9.672,0,0,0,.69-1.987c.17-.8.282-1.706.428-2.7.1-.985.172-2.046.211-3.175.013-1.123-.034-2.305-.143-3.517a30.453,30.453,0,0,0-.626-3.672c-.15-.613-.3-1.231-.453-1.85-.175-.612-.4-1.211-.593-1.816s-.4-1.207-.654-1.786c-.239-.585-.477-1.166-.727-1.735-.578-1.1-1.08-2.214-1.72-3.207-.323-.493-.6-1-.948-1.448l-.985-1.33c-.32-.43-.686-.81-1.009-1.2l-.487-.56c-.164-.18-.344-.341-.51-.506-.332-.331-.664-.633-.979-.917l-.974-.729-.44-.328c-.148-.1-.3-.18-.444-.265l-.781-.453a3.294,3.294,0,0,0-.668-.3l-.506-.188-.416-.154.385.21a10.186,10.186,0,0,1,1.065.622l.7.526c.126.1.264.192.4.3l.388.367.851.808.852.983c.146.174.306.341.449.529l.424.583c.281.4.6.794.875,1.238l.84,1.367c.3.46.524.977.8,1.477.559.995.979,2.107,1.471,3.2.391,1.142.866,2.271,1.169,3.468.163.593.351,1.179.494,1.776s.259,1.2.388,1.8a17.876,17.876,0,0,1,.315,1.786q.131.889.259,1.755c.1,1.166.2,2.293.254,3.368,0,1.081.033,2.1.015,3.045-.058.947-.112,1.815-.16,2.584s-.177,1.439-.237,1.991C711.9,206.044,711.817,206.675,711.817,206.675Z" transform="translate(-628.49 -167.794)" opacity="0.15"/>
            <path id="Trazado_104321" data-name="Trazado 104321" d="M708.425,234.963c-1.2,12.966-7.158,34.552-7.158,34.552l4.651,8.655s26.286.385,32.568-.963a36.047,36.047,0,0,0,4.283-5.971s-.8-11.438,1.726-35.575C740.683,238.876,715.862,238.562,708.425,234.963Z" transform="translate(-659.661 -189.294)" fill="#c4a424"/>
          </g>
          <g id="Grupo_55046" data-name="Grupo 55046" transform="translate(106.242 217.671)">
            <path id="Trazado_104322" data-name="Trazado 104322" d="M692.134,370.285c11.764,4.511,15.678,16.526,17.376,21.99a4.334,4.334,0,0,0,2.478-2.165,46.526,46.526,0,0,0,.434-6.754c-.145-2.492-3.746-10.475-11.88-14.409S692.134,370.285,692.134,370.285Z" transform="translate(-692.134 -367.488)" fill="#594a42"/>
            <path id="Trazado_104323" data-name="Trazado 104323" d="M701.178,368.864a27.506,27.506,0,0,1-3.37,1.72c4.453,1.861,14.683,12.757,14.912,19.706a4.59,4.59,0,0,1-2.392,1.986c-1.7-5.464-5.612-17.479-17.376-21.99C692.952,370.287,693.226,365.1,701.178,368.864Z" transform="translate(-692.952 -367.49)" opacity="0.15"/>
            <path id="Trazado_104324" data-name="Trazado 104324" d="M699.788,392.038s.191-1.338.347-3.36a26.71,26.71,0,0,0,.079-3.458,7.848,7.848,0,0,0-.464-1.892,16.557,16.557,0,0,0-.79-1.853c-.3-.6-.625-1.2-.977-1.762s-.714-1.109-1.087-1.621-.759-.987-1.131-1.433-.743-.851-1.106-1.2-.684-.69-1-.959-.569-.52-.8-.7l-.722-.584a2.043,2.043,0,0,0,.14.214,6.078,6.078,0,0,0,.428.556c.193.225.412.513.689.81s.591.627.924,1,.67.789,1.029,1.229l1.071,1.426c.367.5.731,1.022,1.07,1.575s.673,1.12.988,1.7a16.05,16.05,0,0,1,.826,1.773c.121.3.221.6.311.895a5.546,5.546,0,0,1,.19.885c.07.568.092,1.2.1,1.768s0,1.122-.009,1.626c-.017,1.01-.034,1.857-.062,2.448S699.788,392.038,699.788,392.038Z" transform="translate(-679.935 -369.416)" fill="#fff" opacity="0.2"/>
          </g>
          <g id="Grupo_55049" data-name="Grupo 55049" transform="translate(72.271 46.85)">
            <g id="Grupo_55048" data-name="Grupo 55048" transform="translate(0 0)">
              <g id="Grupo_55047" data-name="Grupo 55047">
                <path id="Trazado_104325" data-name="Trazado 104325" d="M726.029,113.173c1.8,4.555,3.026,12.988,3.86,21.975,1.182,12.736-.271,13.5.21,14.623s10.891,5.635,21.259,6.487c4.649.382,6.047-3.136,5.853-5.231s-1.444-16.572.316-23.513S748.147,114.5,741.677,113,723.459,106.657,726.029,113.173Z" transform="translate(-725.667 -109.857)" fill="#fcbd92"/>
                <path id="Trazado_104326" data-name="Trazado 104326" d="M740.05,147.1c-3.429-4.849-8.34-12.578-10.818-18.163-.788-6.532-1.829-12.285-3.2-15.768-2.57-6.516,9.179-1.678,15.648-.174s17.61,7.573,15.85,14.514-.511,21.418-.316,23.513-1.2,5.613-5.853,5.231c-.644-.052-1.288-.12-1.93-.2C745.92,154.153,742.376,150.394,740.05,147.1Z" transform="translate(-725.667 -109.857)" opacity="0.15"/>
              </g>
            </g>
          </g>
          <g id="Grupo_55058" data-name="Grupo 55058" transform="translate(66.512 4.991)">
            <path id="Trazado_104327" data-name="Trazado 104327" d="M716.083,96.131c-9.362-4.956-9.322-7.634-11.428-14.492s-2.913-16.568,2.3-24.147S721.839,46.144,729.819,46.8s21.591,6.428,24.465,10.31,3.482,44.227-13.512,42.831S719.454,97.915,716.083,96.131Z" transform="translate(-703.032 -46.726)" fill="#fcbd92"/>
            <path id="Trazado_104328" data-name="Trazado 104328" d="M772.686,98.542c-3.333-1.061-4.126-3.308-4.5-8.365s1.785-5.676,3.679-6.087,3.817,2.292,3.817,2.292l-2.108,12.1A.926.926,0,0,1,772.686,98.542Z" transform="translate(-766.044 -59.302)" fill="#fcbd92"/>
            <path id="Trazado_104329" data-name="Trazado 104329" d="M774.931,90.38c-.441-2.184-2.577-3.041-3.707-2.227s-.923,3.3.073,5c-.206-1.321-.312-2.974.715-3.118s2.234.144,2.36.675-1.331.922-1.1,2.184,1.153,1.845.571,3.053a1.487,1.487,0,0,0,.332-1.978c-.341-.849-.569-1.307.018-1.981S775.047,90.955,774.931,90.38Z" transform="translate(-766.851 -60.583)" opacity="0.15"/>
            <path id="Trazado_104330" data-name="Trazado 104330" d="M772.68,98.545l-.229-.125a7.069,7.069,0,0,1-.628-.373,3.364,3.364,0,0,1-.416-.289,3.446,3.446,0,0,1-.446-.383,4.631,4.631,0,0,1-.436-.483,6.808,6.808,0,0,1-.381-.594,7.665,7.665,0,0,1-.81-3.293c-.068-.638-.088-1.318-.109-2.007q-.008-.507-.015-1.021c.006-.349-.008-.743.028-1.032a7.433,7.433,0,0,1,.319-1.774,1.947,1.947,0,0,1,.145-.365,1.71,1.71,0,0,1,.173-.314,2.247,2.247,0,0,1,.4-.5,3.959,3.959,0,0,1,1.238-.664c.131-.042.257-.087.4-.126l.1-.03.05-.015.025-.007c-.043.007.105-.019-.095.015H772l.014,0,.215-.048.107-.023c.02,0,.019,0,.029,0a.115.115,0,0,0,.049-.014c.055-.006.155.007.235.009a3.9,3.9,0,0,1,1.073.407c.345.176.676.341.963.478a10.545,10.545,0,0,0,1,.414,7.364,7.364,0,0,0-.636-.755,7.74,7.74,0,0,0-.833-.767,4.208,4.208,0,0,0-1.28-.706,2.242,2.242,0,0,0-.829-.092,5.51,5.51,0,0,0-.879.181,4.323,4.323,0,0,0-1.733.837,3.612,3.612,0,0,0-1.062,1.748,7.551,7.551,0,0,0-.279,2.117,21.206,21.206,0,0,0,.109,2.139c.071.7.142,1.4.261,2.059a8.118,8.118,0,0,0,1.239,3.431,4.354,4.354,0,0,0,1.027,1.04,3.742,3.742,0,0,0,.514.332,3.508,3.508,0,0,0,.462.238,5.885,5.885,0,0,0,.676.272Z" transform="translate(-766.038 -59.304)" fill="#fff" opacity="0.2"/>
            <path id="Trazado_104331" data-name="Trazado 104331" d="M701.428,86.48s1.818-14.574,5.8-20.022c5.873-8.033,22.863-14.212,37.475-6.032,5.443,5.982,4.371,21.215,4.371,21.215s-1.812,5.779-1.148,8.92.861,4.12-1.377,12.449-4.693,14.466-7.37,15.537a16.9,16.9,0,0,1-5.763.921,1.782,1.782,0,0,1-.337,0l-.108-.01h-.031c-5.027-.413-6.734-.534-9.5-1.9a57.738,57.738,0,0,1-5.528-2.4c-5.332-2.564-10.5-4.921-14.584-9.122S696.229,95.794,701.428,86.48Z" transform="translate(-693.451 -50.043)" fill="#fcbd92"/>
            <path id="Trazado_104332" data-name="Trazado 104332" d="M736.612,138.364c-2.438-1.962-1.492-7.006.237-9.231s2.505-3.763,6.078-2.961c1.022-2.3-5.456-5.2-7.61-4.268s-3.156,9.6-3.25,11.329a8.482,8.482,0,0,0,.507,3.233Z" transform="translate(-709.465 -71.997)" opacity="0.15"/>
            <path id="Trazado_104333" data-name="Trazado 104333" d="M762.22,132.761s-.642-.286-1.732-.837c-.547-.271-1.2-.613-1.951-1.02l-2.5-1.386c-1.843-1-4-2.154-6.18-3.532a32.259,32.259,0,0,1-6.306-4.844l-.673-.711-.687-.788c-.195-.255-.4-.5-.6-.747l-.567-.783a15.689,15.689,0,0,1-1.7-3.282,12.4,12.4,0,0,1-.731-3.341,15.622,15.622,0,0,1,.079-3.131c.074-.487.176-.953.255-1.4l.314-1.262c.091-.4.2-.775.3-1.121l.235-.976c.171-.582.266-1.069.338-1.4.04-.163.058-.3.071-.385l.021-.135-.88,1.707c-.226.567-.563,1.233-.836,2.039-.131.4-.292.829-.422,1.288-.109.464-.242.949-.349,1.462a14.7,14.7,0,0,0-.245,3.366,14.2,14.2,0,0,0,.2,1.834,14.154,14.154,0,0,0,2.386,5.42,21.171,21.171,0,0,0,2.745,3.13,33.3,33.3,0,0,0,6.644,4.781c2.282,1.288,4.495,2.332,6.382,3.242s3.47,1.65,4.6,2.115S762.22,132.761,762.22,132.761Z" transform="translate(-732.228 -65.243)" fill="#fff" opacity="0.2"/>
            <path id="Trazado_104334" data-name="Trazado 104334" d="M706.274,117.417c2.693-2.748,6.546-.8,11.657.632,3.84,1.074,9.36,1.534,13.215.481s5.7,1.012,4.22,7.944-1.992,8.681-5.642,10.731c1.565-2.532.447-4.3,1.422-6.9s.693-4.908-1.484-5.039v0c-6.819,1.491-14.361-1.318-17.428-1.847-3.214-.554-7.063,5.922-6.835,11.131C700.973,132.346,700.116,123.7,706.274,117.417Z" transform="translate(-682.29 -70.079)" fill="#4a3c40"/>
            <path id="Trazado_104335" data-name="Trazado 104335" d="M704.813,129.717v0c.326-.071,1.326-.323,1.64-.416,4.179-.865,3.149,7.325-1.578,12.357,1.565-2.532.447-4.3,1.422-6.9S706.99,129.848,704.813,129.717Z" transform="translate(-657.441 -74.527)" opacity="0.15"/>
            <path id="Trazado_104336" data-name="Trazado 104336" d="M712.615,133.468a4.351,4.351,0,0,0,2.437,2.252,16.644,16.644,0,0,0,8.454.686c1.79-.481,2.236-3.273.971-3.847s-11.668-1.759-12.145-.764A2.186,2.186,0,0,0,712.615,133.468Z" transform="translate(-678.497 -75.261)" fill="#1c1f23" opacity="0.2"/>
            <path id="Trazado_104337" data-name="Trazado 104337" d="M710.579,131.882a4.761,4.761,0,0,0,2.708,2.274,20.218,20.218,0,0,0,9.334.758c1.971-.467,2.439-3.256,1.039-3.841s-12.888-1.86-13.406-.868A2.028,2.028,0,0,0,710.579,131.882Z" transform="translate(-676.383 -74.731)" fill="#fcbd92"/>
            <g id="Grupo_55053" data-name="Grupo 55053" transform="translate(45.925 34.255)">
              <g id="Grupo_55052" data-name="Grupo 55052" transform="translate(0.22 0.955)">
                <path id="Trazado_104338" data-name="Trazado 104338" d="M705.79,99.971a9.543,9.543,0,0,0-.611,4.655,12.779,12.779,0,0,0,4.938.506c.316-3.842.279-4.186.279-4.186a3.758,3.758,0,0,0-2.43-1.105A8.39,8.39,0,0,0,705.79,99.971Z" transform="translate(-705.1 -99.83)" fill="#fff" opacity="0.5"/>
                <g id="Grupo_55051" data-name="Grupo 55051" transform="translate(0)" clip-path="url(#clip-path-2)">
                  <g id="Grupo_55050" data-name="Grupo 55050" transform="translate(-0.11 0.211)">
                    <path id="Trazado_104339" data-name="Trazado 104339" d="M710.156,102.619c.056,2.294-1.345,2.58-2.646,2.311-1.515-.314-2.174-.588-2.142-2.7.03-1.944,1.276-2.278,2.573-1.984C709.359,100.563,710.124,101.322,710.156,102.619Z" transform="translate(-704.925 -100.149)" fill="#fff" opacity="0.5"/>
                    <path id="Trazado_104340" data-name="Trazado 104340" d="M711.476,103a1.747,1.747,0,1,1-1.6-1.884A1.747,1.747,0,0,1,711.476,103Z" transform="translate(-707.988 -100.472)" fill="#4e474b"/>
                  </g>
                </g>
              </g>
              <path id="Trazado_104342" data-name="Trazado 104342" d="M710.353,101.211a.7.7,0,1,1-.641-.755A.7.7,0,0,1,710.353,101.211Z" transform="translate(-707.394 -99.085)" fill="#fff" opacity="0.5"/>
              <path id="Trazado_104343" data-name="Trazado 104343" d="M705.094,105.793c.046.406-.228,1.274,2.122,1.657a5.286,5.286,0,0,0,3.4-.261l-.241-.044S706.086,107.356,705.094,105.793Z" transform="translate(-705.094 -100.884)" opacity="0.3"/>
              <path id="Trazado_104344" data-name="Trazado 104344" d="M705.1,99.485a2.29,2.29,0,0,1,1.447-1.1c1.4.383,2.614.864,3.159,2.071A5.731,5.731,0,0,0,705.1,99.485Z" transform="translate(-704.192 -98.389)" fill="#4e474b"/>
            </g>
            <g id="Grupo_55056" data-name="Grupo 55056" transform="translate(26.512 33.18)">
              <g id="Grupo_55055" data-name="Grupo 55055" transform="translate(1.171 0.257)">
                <path id="Trazado_104345" data-name="Trazado 104345" d="M737.4,98.015a9.535,9.535,0,0,1-.157,4.692,19.814,19.814,0,0,1-6.152-.405c.316-3.842,1.3-4.539,1.3-4.539a7.773,7.773,0,0,1,3.136-.593C737,97.291,737.4,98.015,737.4,98.015Z" transform="translate(-731.088 -97.156)" fill="#fff" opacity="0.5"/>
                <g id="Grupo_55054" data-name="Grupo 55054" transform="translate(0)" clip-path="url(#clip-path-3)">
                  <path id="Trazado_104346" data-name="Trazado 104346" d="M731.456,100.013c-.467,2.251,1.078,2.779,2.608,2.742,1.781-.044,2.58-.2,2.914-2.289.307-1.921-1.053-2.469-2.582-2.408C732.725,98.126,731.719,98.74,731.456,100.013Z" transform="translate(-730.68 -97.459)" fill="#fff" opacity="0.5"/>
                  <path id="Trazado_104347" data-name="Trazado 104347" d="M733.909,100.544a1.746,1.746,0,1,0,1.883-1.6A1.746,1.746,0,0,0,733.909,100.544Z" transform="translate(-732.733 -97.757)" fill="#4e474b"/>
                </g>
              </g>
              <path id="Trazado_104349" data-name="Trazado 104349" d="M728.9,97.633c2.243-1.479,6.677-.612,6.677-.612l-1.673.863S732.744,96.917,728.9,97.633Z" transform="translate(-726.421 -96.768)" fill="#4e474b"/>
              <path id="Trazado_104350" data-name="Trazado 104350" d="M735.936,98.88a.7.7,0,1,0,.755-.641A.7.7,0,0,0,735.936,98.88Z" transform="translate(-732.847 -97.263)" fill="#fff" opacity="0.5"/>
              <path id="Trazado_104351" data-name="Trazado 104351" d="M737.174,101.768s.252,1.741.256,2.38a2.244,2.244,0,0,0,.815-.585s.039,1.3-2.769,1.254a27.02,27.02,0,0,1-6-.958l1.171,0s5.329.806,5.831.284A5.918,5.918,0,0,0,737.174,101.768Z" transform="translate(-729.476 -98.453)" opacity="0.3"/>
            </g>
            <path id="Trazado_104352" data-name="Trazado 104352" d="M737.584,83.119c-.656,2.455-8.488.776-12.332,4.216-1.669-.682-.881-3.423-.881-3.423s5.107-4.129,9.178-3.795c3.028.249,3.959-.631,3.959-.631S738.266,80.569,737.584,83.119Z" transform="translate(-699.08 -57.765)" fill="#4a3c40"/>
            <path id="Trazado_104353" data-name="Trazado 104353" d="M698.179,84.882c-.7,2.7.1,4.115,1.216,4.641s4.849,1.479,5.411,3.334c1.03-.317,1.332-1.992.756-3.255s-1.485-2.4-4.061-3.313A17.825,17.825,0,0,1,698.179,84.882Z" transform="translate(-649.644 -59.583)" fill="#4a3c40"/>
            <g id="Grupo_55057" data-name="Grupo 55057" transform="translate(34.451 28.063)">
              <path id="Trazado_104354" data-name="Trazado 104354" d="M723.591,90.446c-3.525,3.783-2.079,5.613-1.779,9.867s2.16,6.965,1.364,9.684-4.271,1.617-7.666.16c-2.957-1.268-5.579-.5-5.916-2.37-.358-1.986,1.385-3.791,2.327-3.791a34.216,34.216,0,0,0,2.231-9.078c.251-2.608,1.544-4.9,3.846-5.686S723.591,90.446,723.591,90.446Z" transform="translate(-709.546 -89.049)" fill="#fcbd92"/>
              <path id="Trazado_104355" data-name="Trazado 104355" d="M717.1,91.156l-.323.151a5.564,5.564,0,0,0-.881.485,6.766,6.766,0,0,0-1.245,1.051,5.517,5.517,0,0,0-1.182,1.95,6.387,6.387,0,0,0-.333,1.3,12.79,12.79,0,0,0-.1,1.341c-.036.883.029,1.7.055,2.5.009.4.029.792.07,1.184l.053.371c.014.11.041.218.062.328.03.2.131.494.2.738a18.638,18.638,0,0,0,1.207,2.728,13.678,13.678,0,0,1,.943,2.5,5.287,5.287,0,0,1,.17,2.217l-.057.243-.027.121-.007.031,0,.015.027-.078,0,.009-.029.074c-.072.184-.162.442-.2.444-.029.032-.03.066-.068.105a1.5,1.5,0,0,0-.115.121,1.634,1.634,0,0,1-.263.2,2.735,2.735,0,0,1-1.5.229,6.49,6.49,0,0,1-1.534-.355c-.464-.166-.891-.322-1.251-.469s-.664-.265-.875-.353-.344-.123-.344-.123l.227.235a6.811,6.811,0,0,0,.677.627,7.623,7.623,0,0,0,1.194.791,5.932,5.932,0,0,0,1.754.6,3.412,3.412,0,0,0,2.142-.286,2.7,2.7,0,0,0,1.268-2,7.238,7.238,0,0,0-.122-2.611c-.184-.877-.44-1.75-.666-2.631a24.691,24.691,0,0,1-.556-2.655c-.137-.885-.16-1.769-.279-2.614s-.25-1.658-.337-2.435a7.482,7.482,0,0,1,.023-2.194A5.563,5.563,0,0,1,715.5,93.3a8.4,8.4,0,0,1,.793-1.193c.234-.322.456-.544.592-.708Z" transform="translate(-703.059 -89.759)" fill="#fff" opacity="0.2"/>
              <path id="Trazado_104356" data-name="Trazado 104356" d="M726.185,118.866a6.324,6.324,0,0,0-.537-.37c-.178-.1-.4-.229-.652-.365s-.544-.292-.868-.43c-.647-.276-1.409-.576-2.208-.9-.8-.3-1.654-.617-2.4-.961a4.726,4.726,0,0,1-.906-.548c-.1-.083-.152-.159-.145-.171.014-.046.037.162-.008-.12a1.652,1.652,0,0,1-.009-.357,3.244,3.244,0,0,1,.021-.4,4.7,4.7,0,0,1,.2-.786,6.043,6.043,0,0,1,.326-.665c.109-.2.186-.4.267-.572a3.2,3.2,0,0,1,.219-.45,1.443,1.443,0,0,1,.133-.181,1.2,1.2,0,0,0-.6.18,3.466,3.466,0,0,0-1.177,1.15,3.5,3.5,0,0,0-.585,2.228,1.4,1.4,0,0,0,.658,1.091,5.279,5.279,0,0,0,1.219.611,24.047,24.047,0,0,0,2.587.741c.835.2,1.616.385,2.28.562A15.456,15.456,0,0,1,726.185,118.866Z" transform="translate(-717.247 -96.645)" fill="#1c1f23" opacity="0.2"/>
            </g>
          </g>
          <g id="Grupo_55059" data-name="Grupo 55059" transform="translate(65.457)">
            <path id="Trazado_104357" data-name="Trazado 104357" d="M698.778,63.92c-.04-.127-.074-.253-.111-.379,7.393-6.443,21.983-10.265,34.758-3.114,5.253,5.774,4.438,20.16,4.374,21.156C729.772,84.764,704.636,82.8,698.778,63.92Z" transform="translate(-681.117 -45.052)" opacity="0.15"/>
            <path id="Trazado_104358" data-name="Trazado 104358" d="M687.383,53.881c3.356-9.775,16.579-15.1,31.391-14.657,7.167,1.748,19.9,8.157,22.25,14.148a35.077,35.077,0,0,1,2.044,8.622c5.508,1.729,8.223,4.446,7.785,9.773a29.192,29.192,0,0,1-8.946-2.094l-.075-1.247s-1.553-2.721-9.666-3.956c-3.958,1.113-3.753,2.144-5.937,2.254s-9.163-2.425-19.864-2.215h0c-7.022,1.325-16.408,2.367-20.015,6.317C685.313,71.963,684.028,63.655,687.383,53.881Z" transform="translate(-685.218 -39.198)" fill="#e5c23b"/>
            <path id="Trazado_104359" data-name="Trazado 104359" d="M734.8,70.833a.4.4,0,0,1-.167.009c-.064-.046-.038-.14-.046-.307a13.168,13.168,0,0,1,.247-1.639c.06-.356.131-.747.213-1.175.052-.424.162-.886.226-1.374.152-.979.262-2.085.506-3.28s.555-2.474.9-3.818c.366-1.339.818-2.729,1.307-4.152l.09-.268.044-.135.005-.017c-.108.286-.026.07-.048.129l.015-.034.029-.07.234-.56.469-1.125q.238-.408.463-.829l.224-.427.31-.439.625-.892c.229-.287.495-.55.729-.841a16.744,16.744,0,0,1,1.588-1.625,10.7,10.7,0,0,1,.893-.738c.308-.237.6-.492.921-.716l.982-.646a10.791,10.791,0,0,1,.993-.631c.688-.38,1.345-.811,2.063-1.124.7-.335,1.393-.692,2.114-.956.709-.29,1.4-.607,2.11-.831s1.385-.513,2.077-.687,1.351-.408,2-.581l1.907-.459c1.232-.256,2.371-.515,3.391-.685,1.021-.149,1.917-.315,2.659-.389s1.327-.166,1.728-.213l.615-.078-2.347-.014c-.747-.007-1.652.061-2.691.1-.52.009-1.069.087-1.651.134-.58.064-1.194.091-1.826.193l-1.976.29c-.68.117-1.376.275-2.1.416-.723.125-1.442.359-2.189.543s-1.491.446-2.252.694c-.767.229-1.513.558-2.277.865-.774.285-1.5.695-2.262,1.055a11.181,11.181,0,0,0-1.106.612l-1.093.65c-.359.227-.7.489-1.045.733a12.442,12.442,0,0,0-1.023.767A19.146,19.146,0,0,0,739.516,48c-.287.313-.588.613-.862.935L737.9,49.95l-.374.506-.312.542-.619,1.077q-.241.569-.477,1.13a10.991,10.991,0,0,0-.432,1.129,40.324,40.324,0,0,0-1.839,8.534,26.279,26.279,0,0,0,.005,6.173,5.058,5.058,0,0,0,.463,1.661c.1.172.257.272.359.217A.542.542,0,0,0,734.8,70.833Z" transform="translate(-733.668 -39.204)" fill="#ffe6d2" opacity="0.15"/>
            <path id="Trazado_104360" data-name="Trazado 104360" d="M723.633,59.906c-9.911-1.365-22.244,1.172-26.22,2.774-.326-4.014-.9-13.472.594-16.963,1.914-4.481,11.98-6.481,11.98-6.481,7.168,1.748,19.9,8.157,22.25,14.148a35.071,35.071,0,0,1,2.044,8.622A68.059,68.059,0,0,0,723.633,59.906Z" transform="translate(-676.432 -39.211)" fill="#ffe991" opacity="0.15"/>
            <path id="Trazado_104361" data-name="Trazado 104361" d="M702.81,78.4a7.563,7.563,0,0,1,1.671,5.527,28.611,28.611,0,0,1-7.833-1.981l-.075-1.247s-1.553-2.721-9.666-3.956C694.335,74.518,700.7,75.909,702.81,78.4Z" transform="translate(-639.958 -51.474)" fill="#c4a424"/>
            <path id="Trazado_104362" data-name="Trazado 104362" d="M691.652,73.185a.748.748,0,0,1,.293-.2c3.976-1.6,16.309-4.139,26.22-2.774,6.3.867,11.091,1.826,14.213,3.588-5.909-2.962-15.023-.493-18.36.827s-3.071.811-10.392-.651A38.943,38.943,0,0,0,691.652,73.185Z" transform="translate(-670.964 -49.517)" fill="#ffd947"/>
            <path id="Trazado_104363" data-name="Trazado 104363" d="M715.48,44.963c-3.472-.285-5.407,2.829-4.322,6.956s4.779,7.7,8.252,7.988,5.407-2.829,4.322-6.955S718.952,45.248,715.48,44.963Z" transform="translate(-675.352 -41.135)" fill="#b3009d"/>
          </g>
          <path id="Trazado_104364" data-name="Trazado 104364" d="M762.187,87.82c-2.8-1.01-3.7-5.757-2.06-6.9-1.467,2.566,2.766,6.334,5.285,3.073,3.056-3.347,10.26-4.606,16.66-5.718.105,1.178-.16,2.395-1.068,2.619a4.908,4.908,0,0,1-.367,4.47s.04-2.278-1.505-2.882c.222,1.714-1.726,4.249-4.157,1.954,0,0-1.924-2.7-3.817-2.292s-4.05,1.029-3.679,6.087a15.907,15.907,0,0,0,1.12,5.64,22.09,22.09,0,0,0,.619,3.422c.542,2.219-1.455,2.272-2.86,2.52a5.476,5.476,0,0,0,.991-3.144,3.578,3.578,0,0,1-2.685.033,2.754,2.754,0,0,0,2.569-2.14h0a2.87,2.87,0,0,1-2.955-1.142c-1.083.355-2.6-1.383-2.333-2.656,0,0-2.8.34-4.535-3.245C758.943,88.261,759.047,88.777,762.187,87.82Z" transform="translate(-698.823 -52.366)" fill="#4a3c40"/>
          <g id="Grupo_55061" data-name="Grupo 55061" transform="translate(56.023 205.232)">
            <path id="Trazado_104365" data-name="Trazado 104365" d="M766.91,353.653c-.31,3.89-13.354,5.941-29.136,4.58s-28.325-5.616-28.015-9.506l-1.29.157.04,4.533c-.375,4.712,12.621,10.513,29.027,11.927s30.631-1.742,30.387-6.807l.237-4.509Z" transform="translate(-708.461 -348.727)" fill="#594a42"/>
            <g id="Grupo_55060" data-name="Grupo 55060" transform="translate(0)" opacity="0.3">
              <path id="Trazado_104366" data-name="Trazado 104366" d="M708.477,348.884c-.375,4.712,12.683,9.682,29.165,11.1s30.149-1.247,30.525-5.959l-1.248-.375c-.31,3.89-13.354,5.941-29.136,4.581s-28.325-5.617-28.015-9.507Z" transform="translate(-708.469 -348.727)" fill="#fff"/>
            </g>
          </g>
          <g id="Grupo_55062" data-name="Grupo 55062" transform="translate(98.295 217.861)">
            <path id="Trazado_104367" data-name="Trazado 104367" d="M730.818,369.571a1.315,1.315,0,1,0,1.3-1.483A1.4,1.4,0,0,0,730.818,369.571Z" transform="translate(-730.818 -367.879)" fill="#1c1f23" opacity="0.2"/>
            <ellipse id="Elipse_4238" data-name="Elipse 4238" cx="1.304" cy="1.304" rx="1.304" ry="1.304" transform="translate(0)" fill="#a65b42"/>
            <path id="Trazado_104368" data-name="Trazado 104368" d="M731.581,368.539c0,.279.3.505.674.505s.673-.226.673-.505-.3-.506-.673-.506S731.581,368.26,731.581,368.539Z" transform="translate(-730.827 -367.861)" fill="#fff" opacity="0.2"/>
          </g>
          <g id="Grupo_55063" data-name="Grupo 55063" transform="translate(77.225 216.874)">
            <path id="Trazado_104369" data-name="Trazado 104369" d="M762.6,368.082a1.315,1.315,0,1,0,1.3-1.483A1.4,1.4,0,0,0,762.6,368.082Z" transform="translate(-762.596 -366.391)" fill="#1c1f23" opacity="0.2"/>
            <path id="Trazado_104370" data-name="Trazado 104370" d="M762.6,367.589a1.3,1.3,0,1,0,1.3-1.3A1.3,1.3,0,0,0,762.6,367.589Z" transform="translate(-762.596 -366.285)" fill="#a65b42"/>
            <path id="Trazado_104371" data-name="Trazado 104371" d="M763.359,367.05c0,.28.3.506.674.506s.674-.226.674-.506-.3-.505-.674-.505S763.359,366.771,763.359,367.05Z" transform="translate(-762.605 -366.373)" fill="#fff" opacity="0.2"/>
          </g>
          <g id="Grupo_55064" data-name="Grupo 55064" transform="translate(49.487 205.389)">
            <path id="Trazado_104372" data-name="Trazado 104372" d="M799.076,351.344c.839-1.229,3.486-1.027,4.31-1.027s.564-1.353.564-1.353h1.038s.032,2.814.032,3.631-1.62.9-2.575.991-2.141-.225-2.372.423l-1.446.474A3.575,3.575,0,0,1,799.076,351.344Z" transform="translate(-798.445 -348.964)" fill="#594a42"/>
            <path id="Trazado_104373" data-name="Trazado 104373" d="M800.122,354.008c-.55-1.175.26-2.13,1.678-2.332s3.231-.065,3.231-1.389l.006-1.323H804s.26,1.353-.564,1.353-3.472-.2-4.311,1.027a3.574,3.574,0,0,0-.448,3.139Z" transform="translate(-798.493 -348.964)" fill="#fff" opacity="0.2"/>
          </g>
          <g id="Grupo_55067" data-name="Grupo 55067" transform="translate(41.575 173.575)">
            <g id="Grupo_55066" data-name="Grupo 55066" transform="translate(11.02)">
              <g id="Grupo_55065" data-name="Grupo 55065" transform="translate(0)">
                <path id="Trazado_104374" data-name="Trazado 104374" d="M777.171,301.106l.629-.124,2.252.847,2.252.846.392.507.112,1.74-1.429,2.5-3-1.129-3-1.129.57-2.821Z" transform="translate(-764.041 -300.982)" fill="#f26522"/>
                <path id="Trazado_104375" data-name="Trazado 104375" d="M794.108,348.755l3,1.129,3,1.129-.136,1.666-.988.589-.577-.013-2.252-.847-2.252-.846-.443-.37-.355-1.094Z" transform="translate(-793.113 -317.079)" fill="#f26522"/>
                <path id="Trazado_104376" data-name="Trazado 104376" d="M784.009,314.315c2.791-7.425,3.643-7.031,3.643-7.031l3,1.129,3,1.129s.9.265-1.89,7.69-6.271,12.522-7.707,16.341a7.545,7.545,0,0,0-.739,3.464l-3-1.129-3-1.129a7.54,7.54,0,0,0,1.727-3.092C780.479,327.868,781.218,321.739,784.009,314.315Z" transform="translate(-776.322 -303.104)" fill="#1c7f98"/>
              </g>
              <path id="Trazado_104377" data-name="Trazado 104377" d="M779.937,330.275c1.435-3.82,2.883-9.682,5.674-17.106s3.19-7.2,3.19-7.2l.792-2.738.883-1.365.365-.223,1.089.41,1.088.409.128.408-.235,1.61-1.207,2.581s.448.1-2.343,7.52-5.563,12.789-7,16.608a14.783,14.783,0,0,0-.993,3.368l-.358,1.583-.64.719-.314.086-1.089-.409-1.089-.409-.179-.271-.009-.963.773-1.427A14.768,14.768,0,0,0,779.937,330.275Z" transform="translate(-775.919 -301.204)" fill="#fff" opacity="0.2"/>
            </g>
            <rect id="Rectángulo_7556" data-name="Rectángulo 7556" width="1.926" height="33.058" transform="translate(3.341 66.613) rotate(-159.401)" fill="#516a80"/>
            <rect id="Rectángulo_7557" data-name="Rectángulo 7557" width="1.926" height="1.493" transform="matrix(-0.936, -0.352, 0.352, -0.936, 14.446, 37.066)" opacity="0.15"/>
            <path id="Trazado_104378" data-name="Trazado 104378" d="M815.237,395.7l2.456.923.108,2.278-3.1,4.7-.9-.339-.9-.339.759-5.579Z" transform="translate(-812.895 -332.898)" fill="#516a80"/>
            <rect id="Rectángulo_7558" data-name="Rectángulo 7558" width="0.482" height="29.471" transform="translate(3.927 63.001) rotate(-159.401)" fill="#fff" opacity="0.2"/>
            <path id="Trazado_104379" data-name="Trazado 104379" d="M816.651,396.629l-.457,2.066-2.32,4.993.265.1,2.726-4.84.067-2.213Z" transform="translate(-812.674 -333.21)" opacity="0.15"/>
            <path id="Trazado_104380" data-name="Trazado 104380" d="M818.35,396.113l-1.017,1.855-1.543,5.285-.265-.1,1.137-5.437,1.408-1.709Z" transform="translate(-815.187 -333.001)" fill="#fff" opacity="0.2"/>
            <path id="Trazado_104381" data-name="Trazado 104381" d="M794.968,349.337l-.987.589-.577-.013-2.253-.847-2.252-.846-.443-.371-.355-1.093,1-1.343-.474,1.262,1.253.748,3.319,1.247,1.178.038s-.787-2.228,4.056-9.872h0a51.193,51.193,0,0,0-2.585,5.371,7.545,7.545,0,0,0-.739,3.464Z" transform="translate(-777.081 -313.737)" opacity="0.15"/>
          </g>
          <g id="Grupo_55068" data-name="Grupo 55068" transform="translate(49.67 209.843)">
            <path id="Trazado_104382" data-name="Trazado 104382" d="M794.481,356.272c.55,1.174,2.054,1.573,3.877.589s3.037-1.736,4.657-.637l-.2,2.605a3.984,3.984,0,0,1-1.141.779c-1.507-1.021-1.829.666-3.758,1.129a3.593,3.593,0,0,1-3.819-1.046,19.413,19.413,0,0,1-1.06-2.947Z" transform="translate(-793.035 -355.682)" fill="#594a42"/>
            <path id="Trazado_104383" data-name="Trazado 104383" d="M803.015,356.225c-1.62-1.1-2.835-.347-4.657.637s-3.327.585-3.877-.589l-1.446.474a3.239,3.239,0,0,0,2.921,2.083c2.228.058,3.648-1.556,4.659-1.8s1.359.232,1.359.232Z" transform="translate(-793.035 -355.682)" fill="#fff" opacity="0.2"/>
            <path id="Trazado_104384" data-name="Trazado 104384" d="M793.337,357.532l-.3,2.353,1.141-.779.2-2.605Z" transform="translate(-784.398 -355.958)" opacity="0.15"/>
          </g>
          <path id="Trazado_104385" data-name="Trazado 104385" d="M618.7,251.172c7.9-6.164,5.373-9.444,5.373-9.444a3.955,3.955,0,0,1,1.008,3.7C624.609,247.849,618.7,251.172,618.7,251.172Z" transform="translate(-449.927 -107.441)" opacity="0.15"/>
          <path id="Trazado_104386" data-name="Trazado 104386" d="M618.276,258.99c9.557-7.006,6.754-10.59,6.754-10.59a4.2,4.2,0,0,1,.968,4.063C625.43,255.213,618.276,258.99,618.276,258.99Z" transform="translate(-450.6 -109.69)" opacity="0.15"/>
          <path id="Trazado_104387" data-name="Trazado 104387" d="M618.088,267.306c12.211-7.006,8.629-10.591,8.629-10.591a3.682,3.682,0,0,1,1.236,4.064C627.227,263.529,618.088,267.306,618.088,267.306Z" transform="translate(-452.467 -112.491)" opacity="0.15"/>
          <g id="Grupo_55077" data-name="Grupo 55077" transform="translate(0 84.132)">
            <g id="Grupo_55069" data-name="Grupo 55069">
              <path id="Trazado_104388" data-name="Trazado 104388" d="M836.875,166.086c-17.851,0-43.569,61.573-43.569,61.573l24.3,9.446s11.136-20.112,19.271-20.112C850.424,216.993,852.416,166.086,836.875,166.086Z" transform="translate(-788.326 -166.086)" fill="#e5c23b"/>
              <path id="Trazado_104389" data-name="Trazado 104389" d="M828.815,244.279v0a41.186,41.186,0,0,0-2.9,3.085h0s-.826-9.563-4.871-12.4C821.046,234.963,827.547,236.359,828.815,244.279Z" transform="translate(-787.738 -189.294)" opacity="0.1"/>
              <path id="Trazado_104390" data-name="Trazado 104390" d="M853.347,166.086l-.869.048a10.483,10.483,0,0,0-2.385.582,16.387,16.387,0,0,0-3.377,1.773,29.953,29.953,0,0,0-3.848,3.12,67.809,67.809,0,0,0-8.035,9.445c-2.667,3.68-5.276,7.77-7.734,11.945-4.922,8.353-9.254,17.036-12.353,23.609s-4.968,11.05-4.968,11.05l1.815-2.842c.56-.91,1.274-2,2.048-3.263s1.685-2.672,2.629-4.227l3.094-4.987c1.081-1.773,2.241-3.63,3.454-5.536,1.179-1.923,2.418-3.9,3.7-5.877s2.546-4.008,3.876-5.985q.989-1.489,2-2.947l1.992-2.9,1.969-2.822c.646-.927,1.276-1.847,1.917-2.729,1.242-1.794,2.454-3.5,3.6-5.1s2.262-3.071,3.346-4.345c1.062-1.3,2.138-2.34,3.055-3.275l2.418-2.472c.176-.173.352-.334.516-.5.168-.145.33-.292.484-.442s.292-.262.429-.374l.386-.336A9.027,9.027,0,0,0,853.347,166.086Z" transform="translate(-804.797 -166.086)" fill="#fff" opacity="0.2"/>
              <ellipse id="Elipse_4239" data-name="Elipse 4239" cx="13.035" cy="13.035" rx="13.035" ry="13.035" transform="translate(10.316 83.425) rotate(-113.311)" fill="#ef5a32"/>
            </g>
            <g id="Grupo_55070" data-name="Grupo 55070" transform="translate(1.429 50.596)">
              <ellipse id="Elipse_4240" data-name="Elipse 4240" cx="13.035" cy="13.035" rx="13.035" ry="13.035" transform="matrix(-0.232, -0.973, 0.973, -0.232, 6.04, 31.401)" fill="#fcbd92"/>
            </g>
            <path id="Trazado_104391" data-name="Trazado 104391" d="M837.392,259.449a13.035,13.035,0,1,1,25.915,2.01c1.16,6.264.557,9.133-3.891,27.339-3.97,16.249-3.18,26.965-1.988,32.3l-10.823,2.191C838.278,297.281,835.871,271.238,837.392,259.449Z" transform="translate(-833.298 -193.153)" fill="#fcbd92"/>
            <path id="Trazado_104392" data-name="Trazado 104392" d="M847.684,269.105s-.009.241-.027.694-.062,1.114-.127,1.932a25.764,25.764,0,0,1-.418,2.89c-.21,1.093-.581,2.3-.969,3.622s-.918,2.75-1.438,4.271-1.093,3.13-1.693,4.8l-1.762,5.17c-.313.88-.6,1.774-.879,2.672l-.843,2.756c-.14.444-.274.914-.4,1.4l-.394,1.437c-.271.963-.45,1.906-.675,2.851s-.355,1.9-.533,2.829c-.16.936-.247,1.878-.365,2.795-.074.924-.137,1.837-.173,2.73,0,.9-.033,1.774.009,2.631a47.961,47.961,0,0,0,.428,4.826c.107.745.222,1.457.351,2.134a14.157,14.157,0,0,0,.444,1.91,11.34,11.34,0,0,0,1.4,2.991,8.225,8.225,0,0,0,.8,1.032,6.571,6.571,0,0,0,.7.718,5.323,5.323,0,0,0,.688.554l-.136-.665c-.094-.432-.2-1.073-.325-1.89s-.239-1.815-.328-2.963c-.044-.574-.091-1.185-.112-1.83-.036-.645-.052-1.323-.058-2.032-.025-1.417.019-2.952.1-4.574q.085-1.214.172-2.492c.087-.847.158-1.716.263-2.6a106.539,106.539,0,0,1,1.878-10.934c.417-1.843.865-3.678,1.308-5.484l1.274-5.31c.813-3.447,1.533-6.677,1.972-9.478a33.2,33.2,0,0,0,.378-3.846,22.394,22.394,0,0,0-.121-2.976c-.089-.822-.189-1.464-.267-1.9S847.684,269.105,847.684,269.105Z" transform="translate(-817.675 -200.799)" fill="#fff" opacity="0.2"/>
            <path id="Trazado_104393" data-name="Trazado 104393" d="M837.392,259.449a13.035,13.035,0,1,1,25.915,2.01,25.124,25.124,0,0,1,.505,5.524c-1.974-8.578-6.732-11.284-15.059-12.367-9.846-1.28-8.815,41.957-3.279,65.006C838.064,294.863,835.943,270.684,837.392,259.449Z" transform="translate(-833.298 -193.153)" opacity="0.05"/>
            <g id="Grupo_55071" data-name="Grupo 55071" transform="translate(3.751 46.953)">
              <path id="Trazado_104394" data-name="Trazado 104394" d="M852.429,259.419c-.01-7.974-19.46-14.493-25.2-7.88a5.544,5.544,0,0,1,0-6.966c.451-2.377-.009-6.922,6.43-7.612s22.2,4.514,25.848,13.675c1.065,3.559.386,5.227-.674,5.607C858.531,258.668,852.429,259.419,852.429,259.419Z" transform="translate(-826 -236.9)" fill="#ffd947"/>
              <path id="Trazado_104395" data-name="Trazado 104395" d="M826.808,244.574l.136-.454.336-1.3a9.446,9.446,0,0,1,.652-1.892,4.879,4.879,0,0,1,1.51-1.823,5.66,5.66,0,0,1,2.584-.953,5.253,5.253,0,0,1,.774-.08l.4-.027a1.3,1.3,0,0,1,.171-.008h.221a7.831,7.831,0,0,1,.825.036c.259.019.554.06.833.089a25.059,25.059,0,0,1,3.515.7c1.189.324,2.393.684,3.571,1.123s2.333.928,3.454,1.432c.56.255,1.105.527,1.64.8s1.068.53,1.577.81,1,.567,1.483.846.951.554,1.4.832c.885.576,1.7,1.141,2.429,1.7s1.315,1.15,1.873,1.65c.541.512,1.038.955,1.46,1.336s.777.69,1.024.909c.123.11.231.191.3.247l.109.085-.191-.43a12.146,12.146,0,0,0-.6-1.185c-.145-.247-.321-.511-.5-.8-.2-.282-.417-.585-.66-.9a19.02,19.02,0,0,0-1.813-1.968,27.23,27.23,0,0,0-5.436-3.9,38.858,38.858,0,0,0-7.053-3.027,31.341,31.341,0,0,0-7.519-1.5,14.1,14.1,0,0,0-1.805.018c-.3.012-.582.073-.868.112a5.888,5.888,0,0,0-.838.162,6.4,6.4,0,0,0-2.83,1.354,5.236,5.236,0,0,0-1.459,2.211,10.009,10.009,0,0,0-.456,2.01c-.074.568-.131,1.014-.171,1.317S826.808,244.574,826.808,244.574Z" transform="translate(-825.579 -236.902)" fill="#fff" opacity="0.2"/>
              <path id="Trazado_104396" data-name="Trazado 104396" d="M862.792,263.916l.05-.347c.016-.113.036-.253.059-.417,0-.168,0-.367-.01-.6a6.6,6.6,0,0,0-.322-1.6,8.871,8.871,0,0,0-.91-1.947,14.754,14.754,0,0,0-1.56-2,19.593,19.593,0,0,0-2.063-1.935,25.591,25.591,0,0,0-2.493-1.69,26.978,26.978,0,0,0-2.77-1.449,17.2,17.2,0,0,0-2.966-1.094,13.031,13.031,0,0,0-1.54-.278c-.516-.065-1.024-.124-1.537-.137-1.014-.053-2.02-.048-2.986-.038-.969.048-1.974-.266-2.931-.158a3.557,3.557,0,0,0-.68.139,3.676,3.676,0,0,0-.621.3,4.2,4.2,0,0,0-1.01.868,4.348,4.348,0,0,0-.7,1.032c-.091.174-.162.357-.23.521-.054.19-.109.361-.141.538a4.111,4.111,0,0,0-.017,1.717,4.309,4.309,0,0,0,.186.658l.241-.243.29-.292c.116-.112.271-.217.434-.347l.26-.2.309-.187a5.2,5.2,0,0,1,.713-.388,6.294,6.294,0,0,1,.853-.354l.473-.166.507-.131a13.874,13.874,0,0,1,2.275-.362,19.169,19.169,0,0,1,2.572.009,23,23,0,0,1,2.728.355,26.263,26.263,0,0,1,2.755.693,24.628,24.628,0,0,1,2.664.985,23.578,23.578,0,0,1,2.457,1.238,18.137,18.137,0,0,1,2.124,1.449,13.445,13.445,0,0,1,1.681,1.575,9.078,9.078,0,0,1,1.115,1.593,6.059,6.059,0,0,1,.557,1.39c.045.2.086.385.121.543.013.161.023.3.032.41Z" transform="translate(-836.376 -241.384)" fill="#1c1f23" opacity="0.2"/>
            </g>
            <g id="Grupo_55076" data-name="Grupo 55076" transform="translate(11.548 124.434)">
              <g id="Grupo_55072" data-name="Grupo 55072" transform="translate(0 21.601)">
                <path id="Trazado_104397" data-name="Trazado 104397" d="M855.446,387.154c-.694.918.059,1.505,1.032,3.016s1.593,4.57,2.707,5.369,3.045-.7,2.881-1.9-1.8-2.612-2.315-4.041-.5-2.55-1.477-2.975A2.166,2.166,0,0,0,855.446,387.154Z" transform="translate(-855.176 -386.334)" fill="#fcbd92"/>
                <path id="Trazado_104398" data-name="Trazado 104398" d="M850.85,399.059a30.566,30.566,0,0,1,2.888,3.309c.54.707,1.186,1.27,2.325.479s.86-1.881.082-2.665-2.178-2.01-2.457-2.842a1.511,1.511,0,0,0-2.383-.686C850.269,397.387,849.765,398.031,850.85,399.059Z" transform="translate(-846.654 -389.698)" fill="#fcbd92"/>
                <path id="Trazado_104399" data-name="Trazado 104399" d="M846.333,405.482a10.342,10.342,0,0,1,1.807,1.72c.588.589.869.945,1.589.646s1.614-1,1.508-1.815-.174-1.089-.371-1.307a4.687,4.687,0,0,0-1.376-.839c-.733-.339-1.085-.944-2.03-.57S845.476,404.9,846.333,405.482Z" transform="translate(-838.271 -392.017)" fill="#fcbd92"/>
                <path id="Trazado_104400" data-name="Trazado 104400" d="M847.108,407.194c-.188-.461.835-1.5,1.148-1.458.731.517,1.638,1.334,1.638,1.334a3.859,3.859,0,0,0-1.4,1.444C847.9,408.008,847.108,407.194,847.108,407.194Z" transform="translate(-837.629 -392.871)" fill="#fff" opacity="0.15"/>
              </g>
              <path id="Trazado_104401" data-name="Trazado 104401" d="M850.63,353.756a14.162,14.162,0,0,0-6.055,2.038,6.147,6.147,0,0,0-3.093,4.436c-.689,4.489-1.737,13.777-1.355,16.217,3.011,1.543,16.824-4.515,16.824-4.515S857.273,361.518,850.63,353.756Z" transform="translate(-840.021 -353.756)" fill="#fcbd92"/>
              <g id="Grupo_55073" data-name="Grupo 55073" transform="translate(2.232 19.99)">
                <path id="Trazado_104402" data-name="Trazado 104402" d="M850.679,384.838c-.79,1.044.067,1.713,1.174,3.433s1.813,5.2,3.082,6.111,3.466-.8,3.279-2.16-2.045-2.973-2.636-4.6-.566-2.9-1.681-3.386A2.466,2.466,0,0,0,850.679,384.838Z" transform="translate(-850.372 -383.904)" fill="#fcbd92"/>
                <path id="Trazado_104403" data-name="Trazado 104403" d="M845.447,398.388a34.915,34.915,0,0,1,3.287,3.767c.615.806,1.349,1.447,2.646.546s.979-2.142.094-3.033-2.479-2.288-2.8-3.236a1.719,1.719,0,0,0-2.712-.781C844.785,396.486,844.212,397.219,845.447,398.388Z" transform="translate(-840.67 -387.734)" fill="#fcbd92"/>
                <path id="Trazado_104404" data-name="Trazado 104404" d="M840.3,405.7a11.825,11.825,0,0,1,2.058,1.959c.669.67.989,1.076,1.808.735s1.837-1.142,1.717-2.066-.2-1.241-.422-1.487a5.337,5.337,0,0,0-1.566-.956c-.834-.387-1.235-1.074-2.311-.649S839.33,405.039,840.3,405.7Z" transform="translate(-831.127 -390.373)" fill="#fcbd92"/>
                <path id="Trazado_104405" data-name="Trazado 104405" d="M841.187,407.648c-.214-.525.951-1.7,1.306-1.659.832.587,1.865,1.518,1.865,1.518a4.394,4.394,0,0,0-1.591,1.643C842.091,408.577,841.187,407.648,841.187,407.648Z" transform="translate(-830.397 -391.346)" fill="#fff" opacity="0.15"/>
                <path id="Trazado_104406" data-name="Trazado 104406" d="M857.534,399.729a1.833,1.833,0,0,1-.556-.586,5.452,5.452,0,0,1-.372-.718,16.784,16.784,0,0,0-.794-1.525c-.279-.5-.6-.98-.92-1.461-.163-.239-.329-.481-.512-.711l-.277-.346-.143-.173-.11-.155-.239-.184,0-.009h0l.08.062v0l-.029-.032-.117-.127-.058-.064a.2.2,0,0,1,0-.028.3.3,0,0,0,0-.044c-.025-.08-.129-.247-.19-.408s-.141-.347-.209-.532-.133-.386-.2-.591c-.119-.412-.275-.823-.414-1.262a11.418,11.418,0,0,0-.509-1.328c-.105-.22-.216-.453-.345-.676a7.05,7.05,0,0,0-.447-.692,5.793,5.793,0,0,0-.488-.584l-.5-.517a5.5,5.5,0,0,0-.858-.789,2.4,2.4,0,0,1-.383-.217,1.433,1.433,0,0,1-.3-.717,1.518,1.518,0,0,0-.288.613,1.234,1.234,0,0,0,.083.67,6.529,6.529,0,0,0,.709,1.166c.261.375.526.746.76,1.137a9.673,9.673,0,0,1,.605,1.225c.359.839.659,1.7,1.013,2.542a10.836,10.836,0,0,0,.592,1.232,4.163,4.163,0,0,0,.382.566,1.854,1.854,0,0,0,.506.453h0c.185.207.4.389.587.59l.572.605q.562.615,1.093,1.256t1.04,1.3A2.63,2.63,0,0,0,857.534,399.729Z" transform="translate(-848.326 -384.379)" fill="#fff" opacity="0.15"/>
              </g>
              <path id="Trazado_104407" data-name="Trazado 104407" d="M823.349,353.756c1.455.489,2.438.195,4.33,2.049a9.467,9.467,0,0,0,2.372,1.31c1.541.539,2.442-.106,2.958,1.4,1.026,2.984,2.086,4.067,3.255,4.517s1.4.98,1.4.98a11.1,11.1,0,0,0,3.468-.278,3.1,3.1,0,0,1-.378,4.41,6.013,6.013,0,0,1-5.6,1.2c-1.284-.582-2.441-1.258-3.286-4.092-1.146-2.1-2.6-.361-2.718,1.254-.089,1.2-6.339-.737-7.069-3.956C821.9,361.748,820.644,357.066,823.349,353.756Z" transform="translate(-812.741 -353.756)" fill="#fcbd92"/>
              <path id="Trazado_104408" data-name="Trazado 104408" d="M824.819,369.166a5.363,5.363,0,0,0-1.247,2.6,12.186,12.186,0,0,0,2.766.125,10.1,10.1,0,0,1,1.414-2.847C826.655,369.17,824.819,369.166,824.819,369.166Z" transform="translate(-799.898 -358.908)" fill="#fff" opacity="0.15"/>
              <g id="Grupo_55074" data-name="Grupo 55074" transform="translate(5.197 18.165)">
                <path id="Trazado_104409" data-name="Trazado 104409" d="M844.624,383.369c-.922,1.212.6,2.409,1.66,4.25s2.128,5.607,2.87,6.912,1.616,1.089,3.143-.116,1.065-1.437-.6-5.54c-.815-2.006-.77-5.312-1.21-6.573S847.078,380.143,844.624,383.369Z" transform="translate(-844.339 -381.152)" fill="#fcbd92"/>
                <path id="Trazado_104410" data-name="Trazado 104410" d="M839.884,400.262a38.819,38.819,0,0,1,3.047,4.66c.555.983,1.266,1.8,2.835,1.008s1.409-2.212.57-3.332-2.382-2.9-2.587-4a1.915,1.915,0,0,0-2.872-1.278C839.446,398.062,838.7,398.782,839.884,400.262Z" transform="translate(-834.729 -386.51)" fill="#fcbd92"/>
                <path id="Trazado_104411" data-name="Trazado 104411" d="M835.666,409.422a13.152,13.152,0,0,1,1.642,2.7c.524.916.75,1.445,1.729,1.317s2.308-.692,2.448-1.721.148-1.391-.021-1.722a5.94,5.94,0,0,0-1.4-1.484c-.785-.658-1.016-1.514-2.3-1.37S834.811,408.428,835.666,409.422Z" transform="translate(-826.796 -389.905)" fill="#fcbd92"/>
                <path id="Trazado_104412" data-name="Trazado 104412" d="M836.98,412.156c-.076-.627,1.518-1.552,1.888-1.4.723.874,1.562,2.175,1.562,2.175a4.893,4.893,0,0,0-2.189,1.3C837.682,413.417,836.98,412.156,836.98,412.156Z" transform="translate(-826.66 -391.121)" fill="#fff" opacity="0.15"/>
                <path id="Trazado_104413" data-name="Trazado 104413" d="M853.232,401.795a.835.835,0,0,1-.1-.447l-.025-.052c-.084-.243-.181-.464-.268-.684s-.163-.481-.249-.719a14.3,14.3,0,0,0-.559-1.427c-.207-.466-.422-.931-.648-1.394s-.458-.931-.733-1.38l-.257-.243c0-.034-.079-.152-.145-.324,0-.007-.035-.074-.009-.034l-.039-.1-.076-.192-.093-.314-.452-1.527c-.152-.526-.29-1.067-.472-1.6a16.626,16.626,0,0,0-.581-1.617,9.35,9.35,0,0,0-.849-1.628l-.067-.1a1.271,1.271,0,0,0-.078-.111l-.124-.167-.288-.378c-.192-.249-.4-.45-.6-.659-.4-.4-.747-.79-1.05-1.062-.169-.14-.31-.229-.467-.361a1.218,1.218,0,0,1-.359-.78,1.352,1.352,0,0,0-.279.766,1.741,1.741,0,0,0,.2.8,10.057,10.057,0,0,0,.894,1.4,14.512,14.512,0,0,1,.9,1.392,15.035,15.035,0,0,1,.706,1.5c.423,1.023.794,2.066,1.18,3.1.193.519.389,1.037.609,1.545a3.171,3.171,0,0,0,.914,1.362h0c.6.792,1.155,1.622,1.683,2.465q.4.633.773,1.278a14.534,14.534,0,0,0,.79,1.266h0A.924.924,0,0,0,853.232,401.795Z" transform="translate(-844.362 -382.278)" fill="#fff" opacity="0.15"/>
              </g>
              <g id="Grupo_55075" data-name="Grupo 55075" transform="translate(10.028 16.784)">
                <path id="Trazado_104414" data-name="Trazado 104414" d="M845.733,381.349c-.391,4.576.525,6.723.8,9.562s-4.776,3.354-5.087,1.053a14.486,14.486,0,0,0-.936-4.273c-.815-2.608-1.04-3.931-1.589-5.245s1.633-2.671,3.448-3.085S845.972,378.548,845.733,381.349Z" transform="translate(-838.831 -379.069)" fill="#fcbd92"/>
                <path id="Trazado_104415" data-name="Trazado 104415" d="M836.57,395.006c2-1.343,3.729-.564,3.958,1.011a10.834,10.834,0,0,0,1.73,3.905c.832,1.219.875,1.844-.509,2.971s-2.435.807-3.083-.792a12.761,12.761,0,0,0-2.559-4.172C835.222,397.147,835.167,395.948,836.57,395.006Z" transform="translate(-832.908 -384.208)" fill="#fcbd92"/>
                <path id="Trazado_104416" data-name="Trazado 104416" d="M837.561,406.506A18.421,18.421,0,0,1,835.237,404a2.253,2.253,0,0,0-3.388.012,1.949,1.949,0,0,0,.325,2.923c.428.119.76.414,1.427,1.552s.748,1.546,1.316,1.709,1.78.046,2.784-1.67A2.863,2.863,0,0,0,837.561,406.506Z" transform="translate(-825.151 -387.213)" fill="#fcbd92"/>
                <path id="Trazado_104417" data-name="Trazado 104417" d="M834.683,407.232c-1.2,0-1.564,1.471-1.564,1.471l1.654,2.385a18.981,18.981,0,0,1,1.821-1.779C836.176,408.046,835.26,407.233,834.683,407.232Z" transform="translate(-825.098 -388.559)" fill="#fff" opacity="0.15"/>
                <path id="Trazado_104418" data-name="Trazado 104418" d="M846.164,401.5a4.29,4.29,0,0,0-.766-1.572,1.531,1.531,0,0,0-.426-.328c-.028-.019-.108-.048-.095-.05-.06-.029,0-.013,0-.022s-.031-.053-.052-.092a2.216,2.216,0,0,1-.2-.578l-.115-.184a2.4,2.4,0,0,1-.219-.487c-.03-.09-.057-.183-.081-.278l-.087-.33c-.137-.479-.284-.935-.454-1.4a9.948,9.948,0,0,0-.6-1.363,9.75,9.75,0,0,0-.826-1.346l-.426-.317c-.092-.073-.133-.136-.133-.165s.027-.023.039-.053l-.04-.751c-.015-.259-.018-.515-.046-.809a7.631,7.631,0,0,0-.154-.959l-.207-.829c-.062-.263-.157-.511-.237-.762l-.247-.743c-.153-.493-.371-.953-.547-1.445s-.407-.965-.615-1.464a6.294,6.294,0,0,0-.8-1.491,2.424,2.424,0,0,0-.3-.34l-.021-.021c0,.007-.015-.029,0,.013l-.009-.01-.038-.038c-.022-.019-.029,0-.048-.007a.724.724,0,0,1-.12-.063,1.166,1.166,0,0,1-.373-.71,1.3,1.3,0,0,0-.2.751,3.105,3.105,0,0,0,.24.748c.184.493.332,1,.473,1.5.28,1.014.554,2.03.865,3.034l.468,1.507a8.835,8.835,0,0,1,.369,1.531l.2,1.565a1.545,1.545,0,0,0,.948,1.175h0a12.049,12.049,0,0,1,1.506,2.313c.212.41.41.827.589,1.251a3.858,3.858,0,0,0,.67,1.2h0a2.128,2.128,0,0,0,.44.689.7.7,0,0,0,.35.2,1.223,1.223,0,0,1,.355.2A5.347,5.347,0,0,1,846.164,401.5Z" transform="translate(-837.715 -380.228)" fill="#fff" opacity="0.15"/>
              </g>
            </g>
            <path id="Trazado_104419" data-name="Trazado 104419" d="M856.614,282.26c1.8-1.919,8.513-3.732,13.456-2.239C864.008,276.12,857.766,279.034,856.614,282.26Z" transform="translate(-852.576 -203.846)" opacity="0.15"/>
            <path id="Trazado_104420" data-name="Trazado 104420" d="M857.217,292.365c1.629-1.737,8.181-3.272,12.658-1.92C864.385,286.913,858.261,289.444,857.217,292.365Z" transform="translate(-852.78 -207.408)" opacity="0.15"/>
            <path id="Trazado_104421" data-name="Trazado 104421" d="M858.473,301.569c1.554-1.437,7.01-2.465,11.282-1.347C864.517,297.3,859.469,299.153,858.473,301.569Z" transform="translate(-853.493 -210.78)" opacity="0.15"/>
            <path id="Trazado_104422" data-name="Trazado 104422" d="M826.444,338.86c6.838-1.926,9.872,2.456,9.872,2.456s-.819.481-.458,6a1.137,1.137,0,0,1,.349.734l0,0a6.918,6.918,0,0,1,2.735,1.753,8.267,8.267,0,0,0,2.005,1.1,4.522,4.522,0,0,0,1.091.211,2.608,2.608,0,0,1,2.579,1.906c.991,2.883,1.9,3.553,2.576,3.813a4.622,4.622,0,0,1,1.519.9c.678-.009,1.588-.037,2.205-.1a1.416,1.416,0,0,0,.261-.073l.7-.31.558.521a3.693,3.693,0,0,1,1.119,2.669,4.746,4.746,0,0,1-1.479,3.415,7.266,7.266,0,0,1-4.881,1.79,4.929,4.929,0,0,1-2-.37c-1.492-.676-2.911-1.546-3.878-4.686a1.865,1.865,0,0,0-.117-.172,2.054,2.054,0,0,0-.367.931,28.944,28.944,0,0,1,.477,5.343l.028,0a5.778,5.778,0,0,1,0,1.111,23.034,23.034,0,0,0,.408,6.76c.147.825.3,1.679.387,2.594a2.388,2.388,0,0,1,.007.324,10.84,10.84,0,0,0,1.449,3.007,6.743,6.743,0,0,1,.439.725,2.6,2.6,0,0,1,.27.308,17.41,17.41,0,0,0,2.209,2.372l.146.144.088.186a3.986,3.986,0,0,1,.164,2.951l-.031.076-.042.07a4.256,4.256,0,0,1-2.785,2.233,4.159,4.159,0,0,1-3.2,1.934,3.244,3.244,0,0,1-.422.029,2.649,2.649,0,0,1-2.364-1.745l-.1-.172c-.164-.287-.3-.558-.436-.826a8.472,8.472,0,0,0-.7-1.217,5.418,5.418,0,0,1-.815-.718l-.1-.1a4.646,4.646,0,0,1-.751.4,2.347,2.347,0,0,1-.911.2,2.522,2.522,0,0,1-1.831-.983l-.109-.111c-.187-.188-.35-.369-.511-.548a5.72,5.72,0,0,0-.983-.93,3.324,3.324,0,0,1-1.391-1.153,29.522,29.522,0,0,0-2.77-3.175l-.029-.029-.032-.023c-.938-.672-1.47-2.052-2.034-3.513a13.475,13.475,0,0,0-.971-2.168c-.187-.29-.365-.544-.525-.772-.583-.833-1.185-1.693-.881-2.736-.3-3.048.756-12.109,1.393-16.255.015-.1.044-.2.064-.3l-.011.006a2.458,2.458,0,0,1-.52-2.249,62.257,62.257,0,0,1-3.256-7.136S819.606,340.786,826.444,338.86Z" transform="translate(-811.676 -224.138)" fill="#f15a29" opacity="0.5" style="mix-blend-mode: hard-light;isolation: isolate"/>
          </g>
          <g id="Grupo_55078" data-name="Grupo 55078" transform="translate(42.892 81.409)">
            <path id="Trazado_104423" data-name="Trazado 104423" d="M785.529,265.007c3.59,0,5.532-5.274,6.69-9.293,1.977-6.866,3.6-17.933,4.818-32.9a353.893,353.893,0,0,0,1.242-41.247c-.759-18.147-3.553-18.375-4.746-18.472a1.156,1.156,0,0,0-.239,2.3c.2.15,2.168,2.042,2.717,17.318a359.106,359.106,0,0,1-1.277,39.915c-1.208,14.81-2.8,25.726-4.736,32.444-2.029,7.044-3.858,7.662-4.586,7.618a1.156,1.156,0,1,0-.187,2.3C785.328,265,785.43,265.007,785.529,265.007Z" transform="translate(-775.818 -162.354)" fill="#747481"/>
            <path id="Trazado_104424" data-name="Trazado 104424" d="M791.69,264.65c3.885,0,8.345-4.887,8.345-43a354,354,0,0,0-2.114-41.212c-2.231-18.026-5.034-18.026-6.231-18.026a1.156,1.156,0,0,0-.052,2.311c.209.134,2.327,1.86,4.114,17.04a359.093,359.093,0,0,1,1.971,39.888c0,37.753-4.618,40.686-6.034,40.686a1.156,1.156,0,0,0,0,2.311Z" transform="translate(-781.618 -162.125)" fill="#a6a6ae"/>
            <path id="Trazado_104425" data-name="Trazado 104425" d="M783.752,265.474c3.885,0,8.345-4.887,8.345-43a354.012,354.012,0,0,0-2.114-41.212c-2.231-18.026-5.033-18.026-6.231-18.026a1.156,1.156,0,0,0-.052,2.31c.209.134,2.327,1.86,4.114,17.04a359.068,359.068,0,0,1,1.971,39.888c0,37.753-4.618,40.686-6.034,40.686a1.156,1.156,0,0,0,0,2.311Z" transform="translate(-768.417 -162.403)" fill="#92929c"/>
            <path id="Trazado_104426" data-name="Trazado 104426" d="M790.179,264.716c3.588,0,5.531-5.273,6.688-9.293,1.977-6.866,3.6-17.933,4.818-32.9a354.057,354.057,0,0,0,1.243-41.247c-.759-18.147-3.552-18.375-4.745-18.472a1.156,1.156,0,0,0-.239,2.3c.2.151,2.167,2.042,2.715,17.318a359.136,359.136,0,0,1-1.277,39.915c-1.207,14.81-2.8,25.726-4.736,32.444-2.028,7.045-3.863,7.669-4.586,7.618a1.155,1.155,0,0,0-.187,2.3C789.976,264.713,790.078,264.716,790.179,264.716Z" transform="translate(-783.548 -162.256)" fill="#747481"/>
            <path id="Trazado_104427" data-name="Trazado 104427" d="M793.468,264.182c3.589,0,5.531-5.274,6.689-9.294,1.977-6.865,3.6-17.933,4.818-32.9a354.013,354.013,0,0,0,1.242-41.247c-.759-18.147-3.553-18.375-4.745-18.472a1.156,1.156,0,0,0-.239,2.3c.2.15,2.168,2.041,2.716,17.317a358.935,358.935,0,0,1-1.277,39.915c-1.207,14.811-2.8,25.727-4.735,32.444-2.028,7.045-3.862,7.669-4.585,7.618a1.156,1.156,0,0,0-.188,2.3C793.266,264.178,793.368,264.182,793.468,264.182Z" transform="translate(-789.019 -162.076)" fill="#868691"/>
            <path id="Trazado_104428" data-name="Trazado 104428" d="M798.115,263.892c3.59,0,5.532-5.274,6.69-9.294,1.977-6.865,3.6-17.933,4.818-32.9a353.875,353.875,0,0,0,1.242-41.247c-.759-18.147-3.553-18.375-4.745-18.472a1.156,1.156,0,0,0-.239,2.3c.2.15,2.168,2.042,2.717,17.318a359.149,359.149,0,0,1-1.277,39.915c-1.208,14.81-2.8,25.726-4.736,32.444-2.028,7.044-3.866,7.664-4.586,7.618a1.155,1.155,0,1,0-.187,2.3C797.914,263.888,798.016,263.892,798.115,263.892Z" transform="translate(-796.749 -161.978)" fill="#92929c"/>
          </g>
        </g>
      </g>
    </g>
    <path id="Trazado_105709" data-name="Trazado 105709" d="M20,0H294a20,20,0,0,1,20,20v91H0V20A20,20,0,0,1,20,0Z" transform="translate(327.008 2101.354)" fill="#3c0061"/>
    <path id="Trazado_105706" data-name="Trazado 105706" d="M17.18,19.813H11.543L10.559,23H6.164L12.422,5.938h3.867L22.594,23H18.176Zm-4.652-3.176H16.2l-1.84-5.918Zm17.766,2.8a.912.912,0,0,0-.527-.809,8.021,8.021,0,0,0-2-.633,9.138,9.138,0,0,1-2.437-.861,4.083,4.083,0,0,1-1.465-1.295,3.092,3.092,0,0,1-.5-1.746A3.5,3.5,0,0,1,24.8,11.217a5.938,5.938,0,0,1,3.773-1.131A6.579,6.579,0,0,1,32.6,11.223a3.555,3.555,0,0,1,1.523,2.988H30.164q0-1.523-1.605-1.523a1.591,1.591,0,0,0-1.043.346,1.07,1.07,0,0,0-.422.861.982.982,0,0,0,.516.855,4.872,4.872,0,0,0,1.646.539,14.228,14.228,0,0,1,1.986.5q2.859.984,2.859,3.527a3.321,3.321,0,0,1-1.541,2.824,6.758,6.758,0,0,1-3.99,1.09,6.9,6.9,0,0,1-2.906-.586,4.86,4.86,0,0,1-1.992-1.594,3.609,3.609,0,0,1-.715-2.121h3.691a1.526,1.526,0,0,0,.586,1.283,2.41,2.41,0,0,0,1.441.4,1.9,1.9,0,0,0,1.213-.328A1.05,1.05,0,0,0,30.293,19.438Zm17.426-2.684a7.646,7.646,0,0,1-1.33,4.717A4.264,4.264,0,0,1,42.8,23.234a3.655,3.655,0,0,1-2.871-1.277v5.918H35.977V10.32h3.691l.117,1.172a3.656,3.656,0,0,1,2.988-1.406,4.3,4.3,0,0,1,3.645,1.729,7.741,7.741,0,0,1,1.3,4.752Zm-3.949-.246q0-3.375-1.969-3.375a1.859,1.859,0,0,0-1.875,1.008v4.992a1.919,1.919,0,0,0,1.9,1.055q1.887,0,1.945-3.258Zm11.824,6.727a6.518,6.518,0,0,1-4.723-1.74,6.009,6.009,0,0,1-1.8-4.529v-.328a7.787,7.787,0,0,1,.721-3.434,5.274,5.274,0,0,1,2.1-2.3,6.35,6.35,0,0,1,3.281-.814,5.489,5.489,0,0,1,4.219,1.658,6.516,6.516,0,0,1,1.547,4.623V17.9H53.086a2.846,2.846,0,0,0,.926,1.676,2.755,2.755,0,0,0,1.852.609,3.549,3.549,0,0,0,2.93-1.312l1.8,2.133a5.045,5.045,0,0,1-2.092,1.623A7.069,7.069,0,0,1,55.594,23.234Zm-.445-10.1q-1.734,0-2.062,2.3H57.07v-.3a1.956,1.956,0,0,0-.48-1.471A1.912,1.912,0,0,0,55.148,13.133Zm12.738,7.055a1.756,1.756,0,0,0,1.289-.451,1.654,1.654,0,0,0,.445-1.26h3.7A4.384,4.384,0,0,1,71.83,21.9a5.558,5.558,0,0,1-3.85,1.336A5.627,5.627,0,0,1,63.621,21.5a6.834,6.834,0,0,1-1.594-4.8v-.164a7.723,7.723,0,0,1,.709-3.393,5.162,5.162,0,0,1,2.045-2.262,6.1,6.1,0,0,1,3.164-.791,5.488,5.488,0,0,1,3.926,1.371,4.863,4.863,0,0,1,1.453,3.715h-3.7a2.168,2.168,0,0,0-.48-1.512,1.658,1.658,0,0,0-1.289-.527q-1.535,0-1.793,1.957a13.809,13.809,0,0,0-.082,1.711,5.424,5.424,0,0,0,.457,2.648A1.582,1.582,0,0,0,67.887,20.188ZM79.594,7.168V10.32H81.68v2.742H79.594v5.8a1.481,1.481,0,0,0,.258,1,1.383,1.383,0,0,0,1.02.281,5.793,5.793,0,0,0,.984-.07v2.824a7.288,7.288,0,0,1-2.227.34,4.137,4.137,0,0,1-3.012-.961,3.939,3.939,0,0,1-.973-2.918V13.063H74.027V10.32h1.617V7.168Zm2.789,9.375a7.484,7.484,0,0,1,.738-3.381,5.28,5.28,0,0,1,2.121-2.279,6.388,6.388,0,0,1,3.246-.8,5.83,5.83,0,0,1,4.488,1.764,6.768,6.768,0,0,1,1.641,4.8v.141a6.566,6.566,0,0,1-1.646,4.705,5.846,5.846,0,0,1-4.459,1.74,5.912,5.912,0,0,1-4.348-1.623,6.348,6.348,0,0,1-1.77-4.4Zm3.949.246a4.718,4.718,0,0,0,.551,2.578,1.835,1.835,0,0,0,1.629.82q2.109,0,2.156-3.246v-.4q0-3.41-2.18-3.41-1.98,0-2.145,2.941ZM103,19.438a.912.912,0,0,0-.527-.809,8.021,8.021,0,0,0-2-.633,9.138,9.138,0,0,1-2.437-.861,4.083,4.083,0,0,1-1.465-1.295,3.092,3.092,0,0,1-.5-1.746A3.5,3.5,0,0,1,97.5,11.217a5.938,5.938,0,0,1,3.773-1.131,6.579,6.579,0,0,1,4.031,1.137,3.555,3.555,0,0,1,1.523,2.988h-3.961q0-1.523-1.605-1.523a1.591,1.591,0,0,0-1.043.346,1.07,1.07,0,0,0-.422.861.982.982,0,0,0,.516.855,4.872,4.872,0,0,0,1.646.539,14.228,14.228,0,0,1,1.986.5q2.859.984,2.859,3.527a3.321,3.321,0,0,1-1.541,2.824,6.758,6.758,0,0,1-3.99,1.09,6.9,6.9,0,0,1-2.906-.586,4.86,4.86,0,0,1-1.992-1.594,3.609,3.609,0,0,1-.715-2.121h3.691a1.526,1.526,0,0,0,.586,1.283,2.41,2.41,0,0,0,1.441.4,1.9,1.9,0,0,0,1.213-.328A1.05,1.05,0,0,0,103,19.438Zm11.133-2.906a7.611,7.611,0,0,1,1.313-4.734,4.311,4.311,0,0,1,3.621-1.711,3.682,3.682,0,0,1,3.117,1.594l.281-1.359h3.422V27.875h-3.961v-5.93a3.676,3.676,0,0,1-2.883,1.289,4.273,4.273,0,0,1-3.58-1.74A8.036,8.036,0,0,1,114.129,16.531Zm3.949.246q0,3.41,1.969,3.41a1.907,1.907,0,0,0,1.875-1.031V14.141a1.866,1.866,0,0,0-1.852-1.008q-1.84,0-1.98,2.941Zm17.59,4.852a4.072,4.072,0,0,1-3.387,1.605,3.993,3.993,0,0,1-3.158-1.213,5.1,5.1,0,0,1-1.072-3.486V10.32H132v8.238a1.419,1.419,0,0,0,1.582,1.629,2.064,2.064,0,0,0,1.934-.973V10.32h3.973V23h-3.7Zm12.117,1.605a6.518,6.518,0,0,1-4.723-1.74,6.009,6.009,0,0,1-1.8-4.529v-.328a7.787,7.787,0,0,1,.721-3.434,5.274,5.274,0,0,1,2.1-2.3,6.35,6.35,0,0,1,3.281-.814,5.489,5.489,0,0,1,4.219,1.658,6.516,6.516,0,0,1,1.547,4.623V17.9h-7.852a2.846,2.846,0,0,0,.926,1.676,2.755,2.755,0,0,0,1.852.609,3.549,3.549,0,0,0,2.93-1.312l1.8,2.133a5.045,5.045,0,0,1-2.092,1.623A7.069,7.069,0,0,1,147.785,23.234Zm-.445-10.1q-1.734,0-2.062,2.3h3.984v-.3a1.956,1.956,0,0,0-.48-1.471A1.912,1.912,0,0,0,147.34,13.133Zm25.125,3.621a7.646,7.646,0,0,1-1.33,4.717,4.264,4.264,0,0,1-3.592,1.764,3.655,3.655,0,0,1-2.871-1.277v5.918h-3.949V10.32h3.691l.117,1.172a3.656,3.656,0,0,1,2.988-1.406,4.3,4.3,0,0,1,3.645,1.729,7.741,7.741,0,0,1,1.3,4.752Zm-3.949-.246q0-3.375-1.969-3.375a1.859,1.859,0,0,0-1.875,1.008v4.992a1.919,1.919,0,0,0,1.9,1.055q1.887,0,1.945-3.258Zm13.242,5.121a4.072,4.072,0,0,1-3.387,1.605,3.993,3.993,0,0,1-3.158-1.213,5.1,5.1,0,0,1-1.072-3.486V10.32h3.949v8.238a1.419,1.419,0,0,0,1.582,1.629,2.064,2.064,0,0,0,1.934-.973V10.32h3.973V23h-3.7Zm12.117,1.605a6.518,6.518,0,0,1-4.723-1.74,6.009,6.009,0,0,1-1.8-4.529v-.328a7.787,7.787,0,0,1,.721-3.434,5.274,5.274,0,0,1,2.1-2.3,6.35,6.35,0,0,1,3.281-.814,5.489,5.489,0,0,1,4.219,1.658,6.516,6.516,0,0,1,1.547,4.623V17.9h-7.852a2.846,2.846,0,0,0,.926,1.676,2.755,2.755,0,0,0,1.852.609,3.549,3.549,0,0,0,2.93-1.312l1.8,2.133a5.045,5.045,0,0,1-2.092,1.623A7.069,7.069,0,0,1,193.875,23.234Zm-.445-10.1q-1.734,0-2.062,2.3h3.984v-.3a1.956,1.956,0,0,0-.48-1.471A1.912,1.912,0,0,0,193.43,13.133Zm6.879,3.434a7.746,7.746,0,0,1,1.3-4.746,4.282,4.282,0,0,1,3.633-1.734,3.641,3.641,0,0,1,2.859,1.336V5h3.961V23h-3.551l-.2-1.359a3.739,3.739,0,0,1-3.094,1.594,4.274,4.274,0,0,1-3.586-1.734A7.991,7.991,0,0,1,200.309,16.566Zm3.949.246q0,3.375,1.969,3.375a1.944,1.944,0,0,0,1.875-1.1V14.258a1.892,1.892,0,0,0-1.852-1.125q-1.828,0-1.98,2.953Zm16.184,6.422a6.518,6.518,0,0,1-4.723-1.74,6.009,6.009,0,0,1-1.8-4.529v-.328a7.787,7.787,0,0,1,.721-3.434,5.274,5.274,0,0,1,2.1-2.3,6.35,6.35,0,0,1,3.281-.814,5.489,5.489,0,0,1,4.219,1.658,6.516,6.516,0,0,1,1.547,4.623V17.9h-7.852a2.846,2.846,0,0,0,.926,1.676,2.755,2.755,0,0,0,1.852.609,3.549,3.549,0,0,0,2.93-1.312l1.8,2.133a5.045,5.045,0,0,1-2.092,1.623A7.069,7.069,0,0,1,220.441,23.234ZM220,13.133q-1.734,0-2.062,2.3h3.984v-.3a1.956,1.956,0,0,0-.48-1.471A1.912,1.912,0,0,0,220,13.133Zm11-2.812.129,1.488a4.3,4.3,0,0,1,3.621-1.723,3.618,3.618,0,0,1,2.959,1.184,5.635,5.635,0,0,1,1.014,3.563V23h-3.961V15a2.14,2.14,0,0,0-.387-1.412,1.789,1.789,0,0,0-1.406-.451,1.883,1.883,0,0,0-1.723.914V23H227.3V10.32ZM20.684,50.188a1.756,1.756,0,0,0,1.289-.451,1.654,1.654,0,0,0,.445-1.26h3.7A4.384,4.384,0,0,1,24.627,51.9a5.558,5.558,0,0,1-3.85,1.336A5.627,5.627,0,0,1,16.418,51.5a6.834,6.834,0,0,1-1.594-4.8v-.164a7.723,7.723,0,0,1,.709-3.393,5.162,5.162,0,0,1,2.045-2.262,6.1,6.1,0,0,1,3.164-.791,5.488,5.488,0,0,1,3.926,1.371,4.863,4.863,0,0,1,1.453,3.715h-3.7a2.168,2.168,0,0,0-.48-1.512,1.658,1.658,0,0,0-1.289-.527q-1.535,0-1.793,1.957a13.809,13.809,0,0,0-.082,1.711,5.424,5.424,0,0,0,.457,2.648A1.582,1.582,0,0,0,20.684,50.188ZM34.934,53a4.459,4.459,0,0,1-.375-1.137,3.672,3.672,0,0,1-3.047,1.371,4.5,4.5,0,0,1-3.047-1.084,3.45,3.45,0,0,1-1.254-2.725,3.546,3.546,0,0,1,1.523-3.117,7.761,7.761,0,0,1,4.43-1.055h1.219v-.671q0-1.755-1.512-1.755a1.236,1.236,0,0,0-1.406,1.39H27.516a3.54,3.54,0,0,1,1.564-2.985,6.575,6.575,0,0,1,3.99-1.147A5.764,5.764,0,0,1,36.9,41.27a4.115,4.115,0,0,1,1.441,3.246v5.613a5.748,5.748,0,0,0,.539,2.672V53Zm-2.473-2.578a2.2,2.2,0,0,0,1.225-.316,1.983,1.983,0,0,0,.7-.715V47.363H33.234q-2.062,0-2.062,1.852a1.131,1.131,0,0,0,.363.873A1.315,1.315,0,0,0,32.461,50.422Zm15.621,1.207A4.072,4.072,0,0,1,44.7,53.234a3.993,3.993,0,0,1-3.158-1.213,5.1,5.1,0,0,1-1.072-3.486V40.32h3.949v8.238A1.419,1.419,0,0,0,46,50.188a2.064,2.064,0,0,0,1.934-.973V40.32H51.9V53H48.2ZM60.7,49.438a.912.912,0,0,0-.527-.809,8.021,8.021,0,0,0-2-.633,9.138,9.138,0,0,1-2.437-.861A4.083,4.083,0,0,1,54.27,45.84a3.092,3.092,0,0,1-.5-1.746,3.5,3.5,0,0,1,1.441-2.877,5.938,5.938,0,0,1,3.773-1.131,6.579,6.579,0,0,1,4.031,1.137,3.555,3.555,0,0,1,1.523,2.988H60.574q0-1.523-1.605-1.523a1.591,1.591,0,0,0-1.043.346,1.07,1.07,0,0,0-.422.861.982.982,0,0,0,.516.855,4.872,4.872,0,0,0,1.646.539,14.228,14.228,0,0,1,1.986.5q2.859.984,2.859,3.527a3.321,3.321,0,0,1-1.541,2.824,6.758,6.758,0,0,1-3.99,1.09,6.9,6.9,0,0,1-2.906-.586,4.86,4.86,0,0,1-1.992-1.594,3.609,3.609,0,0,1-.715-2.121h3.691a1.526,1.526,0,0,0,.586,1.283,2.41,2.41,0,0,0,1.441.4,1.9,1.9,0,0,0,1.213-.328A1.05,1.05,0,0,0,60.7,49.438ZM73.5,53a4.459,4.459,0,0,1-.375-1.137,3.672,3.672,0,0,1-3.047,1.371,4.5,4.5,0,0,1-3.047-1.084,3.45,3.45,0,0,1-1.254-2.725A3.546,3.546,0,0,1,67.3,46.309a7.761,7.761,0,0,1,4.43-1.055h1.219v-.671q0-1.755-1.512-1.755a1.236,1.236,0,0,0-1.406,1.39H66.082a3.54,3.54,0,0,1,1.564-2.985,6.575,6.575,0,0,1,3.99-1.147,5.764,5.764,0,0,1,3.832,1.184,4.115,4.115,0,0,1,1.441,3.246v5.613a5.748,5.748,0,0,0,.539,2.672V53Zm-2.473-2.578a2.2,2.2,0,0,0,1.225-.316,1.983,1.983,0,0,0,.7-.715V47.363H71.8q-2.062,0-2.062,1.852a1.131,1.131,0,0,0,.363.873A1.315,1.315,0,0,0,71.027,50.422Zm15.738-6.527-1.3-.094a2.336,2.336,0,0,0-2.391,1.172V53H79.125V40.32h3.7l.129,1.629a3.058,3.058,0,0,1,2.777-1.863,3.851,3.851,0,0,1,1.1.141Zm14.953,7.734a4.072,4.072,0,0,1-3.387,1.605,3.993,3.993,0,0,1-3.158-1.213A5.1,5.1,0,0,1,94.1,48.535V40.32h3.949v8.238a1.419,1.419,0,0,0,1.582,1.629,2.064,2.064,0,0,0,1.934-.973V40.32h3.973V53h-3.7Zm9.609-11.309.129,1.488a4.3,4.3,0,0,1,3.621-1.723,3.618,3.618,0,0,1,2.959,1.184,5.635,5.635,0,0,1,1.014,3.563V53H115.09V45a2.14,2.14,0,0,0-.387-1.412,1.789,1.789,0,0,0-1.406-.451,1.883,1.883,0,0,0-1.723.914V53h-3.949V40.32ZM134.355,53a4.459,4.459,0,0,1-.375-1.137,3.672,3.672,0,0,1-3.047,1.371,4.5,4.5,0,0,1-3.047-1.084,3.45,3.45,0,0,1-1.254-2.725,3.546,3.546,0,0,1,1.523-3.117,7.761,7.761,0,0,1,4.43-1.055H133.8v-.671q0-1.755-1.512-1.755a1.236,1.236,0,0,0-1.406,1.39h-3.949a3.54,3.54,0,0,1,1.564-2.985,6.575,6.575,0,0,1,3.99-1.147,5.764,5.764,0,0,1,3.832,1.184,4.115,4.115,0,0,1,1.441,3.246v5.613A5.748,5.748,0,0,0,138.3,52.8V53Zm-2.473-2.578a2.2,2.2,0,0,0,1.225-.316,1.983,1.983,0,0,0,.7-.715V47.363h-1.148q-2.062,0-2.062,1.852a1.131,1.131,0,0,0,.363.873A1.315,1.315,0,0,0,131.883,50.422Zm13.43-.234a1.756,1.756,0,0,0,1.289-.451,1.654,1.654,0,0,0,.445-1.26h3.7a4.384,4.384,0,0,1-1.494,3.422,5.558,5.558,0,0,1-3.85,1.336,5.627,5.627,0,0,1-4.359-1.734,6.834,6.834,0,0,1-1.594-4.8v-.164a7.723,7.723,0,0,1,.709-3.393,5.162,5.162,0,0,1,2.045-2.262,6.1,6.1,0,0,1,3.164-.791,5.488,5.488,0,0,1,3.926,1.371,4.863,4.863,0,0,1,1.453,3.715h-3.7a2.168,2.168,0,0,0-.48-1.512,1.658,1.658,0,0,0-1.289-.527q-1.535,0-1.793,1.957A13.809,13.809,0,0,0,143.4,46.8a5.424,5.424,0,0,0,.457,2.648A1.582,1.582,0,0,0,145.313,50.188Zm12.469,0a1.756,1.756,0,0,0,1.289-.451,1.654,1.654,0,0,0,.445-1.26h3.7a4.384,4.384,0,0,1-1.494,3.422,5.558,5.558,0,0,1-3.85,1.336,5.627,5.627,0,0,1-4.359-1.734,6.834,6.834,0,0,1-1.594-4.8v-.164a7.723,7.723,0,0,1,.709-3.393,5.162,5.162,0,0,1,2.045-2.262,6.1,6.1,0,0,1,3.164-.791,5.488,5.488,0,0,1,3.926,1.371,4.863,4.863,0,0,1,1.453,3.715h-3.7a2.168,2.168,0,0,0-.48-1.512,1.658,1.658,0,0,0-1.289-.527q-1.535,0-1.793,1.957a13.809,13.809,0,0,0-.082,1.711,5.424,5.424,0,0,0,.457,2.648A1.582,1.582,0,0,0,157.781,50.188ZM169.055,53h-3.961V40.32h3.961Zm-4.2-15.961a1.778,1.778,0,0,1,.609-1.391,2.579,2.579,0,0,1,3.164,0,1.893,1.893,0,0,1,0,2.782,2.579,2.579,0,0,1-3.164,0A1.778,1.778,0,0,1,164.859,37.039Zm6.129,9.527a7.746,7.746,0,0,1,1.3-4.746,4.282,4.282,0,0,1,3.633-1.734,3.641,3.641,0,0,1,2.859,1.336V35h3.961V53h-3.551l-.2-1.359a3.739,3.739,0,0,1-3.094,1.594,4.274,4.274,0,0,1-3.586-1.734A7.991,7.991,0,0,1,170.988,46.566Zm3.949.246q0,3.375,1.969,3.375a1.944,1.944,0,0,0,1.875-1.1V44.258a1.892,1.892,0,0,0-1.852-1.125q-1.828,0-1.98,2.953Zm16.184,6.422a6.518,6.518,0,0,1-4.723-1.74,6.009,6.009,0,0,1-1.8-4.529v-.328a7.787,7.787,0,0,1,.721-3.434,5.274,5.274,0,0,1,2.1-2.3,6.35,6.35,0,0,1,3.281-.814,5.489,5.489,0,0,1,4.219,1.658,6.516,6.516,0,0,1,1.547,4.623V47.9h-7.852a2.846,2.846,0,0,0,.926,1.676,2.755,2.755,0,0,0,1.852.609,3.549,3.549,0,0,0,2.93-1.312l1.8,2.133a5.045,5.045,0,0,1-2.092,1.623A7.069,7.069,0,0,1,191.121,53.234Zm-.445-10.1q-1.734,0-2.062,2.3H192.6v-.3a1.956,1.956,0,0,0-.48-1.471A1.912,1.912,0,0,0,190.676,43.133Zm11-2.812.129,1.488a4.3,4.3,0,0,1,3.621-1.723,3.618,3.618,0,0,1,2.959,1.184,5.635,5.635,0,0,1,1.014,3.563V53h-3.961V45a2.14,2.14,0,0,0-.387-1.412,1.789,1.789,0,0,0-1.406-.451,1.883,1.883,0,0,0-1.723.914V53h-3.949V40.32Zm14.508-3.152V40.32h2.086v2.742h-2.086v5.8a1.481,1.481,0,0,0,.258,1,1.383,1.383,0,0,0,1.02.281,5.793,5.793,0,0,0,.984-.07v2.824a7.288,7.288,0,0,1-2.227.34,4.137,4.137,0,0,1-3.012-.961,3.939,3.939,0,0,1-.973-2.918V43.063h-1.617V40.32h1.617V37.168Zm9.773,16.066a6.518,6.518,0,0,1-4.723-1.74,6.009,6.009,0,0,1-1.8-4.529v-.328a7.787,7.787,0,0,1,.721-3.434,5.274,5.274,0,0,1,2.1-2.3,6.35,6.35,0,0,1,3.281-.814,5.489,5.489,0,0,1,4.219,1.658,6.516,6.516,0,0,1,1.547,4.623V47.9h-7.852a2.846,2.846,0,0,0,.926,1.676,2.755,2.755,0,0,0,1.852.609,3.549,3.549,0,0,0,2.93-1.312l1.8,2.133a5.045,5.045,0,0,1-2.092,1.623A7.069,7.069,0,0,1,225.961,53.234Zm-.445-10.1q-1.734,0-2.062,2.3h3.984v-.3a1.956,1.956,0,0,0-.48-1.471A1.912,1.912,0,0,0,225.516,43.133Z" transform="translate(361.008 2128.354)" fill="#fff"/>
    <path id="Trazado_105710" data-name="Trazado 105710" d="M0,0H840V26H0Z" transform="translate(517.008 2186.354)" fill="#3c0061"/>
  </g>
</svg>
