<svg xmlns="http://www.w3.org/2000/svg" width="123.995" height="123.995" viewBox="0 0 123.995 123.995">
  <g id="Grupo_55976" data-name="Grupo 55976" transform="translate(-388.5 -3627.5)">
    <path id="Trazado_105578" data-name="Trazado 105578" d="M138.789,393.627a60,60,0,1,1-60-60A60,60,0,0,1,138.789,393.627Z" transform="translate(371.706 3295.872)" fill="#fff" stroke="#00cca7" stroke-width="4"/>
    <g id="Grupo_55121" data-name="Grupo 55121" transform="translate(165.361 3398.688)">
      <path id="Trazado_104204" data-name="Trazado 104204" d="M300.3,252.8l12.65,72.718L274.8,332.155l-4.914-28.249-16.252-11.435a4.7,4.7,0,0,1-1.138-6.551,4.3,4.3,0,0,1,2.839-1.812,5.884,5.884,0,0,1,3.706.673l8.349,4.774-5.525-31.739a4.184,4.184,0,0,1,8.244-1.435l3.41,19.611,1.728-.3-4.318-24.811a4.184,4.184,0,0,1,8.244-1.433l4.315,24.81,1.725-.3-3.947-22.687a4.183,4.183,0,1,1,8.243-1.435l3.947,22.689,1.725-.3-3.129-17.988A4.184,4.184,0,0,1,300.3,252.8Z" transform="translate(0 0.603)" fill="#c4a424"/>
      <g id="Grupo_55019" data-name="Grupo 55019" transform="translate(257.161 244.313)">
        <path id="Trazado_104205" data-name="Trazado 104205" d="M316.642,259.925,304.56,336.731l-40.291-6.339,4.695-29.835-12.32-16.923a4.946,4.946,0,0,1,1.087-6.917,4.541,4.541,0,0,1,3.451-.845,6.222,6.222,0,0,1,3.465,1.931l6.7,7.6,5.275-33.524a4.406,4.406,0,0,1,8.7,1.371l-3.259,20.712,1.823.286,4.12-26.2a4.409,4.409,0,0,1,8.71,1.371l-4.124,26.2,1.82.286,3.77-23.96a4.406,4.406,0,1,1,8.7,1.369l-3.768,23.961,1.823.285,2.988-19a4.407,4.407,0,1,1,8.707,1.368Z" transform="translate(-255.692 -244.313)" fill="#ffd947"/>
        <path id="Trazado_104206" data-name="Trazado 104206" d="M314.36,255.773l-12.082,76.8-40.29-6.339,35.306-5.6Z" transform="translate(-253.41 -240.16)" fill="#8f6966" opacity="0.29" style="mix-blend-mode: multiply;isolation: isolate"/>
        <g id="Grupo_55018" data-name="Grupo 55018" transform="translate(30.587 70.982)">
          <path id="Trazado_104207" data-name="Trazado 104207" d="M287.105,298.406l-4.859,6.163,3.139.494-2.221,5.383,5.406-6.385-3.341-.523Z" transform="translate(-276.655 -295.691)" fill="#1e866f"/>
          <path id="Trazado_104208" data-name="Trazado 104208" d="M288.235,296.521a8.735,8.735,0,1,0,7.271,9.987A8.733,8.733,0,0,0,288.235,296.521Zm-2.505,15.927a7.386,7.386,0,1,1,8.444-6.149A7.39,7.39,0,0,1,285.729,312.447Z" transform="translate(-278.142 -296.413)" fill="#1e866f"/>
        </g>
        <path id="Trazado_104209" data-name="Trazado 104209" d="M269.061,278.147l2.323-10.424,29.21,4.6-26.851-1.006Z" transform="translate(-250.846 -235.829)" fill="#fff" opacity="0.6"/>
      </g>
    </g>
  </g>
</svg>
