<svg xmlns="http://www.w3.org/2000/svg" width="129.302" height="20.491" viewBox="0 0 129.302 20.491">
  <g id="Grupo_83480" data-name="Grupo 83480" transform="translate(-835.291 -599.078)">
    <path id="Trazado_140760" data-name="Trazado 140760" d="M1.709,0H-1.709V-14.219H1.709Z" transform="translate(837 615.174)" fill="#fff"/>
    <path id="Trazado_140761" data-name="Trazado 140761" d="M-6.519-3.193a1.874,1.874,0,0,1,1.3.464A1.522,1.522,0,0,1-4.7-1.543,1.522,1.522,0,0,1-5.22-.356a1.874,1.874,0,0,1-1.3.464,1.858,1.858,0,0,1-1.3-.469,1.533,1.533,0,0,1-.513-1.182,1.533,1.533,0,0,1,.513-1.182A1.858,1.858,0,0,1-6.519-3.193Zm7.842-10v2.627H3.062v2.285H1.323v4.834a1.234,1.234,0,0,0,.215.83,1.152,1.152,0,0,0,.85.234,4.828,4.828,0,0,0,.82-.059V-.088A6.074,6.074,0,0,1,1.353.2a3.448,3.448,0,0,1-2.51-.8,3.282,3.282,0,0,1-.811-2.432V-8.281H-3.315v-2.285h1.348v-2.627Zm5.068,10a1.874,1.874,0,0,1,1.3.464,1.522,1.522,0,0,1,.518,1.187A1.522,1.522,0,0,1,7.69-.356a1.874,1.874,0,0,1-1.3.464,1.858,1.858,0,0,1-1.3-.469,1.533,1.533,0,0,1-.513-1.182,1.533,1.533,0,0,1,.513-1.182A1.858,1.858,0,0,1,6.392-3.193Z" transform="translate(861 615.174)" fill="#fff"/>
    <path id="Trazado_140762" data-name="Trazado 140762" d="M-9.17-5.781a14.924,14.924,0,0,1,.635-4.434,10.7,10.7,0,0,1,1.753-3.477A6.225,6.225,0,0,1-4.3-15.684l.625,1.621a6.367,6.367,0,0,0-2.114,3.14,15.313,15.313,0,0,0-.757,5v.43A15.612,15.612,0,0,0-5.8-.391,6.34,6.34,0,0,0-3.672,2.773L-4.3,4.395a6.163,6.163,0,0,1-2.485-2A10.538,10.538,0,0,1-8.535-1.064,15,15,0,0,1-9.17-5.342ZM5.869-2.656h-4.7L.352,0H-3.311L1.9-14.219H5.127L10.381,0H6.7ZM1.992-5.3H5.049L3.516-10.234Z" transform="translate(888 615.174)" fill="#fff"/>
    <path id="Trazado_140763" data-name="Trazado 140763" d="M2.593-5.508a13.925,13.925,0,0,1-.674,4.355,11.12,11.12,0,0,1-1.86,3.54A6.193,6.193,0,0,1-2.5,4.395L-3.13,2.773A6.43,6.43,0,0,0-1.03-.352,15.085,15.085,0,0,0-.259-5.205v-.6a15.612,15.612,0,0,0-.747-5.1A6.34,6.34,0,0,0-3.13-14.062l.625-1.621A6.307,6.307,0,0,1,.039-13.7,10.984,10.984,0,0,1,1.895-10.21a13.807,13.807,0,0,1,.7,4.272Z" transform="translate(962 615.174)" fill="#fff"/>
    <path id="Trazado_140764" data-name="Trazado 140764" d="M.059-7.656l1.533-2.91H5.01L2.227-5.42,5.146,0H1.709L.049-3.125-1.582,0H-5.039l2.93-5.42-2.773-5.146h3.457Z" transform="translate(914 615.174)" fill="#fff"/>
    <path id="Trazado_140765" data-name="Trazado 140765" d="M-3.418,0h-3.3V-10.508l-3.242.947v-2.5l6.24-2.158h.3Zm14.16-5.811A6.789,6.789,0,0,1,9.448-1.367,4.471,4.471,0,0,1,5.8.2,4.5,4.5,0,0,1,2.129-1.377,6.779,6.779,0,0,1,.83-5.811v-2.6a6.789,6.789,0,0,1,1.294-4.443,4.483,4.483,0,0,1,3.657-1.562,4.484,4.484,0,0,1,3.662,1.572,6.8,6.8,0,0,1,1.3,4.443ZM7.451-8.828a5.071,5.071,0,0,0-.4-2.29,1.338,1.338,0,0,0-1.27-.757,1.307,1.307,0,0,0-1.235.7,4.777,4.777,0,0,0-.415,2.129V-5.41a5.109,5.109,0,0,0,.4,2.329,1.343,1.343,0,0,0,1.27.737,1.325,1.325,0,0,0,1.24-.718,4.878,4.878,0,0,0,.41-2.251Z" transform="translate(932 615.174)" fill="#fff"/>
    <path id="Trazado_140766" data-name="Trazado 140766" d="M3.5,0H-3.445V-1.5l3.2-3.363A3.818,3.818,0,0,0,.937-7.007a1.488,1.488,0,0,0-.28-.978,1,1,0,0,0-.813-.335,1.013,1.013,0,0,0-.854.448A1.84,1.84,0,0,0-1.34-6.754H-3.65a3.269,3.269,0,0,1,.458-1.692A3.212,3.212,0,0,1-1.921-9.659,3.777,3.777,0,0,1-.1-10.1a3.715,3.715,0,0,1,2.485.745,2.66,2.66,0,0,1,.872,2.14,3.107,3.107,0,0,1-.219,1.145A5.021,5.021,0,0,1,2.355-4.9,17.134,17.134,0,0,1,.868-3.261L-.417-1.777H3.5Z" transform="translate(845 609.174)" fill="#fff"/>
    <path id="Trazado_140767" data-name="Trazado 140767" d="M3.5,0H-3.445V-1.5l3.2-3.363A3.818,3.818,0,0,0,.937-7.007a1.488,1.488,0,0,0-.28-.978,1,1,0,0,0-.813-.335,1.013,1.013,0,0,0-.854.448A1.84,1.84,0,0,0-1.34-6.754H-3.65a3.269,3.269,0,0,1,.458-1.692A3.212,3.212,0,0,1-1.921-9.659,3.777,3.777,0,0,1-.1-10.1a3.715,3.715,0,0,1,2.485.745,2.66,2.66,0,0,1,.872,2.14,3.107,3.107,0,0,1-.219,1.145A5.021,5.021,0,0,1,2.355-4.9,17.134,17.134,0,0,1,.868-3.261L-.417-1.777H3.5Z" transform="translate(902 609.174)" fill="#fff"/>
    <path id="Trazado_140768" data-name="Trazado 140768" d="M-2.054-3.4H-6.163V-5.182h4.108ZM5.267-10.1v1.812h-.1a3.459,3.459,0,0,0-2.123.619A2.612,2.612,0,0,0,2.02-5.947a2.694,2.694,0,0,1,1.969-.766,2.513,2.513,0,0,1,2.058.943,3.8,3.8,0,0,1,.766,2.475,3.484,3.484,0,0,1-.448,1.743A3.2,3.2,0,0,1,5.113-.311,3.6,3.6,0,0,1,3.333.137,3.715,3.715,0,0,1,1.439-.345,3.313,3.313,0,0,1,.14-1.723,4.536,4.536,0,0,1-.338-3.787V-4.71a5.746,5.746,0,0,1,.66-2.765A4.782,4.782,0,0,1,2.2-9.4a5.384,5.384,0,0,1,2.714-.7ZM3.189-4.936a1.322,1.322,0,0,0-.766.211,1.342,1.342,0,0,0-.458.517v.688q0,1.879,1.306,1.879a1.06,1.06,0,0,0,.878-.47A1.909,1.909,0,0,0,4.5-3.288a1.874,1.874,0,0,0-.359-1.188A1.15,1.15,0,0,0,3.189-4.936Z" transform="translate(951 609.174)" fill="#fff"/>
  </g>
</svg>
