<svg xmlns="http://www.w3.org/2000/svg" width="123.995" height="123.995" viewBox="0 0 123.995 123.995">
  <g id="Grupo_55988" data-name="Grupo 55988" transform="translate(-283.5 -4019.5)">
    <path id="Trazado_105578" data-name="Trazado 105578" d="M138.789,393.627a60,60,0,1,1-60-60A60,60,0,0,1,138.789,393.627Z" transform="translate(266.706 3687.872)" fill="#fff" stroke="#00cca7" stroke-width="4"/>
    <g id="Grupo_55979" data-name="Grupo 55979" transform="translate(-58 -315)">
      <g id="Grupo_55948" data-name="Grupo 55948" transform="translate(358 4351)">
        <g id="Grupo_55947" data-name="Grupo 55947">
          <g id="Elipse_4305" data-name="Elipse 4305" fill="none" stroke="#f74ae2" stroke-width="8">
            <circle cx="45" cy="45" r="45" stroke="none"/>
            <circle cx="45" cy="45" r="41" fill="none"/>
          </g>
          <g id="Grupo_55946" data-name="Grupo 55946" transform="translate(14.101)">
            <g id="Grupo_55942" data-name="Grupo 55942" transform="translate(0 10.859)">
              <path id="Trazado_105515" data-name="Trazado 105515" d="M180.834,71.275v-.111H164.8v.111l-3.224-4.3,3.224-.841V58.774h16.032v7.363l3.231.841Z" transform="translate(-140.83 -30.494)" fill="#d6b095"/>
              <path id="Trazado_105516" data-name="Trazado 105516" d="M205.9,95.259H141.913s1.5-17.039,1.718-18.541c.2-1.376.551-4.442,3.36-5.654a4.174,4.174,0,0,1,.524-.2c.1-.035.214-.069.325-.094l16.429-4.881V66c0,2.638,4.313,4.777,9.631,4.777s9.632-2.14,9.632-4.777v-.1l16.437,4.881c.112.025.222.059.326.094a4.291,4.291,0,0,1,.532.2c2.8,1.212,3.154,4.278,3.352,5.654C204.393,78.221,205.9,95.259,205.9,95.259Z" transform="translate(-141.913 -30.102)" fill="#ffd947"/>
              <path id="Trazado_105517" data-name="Trazado 105517" d="M161.53,54.737a1.457,1.457,0,0,1-1.039-.217,5.419,5.419,0,0,1-2-3.808c-.372-2.459.386-4.642,1.7-4.878a.985.985,0,0,1,.356-.007.682.682,0,0,1,.208.028,1.952,1.952,0,0,1,.827.456,5.989,5.989,0,0,1,1.649,3.551C163.6,52.323,162.839,54.5,161.53,54.737Z" transform="translate(-141.005 -31.208)" fill="#d6b095"/>
              <path id="Trazado_105518" data-name="Trazado 105518" d="M186.233,50.712c-.306,2.044-1.3,3.638-2.381,3.975a1.253,1.253,0,0,1-.667.051c-1.306-.233-2.071-2.414-1.694-4.875a6.159,6.159,0,0,1,1.536-3.441,2.149,2.149,0,0,1,.825-.535,1.352,1.352,0,0,1,.684-.053.091.091,0,0,1,.047.016C185.863,46.121,186.6,48.28,186.233,50.712Z" transform="translate(-139.738 -31.209)" fill="#d6b095"/>
              <path id="Trazado_105519" data-name="Trazado 105519" d="M185.716,50.406a17.574,17.574,0,0,1-5.284,13,11.094,11.094,0,0,1-7.539,3.08,11.22,11.22,0,0,1-7.943-3.467,17.8,17.8,0,0,1-4.865-12.608c0-8.869,5.738-16.066,12.808-16.066S185.716,41.537,185.716,50.406Z" transform="translate(-140.912 -31.84)" fill="#f9ccab"/>
              <rect id="Rectángulo_30833" data-name="Rectángulo 30833" width="38.975" height="17.764" transform="translate(12.501 47.393)" fill="#b3009d"/>
              <path id="Trazado_105520" data-name="Trazado 105520" d="M160.341,83.051h-5.716V67.086l5.716-1.774Z" transform="translate(-141.213 -30.134)" fill="#b3009d"/>
              <path id="Trazado_105521" data-name="Trazado 105521" d="M184.577,83.051h5.716V67.086l-5.716-1.774Z" transform="translate(-139.563 -30.134)" fill="#b3009d"/>
              <path id="Trazado_105522" data-name="Trazado 105522" d="M159.292,79.6a1.862,1.862,0,1,1-1.861-1.861A1.86,1.86,0,0,1,159.292,79.6Z" transform="translate(-141.161 -29.45)" fill="#eaf1f2"/>
              <path id="Trazado_105523" data-name="Trazado 105523" d="M189.244,79.6a1.862,1.862,0,1,1-1.862-1.861A1.86,1.86,0,0,1,189.244,79.6Z" transform="translate(-139.511 -29.45)" fill="#eaf1f2"/>
              <path id="Trazado_105524" data-name="Trazado 105524" d="M186.229,41.752v5.314c0-.244-.766-.459-2.1-.641-.062-.012-.132-.018-.193-.028l-1.285,1.947c-.01.008-.01.017-.018.027-.817,1.241-.9,1.535-1.987,1.535h-.176c-.729-.388-3.836-.686-7.546-.686s-6.783.288-7.53.686h-.173c-1.1,0-1.184-.294-1.99-1.535-.008-.011-.008-.019-.017-.027l-1.3-1.947c-.059.011-.129.017-.189.028-1.329.183-2.1.4-2.1.641V41.752c0-5.829,5.952-9.781,13.3-9.781S186.229,35.922,186.229,41.752Z" transform="translate(-140.937 -31.971)" fill="#b3009d"/>
              <path id="Trazado_105525" data-name="Trazado 105525" d="M184.02,45.709c-.062-.012-.132-.018-.193-.028l-1.285,1.947c-.01.008-.01.017-.018.027-.817,1.241-.9,1.535-1.987,1.535h-.176c-.729-.388-3.836-.686-7.546-.686s-6.783.288-7.53.686h-.173c-1.1,0-1.184-.294-1.99-1.535-.008-.011-.008-.019-.017-.027l-1.3-1.947c-.059.011-.129.017-.189.028a68.6,68.6,0,0,1,11.2-.74A68.618,68.618,0,0,1,184.02,45.709Z" transform="translate(-140.827 -31.255)" fill="#737272" opacity="0.31" style="mix-blend-mode: multiply;isolation: isolate"/>
              <path id="Trazado_105526" data-name="Trazado 105526" d="M153.848,94.413V81.261l-1.654,13.152Z" transform="translate(-141.347 -29.256)" fill="#c6b0b1" opacity="0.9"/>
              <path id="Trazado_105527" data-name="Trazado 105527" d="M190.7,94.413V81.261l1.655,13.152Z" transform="translate(-139.225 -29.256)" fill="#c6b0b1" opacity="0.9"/>
              <path id="Trazado_105528" data-name="Trazado 105528" d="M182.9,79.81l-3.556,6.331h2.939l-1.254,5.241,4.022-6.613-3.129,0Z" transform="translate(-139.851 -29.336)" fill="#fff"/>
            </g>
            <g id="Grupo_55943" data-name="Grupo 55943" transform="translate(10.86)">
              <path id="Trazado_105529" data-name="Trazado 105529" d="M294.627,43.994c.52-7.558,4.778-8.112,7.692-16.372,2.915,8.26,7.173,8.815,7.692,16.372C310.807,55.584,293.831,55.584,294.627,43.994Z" transform="translate(-294.6 -27.622)" fill="#00cca7" fill-rule="evenodd"/>
              <path id="Trazado_105530" data-name="Trazado 105530" d="M303.625,35.711c-2.6,4.952-5.579,6.484-5.969,12.172-.351,5.109,3.609,7.363,7.066,6.766-2.734-.472-5.152-2.726-4.874-6.766C300.2,42.683,302.364,41.393,303.625,35.711Z" transform="translate(-295.986 -31.319)" fill="#fff" fill-rule="evenodd"/>
            </g>
            <g id="Grupo_55944" data-name="Grupo 55944" transform="translate(45.067 32.035)">
              <path id="Trazado_105529-2" data-name="Trazado 105529" d="M294.627,43.994c.52-7.558,4.778-8.112,7.692-16.372,2.915,8.26,7.173,8.815,7.692,16.372C310.807,55.584,293.831,55.584,294.627,43.994Z" transform="translate(-294.6 -27.622)" fill="#00cca7" fill-rule="evenodd"/>
              <path id="Trazado_105530-2" data-name="Trazado 105530" d="M303.625,35.711c-2.6,4.952-5.579,6.484-5.969,12.172-.351,5.109,3.609,7.363,7.066,6.766-2.734-.472-5.152-2.726-4.874-6.766C300.2,42.683,302.364,41.393,303.625,35.711Z" transform="translate(-295.986 -31.319)" fill="#fff" fill-rule="evenodd"/>
            </g>
            <g id="Grupo_55945" data-name="Grupo 55945" transform="translate(5.43 44.568)">
              <path id="Trazado_105529-3" data-name="Trazado 105529" d="M294.627,43.994c.52-7.558,4.778-8.112,7.692-16.372,2.915,8.26,7.173,8.815,7.692,16.372C310.807,55.584,293.831,55.584,294.627,43.994Z" transform="translate(-294.6 -27.622)" fill="#00cca7" fill-rule="evenodd"/>
              <path id="Trazado_105530-3" data-name="Trazado 105530" d="M303.625,35.711c-2.6,4.952-5.579,6.484-5.969,12.172-.351,5.109,3.609,7.363,7.066,6.766-2.734-.472-5.152-2.726-4.874-6.766C300.2,42.683,302.364,41.393,303.625,35.711Z" transform="translate(-295.986 -31.319)" fill="#fff" fill-rule="evenodd"/>
            </g>
          </g>
        </g>
        <path id="Trazado_105531" data-name="Trazado 105531" d="M-4.737-8.013,14.425,11.164,56.583,53.352" transform="translate(18.434 24.878)" fill="none" stroke="#f74ae2" stroke-width="8"/>
      </g>
    </g>
  </g>
</svg>
