<svg xmlns="http://www.w3.org/2000/svg" width="123.995" height="123.995" viewBox="0 0 123.995 123.995">
  <g id="Grupo_55985" data-name="Grupo 55985" transform="translate(-283.5 -4410.5)">
    <path id="Trazado_105602" data-name="Trazado 105602" d="M138.789,393.627a60,60,0,1,1-60-60A60,60,0,0,1,138.789,393.627Z" transform="translate(266.706 4078.872)" fill="#fff" stroke="#00cca7" stroke-width="4"/>
    <g id="Grupo_55958" data-name="Grupo 55958" transform="translate(-7.952 4076.812)">
      <path id="Trazado_105537" data-name="Trazado 105537" d="M533.735,841.095h0a.357.357,0,0,1,.357-.357h4.315a.357.357,0,0,1,.357.357h0a.356.356,0,0,1-.357.356h-4.315A.357.357,0,0,1,533.735,841.095Z" transform="translate(-197.804 -415.876)" fill="#bcbec0"/>
      <path id="Trazado_105538" data-name="Trazado 105538" d="M533.735,803.109h0a.356.356,0,0,1,.357-.356h4.315a.356.356,0,0,1,.357.356h0a.357.357,0,0,1-.357.357h-4.315A.357.357,0,0,1,533.735,803.109Z" transform="translate(-197.804 -382.563)" fill="#bcbec0"/>
      <path id="Trazado_105539" data-name="Trazado 105539" d="M535.566,804.714a.132.132,0,0,1,.131-.131h4.316a.131.131,0,0,1,0,.263H535.7A.131.131,0,0,1,535.566,804.714Z" transform="translate(-199.409 -384.168)" fill="#e6e7e8"/>
      <path id="Trazado_105540" data-name="Trazado 105540" d="M535.566,842.7a.132.132,0,0,1,.131-.131h4.316a.131.131,0,0,1,0,.263H535.7A.131.131,0,0,1,535.566,842.7Z" transform="translate(-199.409 -417.481)" fill="#e6e7e8"/>
      <rect id="Rectángulo_30858" data-name="Rectángulo 30858" width="3.096" height="17.788" transform="translate(332.817 370.082) rotate(90)" fill="#e8e8e8"/>
      <rect id="Rectángulo_30859" data-name="Rectángulo 30859" width="0.606" height="17.788" transform="translate(332.817 370.652) rotate(90)" fill="#afafaf" opacity="0.523" style="mix-blend-mode: multiply;isolation: isolate"/>
      <rect id="Rectángulo_30860" data-name="Rectángulo 30860" width="0.267" height="17.788" transform="translate(332.817 372.208) rotate(90)" fill="#fff"/>
      <rect id="Rectángulo_30861" data-name="Rectángulo 30861" width="3.096" height="0.357" transform="translate(332.77 370.082) rotate(90)" fill="#d1d3d4"/>
      <path id="Trazado_105541" data-name="Trazado 105541" d="M516.192,389.329V384.3l6.757-.45v5.929Z" transform="translate(-182.418 -15.185)" fill="#e6e7e8"/>
      <path id="Trazado_105542" data-name="Trazado 105542" d="M559.157,389.7l1.227.084V383.85l-1.239.085a15.3,15.3,0,0,0,.012,5.761Z" transform="translate(-219.853 -15.184)" fill="#a7a9ac"/>
      <path id="Trazado_105543" data-name="Trazado 105543" d="M564.251,377.348l-1.521.993s-1.021-1.2-1.021-4.793,1.021-4.793,1.021-4.793l1.521.993Z" transform="translate(-222.337 -1.946)" fill="#b3009d"/>
      <path id="Trazado_105544" data-name="Trazado 105544" d="M608.637,386.848v-6.811l26.887,1.111a.373.373,0,0,1,.357.372v3.844a.373.373,0,0,1-.357.372Z" transform="translate(-263.493 -11.84)" fill="#b3009d"/>
      <path id="Trazado_105545" data-name="Trazado 105545" d="M830.108,399.039v-2.908l8.329.472a.166.166,0,0,1,.156.165V398.4a.166.166,0,0,1-.156.165Z" transform="translate(-457.723 -25.955)" fill="#3c0061"/>
      <path id="Trazado_105546" data-name="Trazado 105546" d="M595.3,379.716a.44.44,0,0,1-.44-.416,62,62,0,0,1,0-8.308.44.44,0,0,1,.44-.414h.693a.441.441,0,0,1,.441.441v8.256a.441.441,0,0,1-.441.441Z" transform="translate(-251.284 -3.545)" fill="#b3009d"/>
      <path id="Trazado_105547" data-name="Trazado 105547" d="M576.716,379.429a15.019,15.019,0,0,0,.439,3.968l.258-.168v-7.6l-.258-.168A15.018,15.018,0,0,0,576.716,379.429Z" transform="translate(-235.498 -7.827)" fill="#9b0389"/>
      <path id="Trazado_105548" data-name="Trazado 105548" d="M581.062,375.619l-1.3,1.049s-.873-1.266-.873-5.066.873-5.066.873-5.066l1.3,1.049Z" transform="translate(-237.404 0)" fill="#b3009d"/>
      <path id="Trazado_105549" data-name="Trazado 105549" d="M593.939,373.8a62.025,62.025,0,0,0,0,8.308c0,.007,0,.014,0,.02l.194-.157v-8.033l-.2-.159C593.942,373.786,593.939,373.792,593.939,373.8Z" transform="translate(-250.481 -6.352)" fill="#9b0389"/>
      <rect id="Rectángulo_30862" data-name="Rectángulo 30862" width="6.614" height="1.154" rx="0.577" transform="translate(333.858 368.323) rotate(90)" fill="#636363"/>
      <path id="Trazado_105603" data-name="Trazado 105603" d="M0,0H1.492V5.376H0Z" transform="translate(315.029 370.884) rotate(90)" fill="#afafaf"/>
      <rect id="Rectángulo_30864" data-name="Rectángulo 30864" width="0.746" height="5.376" transform="translate(315.029 370.884) rotate(90)" fill="#e8e8e8"/>
      <rect id="Rectángulo_30865" data-name="Rectángulo 30865" width="1.492" height="0.183" transform="translate(315.029 370.884) rotate(90)" fill="#939598"/>
      <path id="Trazado_105550" data-name="Trazado 105550" d="M309.653,401.889l-1.464.727,1.464.765Z" transform="translate(0 -31.005)" fill="#e8e8e8"/>
      <path id="Trazado_105551" data-name="Trazado 105551" d="M490.4,399.959a.408.408,0,1,1,.408-.408A.408.408,0,0,1,490.4,399.959Z" transform="translate(-159.44 -28.596)" fill="#a7a9ac"/>
      <circle id="Elipse_4311" data-name="Elipse 4311" cx="0.408" cy="0.408" r="0.408" transform="translate(330.551 371.933)" fill="#a7a9ac"/>
      <path id="Trazado_105552" data-name="Trazado 105552" d="M476.647,399.959a.408.408,0,1,1,.408-.408A.408.408,0,0,1,476.647,399.959Z" transform="translate(-147.379 -28.596)" fill="#a7a9ac"/>
      <circle id="Elipse_4312" data-name="Elipse 4312" cx="0.408" cy="0.408" r="0.408" transform="translate(328.86 371.933)" fill="#a7a9ac"/>
      <path id="Trazado_105553" data-name="Trazado 105553" d="M462.9,399.959a.408.408,0,1,1,.408-.408A.408.408,0,0,1,462.9,399.959Z" transform="translate(-135.319 -28.596)" fill="#a7a9ac"/>
      <path id="Trazado_105554" data-name="Trazado 105554" d="M462.9,411.233a.408.408,0,1,1,.408-.408A.408.408,0,0,1,462.9,411.233Z" transform="translate(-135.319 -38.484)" fill="#a7a9ac"/>
      <g id="Grupo_55955" data-name="Grupo 55955" transform="translate(351.28 371.095)">
        <path id="Trazado_105555" data-name="Trazado 105555" d="M658.521,429.766a9.068,9.068,0,0,1,9.058-9.058h24.7a8.045,8.045,0,1,0,0-16.09h-4.17V403.6h4.17a9.058,9.058,0,0,1,0,18.116h-24.7a8.045,8.045,0,1,0,0,16.09h24.7a9.058,9.058,0,0,1,0,18.116H659.028v-1.013h33.254a8.045,8.045,0,1,0,0-16.09h-24.7A9.068,9.068,0,0,1,658.521,429.766Z" transform="translate(-658.521 -403.605)" fill="#31024e"/>
        <path id="Trazado_105556" data-name="Trazado 105556" d="M661.267,432.174a8.73,8.73,0,0,1,8.72-8.72h24.7a8.383,8.383,0,0,0,0-16.765h-3.832v-.338h3.832a8.72,8.72,0,0,1,0,17.441h-24.7a8.383,8.383,0,1,0,0,16.765h24.7a8.72,8.72,0,0,1,0,17.441H661.774v-.338H694.69a8.383,8.383,0,0,0,0-16.765h-24.7A8.73,8.73,0,0,1,661.267,432.174Z" transform="translate(-660.929 -406.013)" fill="#861cc7"/>
      </g>
      <path id="Trazado_105557" data-name="Trazado 105557" d="M609.061,380.054v6.776l-.424.018v-6.811Z" transform="translate(-263.493 -11.84)" fill="#9b0389"/>
      <g id="Grupo_55956" data-name="Grupo 55956" transform="translate(372.689 370.193)">
        <path id="Trazado_105558" data-name="Trazado 105558" d="M846.31,397.883h.713v-.794l-.713-.04Z" transform="translate(-844.622 -396.953)" fill="#27013e"/>
        <path id="Trazado_105559" data-name="Trazado 105559" d="M860.04,398.565h.713v-.7l-.713-.04Z" transform="translate(-856.662 -397.635)" fill="#27013e"/>
        <path id="Trazado_105560" data-name="Trazado 105560" d="M888.212,399.93v-.507l-.713-.04v.548Z" transform="translate(-880.744 -398.999)" fill="#27013e"/>
        <path id="Trazado_105561" data-name="Trazado 105561" d="M873.769,399.247h.713v-.6l-.713-.04Z" transform="translate(-868.703 -398.317)" fill="#27013e"/>
        <path id="Trazado_105562" data-name="Trazado 105562" d="M832.581,397.2h.713v-.89l-.713-.04Z" transform="translate(-832.581 -396.271)" fill="#27013e"/>
        <path id="Trazado_105563" data-name="Trazado 105563" d="M888.212,412.072H887.5v.548l.713-.04Z" transform="translate(-880.744 -410.129)" fill="#27013e"/>
        <path id="Trazado_105564" data-name="Trazado 105564" d="M874.482,412.072h-.713v.643l.713-.04Z" transform="translate(-868.703 -410.129)" fill="#27013e"/>
        <path id="Trazado_105565" data-name="Trazado 105565" d="M860.753,412.072h-.713v.739l.713-.04Z" transform="translate(-856.662 -410.129)" fill="#27013e"/>
        <path id="Trazado_105566" data-name="Trazado 105566" d="M847.023,412.072h-.713v.835l.713-.04Z" transform="translate(-844.622 -410.129)" fill="#27013e"/>
        <path id="Trazado_105567" data-name="Trazado 105567" d="M833.294,412.962v-.89h-.713V413Z" transform="translate(-832.581 -410.129)" fill="#27013e"/>
      </g>
      <path id="Rectángulo_30866" data-name="Rectángulo 30866" d="M.873,0h0a.872.872,0,0,1,.872.872v.141a0,0,0,0,1,0,0H0a0,0,0,0,1,0,0V.873A.873.873,0,0,1,.873,0Z" transform="translate(351.956 422.038) rotate(90)" fill="#31024e"/>
      <path id="Rectángulo_30867" data-name="Rectángulo 30867" d="M1.013,0H1.2A1.013,1.013,0,0,1,2.214,1.013v0a0,0,0,0,1,0,0H0a0,0,0,0,1,0,0v0A1.013,1.013,0,0,1,1.013,0Z" transform="translate(350.942 421.804) rotate(90)" fill="#31024e"/>
      <path id="Rectángulo_30868" data-name="Rectángulo 30868" d="M1.013,0h.732A1.013,1.013,0,0,1,2.758,1.013v0a0,0,0,0,1,0,0H0a0,0,0,0,1,0,0v0A1.013,1.013,0,0,1,1.013,0Z" transform="translate(349.929 421.532) rotate(90)" fill="#31024e"/>
      <rect id="Rectángulo_30869" data-name="Rectángulo 30869" width="8.763" height="0.846" rx="0.423" transform="translate(340.924 418.53) rotate(90)" fill="#414042"/>
      <path id="Trazado_105568" data-name="Trazado 105568" d="M579.3,799.111l-4.356,2.527h-4.058v-7.581h4.058l4.356,2.527Z" transform="translate(-230.387 -374.937)" fill="#31024e"/>
      <path id="Trazado_105569" data-name="Trazado 105569" d="M580.041,803.21h2.63l3.533,2.05v1.23l-3.533,2.049h-2.63Z" transform="translate(-238.414 -382.964)" fill="#861cc7"/>
      <rect id="Rectángulo_30870" data-name="Rectángulo 30870" width="1.745" height="0.113" transform="translate(351.055 422.038) rotate(90)" fill="#231f20"/>
      <rect id="Rectángulo_30871" data-name="Rectángulo 30871" width="2.214" height="0.113" transform="translate(350.042 421.804) rotate(90)" fill="#231f20"/>
      <rect id="Rectángulo_30872" data-name="Rectángulo 30872" width="7.58" height="0.308" transform="translate(341.232 419.121) rotate(90)" fill="#231f20"/>
      <rect id="Rectángulo_30873" data-name="Rectángulo 30873" width="0.713" height="0.157" transform="translate(340.078 420.19) rotate(90)" fill="#939598" style="mix-blend-mode: multiply;isolation: isolate"/>
      <rect id="Rectángulo_30874" data-name="Rectángulo 30874" width="0.713" height="0.157" transform="translate(340.078 424.862) rotate(90)" fill="#939598" style="mix-blend-mode: multiply;isolation: isolate"/>
      <g id="Grupo_55957" data-name="Grupo 55957" transform="translate(334.184 368.775)">
        <path id="Trazado_105570" data-name="Trazado 105570" d="M531.758,386.332l-.3.02v5.279l.3.02Z" transform="translate(-529.99 -386.136)" fill="#d1d3d4"/>
        <path id="Trazado_105571" data-name="Trazado 105571" d="M537.725,385.934l-.3.02v5.377l.3.02Z" transform="translate(-535.223 -385.787)" fill="#d1d3d4"/>
        <path id="Trazado_105572" data-name="Trazado 105572" d="M525.791,386.729l-.3.02v5.181l.3.02Z" transform="translate(-524.757 -386.485)" fill="#d1d3d4"/>
        <path id="Trazado_105573" data-name="Trazado 105573" d="M519.823,392.25v-5.123l-.3.02v5.083Z" transform="translate(-519.523 -386.833)" fill="#d1d3d4"/>
        <path id="Trazado_105574" data-name="Trazado 105574" d="M543.693,385.536l-.3.02v5.475l.3.02Z" transform="translate(-540.457 -385.438)" fill="#d1d3d4"/>
        <path id="Trazado_105575" data-name="Trazado 105575" d="M555.627,384.741l-.3.02v5.67l.3.02Z" transform="translate(-550.923 -384.741)" fill="#d1d3d4"/>
        <path id="Trazado_105576" data-name="Trazado 105576" d="M549.66,385.138l-.3.02v5.572l.3.02Z" transform="translate(-545.69 -385.09)" fill="#d1d3d4"/>
      </g>
    </g>
  </g>
</svg>
